<?xml version="1.0" encoding="utf-8"?>
<!-- Generator: Adobe Illustrator 16.0.0, SVG Export Plug-In . SVG Version: 6.00 Build 0)  -->
<!DOCTYPE svg PUBLIC "-//W3C//DTD SVG 1.1//EN" "http://www.w3.org/Graphics/SVG/1.1/DTD/svg11.dtd">
<svg version="1.1" id="Layer_1" xmlns="http://www.w3.org/2000/svg" xmlns:xlink="http://www.w3.org/1999/xlink" x="0px" y="0px"
	 width="500px" height="500px" viewBox="0 0 500 500" enable-background="new 0 0 500 500" xml:space="preserve">
<g>
	<linearGradient id="SVGID_2_" gradientUnits="userSpaceOnUse" x1="174.499" y1="139.9067" x2="206.6118" y2="141.853">
		<stop  offset="0.2132" style="stop-color:#FFFFFF"/>
		<stop  offset="0.2202" style="stop-color:#F8F8F8"/>
		<stop  offset="0.2727" style="stop-color:#C4C4C4"/>
		<stop  offset="0.3288" style="stop-color:#969696"/>
		<stop  offset="0.3874" style="stop-color:#6D6D6D"/>
		<stop  offset="0.4488" style="stop-color:#4B4B4B"/>
		<stop  offset="0.514" style="stop-color:#303030"/>
		<stop  offset="0.5842" style="stop-color:#1B1B1B"/>
		<stop  offset="0.662" style="stop-color:#0C0C0C"/>
		<stop  offset="0.7532" style="stop-color:#030303"/>
		<stop  offset="0.8909" style="stop-color:#000000"/>
	</linearGradient>
	<path fill-rule="evenodd" clip-rule="evenodd" fill="url(#SVGID_2_)" d="M198.072,158.666c7.408,0,13.465-7.781,13.465-17.331
		c0-9.551-6.057-17.331-13.465-17.331c-7.454,0-13.509,7.78-13.509,17.331C184.563,150.885,190.618,158.666,198.072,158.666
		L198.072,158.666z"/>
	<linearGradient id="SVGID_3_" gradientUnits="userSpaceOnUse" x1="187.2407" y1="143.2456" x2="187.2407" y2="115.3034">
		<stop  offset="0.06" style="stop-color:#0D0D0D"/>
		<stop  offset="0.09" style="stop-color:#999999"/>
		<stop  offset="0.11" style="stop-color:#C8C8C8"/>
		<stop  offset="0.15" style="stop-color:#9D9D9D"/>
		<stop  offset="0.19" style="stop-color:#777777"/>
		<stop  offset="0.24" style="stop-color:#575757"/>
		<stop  offset="0.3" style="stop-color:#3B3B3B"/>
		<stop  offset="0.36" style="stop-color:#252525"/>
		<stop  offset="0.43" style="stop-color:#141414"/>
		<stop  offset="0.52" style="stop-color:#090909"/>
		<stop  offset="0.65" style="stop-color:#020202"/>
		<stop  offset="1" style="stop-color:#000000"/>
	</linearGradient>
	<path fill-rule="evenodd" clip-rule="evenodd" fill="url(#SVGID_3_)" d="M189.873,158.666c-7.454,0-13.463-7.781-13.463-17.331
		c0-9.551,6.01-17.331,13.463-17.331h8.199c-7.454,0-13.509,7.78-13.509,17.331c0,9.55,6.055,17.331,13.509,17.331H189.873z"/>
</g>
<linearGradient id="SVGID_4_" gradientUnits="userSpaceOnUse" x1="288.6768" y1="146.3789" x2="270.6768" y2="239.8789">
	<stop  offset="0" style="stop-color:#FFFFFF"/>
	<stop  offset="0.0504" style="stop-color:#E2E2E2"/>
	<stop  offset="0.1534" style="stop-color:#AEAEAE"/>
	<stop  offset="0.2607" style="stop-color:#7F7F7F"/>
	<stop  offset="0.3702" style="stop-color:#585858"/>
	<stop  offset="0.4824" style="stop-color:#383838"/>
	<stop  offset="0.5982" style="stop-color:#1F1F1F"/>
	<stop  offset="0.719" style="stop-color:#0E0E0E"/>
	<stop  offset="0.8481" style="stop-color:#030303"/>
	<stop  offset="1" style="stop-color:#000000"/>
</linearGradient>
<path fill-rule="evenodd" clip-rule="evenodd" fill="url(#SVGID_4_)" d="M289.099,276.612l20.1-121.432c0,0,1.147-3.71-2.739-4.02
	c-3.932-0.353-35.25-2.959-35.25-2.959s-4.859-0.619-7.112,3.932c-2.296,4.505-22.395,106.103-22.395,106.103
	s-2.12,6.979,1.943,9.276c4.063,2.254,36.927,11.044,36.927,11.044S287.11,280.013,289.099,276.612L289.099,276.612z"/>
<linearGradient id="SVGID_5_" gradientUnits="userSpaceOnUse" x1="311.417" y1="158.1182" x2="291.417" y2="262.1182">
	<stop  offset="0" style="stop-color:#FFFFFF"/>
	<stop  offset="0.0504" style="stop-color:#E2E2E2"/>
	<stop  offset="0.1534" style="stop-color:#AEAEAE"/>
	<stop  offset="0.2607" style="stop-color:#7F7F7F"/>
	<stop  offset="0.3702" style="stop-color:#585858"/>
	<stop  offset="0.4824" style="stop-color:#383838"/>
	<stop  offset="0.5982" style="stop-color:#1F1F1F"/>
	<stop  offset="0.719" style="stop-color:#0E0E0E"/>
	<stop  offset="0.8481" style="stop-color:#030303"/>
	<stop  offset="1" style="stop-color:#000000"/>
</linearGradient>
<path fill-rule="evenodd" clip-rule="evenodd" fill="url(#SVGID_5_)" d="M295.947,270.825l18.198-109.637l0,0
	c0.573-8.084-3.667-9.586-5.39-9.851l-2.208-0.177c3.754,0.354,2.65,4.02,2.65,4.02l-20.1,121.432
	c-0.177,0.265-0.397,0.529-0.574,0.706C288.524,277.318,294.93,277.098,295.947,270.825L295.947,270.825z"/>
<path fill-rule="evenodd" clip-rule="evenodd" fill="#CCCCCC" d="M232.072,158.316c0,0-8.967,2.784-12.148,7.686
	c-3.136,4.903-5.477,8.438-6.051,9.719c-0.619,1.281-5.875,4.196-5.875,4.196s2.12-26.062,2.341-30.258
	c0.221-4.197-1.414-12.06-3.623-14.268c-2.209-2.208-8.172-3.137-10.734,5.036c-2.562,8.172,1.634,15.991,1.281,20.319
	c-0.354,4.329-8.658,36.487-8.304,41.612c0.353,5.168,5.124,7.73,11.087,7.73s17.891-7.245,21.424-9.851
	c3.49-2.562,12.147-6.98,12.147-6.98S246.208,154.783,232.072,158.316L232.072,158.316z"/>
<path fill-rule="evenodd" clip-rule="evenodd" fill="#EEEEEE" d="M223.59,241.803c4.904,2.076,14.09,5.3,25.091,5.918
	c14.268,0.795,28.845,0.222,34.013-0.264c6.626-29.242,11.307-51.417,15.681-81.896c0,0-33.218-5.257-42.451-6.229
	c-9.231-0.928-15.547-0.928-20.098-0.928c-4.549,0-7.95,24.207-8.083,30.17c-0.089,5.963,0,8.747,0,10.514
	c0,1.192-0.531,6.714-1.282,12.457v0.043c-0.22,1.988-0.53,4.021-0.795,5.875C224.828,223.825,223.635,234.029,223.59,241.803
	L223.59,241.803z"/>
<linearGradient id="SVGID_6_" gradientUnits="userSpaceOnUse" x1="148.541" y1="374.3887" x2="277.0391" y2="374.3887">
	<stop  offset="0" style="stop-color:#FFFFFF"/>
	<stop  offset="0.0504" style="stop-color:#E2E2E2"/>
	<stop  offset="0.1534" style="stop-color:#AEAEAE"/>
	<stop  offset="0.2607" style="stop-color:#7F7F7F"/>
	<stop  offset="0.3702" style="stop-color:#585858"/>
	<stop  offset="0.4824" style="stop-color:#383838"/>
	<stop  offset="0.5982" style="stop-color:#1F1F1F"/>
	<stop  offset="0.719" style="stop-color:#0E0E0E"/>
	<stop  offset="0.8481" style="stop-color:#030303"/>
	<stop  offset="1" style="stop-color:#000000"/>
</linearGradient>
<polygon fill-rule="evenodd" clip-rule="evenodd" fill="url(#SVGID_6_)" points="161.705,405.949 148.541,400.12 262.241,342.827 
	277.039,346.979 "/>
<linearGradient id="SVGID_7_" gradientUnits="userSpaceOnUse" x1="148.541" y1="409.043" x2="161.7046" y2="409.043">
	<stop  offset="0" style="stop-color:#FFFFFF"/>
	<stop  offset="0.0504" style="stop-color:#E2E2E2"/>
	<stop  offset="0.1534" style="stop-color:#AEAEAE"/>
	<stop  offset="0.2607" style="stop-color:#7F7F7F"/>
	<stop  offset="0.3702" style="stop-color:#585858"/>
	<stop  offset="0.4824" style="stop-color:#383838"/>
	<stop  offset="0.5982" style="stop-color:#1F1F1F"/>
	<stop  offset="0.719" style="stop-color:#0E0E0E"/>
	<stop  offset="0.8481" style="stop-color:#030303"/>
	<stop  offset="1" style="stop-color:#000000"/>
</linearGradient>
<polygon fill-rule="evenodd" clip-rule="evenodd" fill="url(#SVGID_7_)" points="161.705,405.949 148.541,400.12 148.541,411.516 
	161.705,417.965 "/>
<linearGradient id="SVGID_8_" gradientUnits="userSpaceOnUse" x1="161.7046" y1="382.4717" x2="277.2607" y2="382.4717">
	<stop  offset="0" style="stop-color:#FFFFFF"/>
	<stop  offset="0.0504" style="stop-color:#E2E2E2"/>
	<stop  offset="0.1534" style="stop-color:#AEAEAE"/>
	<stop  offset="0.2607" style="stop-color:#7F7F7F"/>
	<stop  offset="0.3702" style="stop-color:#585858"/>
	<stop  offset="0.4824" style="stop-color:#383838"/>
	<stop  offset="0.5982" style="stop-color:#1F1F1F"/>
	<stop  offset="0.719" style="stop-color:#0E0E0E"/>
	<stop  offset="0.8481" style="stop-color:#030303"/>
	<stop  offset="1" style="stop-color:#000000"/>
</linearGradient>
<polygon fill-rule="evenodd" clip-rule="evenodd" fill="url(#SVGID_8_)" points="161.705,405.949 161.705,417.965 277.261,356.299 
	277.039,346.979 "/>
<linearGradient id="SVGID_9_" gradientUnits="userSpaceOnUse" x1="219.5708" y1="338.6094" x2="230.9678" y2="338.6094">
	<stop  offset="0" style="stop-color:#FFFFFF"/>
	<stop  offset="0.0504" style="stop-color:#E2E2E2"/>
	<stop  offset="0.1534" style="stop-color:#AEAEAE"/>
	<stop  offset="0.2607" style="stop-color:#7F7F7F"/>
	<stop  offset="0.3702" style="stop-color:#585858"/>
	<stop  offset="0.4824" style="stop-color:#383838"/>
	<stop  offset="0.5982" style="stop-color:#1F1F1F"/>
	<stop  offset="0.719" style="stop-color:#0E0E0E"/>
	<stop  offset="0.8481" style="stop-color:#030303"/>
	<stop  offset="1" style="stop-color:#000000"/>
</linearGradient>
<polygon fill-rule="evenodd" clip-rule="evenodd" fill="url(#SVGID_9_)" points="230.968,310.314 219.571,307.578 219.571,366.282 
	230.217,369.641 "/>
<linearGradient id="SVGID_10_" gradientUnits="userSpaceOnUse" x1="230.2168" y1="338.7412" x2="240.4644" y2="338.7412">
	<stop  offset="0" style="stop-color:#FFFFFF"/>
	<stop  offset="0.0504" style="stop-color:#E2E2E2"/>
	<stop  offset="0.1534" style="stop-color:#AEAEAE"/>
	<stop  offset="0.2607" style="stop-color:#7F7F7F"/>
	<stop  offset="0.3702" style="stop-color:#585858"/>
	<stop  offset="0.4824" style="stop-color:#383838"/>
	<stop  offset="0.5982" style="stop-color:#1F1F1F"/>
	<stop  offset="0.719" style="stop-color:#0E0E0E"/>
	<stop  offset="0.8481" style="stop-color:#030303"/>
	<stop  offset="1" style="stop-color:#000000"/>
</linearGradient>
<polygon fill-rule="evenodd" clip-rule="evenodd" fill="url(#SVGID_10_)" points="230.968,310.314 230.217,369.641 239.139,364.825 
	240.464,307.842 "/>
<linearGradient id="SVGID_11_" gradientUnits="userSpaceOnUse" x1="282.6689" y1="341.1377" x2="278.6689" y2="360.4717">
	<stop  offset="0" style="stop-color:#FFFFFF"/>
	<stop  offset="0.0504" style="stop-color:#E2E2E2"/>
	<stop  offset="0.1534" style="stop-color:#AEAEAE"/>
	<stop  offset="0.2607" style="stop-color:#7F7F7F"/>
	<stop  offset="0.3702" style="stop-color:#585858"/>
	<stop  offset="0.4824" style="stop-color:#383838"/>
	<stop  offset="0.5982" style="stop-color:#1F1F1F"/>
	<stop  offset="0.719" style="stop-color:#0E0E0E"/>
	<stop  offset="0.8481" style="stop-color:#030303"/>
	<stop  offset="1" style="stop-color:#000000"/>
</linearGradient>
<polygon fill-rule="evenodd" clip-rule="evenodd" fill="url(#SVGID_11_)" points="239.847,335.009 239.582,346.272 321.257,367.74 
	321.257,355.902 "/>
<linearGradient id="SVGID_12_" gradientUnits="userSpaceOnUse" x1="286.9863" y1="333.3389" x2="277.6533" y2="354.0049">
	<stop  offset="0" style="stop-color:#FFFFFF"/>
	<stop  offset="0.0504" style="stop-color:#E2E2E2"/>
	<stop  offset="0.1534" style="stop-color:#AEAEAE"/>
	<stop  offset="0.2607" style="stop-color:#7F7F7F"/>
	<stop  offset="0.3702" style="stop-color:#585858"/>
	<stop  offset="0.4824" style="stop-color:#383838"/>
	<stop  offset="0.5982" style="stop-color:#1F1F1F"/>
	<stop  offset="0.719" style="stop-color:#0E0E0E"/>
	<stop  offset="0.8481" style="stop-color:#030303"/>
	<stop  offset="1" style="stop-color:#000000"/>
</linearGradient>
<polygon fill-rule="evenodd" clip-rule="evenodd" fill="url(#SVGID_12_)" points="239.847,335.009 239.979,328.604 328.236,350.823 
	321.257,355.902 "/>
<linearGradient id="SVGID_13_" gradientUnits="userSpaceOnUse" x1="321.2568" y1="359.2813" x2="328.2363" y2="359.2813">
	<stop  offset="0" style="stop-color:#FFFFFF"/>
	<stop  offset="0.0504" style="stop-color:#E2E2E2"/>
	<stop  offset="0.1534" style="stop-color:#AEAEAE"/>
	<stop  offset="0.2607" style="stop-color:#7F7F7F"/>
	<stop  offset="0.3702" style="stop-color:#585858"/>
	<stop  offset="0.4824" style="stop-color:#383838"/>
	<stop  offset="0.5982" style="stop-color:#1F1F1F"/>
	<stop  offset="0.719" style="stop-color:#0E0E0E"/>
	<stop  offset="0.8481" style="stop-color:#030303"/>
	<stop  offset="1" style="stop-color:#000000"/>
</linearGradient>
<polygon fill-rule="evenodd" clip-rule="evenodd" fill="url(#SVGID_13_)" points="321.257,355.902 321.257,367.74 328.236,362.793 
	328.236,350.823 "/>
<path fill-rule="evenodd" clip-rule="evenodd" fill="#3F3F41" d="M229.73,310.051c0.574-3.401,1.812-10.469,2.827-14.798
	c-3.223-0.618-13.648-3.182-13.648-3.182s-2.917,13.518-2.651,14.181c0.31,0.663,3.313,1.326,3.313,1.326L229.73,310.051z"/>
<path fill-rule="evenodd" clip-rule="evenodd" fill="#3F3F41" d="M232.557,295.253c-1.015,4.329-2.252,11.396-2.827,14.798
	l1.237,0.264l9.232-2.384c0.354-0.398,0.707-0.84,1.015-1.281c-1.723-5.036-2.826-9.057-2.561-11c0-0.221,0.044-0.396,0.044-0.573
	c-1.944,0.22-4.33,0.44-5.478,0.266C233.043,295.342,232.823,295.296,232.557,295.253L232.557,295.253z"/>
<path fill-rule="evenodd" clip-rule="evenodd" fill="#221F20" d="M212.768,288.053c0.31,2.208,6.141,4.019,6.141,4.019
	s10.425,2.563,13.648,3.182l0.663,0.089c1.148,0.175,3.534-0.046,5.478-0.266c0.662-5.301,0.838-11.926-0.53-14.886
	c-1.414-3.049-14.004-3.711-18.245-3.49c-0.795,0.045-2.782,0.662-5.477,1.679C213.519,282.663,212.636,287.035,212.768,288.053
	L212.768,288.053z"/>
<path fill-rule="evenodd" clip-rule="evenodd" fill="#EEEEEE" d="M273.839,154.208c12.923,0,23.436-12.191,23.436-27.166
	s-10.513-27.167-23.436-27.167s-23.435,12.192-23.435,27.167S260.916,154.208,273.839,154.208L273.839,154.208z"/>
<path fill-rule="evenodd" clip-rule="evenodd" fill="#221F20" d="M276.863,281.824c0,0,4.771,1.766,4.152,5.036
	c-0.575,3.268-2.828,11.705-5.92,12.722c-3.048,1.016-7.067,0-7.067,0l-6.581-3.092C261.447,296.49,265.774,279.261,276.863,281.824
	L276.863,281.824z"/>
<linearGradient id="SVGID_14_" gradientUnits="userSpaceOnUse" x1="258.3555" y1="325.8652" x2="274.5225" y2="325.8652">
	<stop  offset="0" style="stop-color:#FFFFFF"/>
	<stop  offset="0.0504" style="stop-color:#E2E2E2"/>
	<stop  offset="0.1534" style="stop-color:#AEAEAE"/>
	<stop  offset="0.2607" style="stop-color:#7F7F7F"/>
	<stop  offset="0.3702" style="stop-color:#585858"/>
	<stop  offset="0.4824" style="stop-color:#383838"/>
	<stop  offset="0.5982" style="stop-color:#1F1F1F"/>
	<stop  offset="0.719" style="stop-color:#0E0E0E"/>
	<stop  offset="0.8481" style="stop-color:#030303"/>
	<stop  offset="1" style="stop-color:#000000"/>
</linearGradient>
<path fill-rule="evenodd" clip-rule="evenodd" fill="url(#SVGID_14_)" d="M274.479,299.891l-8.261,47.884l-7.862,4.462l9.541-52.743
	l0.132,0.089c0,0,3.49,0.882,6.494,0.177C274.522,299.803,274.522,299.847,274.479,299.891L274.479,299.891z"/>
<linearGradient id="SVGID_15_" gradientUnits="userSpaceOnUse" x1="248.8579" y1="328.7363" x2="267.0566" y2="328.7363">
	<stop  offset="0" style="stop-color:#FFFFFF"/>
	<stop  offset="0.0504" style="stop-color:#E2E2E2"/>
	<stop  offset="0.1534" style="stop-color:#AEAEAE"/>
	<stop  offset="0.2607" style="stop-color:#7F7F7F"/>
	<stop  offset="0.3702" style="stop-color:#585858"/>
	<stop  offset="0.4824" style="stop-color:#383838"/>
	<stop  offset="0.5982" style="stop-color:#1F1F1F"/>
	<stop  offset="0.719" style="stop-color:#0E0E0E"/>
	<stop  offset="0.8481" style="stop-color:#030303"/>
	<stop  offset="1" style="stop-color:#000000"/>
</linearGradient>
<polygon fill-rule="evenodd" clip-rule="evenodd" fill="url(#SVGID_15_)" points="257.338,357.493 267.057,304.794 265.643,299.979 
	257.029,301.173 248.858,355.062 "/>
<path fill-rule="evenodd" clip-rule="evenodd" fill="#EEEEEE" d="M282.871,276.479c-0.399,0.573-0.796,1.104-1.237,1.635
	c-4.196,5.124-11.926,18.685-13.561,26.636c-1.635,7.95,6.803,13.561,8.217,27.83c1.369,14.222,1.369,52.829,0,58.175
	c-1.414,5.39-7.511,8.436-11.001,5.875c-3.533-2.607-4.195-10.558-4.195-15.903c0-5.387-6.096-28.313-9.851-43.73
	c-3.711-15.416-13.296-36-12.589-41.347c0.662-5.389,0.928-12.411-0.485-15.459c-1.414-3.049-14.004-3.711-18.245-3.49
	c-4.196,0.221-41.125,17.051-43.687,17.979c-2.562,0.971-3.048,2.605-2.562,5.609c0.442,3.048,3.711,12.634,3.004,28.315
	c-0.707,15.637,0.928,25.708-0.221,29.418c-1.148,3.755-8.658,5.61-11.22,2.828c-2.562-2.828-8.172-30.392-10.999-38.564
	c-2.783-8.172-7.687-29.948-8.172-35.072c-0.442-5.124,0.706-9.586,8.657-13.075c7.952-3.534,43.599-22.086,50.844-24.78
	c7.244-2.696,11.308-4.108,11.308-4.108s8.084,5.036,23.633,6.803c13.119,1.457,34.676,1.368,42.804,0.53
	C283.313,252.582,289.32,264.287,282.871,276.479L282.871,276.479z"/>
<linearGradient id="SVGID_16_" gradientUnits="userSpaceOnUse" x1="395.04" y1="-24.3945" x2="396.2523" y2="-29.8334" gradientTransform="matrix(-1.3928 -0.3475 -0.3343 1.3403 819.5615 320.6001)">
	<stop  offset="0" style="stop-color:#FFFFFF"/>
	<stop  offset="0.07" style="stop-color:#434341"/>
	<stop  offset="0.14" style="stop-color:#20201E"/>
	<stop  offset="0.22" style="stop-color:#1E1E1C"/>
	<stop  offset="0.24" style="stop-color:#2A2A28"/>
	<stop  offset="0.61" style="stop-color:#FFFFFF"/>
	<stop  offset="0.68" style="stop-color:#FCFCFC"/>
	<stop  offset="0.74" style="stop-color:#F3F3F3"/>
	<stop  offset="0.78" style="stop-color:#E4E4E4"/>
	<stop  offset="0.82" style="stop-color:#CFCFCF"/>
	<stop  offset="0.86" style="stop-color:#B3B3B3"/>
	<stop  offset="0.89" style="stop-color:#919191"/>
	<stop  offset="0.93" style="stop-color:#686868"/>
	<stop  offset="0.96" style="stop-color:#393939"/>
	<stop  offset="0.99" style="stop-color:#060606"/>
	<stop  offset="0.99" style="stop-color:#000000"/>
</linearGradient>
<path fill="url(#SVGID_16_)" d="M268.402,143.205l18.407,0.838c2.415,1.067,0.973,6.274-0.599,7.12l-18.421-0.6
	c-0.48-1.192-0.834-2.46-0.739-3.726C267.244,145.6,267.68,144.313,268.402,143.205z"/>
<g>
	<linearGradient id="SVGID_17_" gradientUnits="userSpaceOnUse" x1="197.2798" y1="139.8237" x2="229.3938" y2="141.77">
		<stop  offset="0.2132" style="stop-color:#FFFFFF"/>
		<stop  offset="0.2202" style="stop-color:#F8F8F8"/>
		<stop  offset="0.2727" style="stop-color:#C4C4C4"/>
		<stop  offset="0.3288" style="stop-color:#969696"/>
		<stop  offset="0.3874" style="stop-color:#6D6D6D"/>
		<stop  offset="0.4488" style="stop-color:#4B4B4B"/>
		<stop  offset="0.514" style="stop-color:#303030"/>
		<stop  offset="0.5842" style="stop-color:#1B1B1B"/>
		<stop  offset="0.662" style="stop-color:#0C0C0C"/>
		<stop  offset="0.7532" style="stop-color:#030303"/>
		<stop  offset="0.8909" style="stop-color:#000000"/>
	</linearGradient>
	<path fill-rule="evenodd" clip-rule="evenodd" fill="url(#SVGID_17_)" d="M220.854,158.583c7.408,0,13.465-7.781,13.465-17.331
		c0-9.551-6.057-17.331-13.465-17.331c-7.454,0-13.509,7.78-13.509,17.331C207.346,150.802,213.401,158.583,220.854,158.583
		L220.854,158.583z"/>
	<linearGradient id="SVGID_18_" gradientUnits="userSpaceOnUse" x1="210.0229" y1="143.1626" x2="210.0229" y2="115.2204">
		<stop  offset="0.06" style="stop-color:#0D0D0D"/>
		<stop  offset="0.09" style="stop-color:#999999"/>
		<stop  offset="0.11" style="stop-color:#C8C8C8"/>
		<stop  offset="0.15" style="stop-color:#9D9D9D"/>
		<stop  offset="0.19" style="stop-color:#777777"/>
		<stop  offset="0.24" style="stop-color:#575757"/>
		<stop  offset="0.3" style="stop-color:#3B3B3B"/>
		<stop  offset="0.36" style="stop-color:#252525"/>
		<stop  offset="0.43" style="stop-color:#141414"/>
		<stop  offset="0.52" style="stop-color:#090909"/>
		<stop  offset="0.65" style="stop-color:#020202"/>
		<stop  offset="1" style="stop-color:#000000"/>
	</linearGradient>
	<path fill-rule="evenodd" clip-rule="evenodd" fill="url(#SVGID_18_)" d="M212.655,158.583c-7.454,0-13.463-7.781-13.463-17.331
		c0-9.551,6.01-17.331,13.463-17.331h8.199c-7.454,0-13.509,7.78-13.509,17.331c0,9.55,6.055,17.331,13.509,17.331H212.655z"/>
</g>
<g>
	<linearGradient id="SVGID_19_" gradientUnits="userSpaceOnUse" x1="253.8271" y1="147.4097" x2="267.2715" y2="147.4097">
		<stop  offset="0.2132" style="stop-color:#FFFFFF"/>
		<stop  offset="0.2202" style="stop-color:#F8F8F8"/>
		<stop  offset="0.2727" style="stop-color:#C4C4C4"/>
		<stop  offset="0.3288" style="stop-color:#969696"/>
		<stop  offset="0.3874" style="stop-color:#6D6D6D"/>
		<stop  offset="0.4488" style="stop-color:#4B4B4B"/>
		<stop  offset="0.514" style="stop-color:#303030"/>
		<stop  offset="0.5842" style="stop-color:#1B1B1B"/>
		<stop  offset="0.662" style="stop-color:#0C0C0C"/>
		<stop  offset="0.7532" style="stop-color:#030303"/>
		<stop  offset="0.8909" style="stop-color:#000000"/>
	</linearGradient>
	<path fill-rule="evenodd" clip-rule="evenodd" fill="url(#SVGID_19_)" d="M264.657,128.188c3.687,0.096,6.414,8.811,6.127,19.437
		c-0.335,10.629-3.59,19.15-7.276,19.007c-3.687-0.096-6.414-8.809-6.127-19.39C257.715,136.613,260.971,128.092,264.657,128.188
		L264.657,128.188z"/>
	<linearGradient id="SVGID_20_" gradientUnits="userSpaceOnUse" x1="254.3262" y1="155.2954" x2="254.3262" y2="128.0408">
		<stop  offset="0.06" style="stop-color:#0D0D0D"/>
		<stop  offset="0.09" style="stop-color:#999999"/>
		<stop  offset="0.11" style="stop-color:#C8C8C8"/>
		<stop  offset="0.15" style="stop-color:#9D9D9D"/>
		<stop  offset="0.19" style="stop-color:#777777"/>
		<stop  offset="0.24" style="stop-color:#575757"/>
		<stop  offset="0.3" style="stop-color:#3B3B3B"/>
		<stop  offset="0.36" style="stop-color:#252525"/>
		<stop  offset="0.43" style="stop-color:#141414"/>
		<stop  offset="0.52" style="stop-color:#090909"/>
		<stop  offset="0.65" style="stop-color:#020202"/>
		<stop  offset="1" style="stop-color:#000000"/>
	</linearGradient>
	<path fill-rule="evenodd" clip-rule="evenodd" fill="url(#SVGID_20_)" d="M251.348,128.188c0.144,0,0.288,0.049,0.432,0.049
		l12.782-0.049l0,0c-3.639,0-6.847,8.474-7.181,19.054c-0.287,10.581,2.44,19.294,6.127,19.39h-13.309
		c-3.687-0.096-6.416-8.809-6.081-19.39c0.287-10.102,3.208-18.239,6.655-19.005l0,0l0,0
		C250.965,128.188,251.156,128.188,251.348,128.188L251.348,128.188z"/>
	<g>
		<linearGradient id="SVGID_21_" gradientUnits="userSpaceOnUse" x1="263.915" y1="147.4097" x2="266.3184" y2="147.4097">
			<stop  offset="0.2132" style="stop-color:#FFFFFF"/>
			<stop  offset="0.2202" style="stop-color:#F8F8F8"/>
			<stop  offset="0.2727" style="stop-color:#C4C4C4"/>
			<stop  offset="0.3288" style="stop-color:#969696"/>
			<stop  offset="0.3874" style="stop-color:#6D6D6D"/>
			<stop  offset="0.4488" style="stop-color:#4B4B4B"/>
			<stop  offset="0.514" style="stop-color:#303030"/>
			<stop  offset="0.5842" style="stop-color:#1B1B1B"/>
			<stop  offset="0.662" style="stop-color:#0C0C0C"/>
			<stop  offset="0.7532" style="stop-color:#030303"/>
			<stop  offset="0.8909" style="stop-color:#000000"/>
		</linearGradient>
		<path fill-rule="evenodd" clip-rule="evenodd" fill="url(#SVGID_21_)" d="M265.852,138.437c0.658,0.045,1.146,4.113,1.095,9.073
			c-0.06,4.961-0.642,8.939-1.301,8.872c-0.659-0.045-1.146-4.112-1.095-9.051C264.609,142.37,265.191,138.393,265.852,138.437
			L265.852,138.437z"/>
		<linearGradient id="SVGID_22_" gradientUnits="userSpaceOnUse" x1="264.0039" y1="151.0908" x2="264.0039" y2="138.3688">
			<stop  offset="0.06" style="stop-color:#0D0D0D"/>
			<stop  offset="0.09" style="stop-color:#999999"/>
			<stop  offset="0.11" style="stop-color:#C8C8C8"/>
			<stop  offset="0.15" style="stop-color:#9D9D9D"/>
			<stop  offset="0.19" style="stop-color:#777777"/>
			<stop  offset="0.24" style="stop-color:#575757"/>
			<stop  offset="0.3" style="stop-color:#3B3B3B"/>
			<stop  offset="0.36" style="stop-color:#252525"/>
			<stop  offset="0.43" style="stop-color:#141414"/>
			<stop  offset="0.52" style="stop-color:#090909"/>
			<stop  offset="0.65" style="stop-color:#020202"/>
			<stop  offset="1" style="stop-color:#000000"/>
		</linearGradient>
		<path fill-rule="evenodd" clip-rule="evenodd" fill="url(#SVGID_22_)" d="M263.471,138.437c0.026,0,0.053,0.023,0.078,0.023
			l2.285-0.023l0,0c-0.65,0-1.225,3.956-1.283,8.894c-0.052,4.939,0.436,9.006,1.095,9.051h-2.38
			c-0.658-0.045-1.146-4.112-1.087-9.051c0.052-4.715,0.573-8.514,1.19-8.871l0,0l0,0
			C263.402,138.437,263.438,138.437,263.471,138.437L263.471,138.437z"/>
	</g>
</g>
<path fill-rule="evenodd" clip-rule="evenodd" fill="#CCCCCC" d="M298.375,165.561c0,0,6.979,2.297,9.453,7.597
	c2.429,5.256,1.503,15.505-2.96,26.283c-4.417,10.734-20.318,21.6-25.708,22.661c-5.345,1.061-7.951-5.036-8.394-6.67
	c-0.485-1.634-7.243-28.27-7.817-41.346c-0.62-13.119-0.973-23.986,1.016-30.391c1.986-6.449,12.854-10.424,16.829-4.815
	c3.976,5.61-0.573,14.976-0.573,25.135c0,10.159,2.563,17.536,2.563,17.536S290.911,164.368,298.375,165.561L298.375,165.561z"/>
<linearGradient id="SVGID_23_" gradientUnits="userSpaceOnUse" x1="293.7412" y1="148.1724" x2="307.1855" y2="148.1724">
	<stop  offset="0.2132" style="stop-color:#FFFFFF"/>
	<stop  offset="0.2202" style="stop-color:#F8F8F8"/>
	<stop  offset="0.2727" style="stop-color:#C4C4C4"/>
	<stop  offset="0.3288" style="stop-color:#969696"/>
	<stop  offset="0.3874" style="stop-color:#6D6D6D"/>
	<stop  offset="0.4488" style="stop-color:#4B4B4B"/>
	<stop  offset="0.514" style="stop-color:#303030"/>
	<stop  offset="0.5842" style="stop-color:#1B1B1B"/>
	<stop  offset="0.662" style="stop-color:#0C0C0C"/>
	<stop  offset="0.7532" style="stop-color:#030303"/>
	<stop  offset="0.8909" style="stop-color:#000000"/>
</linearGradient>
<path fill-rule="evenodd" clip-rule="evenodd" fill="url(#SVGID_23_)" d="M304.571,128.95c3.687,0.096,6.414,8.811,6.127,19.437
	c-0.335,10.629-3.59,19.15-7.276,19.007c-3.687-0.096-6.414-8.809-6.127-19.39C297.629,137.376,300.885,128.854,304.571,128.95
	L304.571,128.95z"/>
<linearGradient id="SVGID_24_" gradientUnits="userSpaceOnUse" x1="294.2402" y1="156.0581" x2="294.2402" y2="128.8035">
	<stop  offset="0.06" style="stop-color:#0D0D0D"/>
	<stop  offset="0.09" style="stop-color:#999999"/>
	<stop  offset="0.11" style="stop-color:#C8C8C8"/>
	<stop  offset="0.15" style="stop-color:#9D9D9D"/>
	<stop  offset="0.19" style="stop-color:#777777"/>
	<stop  offset="0.24" style="stop-color:#575757"/>
	<stop  offset="0.3" style="stop-color:#3B3B3B"/>
	<stop  offset="0.36" style="stop-color:#252525"/>
	<stop  offset="0.43" style="stop-color:#141414"/>
	<stop  offset="0.52" style="stop-color:#090909"/>
	<stop  offset="0.65" style="stop-color:#020202"/>
	<stop  offset="1" style="stop-color:#000000"/>
</linearGradient>
<path fill-rule="evenodd" clip-rule="evenodd" fill="url(#SVGID_24_)" d="M291.262,128.95c0.144,0,0.288,0.049,0.432,0.049
	l12.782-0.049l0,0c-3.639,0-6.847,8.474-7.181,19.054c-0.287,10.581,2.44,19.294,6.127,19.39h-13.309
	c-3.687-0.096-6.416-8.809-6.081-19.39c0.287-10.102,3.208-18.239,6.655-19.005l0,0l0,0
	C290.879,128.95,291.07,128.95,291.262,128.95L291.262,128.95z"/>
<g>
	
		<linearGradient id="SVGID_25_" gradientUnits="userSpaceOnUse" x1="851.8428" y1="41.1328" x2="853.1188" y2="35.4079" gradientTransform="matrix(0.9109 -0.1787 0.1926 0.9812 -472.7314 262.7705)">
		<stop  offset="0" style="stop-color:#FFFFFF"/>
		<stop  offset="0.07" style="stop-color:#434341"/>
		<stop  offset="0.14" style="stop-color:#20201E"/>
		<stop  offset="0.22" style="stop-color:#1E1E1C"/>
		<stop  offset="0.24" style="stop-color:#2A2A28"/>
		<stop  offset="0.61" style="stop-color:#FFFFFF"/>
		<stop  offset="0.68" style="stop-color:#FCFCFC"/>
		<stop  offset="0.74" style="stop-color:#F3F3F3"/>
		<stop  offset="0.78" style="stop-color:#E4E4E4"/>
		<stop  offset="0.82" style="stop-color:#CFCFCF"/>
		<stop  offset="0.86" style="stop-color:#B3B3B3"/>
		<stop  offset="0.89" style="stop-color:#919191"/>
		<stop  offset="0.93" style="stop-color:#686868"/>
		<stop  offset="0.96" style="stop-color:#393939"/>
		<stop  offset="0.99" style="stop-color:#060606"/>
		<stop  offset="0.99" style="stop-color:#000000"/>
	</linearGradient>
	<path fill="url(#SVGID_25_)" d="M315.95,145.694l-9.149-0.125c-1.319,0.687-1.245,4.632-0.432,5.316l9.695,0.239
		c0.29-0.856,0.516-1.774,0.502-2.707C316.497,147.501,316.305,146.538,315.95,145.694z"/>
	
		<linearGradient id="SVGID_26_" gradientUnits="userSpaceOnUse" x1="855.8926" y1="39.7881" x2="860.6358" y2="41.9473" gradientTransform="matrix(0.9279 0.0266 -0.0286 0.9995 -478.4248 84.9814)">
		<stop  offset="0" style="stop-color:#FFFFFF"/>
		<stop  offset="5.085900e-004" style="stop-color:#FFFFFF"/>
		<stop  offset="0.0173" style="stop-color:#F8F8F8"/>
		<stop  offset="0.0641" style="stop-color:#F6F6F6"/>
		<stop  offset="0.096" style="stop-color:#C1C1C1"/>
		<stop  offset="0.1294" style="stop-color:#929292"/>
		<stop  offset="0.1613" style="stop-color:#6C6C6C"/>
		<stop  offset="0.1906" style="stop-color:#515151"/>
		<stop  offset="0.2166" style="stop-color:#414141"/>
		<stop  offset="0.2365" style="stop-color:#3B3B3B"/>
		<stop  offset="0.3157" style="stop-color:#252525"/>
		<stop  offset="0.4869" style="stop-color:#000000"/>
	</linearGradient>
	<path fill="url(#SVGID_26_)" d="M315.027,147.543c0.191-1.46,0.824-2.479,1.563-1.816c0.521,0.465,0.776,1.6,0.64,3.065
		c-0.191,1.462-0.89,2.193-1.289,2.168C315.313,151.074,314.832,149.082,315.027,147.543z"/>
</g>
<g>
	<polygon fill="none" points="219.6,142.704 219.604,142.72 219.677,142.856 219.677,142.856 	"/>
	<polygon fill="none" points="219.308,142.038 219.308,142.038 219.395,142.239 219.35,142.131 	"/>
	<g>
		<g>
			<g>
				<g>
					
						<radialGradient id="SVGID_27_" cx="743.3545" cy="-356.4966" r="5.5499" fx="742.5439" fy="-360.3498" gradientTransform="matrix(1.2369 -0.2167 -0.1443 -0.8243 -749.3018 8.8057)" gradientUnits="userSpaceOnUse">
						<stop  offset="0.2132" style="stop-color:#FFFFFF"/>
						<stop  offset="0.2202" style="stop-color:#F8F8F8"/>
						<stop  offset="0.2727" style="stop-color:#C4C4C4"/>
						<stop  offset="0.3288" style="stop-color:#969696"/>
						<stop  offset="0.3874" style="stop-color:#6D6D6D"/>
						<stop  offset="0.4488" style="stop-color:#4B4B4B"/>
						<stop  offset="0.514" style="stop-color:#303030"/>
						<stop  offset="0.5842" style="stop-color:#1B1B1B"/>
						<stop  offset="0.662" style="stop-color:#0C0C0C"/>
						<stop  offset="0.7532" style="stop-color:#030303"/>
						<stop  offset="0.8909" style="stop-color:#000000"/>
					</radialGradient>
					<path id="SVGID_1_" fill="url(#SVGID_27_)" d="M224.893,144.927l-0.095,0.017c-2.245,0.327-4.392-1.365-4.815-3.774
						c-0.421-2.411,1.045-4.603,3.29-4.929l0,0c2.22-0.323,4.392,1.364,4.815,3.775
						C228.527,142.389,227.083,144.577,224.893,144.927z"/>
				</g>
				<g>
					<g>
						<defs>
							<path id="SVGID_28_" d="M224.893,144.927l-0.095,0.017c-2.245,0.327-4.392-1.365-4.815-3.774
								c-0.421-2.411,1.045-4.603,3.29-4.929l0,0c2.22-0.323,4.392,1.364,4.815,3.775
								C228.527,142.389,227.083,144.577,224.893,144.927z"/>
						</defs>
						<clipPath id="SVGID_29_">
							<use xlink:href="#SVGID_28_"  overflow="visible"/>
						</clipPath>
					</g>
				</g>
			</g>
		</g>
	</g>
	
		<linearGradient id="SVGID_30_" gradientUnits="userSpaceOnUse" x1="743.4063" y1="834.4355" x2="743.9976" y2="843.5223" gradientTransform="matrix(1.2369 -0.2167 0.1585 0.9043 -830.5195 -454.6299)">
		<stop  offset="0" style="stop-color:#FFFFFF"/>
		<stop  offset="0.07" style="stop-color:#434341"/>
		<stop  offset="0.14" style="stop-color:#20201E"/>
		<stop  offset="0.22" style="stop-color:#1E1E1C"/>
		<stop  offset="0.24" style="stop-color:#2A2A28"/>
		<stop  offset="0.61" style="stop-color:#FFFFFF"/>
		<stop  offset="0.68" style="stop-color:#FCFCFC"/>
		<stop  offset="0.74" style="stop-color:#F3F3F3"/>
		<stop  offset="0.78" style="stop-color:#E4E4E4"/>
		<stop  offset="0.82" style="stop-color:#CFCFCF"/>
		<stop  offset="0.86" style="stop-color:#B3B3B3"/>
		<stop  offset="0.89" style="stop-color:#919191"/>
		<stop  offset="0.93" style="stop-color:#686868"/>
		<stop  offset="0.96" style="stop-color:#393939"/>
		<stop  offset="0.99" style="stop-color:#060606"/>
		<stop  offset="0.99" style="stop-color:#000000"/>
	</linearGradient>
	<path fill="url(#SVGID_30_)" d="M220.01,141.182c0.418,2.394,2.566,4.085,4.814,3.774l0.072-0.012l-0.237,0.075l-0.708,0.107
		l-0.245,0.026l-0.248,0.01l-0.253-0.006l-0.252-0.022l-0.232-0.042l-0.233-0.042l-0.235-0.06l-0.238-0.074l-0.215-0.08
		l-0.215-0.096l-0.221-0.111l-0.22-0.112l-0.198-0.132l-0.196-0.132l-0.179-0.153l-0.179-0.168l-0.18-0.168l-0.158-0.189
		l-0.159-0.189l-0.134-0.193l-0.105-0.181l-0.036-0.061l-0.075-0.137l0,0c-0.029-0.028-0.035-0.06-0.036-0.076l-0.081-0.17
		c-0.039-0.076-0.056-0.174-0.101-0.283c-0.055-0.173-0.129-0.311-0.153-0.44c-0.006-0.032-0.008-0.049-0.014-0.081
		c-0.005-0.032-0.013-0.081-0.023-0.13l0,0l-0.088-0.501l-0.017-0.247l-0.018-0.247l0.004-0.252l0.006-0.25l0.037-0.223l0.032-0.239
		l0.058-0.243l0.06-0.227l0.083-0.231l0.092-0.199l0.115-0.204l0.115-0.203l0.116-0.188l0.143-0.191l0.141-0.192l0.147-0.159
		l0.173-0.163l0.173-0.147l0.175-0.147l0.201-0.136l0.232-0.107l0.207-0.103l0.207-0.103l0.235-0.091l0.238-0.075l0.236-0.075
		l0.241-0.059l0.243-0.042l0.245-0.027l0.246-0.026l0.176,0.003l0,0C221.054,136.58,219.587,138.771,220.01,141.182z"/>
	<g>
		
			<linearGradient id="SVGID_31_" gradientUnits="userSpaceOnUse" x1="-186.8643" y1="-391.0742" x2="-176.3105" y2="-391.0742" gradientTransform="matrix(-0.1084 -0.8302 -1.1313 0.1756 -238.0566 58.5225)">
			<stop  offset="0" style="stop-color:#FFFFFF"/>
			<stop  offset="0.07" style="stop-color:#434341"/>
			<stop  offset="0.14" style="stop-color:#20201E"/>
			<stop  offset="0.22" style="stop-color:#1E1E1C"/>
			<stop  offset="0.24" style="stop-color:#2A2A28"/>
			<stop  offset="0.61" style="stop-color:#FFFFFF"/>
			<stop  offset="0.68" style="stop-color:#FCFCFC"/>
			<stop  offset="0.74" style="stop-color:#F3F3F3"/>
			<stop  offset="0.78" style="stop-color:#E4E4E4"/>
			<stop  offset="0.82" style="stop-color:#CFCFCF"/>
			<stop  offset="0.86" style="stop-color:#B3B3B3"/>
			<stop  offset="0.89" style="stop-color:#919191"/>
			<stop  offset="0.93" style="stop-color:#686868"/>
			<stop  offset="0.96" style="stop-color:#393939"/>
			<stop  offset="0.99" style="stop-color:#060606"/>
			<stop  offset="0.99" style="stop-color:#000000"/>
		</linearGradient>
		<path fill="url(#SVGID_31_)" d="M224.893,144.927l-0.095,0.017c-2.245,0.327-4.392-1.365-4.815-3.774
			c-0.421-2.411,1.045-4.603,3.29-4.929l0,0c2.22-0.323,4.392,1.364,4.815,3.775C228.527,142.389,227.083,144.577,224.893,144.927z"
			/>
	</g>
</g>
</svg>
