<?xml version="1.0" encoding="utf-8"?>
<!-- Generator: Adobe Illustrator 16.0.0, SVG Export Plug-In . SVG Version: 6.00 Build 0)  -->
<!DOCTYPE svg PUBLIC "-//W3C//DTD SVG 1.1//EN" "http://www.w3.org/Graphics/SVG/1.1/DTD/svg11.dtd">
<svg version="1.1" id="Layer_1" xmlns="http://www.w3.org/2000/svg" xmlns:xlink="http://www.w3.org/1999/xlink" x="0px" y="0px"
	 width="500px" height="500px" viewBox="0 0 500 500" enable-background="new 0 0 500 500" xml:space="preserve">
<linearGradient id="materiau_barre_arr_1_" gradientUnits="userSpaceOnUse" x1="287.4551" y1="3178.6865" x2="289.1005" y2="3187.1328" gradientTransform="matrix(0.9336 -0.3582 -0.3582 -0.9336 967.3354 3240.166)">
	<stop  offset="0" style="stop-color:#FFFFFF"/>
	<stop  offset="0.01" style="stop-color:#E2E2E2"/>
	<stop  offset="0.02" style="stop-color:#B9B9B9"/>
	<stop  offset="0.03" style="stop-color:#949493"/>
	<stop  offset="0.04" style="stop-color:#747473"/>
	<stop  offset="0.05" style="stop-color:#595957"/>
	<stop  offset="0.07" style="stop-color:#434341"/>
	<stop  offset="0.08" style="stop-color:#323230"/>
	<stop  offset="0.11" style="stop-color:#272725"/>
	<stop  offset="0.14" style="stop-color:#20201E"/>
	<stop  offset="0.22" style="stop-color:#1E1E1C"/>
	<stop  offset="0.24" style="stop-color:#2A2A28"/>
	<stop  offset="0.61" style="stop-color:#FFFFFF"/>
	<stop  offset="0.68" style="stop-color:#FCFCFC"/>
	<stop  offset="0.74" style="stop-color:#F3F3F3"/>
	<stop  offset="0.78" style="stop-color:#E4E4E4"/>
	<stop  offset="0.82" style="stop-color:#CFCFCF"/>
	<stop  offset="0.86" style="stop-color:#B3B3B3"/>
	<stop  offset="0.89" style="stop-color:#919191"/>
	<stop  offset="0.93" style="stop-color:#686868"/>
	<stop  offset="0.96" style="stop-color:#393939"/>
	<stop  offset="0.99" style="stop-color:#060606"/>
	<stop  offset="0.99" style="stop-color:#000000"/>
</linearGradient>
<path id="materiau_barre_arr_2_" fill="url(#materiau_barre_arr_1_)" d="M74.645,166.074c-1.51,1.165-2.054,2.553-1.734,3.896
	c0.405,1.316,1.269,2.551,2.518,3.246l43.821-8.783c0.579-1.299,0.749-2.641,0.512-4.016c-0.405-1.316-1.148-2.494-2.259-3.344"/>
<g id="poids_2_2_">
	
		<linearGradient id="SVGID_1_" gradientUnits="userSpaceOnUse" x1="201.3525" y1="328.8301" x2="223.1096" y2="415.5145" gradientTransform="matrix(0.9975 -0.0702 -0.0702 -0.9975 -76.0215 522.9268)">
		<stop  offset="0" style="stop-color:#000000"/>
		<stop  offset="0.1" style="stop-color:#9D9D9D"/>
		<stop  offset="0.16" style="stop-color:#C8C8C8"/>
		<stop  offset="0.22" style="stop-color:#FFFFFF"/>
		<stop  offset="0.26" style="stop-color:#C2C2C2"/>
		<stop  offset="0.31" style="stop-color:#3B3B3B"/>
		<stop  offset="0.4" style="stop-color:#252525"/>
		<stop  offset="0.52" style="stop-color:#090909"/>
		<stop  offset="0.65" style="stop-color:#020202"/>
		<stop  offset="0.96" style="stop-color:#000000"/>
	</linearGradient>
	<path fill="url(#SVGID_1_)" d="M88.597,160.898c-1.912-27.179,10.513-50.131,27.656-51.336l0.508-0.036l-1.807-0.257l-5.461,0.384
		l-1.769,0.255l-1.751,0.501l-1.74,0.635l-1.725,0.889l-1.588,1.008l-1.587,1.004l-1.583,1.129l-1.56,1.387l-1.435,1.376
		l-1.299,1.496l-1.277,1.747l-1.282,1.753l-1.147,1.864l-1.142,1.868l-1.002,2.112l-0.991,2.241l-0.99,2.239l-0.855,2.357
		l-0.73,2.351l-0.598,2.339l-0.583,2.59l-0.368,2.067l0,0c-0.365,2.068-0.592,4.259-0.569,6.423
		c-0.113,2.049-0.255,3.589-0.267,5.253l0.168,2.407l0,0l0.403,5.719l0.316,2.656l0.311,2.656l0.443,2.648l0.567,2.639l0.688,2.508
		l0.689,2.504l0.938,2.488l0.922,2.227l1.049,2.226l1.042,2.094l1.293,2.082l1.288,1.951l1.287,1.952l1.396,1.69l1.391,1.686
		l1.388,1.565l1.518,1.551l1.492,1.296l1.487,1.173l1.738,1.15l1.841,0.769l1.714,0.771l1.712,0.771l1.83,0.637l1.817,0.387
		l1.804,0.254h1.784l1.79,0.004l1.765-0.255l1.774-0.25l1.248-0.344l0,0C106.024,209.058,90.509,188.075,88.597,160.898z"/>
	
		<radialGradient id="SVGID_2_" cx="220.5986" cy="267.0947" r="70.8836" gradientTransform="matrix(0.9975 -0.0702 -0.0702 -0.9975 -76.0215 522.9268)" gradientUnits="userSpaceOnUse">
		<stop  offset="0" style="stop-color:#FFFFFF"/>
		<stop  offset="0.91" style="stop-color:#000000"/>
	</radialGradient>
	
		<linearGradient id="SVGID_3_" gradientUnits="userSpaceOnUse" x1="237.1318" y1="683.5918" x2="299.6717" y2="683.5918" gradientTransform="matrix(0.9975 -0.0702 -0.0702 -0.9975 -100.1064 859.4502)">
		<stop  offset="0.08" style="stop-color:#888888"/>
		<stop  offset="0.1" style="stop-color:#767676"/>
		<stop  offset="0.16" style="stop-color:#575757"/>
		<stop  offset="0.22" style="stop-color:#3B3B3B"/>
		<stop  offset="0.29" style="stop-color:#252525"/>
		<stop  offset="0.37" style="stop-color:#141414"/>
		<stop  offset="0.47" style="stop-color:#090909"/>
		<stop  offset="0.61" style="stop-color:#020202"/>
		<stop  offset="1" style="stop-color:#000000"/>
	</linearGradient>
	<path fill="url(#SVGID_2_)" stroke="url(#SVGID_3_)" stroke-width="0.25" stroke-miterlimit="10" d="M116.887,109.517l-0.635,0.044
		c-17.143,1.206-29.567,24.158-27.656,51.336c1.912,27.177,17.428,48.16,34.57,46.954l0,0c17.144-1.207,29.566-24.155,27.654-51.331
		C148.936,129.719,133.823,108.963,116.887,109.517z"/>
</g>
<path fill-rule="evenodd" clip-rule="evenodd" fill="#CCCCCC" d="M212.596,154.837c0,0-13.003,10.701-16.979,13.301
	c-3.939,2.639-7.393,3.752-7.393,3.752s0.63-13.784,1.895-19.023c1.263-5.239,2.824-8.21,3.379-11.034
	c0.595-2.825-5.87-7.766-11.815-0.855c-5.907,6.949-12.854,28.016-12.854,40.313s0.557,13.71,2.416,14.156
	c1.82,0.408,32.101-1.3,39.719-7.208C218.616,182.295,212.596,154.837,212.596,154.837L212.596,154.837z"/>
<path fill-rule="evenodd" clip-rule="evenodd" fill="#EEEEEE" d="M277.653,174.642c0,0-7.653,24.038-7.653,36.225
	c0,12.15,0.297,27.421,0.297,28.833c0,1.412-15.271,9.92-34.516,9.623c-19.21-0.26-26.603-2.86-26.603-2.86
	s1.151-20.621,0.295-30.504c-0.816-9.92-3.678-23.779-3.38-33.402c0.297-9.586,5.238-25.153,6.501-27.717
	c1.265-2.525,18.243-9.474,29.576-12.447c11.294-2.972,22.961-4.273,22.032-4.383C263.312,137.933,277.952,152.163,277.653,174.642
	L277.653,174.642z"/>
<path fill-rule="evenodd" clip-rule="evenodd" fill="#CCCCCC" d="M207.951,251.7c0,0,6.093,5.089,24.375,4.903
	c18.28-0.186,38.753-8.842,38.753-8.842s8.247,17.686,6.276,33.03c-1.968,15.346-3.343,12.373-3.937,29.873
	c-0.596,17.5-3.939,41.688-3.715,45.44c0.185,3.715,9.622,14.936,10.03,30.652c0.372,15.716-6.911,52.686-9.66,56.81
	s-8.248,4.94-9.438-6.095c-1.189-10.997-6.094-59.374-7.84-67.212c-1.782-7.878-5.721-12.596-7.766-18.206
	c-2.08-5.609-5.126-16.904-6.131-22.999c-0.965-6.094-1.375-9.027-1.375-9.027s-4.124,24.744-4.124,31.432
	c0,6.688,6.095,17.908,4.72,34.219c-1.375,16.313-7.245,43.063-9.029,49.155c-1.783,6.095-11.222,6.467-11.815-4.902
	c-0.558-11.407-3.121-51.72-6.465-63.721c-3.344-12.002-3.344-15.123-5.126-29.092C203.939,323.148,200.595,283.651,207.951,251.7
	L207.951,251.7z"/>
<path fill-rule="evenodd" clip-rule="evenodd" fill="#EEEEEE" d="M227.607,256.529c1.486,0.074,3.047,0.074,4.719,0.074
	c18.28-0.186,38.753-8.842,38.753-8.842s8.247,17.686,6.276,33.03c-1.968,15.346-3.343,12.373-3.937,29.873
	c-0.596,17.5-3.939,41.688-3.715,45.44c0.185,3.715,9.622,14.936,10.03,30.652c0.372,15.716-6.911,52.686-9.66,56.81
	s-8.248,4.94-9.438-6.095c-1.189-10.997-6.094-59.374-7.84-67.212c-1.782-7.878-5.721-12.596-7.766-18.206
	c-2.08-5.609-5.126-16.904-6.131-22.999c-0.965-6.094-1.375-9.027-1.375-9.027s-0.778-29.91-0.778-34.814
	C236.748,280.457,227.049,267.824,227.607,256.529L227.607,256.529z"/>
<path fill-rule="evenodd" clip-rule="evenodd" fill="#CCCCCC" d="M291.104,158.367c0,0-3.121,27.161-14.715,26.603
	c-11.59-0.558-15.009-20.063-14.452-31.396c0.594-11.294,2.862-26.863,2.714-28.831c-0.149-2.007,1.842-3.165,3.85-4.576
	c1.968-1.412,10.5-1.73,12.029,2.253c2.362,6.152,1.918,15.03,3.478,19.971C285.566,147.37,290.361,151.754,291.104,158.367
	L291.104,158.367z"/>
<path fill-rule="evenodd" clip-rule="evenodd" fill="#EEEEEE" d="M242.981,137.149c13.374,0,24.299-12.41,24.299-27.643
	s-10.925-27.643-24.299-27.643c-13.375,0-24.261,12.409-24.261,27.643S229.606,137.149,242.981,137.149L242.981,137.149z"/>
<g id="gd_barre_haltere_2_">
	
		<linearGradient id="materiaux_barre_mil_1_" gradientUnits="userSpaceOnUse" x1="411.5332" y1="3158.1934" x2="413.6877" y2="3170.4954" gradientTransform="matrix(0.9322 -0.362 -0.362 -0.9322 995.7656 3234.1025)">
		<stop  offset="0" style="stop-color:#FFFFFF"/>
		<stop  offset="0.01" style="stop-color:#E2E2E2"/>
		<stop  offset="0.02" style="stop-color:#B9B9B9"/>
		<stop  offset="0.03" style="stop-color:#949493"/>
		<stop  offset="0.05" style="stop-color:#747473"/>
		<stop  offset="0.07" style="stop-color:#595957"/>
		<stop  offset="0.09" style="stop-color:#434341"/>
		<stop  offset="0.11" style="stop-color:#323230"/>
		<stop  offset="0.14" style="stop-color:#272725"/>
		<stop  offset="0.18" style="stop-color:#20201E"/>
		<stop  offset="0.28" style="stop-color:#1E1E1C"/>
		<stop  offset="0.51" style="stop-color:#BDBDBC"/>
		<stop  offset="0.61" style="stop-color:#FFFFFF"/>
		<stop  offset="0.71" style="stop-color:#B0B0B0"/>
		<stop  offset="0.85" style="stop-color:#525252"/>
		<stop  offset="0.95" style="stop-color:#171717"/>
		<stop  offset="0.99" style="stop-color:#000000"/>
	</linearGradient>
	<path id="materiaux_barre_mil_2_" fill="url(#materiaux_barre_mil_1_)" d="M351.722,114.543c0.047,0.39-0.207,0.801-0.566,0.942
		l-44.913,9.493l-183.653,38.603c-0.393,0.047-0.855-0.081-1.262-0.332c-1.49-1.178-2.364-2.904-2.366-4.757
		c0.094-1.894,0.598-2.711,2.27-3.461l0.717-0.277l227.141-48.58c0.392-0.051,0.799,0.205,0.938,0.564L351.722,114.543z"/>
</g>
<path fill-rule="evenodd" clip-rule="evenodd" fill="#CCCCCC" d="M199.987,143.5c0,0-15.328,1.663-20.003,5.582s-2.49,8.589,0,6.568
	S213.757,156,199.987,143.5z"/>
<path fill-rule="evenodd" clip-rule="evenodd" fill="#CCCCCC" d="M289.379,121.667c0,0-15.328,1.663-20.002,5.582
	c-4.676,3.918-2.49,8.589,0,6.568C271.866,131.795,303.149,134.167,289.379,121.667z"/>
<g id="poids_2_1_">
	
		<linearGradient id="SVGID_4_" gradientUnits="userSpaceOnUse" x1="441.959" y1="351.9404" x2="466.5973" y2="450.1043" gradientTransform="matrix(0.996 -0.0898 -0.0898 -0.996 -67.9463 531.3535)">
		<stop  offset="0" style="stop-color:#000000"/>
		<stop  offset="0.1" style="stop-color:#9D9D9D"/>
		<stop  offset="0.16" style="stop-color:#C8C8C8"/>
		<stop  offset="0.22" style="stop-color:#FFFFFF"/>
		<stop  offset="0.26" style="stop-color:#C2C2C2"/>
		<stop  offset="0.31" style="stop-color:#3B3B3B"/>
		<stop  offset="0.4" style="stop-color:#252525"/>
		<stop  offset="0.52" style="stop-color:#090909"/>
		<stop  offset="0.65" style="stop-color:#020202"/>
		<stop  offset="0.96" style="stop-color:#000000"/>
	</linearGradient>
	<path fill="url(#SVGID_4_)" d="M325.292,118.946c-2.77-30.729,10.787-56.992,30.169-58.739l0.574-0.052l-2.051-0.251l-6.175,0.556
		l-1.997,0.329l-1.972,0.606l-1.955,0.758l-1.933,1.044l-1.776,1.177l-1.774,1.172l-1.768,1.314l-1.735,1.605l-1.594,1.59
		l-1.438,1.723l-1.407,2.005l-1.411,2.014l-1.259,2.135l-1.251,2.14l-1.088,2.414l-1.071,2.56l-1.071,2.557l-0.916,2.688
		l-0.773,2.678l-0.625,2.662l-0.604,2.946l-0.37,2.348l0,0c-0.366,2.35-0.575,4.835-0.501,7.285
		c-0.082,2.323-0.209,4.069-0.185,5.954l0.243,2.722l0,0l0.584,6.466l0.416,3.001l0.412,3l0.561,2.988l0.701,2.975l0.834,2.824
		l0.836,2.821l1.117,2.795l1.094,2.5l1.236,2.497l1.228,2.348l1.51,2.328l1.502,2.18l1.5,2.181l1.618,1.883l1.612,1.878l1.605,1.742
		l1.753,1.722l1.718,1.435l1.71,1.295l1.994,1.264l2.102,0.829l1.958,0.834l1.956,0.835l2.086,0.681l2.066,0.398l2.048,0.247
		l2.021-0.04l2.025-0.034l1.993-0.328l2.003-0.322l1.405-0.418l0,0C346.095,173.086,328.061,149.674,325.292,118.946z"/>
	
		<radialGradient id="SVGID_5_" cx="463.7549" cy="282.0264" r="80.2717" gradientTransform="matrix(0.996 -0.0898 -0.0898 -0.996 -67.9463 531.3535)" gradientUnits="userSpaceOnUse">
		<stop  offset="0" style="stop-color:#FFFFFF"/>
		<stop  offset="0.91" style="stop-color:#000000"/>
	</radialGradient>
	
		<linearGradient id="SVGID_6_" gradientUnits="userSpaceOnUse" x1="476.1855" y1="709.4473" x2="546.9725" y2="709.4473" gradientTransform="matrix(0.996 -0.0898 -0.0898 -0.996 -85.4131 868.2832)">
		<stop  offset="0.08" style="stop-color:#888888"/>
		<stop  offset="0.1" style="stop-color:#767676"/>
		<stop  offset="0.16" style="stop-color:#575757"/>
		<stop  offset="0.22" style="stop-color:#3B3B3B"/>
		<stop  offset="0.29" style="stop-color:#252525"/>
		<stop  offset="0.37" style="stop-color:#141414"/>
		<stop  offset="0.47" style="stop-color:#090909"/>
		<stop  offset="0.61" style="stop-color:#020202"/>
		<stop  offset="1" style="stop-color:#000000"/>
	</linearGradient>
	<path fill="url(#SVGID_5_)" stroke="url(#SVGID_6_)" stroke-width="0.25" stroke-miterlimit="10" d="M356.179,60.143l-0.718,0.064
		c-19.382,1.747-32.938,28.01-30.169,58.739c2.769,30.728,20.803,54.14,40.186,52.393l0,0c19.384-1.748,32.938-28.006,30.168-58.733
		C392.914,82.302,375.342,59.138,356.179,60.143z"/>
</g>
<g>
	
		<linearGradient id="barre_ext_1_" gradientUnits="userSpaceOnUse" x1="539.4473" y1="3147.8438" x2="541.4812" y2="3158.3408" gradientTransform="matrix(0.9172 -0.3985 -0.3985 -0.9172 1147.9878 3213.6719)">
		<stop  offset="0" style="stop-color:#FFFFFF"/>
		<stop  offset="0.01" style="stop-color:#E2E2E2"/>
		<stop  offset="0.02" style="stop-color:#B9B9B9"/>
		<stop  offset="0.03" style="stop-color:#949493"/>
		<stop  offset="0.04" style="stop-color:#747473"/>
		<stop  offset="0.05" style="stop-color:#595957"/>
		<stop  offset="0.07" style="stop-color:#434341"/>
		<stop  offset="0.08" style="stop-color:#323230"/>
		<stop  offset="0.11" style="stop-color:#272725"/>
		<stop  offset="0.14" style="stop-color:#20201E"/>
		<stop  offset="0.22" style="stop-color:#1E1E1C"/>
		<stop  offset="0.24" style="stop-color:#2A2A28"/>
		<stop  offset="0.61" style="stop-color:#FFFFFF"/>
		<stop  offset="0.68" style="stop-color:#FCFCFC"/>
		<stop  offset="0.74" style="stop-color:#F3F3F3"/>
		<stop  offset="0.78" style="stop-color:#E4E4E4"/>
		<stop  offset="0.82" style="stop-color:#CFCFCF"/>
		<stop  offset="0.86" style="stop-color:#B3B3B3"/>
		<stop  offset="0.89" style="stop-color:#919191"/>
		<stop  offset="0.93" style="stop-color:#686868"/>
		<stop  offset="0.96" style="stop-color:#393939"/>
		<stop  offset="0.99" style="stop-color:#060606"/>
		<stop  offset="0.99" style="stop-color:#000000"/>
	</linearGradient>
	<path id="barre_ext_2_" fill="url(#barre_ext_1_)" d="M359.969,107.711c-1.627,1.247-2.317,3.388-1.804,5.328
		c0.662,1.771,1.871,3.307,3.418,4.368l54.353-12.467c0.628-1.789,0.688-3.654,0.338-5.454c-0.571-1.806-1.688-3.382-3.138-4.477"/>
	
		<linearGradient id="arrondi_bout_de_barre_1_" gradientUnits="userSpaceOnUse" x1="565.374" y1="726.1348" x2="570.8054" y2="726.1348" gradientTransform="matrix(0.9172 -0.3985 -0.3985 -0.9172 182.8645 992.2715)">
		<stop  offset="0" style="stop-color:#F6F6F6"/>
		<stop  offset="0.02" style="stop-color:#FDFDFD"/>
		<stop  offset="0.06" style="stop-color:#FFFFFF"/>
		<stop  offset="0.13" style="stop-color:#C8C8C8"/>
		<stop  offset="0.18" style="stop-color:#9D9D9D"/>
		<stop  offset="0.21" style="stop-color:#777777"/>
		<stop  offset="0.24" style="stop-color:#575757"/>
		<stop  offset="0.3" style="stop-color:#3B3B3B"/>
		<stop  offset="0.36" style="stop-color:#252525"/>
		<stop  offset="0.43" style="stop-color:#141414"/>
		<stop  offset="0.52" style="stop-color:#090909"/>
		<stop  offset="0.65" style="stop-color:#020202"/>
		<stop  offset="1" style="stop-color:#000000"/>
	</linearGradient>
	
		<linearGradient id="arrondi_bout_de_barre_3_" gradientUnits="userSpaceOnUse" x1="533.6152" y1="-1272.7681" x2="538.7617" y2="-1272.7681" gradientTransform="matrix(1.0181 -0.4423 0.5459 1.2565 562.6172 1936.7295)">
		<stop  offset="0.06" style="stop-color:#FFFFFF"/>
		<stop  offset="0.07" style="stop-color:#F6F6F6"/>
		<stop  offset="0.11" style="stop-color:#C8C8C8"/>
		<stop  offset="0.15" style="stop-color:#9D9D9D"/>
		<stop  offset="0.19" style="stop-color:#777777"/>
		<stop  offset="0.24" style="stop-color:#575757"/>
		<stop  offset="0.3" style="stop-color:#3B3B3B"/>
		<stop  offset="0.36" style="stop-color:#252525"/>
		<stop  offset="0.43" style="stop-color:#141414"/>
		<stop  offset="0.52" style="stop-color:#090909"/>
		<stop  offset="0.65" style="stop-color:#020202"/>
		<stop  offset="1" style="stop-color:#000000"/>
	</linearGradient>
	
		<path id="arrondi_bout_de_barre_2_" fill="url(#arrondi_bout_de_barre_1_)" stroke="url(#arrondi_bout_de_barre_3_)" stroke-width="0.25" d="
		M412.067,100.774c0.915,2.853,2.606,4.496,3.96,4.126c1.354-0.372,2.059-2.737,1.186-5.497c-0.877-2.757-2.815-4.731-4.21-4.449
		C411.61,95.235,411.102,98.055,412.067,100.774z"/>
</g>
</svg>
