<?xml version="1.0" encoding="utf-8"?>
<!-- Generator: Adobe Illustrator 16.0.0, SVG Export Plug-In . SVG Version: 6.00 Build 0)  -->
<!DOCTYPE svg PUBLIC "-//W3C//DTD SVG 1.1//EN" "http://www.w3.org/Graphics/SVG/1.1/DTD/svg11.dtd">
<svg version="1.1" id="Layer_1" xmlns="http://www.w3.org/2000/svg" xmlns:xlink="http://www.w3.org/1999/xlink" x="0px" y="0px"
	 width="500px" height="500px" viewBox="0 0 500 500" enable-background="new 0 0 500 500" xml:space="preserve">
<g>
	<linearGradient id="SVGID_1_" gradientUnits="userSpaceOnUse" x1="211.5508" y1="338.5527" x2="210.5202" y2="295.2282">
		<stop  offset="0.06" style="stop-color:#0D0D0D"/>
		<stop  offset="0.09" style="stop-color:#999999"/>
		<stop  offset="0.11" style="stop-color:#C8C8C8"/>
		<stop  offset="0.15" style="stop-color:#9D9D9D"/>
		<stop  offset="0.19" style="stop-color:#777777"/>
		<stop  offset="0.24" style="stop-color:#575757"/>
		<stop  offset="0.3" style="stop-color:#3B3B3B"/>
		<stop  offset="0.36" style="stop-color:#252525"/>
		<stop  offset="0.43" style="stop-color:#141414"/>
		<stop  offset="0.52" style="stop-color:#090909"/>
		<stop  offset="0.65" style="stop-color:#020202"/>
		<stop  offset="1" style="stop-color:#000000"/>
	</linearGradient>
	<polygon fill-rule="evenodd" clip-rule="evenodd" fill="url(#SVGID_1_)" points="312.477,140.845 308.966,291.638 303.002,312.998 
		291.861,326.288 291.861,335.103 286.029,335.675 276.159,332.077 276.159,320.456 127.165,336.639 121.904,346.859 
		121.904,358.132 115.413,358.351 106.332,355.762 106.332,334.972 119.051,311.77 119.051,115.406 132.167,112.863 
		137.955,112.863 135.851,311.639 256.421,301.77 290.194,299.928 295.106,142.556 309.011,140.013 	"/>
	<linearGradient id="SVGID_2_" gradientUnits="userSpaceOnUse" x1="306.877" y1="296.0576" x2="310.7454" y2="249.6361">
		<stop  offset="0.06" style="stop-color:#0D0D0D"/>
		<stop  offset="0.09" style="stop-color:#999999"/>
		<stop  offset="0.11" style="stop-color:#C8C8C8"/>
		<stop  offset="0.15" style="stop-color:#9D9D9D"/>
		<stop  offset="0.19" style="stop-color:#777777"/>
		<stop  offset="0.24" style="stop-color:#575757"/>
		<stop  offset="0.3" style="stop-color:#3B3B3B"/>
		<stop  offset="0.36" style="stop-color:#252525"/>
		<stop  offset="0.43" style="stop-color:#141414"/>
		<stop  offset="0.52" style="stop-color:#090909"/>
		<stop  offset="0.65" style="stop-color:#020202"/>
		<stop  offset="1" style="stop-color:#000000"/>
	</linearGradient>
	<path fill-rule="evenodd" clip-rule="evenodd" fill="url(#SVGID_2_)" d="M210.414,280.321l156.537,17.983
		c0,0,12.061-0.57,20.044-1.271c8.025-0.702,16.491-1.623,16.491-1.623s1.842-0.22,2.104-3.028c0.221-2.761,2.632-11.006-2.807-13.2
		c-5.439-2.194-148.774-11.842-148.774-11.842S203.177,270.103,210.414,280.321L210.414,280.321z"/>
	<path fill-rule="evenodd" clip-rule="evenodd" fill="#DDDDDD" d="M219.404,226.504c-12.106,0.701-21.885,9.65-21.885,20
		c0,10.351,9.778,18.158,21.885,17.458c12.062-0.7,21.887-9.65,21.887-19.957C241.291,233.654,231.466,225.847,219.404,226.504
		L219.404,226.504z"/>
	<linearGradient id="SVGID_3_" gradientUnits="userSpaceOnUse" x1="310.5879" y1="181.6035" x2="323.4404" y2="181.6035">
		<stop  offset="0.06" style="stop-color:#0D0D0D"/>
		<stop  offset="0.09" style="stop-color:#999999"/>
		<stop  offset="0.11" style="stop-color:#C8C8C8"/>
		<stop  offset="0.15" style="stop-color:#9D9D9D"/>
		<stop  offset="0.19" style="stop-color:#777777"/>
		<stop  offset="0.24" style="stop-color:#575757"/>
		<stop  offset="0.3" style="stop-color:#3B3B3B"/>
		<stop  offset="0.36" style="stop-color:#252525"/>
		<stop  offset="0.43" style="stop-color:#141414"/>
		<stop  offset="0.52" style="stop-color:#090909"/>
		<stop  offset="0.65" style="stop-color:#020202"/>
		<stop  offset="1" style="stop-color:#000000"/>
	</linearGradient>
	<path fill-rule="evenodd" clip-rule="evenodd" fill="url(#SVGID_3_)" d="M315.15,220.935l0.354-21.142
		c0,0,6.842-8.859,7.104-10.351c0.22-1.49,0.22-5.921,0.22-5.921h-1.755c0,0-2.501,4.297-3.027,4.781
		c-0.524,0.438-1.358-0.613-1.358-0.613l-0.482-1.097l0.351-11.185c0,0,6.315-8.465,6.623-9.474
		c0.263-0.964,0.263-6.755,0.263-6.755l-1.885-0.088c0,0-1.187-0.175-1.448,0.747c-0.307,0.964-0.482,2.938-1.403,3.683
		s-2.325,0.57-2.456-0.746c-0.088-1.36,0-19.387,0-19.387s-0.044-1.052-0.481-1.448c-0.44-0.439-3.247-0.701-3.29-0.701
		l-1.889,80.659C311.905,222.119,313.396,221.811,315.15,220.935L315.15,220.935z"/>
	<linearGradient id="SVGID_4_" gradientUnits="userSpaceOnUse" x1="393.8955" y1="202.6665" x2="316.5298" y2="202.6665">
		<stop  offset="0.06" style="stop-color:#0D0D0D"/>
		<stop  offset="0.09" style="stop-color:#999999"/>
		<stop  offset="0.11" style="stop-color:#C8C8C8"/>
		<stop  offset="0.15" style="stop-color:#9D9D9D"/>
		<stop  offset="0.19" style="stop-color:#777777"/>
		<stop  offset="0.24" style="stop-color:#575757"/>
		<stop  offset="0.3" style="stop-color:#3B3B3B"/>
		<stop  offset="0.36" style="stop-color:#252525"/>
		<stop  offset="0.43" style="stop-color:#141414"/>
		<stop  offset="0.52" style="stop-color:#090909"/>
		<stop  offset="0.65" style="stop-color:#020202"/>
		<stop  offset="1" style="stop-color:#000000"/>
	</linearGradient>
	<path fill-rule="evenodd" clip-rule="evenodd" fill="url(#SVGID_4_)" d="M354.275,166.547c13.069,0,24.254,16.141,24.999,36.098
		c0.703,19.957-9.297,36.141-22.368,36.141c-13.114,0-24.299-16.184-25-36.141C331.16,182.688,341.16,166.547,354.275,166.547
		L354.275,166.547z"/>
	<linearGradient id="SVGID_5_" gradientUnits="userSpaceOnUse" x1="376.6855" y1="226.2671" x2="376.6855" y2="177.7751">
		<stop  offset="0.06" style="stop-color:#0D0D0D"/>
		<stop  offset="0.09" style="stop-color:#999999"/>
		<stop  offset="0.11" style="stop-color:#C8C8C8"/>
		<stop  offset="0.15" style="stop-color:#9D9D9D"/>
		<stop  offset="0.19" style="stop-color:#777777"/>
		<stop  offset="0.24" style="stop-color:#575757"/>
		<stop  offset="0.3" style="stop-color:#3B3B3B"/>
		<stop  offset="0.36" style="stop-color:#252525"/>
		<stop  offset="0.43" style="stop-color:#141414"/>
		<stop  offset="0.52" style="stop-color:#090909"/>
		<stop  offset="0.65" style="stop-color:#020202"/>
		<stop  offset="1" style="stop-color:#000000"/>
	</linearGradient>
	<path fill-rule="evenodd" clip-rule="evenodd" fill="url(#SVGID_5_)" d="M374.056,166.547c13.069,0,24.299,16.141,25.001,36.098
		c0.745,19.957-9.298,36.141-22.369,36.141h-19.475l0,0c12.939-0.263,22.765-16.361,22.062-36.141
		c-0.745-19.958-11.93-36.098-24.999-36.098H374.056z"/>
	<path fill-rule="evenodd" clip-rule="evenodd" fill="#BBBDBF" d="M326.511,228.171c0,0,32.983,5.789,48.072,8.333
		c15.087,2.589,63.597,2.589,71.229,3.509c7.676,0.922,17.896,5.791,17.633,16.714c-0.221,10.876-4.606,89.123-4.387,94.211
		c0.219,5.132-8.815,13.245-17.896,9.736c-9.034-3.464-8.114-8.815-8.114-15.088c0-6.228-1.096-53.904-1.096-60.396
		c0-6.492-4.649-6.71-4.649-6.71l-52.238-2.633c0-6.229,0.307-15.131-0.044-20.525c-0.351-5.396-3.949-12.983-11.358-16.711
		c-5.396-2.72-23.51-4.08-32.326-6.755L326.511,228.171z"/>
	<path fill-rule="evenodd" clip-rule="evenodd" fill="#8E8E8E" d="M342.914,231.022c0,0-4.209-19.211-5.613-22.545
		c-1.36-3.289-5.747-6.095-9.211-4.648c-3.466,1.49-4.166,4.474-3.728,8.332c0.482,3.818,2.676,16.097,2.676,16.097L342.914,231.022
		z"/>
	<path fill-rule="evenodd" clip-rule="evenodd" fill="#EEEEEE" d="M218.704,249.532c0,0,17.543-22.062,31.139-28.905
		c13.554-6.842,21.931-8.466,26.668-8.466c4.78,0,22.983,0.922,25.307,1.405c2.325,0.439,6.623,2.763,11.711,6.228
		c5.131,3.508,9.167,6.184,9.167,6.184s-18.115,1.273-26.097,10.307c-8.026,9.08-3.86,29.782-2.501,33.028
		c1.403,3.246-2.72-1.36-10.833-1.36c-8.157,0-50.614,12.193-60.001,3.729C213.835,263.217,213.396,252.559,218.704,249.532
		L218.704,249.532z"/>
	<linearGradient id="SVGID_6_" gradientUnits="userSpaceOnUse" x1="153.5483" y1="207.7329" x2="88.5631" y2="207.7329">
		<stop  offset="0.06" style="stop-color:#0D0D0D"/>
		<stop  offset="0.09" style="stop-color:#999999"/>
		<stop  offset="0.11" style="stop-color:#C8C8C8"/>
		<stop  offset="0.15" style="stop-color:#9D9D9D"/>
		<stop  offset="0.19" style="stop-color:#777777"/>
		<stop  offset="0.24" style="stop-color:#575757"/>
		<stop  offset="0.3" style="stop-color:#3B3B3B"/>
		<stop  offset="0.36" style="stop-color:#252525"/>
		<stop  offset="0.43" style="stop-color:#141414"/>
		<stop  offset="0.52" style="stop-color:#090909"/>
		<stop  offset="0.65" style="stop-color:#020202"/>
		<stop  offset="1" style="stop-color:#000000"/>
	</linearGradient>
	<path fill-rule="evenodd" clip-rule="evenodd" fill="url(#SVGID_6_)" d="M116.114,153.259c13.639,0,25.306,24.385,26.094,54.472
		c0.747,30.09-9.691,54.477-23.375,54.477c-13.642,0-25.309-24.386-26.099-54.477C91.99,177.644,102.429,153.259,116.114,153.259
		L116.114,153.259z"/>
	<linearGradient id="SVGID_7_" gradientUnits="userSpaceOnUse" x1="139.5098" y1="229.3613" x2="139.5098" y2="168.4931">
		<stop  offset="0.06" style="stop-color:#0D0D0D"/>
		<stop  offset="0.09" style="stop-color:#999999"/>
		<stop  offset="0.11" style="stop-color:#C8C8C8"/>
		<stop  offset="0.15" style="stop-color:#9D9D9D"/>
		<stop  offset="0.19" style="stop-color:#777777"/>
		<stop  offset="0.24" style="stop-color:#575757"/>
		<stop  offset="0.3" style="stop-color:#3B3B3B"/>
		<stop  offset="0.36" style="stop-color:#252525"/>
		<stop  offset="0.43" style="stop-color:#141414"/>
		<stop  offset="0.52" style="stop-color:#090909"/>
		<stop  offset="0.65" style="stop-color:#020202"/>
		<stop  offset="1" style="stop-color:#000000"/>
	</linearGradient>
	<path fill-rule="evenodd" clip-rule="evenodd" fill="url(#SVGID_7_)" d="M136.772,153.259c13.639,0,25.307,24.385,26.096,54.472
		c0.747,30.09-9.692,54.477-23.378,54.477h-20.306l0,0c13.465-0.394,23.771-24.606,23.024-54.477
		c-0.788-30.087-12.456-54.472-26.094-54.472H136.772z"/>
	<linearGradient id="SVGID_8_" gradientUnits="userSpaceOnUse" x1="77.5151" y1="219.5625" x2="77.5151" y2="193.2132">
		<stop  offset="0" style="stop-color:#FFFFFF"/>
		<stop  offset="0.07" style="stop-color:#434341"/>
		<stop  offset="0.14" style="stop-color:#20201E"/>
		<stop  offset="0.22" style="stop-color:#1E1E1C"/>
		<stop  offset="0.24" style="stop-color:#2A2A28"/>
		<stop  offset="0.61" style="stop-color:#FFFFFF"/>
		<stop  offset="0.68" style="stop-color:#FCFCFC"/>
		<stop  offset="0.74" style="stop-color:#F3F3F3"/>
		<stop  offset="0.78" style="stop-color:#E4E4E4"/>
		<stop  offset="0.82" style="stop-color:#CFCFCF"/>
		<stop  offset="0.86" style="stop-color:#B3B3B3"/>
		<stop  offset="0.89" style="stop-color:#919191"/>
		<stop  offset="0.93" style="stop-color:#686868"/>
		<stop  offset="0.96" style="stop-color:#393939"/>
		<stop  offset="0.99" style="stop-color:#060606"/>
		<stop  offset="0.99" style="stop-color:#000000"/>
	</linearGradient>
	<path fill-rule="evenodd" clip-rule="evenodd" fill="url(#SVGID_8_)" d="M116.025,214.048c2.763-0.92,3.728-9.036,0.044-10.746
		l-77.281,0.79c-2.895,0.789-3.071,10.701,0,12.105L116.025,214.048z"/>
	<linearGradient id="SVGID_9_" gradientUnits="userSpaceOnUse" x1="401.7559" y1="211.6963" x2="401.7559" y2="201.2445">
		<stop  offset="0" style="stop-color:#FFFFFF"/>
		<stop  offset="0.07" style="stop-color:#434341"/>
		<stop  offset="0.14" style="stop-color:#20201E"/>
		<stop  offset="0.22" style="stop-color:#1E1E1C"/>
		<stop  offset="0.24" style="stop-color:#2A2A28"/>
		<stop  offset="0.61" style="stop-color:#FFFFFF"/>
		<stop  offset="0.68" style="stop-color:#FCFCFC"/>
		<stop  offset="0.74" style="stop-color:#F3F3F3"/>
		<stop  offset="0.78" style="stop-color:#E4E4E4"/>
		<stop  offset="0.82" style="stop-color:#CFCFCF"/>
		<stop  offset="0.86" style="stop-color:#B3B3B3"/>
		<stop  offset="0.89" style="stop-color:#919191"/>
		<stop  offset="0.93" style="stop-color:#686868"/>
		<stop  offset="0.96" style="stop-color:#393939"/>
		<stop  offset="0.99" style="stop-color:#060606"/>
		<stop  offset="0.99" style="stop-color:#000000"/>
	</linearGradient>
	<path fill-rule="evenodd" clip-rule="evenodd" fill="url(#SVGID_9_)" d="M398.837,210.188l0.22-7.981l3.51-0.046
		c2.542,1.141,3.069,6.713,0,8.027H398.837z"/>
	<linearGradient id="SVGID_10_" gradientUnits="userSpaceOnUse" x1="306.2637" y1="300.0273" x2="302.3954" y2="327.1051">
		<stop  offset="0.06" style="stop-color:#0D0D0D"/>
		<stop  offset="0.09" style="stop-color:#999999"/>
		<stop  offset="0.11" style="stop-color:#C8C8C8"/>
		<stop  offset="0.15" style="stop-color:#9D9D9D"/>
		<stop  offset="0.19" style="stop-color:#777777"/>
		<stop  offset="0.24" style="stop-color:#575757"/>
		<stop  offset="0.3" style="stop-color:#3B3B3B"/>
		<stop  offset="0.36" style="stop-color:#252525"/>
		<stop  offset="0.43" style="stop-color:#141414"/>
		<stop  offset="0.52" style="stop-color:#090909"/>
		<stop  offset="0.65" style="stop-color:#020202"/>
		<stop  offset="1" style="stop-color:#000000"/>
	</linearGradient>
	<path fill-rule="evenodd" clip-rule="evenodd" fill="url(#SVGID_10_)" d="M383.836,297.295l8.027,79.914
		c0,0,0.702,3.861-1.492,5.352c-2.192,1.49-12.895,3.817-14.386-0.221c-1.536-4.078-10.089-59.429-10.089-59.429l-150.748-23.773
		c0,0-3.508-0.482-3.508-4.561c0-4.036,0.396-14.079,0.396-14.079l154.914,17.807C366.951,298.305,376.161,297.867,383.836,297.295
		L383.836,297.295z"/>
	<linearGradient id="SVGID_11_" gradientUnits="userSpaceOnUse" x1="219.7549" y1="301.7041" x2="223.835" y2="301.7041">
		<stop  offset="0.06" style="stop-color:#0D0D0D"/>
		<stop  offset="0.09" style="stop-color:#999999"/>
		<stop  offset="0.11" style="stop-color:#C8C8C8"/>
		<stop  offset="0.15" style="stop-color:#9D9D9D"/>
		<stop  offset="0.19" style="stop-color:#777777"/>
		<stop  offset="0.24" style="stop-color:#575757"/>
		<stop  offset="0.3" style="stop-color:#3B3B3B"/>
		<stop  offset="0.36" style="stop-color:#252525"/>
		<stop  offset="0.43" style="stop-color:#141414"/>
		<stop  offset="0.52" style="stop-color:#090909"/>
		<stop  offset="0.65" style="stop-color:#020202"/>
		<stop  offset="1" style="stop-color:#000000"/>
	</linearGradient>
	<rect x="219.755" y="290.278" fill-rule="evenodd" clip-rule="evenodd" fill="url(#SVGID_11_)" width="4.08" height="22.852"/>
	<linearGradient id="SVGID_12_" gradientUnits="userSpaceOnUse" x1="236.6846" y1="307.5381" x2="240.7646" y2="307.5381">
		<stop  offset="0.06" style="stop-color:#0D0D0D"/>
		<stop  offset="0.09" style="stop-color:#999999"/>
		<stop  offset="0.11" style="stop-color:#C8C8C8"/>
		<stop  offset="0.15" style="stop-color:#9D9D9D"/>
		<stop  offset="0.19" style="stop-color:#777777"/>
		<stop  offset="0.24" style="stop-color:#575757"/>
		<stop  offset="0.3" style="stop-color:#3B3B3B"/>
		<stop  offset="0.36" style="stop-color:#252525"/>
		<stop  offset="0.43" style="stop-color:#141414"/>
		<stop  offset="0.52" style="stop-color:#090909"/>
		<stop  offset="0.65" style="stop-color:#020202"/>
		<stop  offset="1" style="stop-color:#000000"/>
	</linearGradient>
	<polygon fill-rule="evenodd" clip-rule="evenodd" fill="url(#SVGID_12_)" points="240.765,303.173 240.765,312.56 236.685,312.56 
		236.685,302.517 	"/>
	<path fill-rule="evenodd" clip-rule="evenodd" fill="#EEEEEE" d="M326.511,228.171c0,0-18.771,2.895-24.605,9.034
		c-5.789,6.186-5.877,15.222-5.089,23.335c0.835,8.115,2.545,11.624,2.545,11.624s7.896,10.79,21.141,9.956
		c13.202-0.788,20.176,0.569,20.176,0.569c-1.228,15.484,16.185,91.143,24.825,100.748c4.212,4.649,15.088,4.869,19.956,0.923
		c4.912-3.949,4.912-8.115,3.729-15.09c-1.14-6.975-8.597-65.921-12.061-79.123c-3.466-13.247-1.624-27.634-2.106-34.825
		c-0.438-7.194-3.949-12.983-11.358-16.711C356.248,234.881,324.887,233.743,326.511,228.171L326.511,228.171z"/>
	<path fill-rule="evenodd" clip-rule="evenodd" fill="#8E8E8E" d="M206.729,281.155c0,0,15.263-3.201,19.518-6.096
		c4.298-2.896,5.482-7.195,5.921-12.195c0.483-4.999-4.868-9.867-8.333-10.306c-2.633-0.351-10.397,0.131-15.616,1.753
		c0.394,6.712,0.133,11.535,0.133,11.535C208.439,271.857,207.168,280.321,206.729,281.155L206.729,281.155z"/>
	<path fill-rule="evenodd" clip-rule="evenodd" fill="#BBBDBF" d="M208.352,266.285c0,0,0.438-8.334-0.833-18.377
		c-1.273-10-1.624-34.123-1.844-37.72c-0.217-3.64-2.104-6.667-6.841-7.017c-4.782-0.351-10.702,1.36-11.493,8.684
		c-0.832,7.323-0.832,58.51-0.35,61.887c0.481,3.378,3.115,8.114,9.65,8.203c6.49,0.131,9.604,0,10.087-0.79
		C207.168,280.365,208.439,272.164,208.352,266.285L208.352,266.285z"/>
	<linearGradient id="SVGID_13_" gradientUnits="userSpaceOnUse" x1="258.7773" y1="211.1489" x2="258.7773" y2="200.9512">
		<stop  offset="0" style="stop-color:#FFFFFF"/>
		<stop  offset="0.07" style="stop-color:#434341"/>
		<stop  offset="0.14" style="stop-color:#20201E"/>
		<stop  offset="0.22" style="stop-color:#1E1E1C"/>
		<stop  offset="0.24" style="stop-color:#2A2A28"/>
		<stop  offset="0.61" style="stop-color:#FFFFFF"/>
		<stop  offset="0.68" style="stop-color:#FCFCFC"/>
		<stop  offset="0.74" style="stop-color:#F3F3F3"/>
		<stop  offset="0.78" style="stop-color:#E4E4E4"/>
		<stop  offset="0.82" style="stop-color:#CFCFCF"/>
		<stop  offset="0.86" style="stop-color:#B3B3B3"/>
		<stop  offset="0.89" style="stop-color:#919191"/>
		<stop  offset="0.93" style="stop-color:#686868"/>
		<stop  offset="0.96" style="stop-color:#393939"/>
		<stop  offset="0.99" style="stop-color:#060606"/>
		<stop  offset="0.99" style="stop-color:#000000"/>
	</linearGradient>
	<path fill-rule="evenodd" clip-rule="evenodd" fill="url(#SVGID_13_)" d="M353.442,208.602c1.797-0.775,2.192-5.708-0.264-6.437
		l-190.53,1.232c0.087,1.506,0.176,3.014,0.219,4.563c0,0.87,0,1.737,0,2.649L353.442,208.602z"/>
</g>
</svg>
