<?xml version="1.0" encoding="utf-8"?>
<!-- Generator: Adobe Illustrator 16.0.0, SVG Export Plug-In . SVG Version: 6.00 Build 0)  -->
<!DOCTYPE svg PUBLIC "-//W3C//DTD SVG 1.1//EN" "http://www.w3.org/Graphics/SVG/1.1/DTD/svg11.dtd">
<svg version="1.1" id="Layer_1" xmlns="http://www.w3.org/2000/svg" xmlns:xlink="http://www.w3.org/1999/xlink" x="0px" y="0px"
	 width="500px" height="500px" viewBox="0 0 500 500" enable-background="new 0 0 500 500" xml:space="preserve">
<g>
	<linearGradient id="SVGID_1_" gradientUnits="userSpaceOnUse" x1="242.9219" y1="234.4565" x2="210.993" y2="234.4565">
		<stop  offset="0.06" style="stop-color:#0D0D0D"/>
		<stop  offset="0.09" style="stop-color:#999999"/>
		<stop  offset="0.11" style="stop-color:#C8C8C8"/>
		<stop  offset="0.15" style="stop-color:#9D9D9D"/>
		<stop  offset="0.19" style="stop-color:#777777"/>
		<stop  offset="0.24" style="stop-color:#575757"/>
		<stop  offset="0.3" style="stop-color:#3B3B3B"/>
		<stop  offset="0.36" style="stop-color:#252525"/>
		<stop  offset="0.43" style="stop-color:#141414"/>
		<stop  offset="0.52" style="stop-color:#090909"/>
		<stop  offset="0.65" style="stop-color:#020202"/>
		<stop  offset="1" style="stop-color:#000000"/>
	</linearGradient>
	<path fill-rule="evenodd" clip-rule="evenodd" fill="url(#SVGID_1_)" d="M226.377,212.427c8.01,0,13.962,9.851,13.314,21.975
		c-0.76,12.232-7.796,22.083-15.805,22.083c-8.011,0-13.963-9.851-13.315-22.083C211.326,222.278,218.366,212.427,226.377,212.427
		L226.377,212.427z"/>
	<linearGradient id="SVGID_2_" gradientUnits="userSpaceOnUse" x1="235.8159" y1="253.0498" x2="235.8159" y2="211.3816">
		<stop  offset="0.06" style="stop-color:#0D0D0D"/>
		<stop  offset="0.09" style="stop-color:#999999"/>
		<stop  offset="0.11" style="stop-color:#C8C8C8"/>
		<stop  offset="0.15" style="stop-color:#9D9D9D"/>
		<stop  offset="0.19" style="stop-color:#777777"/>
		<stop  offset="0.24" style="stop-color:#575757"/>
		<stop  offset="0.3" style="stop-color:#3B3B3B"/>
		<stop  offset="0.36" style="stop-color:#252525"/>
		<stop  offset="0.43" style="stop-color:#141414"/>
		<stop  offset="0.52" style="stop-color:#090909"/>
		<stop  offset="0.65" style="stop-color:#020202"/>
		<stop  offset="1" style="stop-color:#000000"/>
	</linearGradient>
	<path fill-rule="evenodd" clip-rule="evenodd" fill="url(#SVGID_2_)" d="M235.142,213.184c8.01,0,13.966,9.852,13.317,21.976
		c-0.756,12.126-7.793,21.974-15.805,21.974c-0.542,0-0.973,0-1.517-0.108l-8.011-0.648c0.328,0,0.544,0.108,0.761,0.108
		c8.009,0,15.044-9.851,15.805-22.083c0.648-11.259-4.55-20.675-11.691-21.759L235.142,213.184z"/>
	<path fill-rule="evenodd" clip-rule="evenodd" fill="#EEEEEE" d="M258.2,98.436c0,0-21.974-1.732-42.87,1.082
		c-20.997,2.924-36.37,22.083-30.958,38.43c5.412,16.346,7.471,35.508,21.434,50.122c14.074,14.613,27.498,16.021,30.962,16.886
		c3.464,0.867,10.935,16.022,21.215,18.622c10.286,2.597,27.173,9.741,48.065-0.868c20.892-10.608,21.217-42.327,21.217-42.327
		s-34.639-28.146-42.649-39.62C276.605,129.396,271.734,101.574,258.2,98.436L258.2,98.436z"/>
	<path fill-rule="evenodd" clip-rule="evenodd" fill="#CCCCCC" d="M209.595,191.643c0,0-5.303,28.903-6.497,33.992
		c-1.081,4.979,0.545,10.824,8.88,13.531c8.336,2.707,13.315-16.347,14.504-24.573c1.082-8.336,1.193-12.017,1.193-12.017
		S212.951,196.513,209.595,191.643L209.595,191.643z"/>
	<path fill-rule="evenodd" clip-rule="evenodd" fill="#EEEEEE" d="M327.266,180.383c0,0,35.616,16.563,23.6,50.339
		c-12.016,33.773-47.524,87.684-47.524,93.422c0,5.735,9.745,23.488,8.337,60.946c-1.407,37.563-0.867,54.45-8.877,59.646
		c-8.012,5.091-21.217,3.679-22.623-13.207c-1.41-16.886-18.946-109.661-19.811-117.995c-0.866-8.336,18.941-62.137,19.486-67.333
		c0.54-5.196-10.395-19.487-10.395-19.487S322.287,241.33,327.266,180.383L327.266,180.383z"/>
	<path fill-rule="evenodd" clip-rule="evenodd" fill="#CCCCCC" d="M248.675,217.84c0,0-22.41,71.662-24.897,85.953
		c-2.601,14.288,10.498,101.65,12.557,108.576c2.059,6.821,6.281,15.479,18.617,13.967c12.344-1.408,12.885-10.286,12.885-22.303
		c0-12.016-7.145-93.855-7.145-93.855l24.896-67.981l-16.13-15.481C269.459,226.716,254.952,225.635,248.675,217.84L248.675,217.84z
		"/>
	<path fill-rule="evenodd" clip-rule="evenodd" fill="#CCCCCC" d="M165.906,54.95c17.97-7.362,39.51,3.681,47.954,24.465
		c8.443,20.784,0.65,43.627-17.427,50.879c-18.076,7.362-39.514-3.573-47.957-24.465C140.031,85.044,147.825,62.201,165.906,54.95
		L165.906,54.95z"/>
	<linearGradient id="SVGID_3_" gradientUnits="userSpaceOnUse" x1="298.334" y1="229.7319" x2="250.0146" y2="229.7319">
		<stop  offset="0.06" style="stop-color:#0D0D0D"/>
		<stop  offset="0.09" style="stop-color:#999999"/>
		<stop  offset="0.11" style="stop-color:#C8C8C8"/>
		<stop  offset="0.15" style="stop-color:#9D9D9D"/>
		<stop  offset="0.19" style="stop-color:#777777"/>
		<stop  offset="0.24" style="stop-color:#575757"/>
		<stop  offset="0.3" style="stop-color:#3B3B3B"/>
		<stop  offset="0.36" style="stop-color:#252525"/>
		<stop  offset="0.43" style="stop-color:#141414"/>
		<stop  offset="0.52" style="stop-color:#090909"/>
		<stop  offset="0.65" style="stop-color:#020202"/>
		<stop  offset="1" style="stop-color:#000000"/>
	</linearGradient>
	<path fill-rule="evenodd" clip-rule="evenodd" fill="url(#SVGID_3_)" d="M279.786,204.888c6.494,0,9.525,11.151,6.816,24.792
		c-2.812,13.745-10.173,24.896-16.669,24.896c-6.386,0-9.417-11.151-6.71-24.896C265.928,216.039,273.398,204.888,279.786,204.888
		L279.786,204.888z"/>
	<linearGradient id="SVGID_4_" gradientUnits="userSpaceOnUse" x1="285.9287" y1="239.1479" x2="292.554" y2="197.5891">
		<stop  offset="0.06" style="stop-color:#0D0D0D"/>
		<stop  offset="0.09" style="stop-color:#999999"/>
		<stop  offset="0.11" style="stop-color:#C8C8C8"/>
		<stop  offset="0.15" style="stop-color:#9D9D9D"/>
		<stop  offset="0.19" style="stop-color:#777777"/>
		<stop  offset="0.24" style="stop-color:#575757"/>
		<stop  offset="0.3" style="stop-color:#3B3B3B"/>
		<stop  offset="0.36" style="stop-color:#252525"/>
		<stop  offset="0.43" style="stop-color:#141414"/>
		<stop  offset="0.52" style="stop-color:#090909"/>
		<stop  offset="0.65" style="stop-color:#020202"/>
		<stop  offset="1" style="stop-color:#000000"/>
	</linearGradient>
	<path fill-rule="evenodd" clip-rule="evenodd" fill="url(#SVGID_4_)" d="M293.857,207.161c6.497,0,9.42,11.151,6.713,24.792
		c-2.708,13.747-10.178,24.899-16.563,24.899c-0.325,0-0.648,0-0.865-0.113l-13.209-2.162c6.496,0,13.857-11.151,16.669-24.896
		c2.601-12.993-0.108-23.709-5.843-24.792L293.857,207.161z"/>
	<linearGradient id="SVGID_5_" gradientUnits="userSpaceOnUse" x1="352.543" y1="243.5332" x2="314.9608" y2="243.5332">
		<stop  offset="0.06" style="stop-color:#0D0D0D"/>
		<stop  offset="0.09" style="stop-color:#999999"/>
		<stop  offset="0.11" style="stop-color:#C8C8C8"/>
		<stop  offset="0.15" style="stop-color:#9D9D9D"/>
		<stop  offset="0.19" style="stop-color:#777777"/>
		<stop  offset="0.24" style="stop-color:#575757"/>
		<stop  offset="0.3" style="stop-color:#3B3B3B"/>
		<stop  offset="0.36" style="stop-color:#252525"/>
		<stop  offset="0.43" style="stop-color:#141414"/>
		<stop  offset="0.52" style="stop-color:#090909"/>
		<stop  offset="0.65" style="stop-color:#020202"/>
		<stop  offset="1" style="stop-color:#000000"/>
	</linearGradient>
	<path fill-rule="evenodd" clip-rule="evenodd" fill="url(#SVGID_5_)" d="M333.154,218.852c6.498,0.216,9.526,11.368,6.712,25.006
		c-2.706,13.641-10.068,24.573-16.565,24.356c-6.384-0.216-9.417-11.362-6.709-25.004
		C319.296,229.572,326.766,218.636,333.154,218.852L333.154,218.852z"/>
	<linearGradient id="SVGID_6_" gradientUnits="userSpaceOnUse" x1="339.2334" y1="253.8428" x2="348.2679" y2="199.6358">
		<stop  offset="0.06" style="stop-color:#0D0D0D"/>
		<stop  offset="0.09" style="stop-color:#999999"/>
		<stop  offset="0.11" style="stop-color:#C8C8C8"/>
		<stop  offset="0.15" style="stop-color:#9D9D9D"/>
		<stop  offset="0.19" style="stop-color:#777777"/>
		<stop  offset="0.24" style="stop-color:#575757"/>
		<stop  offset="0.3" style="stop-color:#3B3B3B"/>
		<stop  offset="0.36" style="stop-color:#252525"/>
		<stop  offset="0.43" style="stop-color:#141414"/>
		<stop  offset="0.52" style="stop-color:#090909"/>
		<stop  offset="0.65" style="stop-color:#020202"/>
		<stop  offset="1" style="stop-color:#000000"/>
	</linearGradient>
	<path fill-rule="evenodd" clip-rule="evenodd" fill="url(#SVGID_6_)" d="M347.225,221.56c6.39,0.216,9.422,11.474,6.715,25.115
		c-2.708,13.531-10.175,24.463-16.563,24.247c-0.325,0-0.65,0-0.867-0.108l-13.209-2.599c6.497,0.217,13.859-10.715,16.565-24.356
		c2.598-12.99,0-23.706-5.738-24.897L347.225,221.56z"/>
	<linearGradient id="SVGID_7_" gradientUnits="userSpaceOnUse" x1="211.6006" y1="228.5552" x2="167.6278" y2="228.5552">
		<stop  offset="0.06" style="stop-color:#0D0D0D"/>
		<stop  offset="0.09" style="stop-color:#999999"/>
		<stop  offset="0.11" style="stop-color:#C8C8C8"/>
		<stop  offset="0.15" style="stop-color:#9D9D9D"/>
		<stop  offset="0.19" style="stop-color:#777777"/>
		<stop  offset="0.24" style="stop-color:#575757"/>
		<stop  offset="0.3" style="stop-color:#3B3B3B"/>
		<stop  offset="0.36" style="stop-color:#252525"/>
		<stop  offset="0.43" style="stop-color:#141414"/>
		<stop  offset="0.52" style="stop-color:#090909"/>
		<stop  offset="0.65" style="stop-color:#020202"/>
		<stop  offset="1" style="stop-color:#000000"/>
	</linearGradient>
	<path fill-rule="evenodd" clip-rule="evenodd" fill="url(#SVGID_7_)" d="M187.621,206.581c8.443,0,14.724,9.852,13.962,21.976
		c-0.757,12.125-8.227,21.974-16.67,21.974s-14.724-9.849-13.963-21.974C171.707,216.432,179.177,206.581,187.621,206.581
		L187.621,206.581z"/>
	<linearGradient id="SVGID_8_" gradientUnits="userSpaceOnUse" x1="197.5024" y1="246.4238" x2="197.5024" y2="203.0526">
		<stop  offset="0.06" style="stop-color:#0D0D0D"/>
		<stop  offset="0.09" style="stop-color:#999999"/>
		<stop  offset="0.11" style="stop-color:#C8C8C8"/>
		<stop  offset="0.15" style="stop-color:#9D9D9D"/>
		<stop  offset="0.19" style="stop-color:#777777"/>
		<stop  offset="0.24" style="stop-color:#575757"/>
		<stop  offset="0.3" style="stop-color:#3B3B3B"/>
		<stop  offset="0.36" style="stop-color:#252525"/>
		<stop  offset="0.43" style="stop-color:#141414"/>
		<stop  offset="0.52" style="stop-color:#090909"/>
		<stop  offset="0.65" style="stop-color:#020202"/>
		<stop  offset="1" style="stop-color:#000000"/>
	</linearGradient>
	<path fill-rule="evenodd" clip-rule="evenodd" fill="url(#SVGID_8_)" d="M196.821,207.34c8.443,0,14.72,9.85,13.967,21.973
		c-0.65,12.125-8.124,21.977-16.671,21.977c-0.432,0-0.976,0-1.518-0.107l-8.443-0.653c0.324,0,0.541,0,0.757,0
		c8.443,0,15.913-9.849,16.67-21.974c0.65-11.367-4.762-20.676-12.34-21.868L196.821,207.34z"/>
	<linearGradient id="SVGID_9_" gradientUnits="userSpaceOnUse" x1="218.0513" y1="239.3159" x2="218.7735" y2="226.4919">
		<stop  offset="0" style="stop-color:#FFFFFF"/>
		<stop  offset="0.07" style="stop-color:#434341"/>
		<stop  offset="0.14" style="stop-color:#20201E"/>
		<stop  offset="0.22" style="stop-color:#1E1E1C"/>
		<stop  offset="0.24" style="stop-color:#2A2A28"/>
		<stop  offset="0.61" style="stop-color:#FFFFFF"/>
		<stop  offset="0.68" style="stop-color:#FCFCFC"/>
		<stop  offset="0.74" style="stop-color:#F3F3F3"/>
		<stop  offset="0.78" style="stop-color:#E4E4E4"/>
		<stop  offset="0.82" style="stop-color:#CFCFCF"/>
		<stop  offset="0.86" style="stop-color:#B3B3B3"/>
		<stop  offset="0.89" style="stop-color:#919191"/>
		<stop  offset="0.93" style="stop-color:#686868"/>
		<stop  offset="0.96" style="stop-color:#393939"/>
		<stop  offset="0.99" style="stop-color:#060606"/>
		<stop  offset="0.99" style="stop-color:#000000"/>
	</linearGradient>
	<path fill-rule="evenodd" clip-rule="evenodd" fill="url(#SVGID_9_)" d="M224.859,238.3c2.704-1.301,3.032-7.47,0.54-9.203
		l-14.507-1.406l0,0c0,0.542,0,1.082-0.104,1.622c-0.111,2.491-0.544,4.98-1.302,7.253l0,0L224.859,238.3z"/>
	<path fill-rule="evenodd" clip-rule="evenodd" fill="#CCCCCC" d="M258.2,98.436c0,0,18.08,3.682,38.973,11.149
		c20.892,7.47,45.25,23.168,51.313,27.498c5.951,4.33,5.734,10.068,4.329,12.341c-1.518,2.273-14.939,61.812-21.22,79.024
		c-6.277,17.213-10.932,23.491-18.401,24.357c-7.361,0.865-19.162-5.736-16.021-19.81c3.14-13.965,19.27-74.479,19.27-74.479
		s-37.891-6.819-46.983-8.011c-9.2-1.082-22.626-8.011-25.546-24.357C241.097,109.91,248.892,98.002,258.2,98.436L258.2,98.436z"/>
</g>
</svg>
