<?xml version="1.0" encoding="utf-8"?>
<!-- Generator: Adobe Illustrator 16.0.0, SVG Export Plug-In . SVG Version: 6.00 Build 0)  -->
<!DOCTYPE svg PUBLIC "-//W3C//DTD SVG 1.1//EN" "http://www.w3.org/Graphics/SVG/1.1/DTD/svg11.dtd">
<svg version="1.1" id="Layer_1" xmlns="http://www.w3.org/2000/svg" xmlns:xlink="http://www.w3.org/1999/xlink" x="0px" y="0px"
	 width="500px" height="500px" viewBox="0 0 500 500" enable-background="new 0 0 500 500" xml:space="preserve">
<linearGradient id="SVGID_1_" gradientUnits="userSpaceOnUse" x1="284.3594" y1="418.1504" x2="201.1191" y2="431.5586">
	<stop  offset="0" style="stop-color:#FFFFFF"/>
	<stop  offset="0.91" style="stop-color:#000000"/>
</linearGradient>
<polygon fill-rule="evenodd" clip-rule="evenodd" fill="url(#SVGID_1_)" points="143.76,432.532 145.363,427.805 218.622,415.472 
	268.49,423.118 262.116,431.465 217.718,442.153 190.338,443.427 "/>
<rect x="197.122" y="129.67" fill="#221F20" width="1.357" height="121.441"/>
<path fill-rule="evenodd" clip-rule="evenodd" fill="#EEEEEE" d="M306.765,191.953c9.249,0,16.771-8.961,16.771-19.938
	c0-11.018-7.522-19.98-16.771-19.98c-9.209,0-16.732,8.962-16.732,19.98C290.032,182.992,297.556,191.953,306.765,191.953
	L306.765,191.953z"/>
<path fill-rule="evenodd" clip-rule="evenodd" fill="#CCCCCC" d="M330.197,236.723c0,0,2.343,29.804,3.781,34.245
	c1.397,4.481,3.371,14.924,1.192,17.185c-2.178,2.303-5.878-3.371-7.853-8.92C325.388,273.682,324.605,241.492,330.197,236.723
	L330.197,236.723z"/>
<path fill-rule="evenodd" clip-rule="evenodd" fill="#EEEEEE" d="M332.129,197.215c0.782,8.058,1.809,30.34-1.645,36.548
	c0,0-2.508,23.843-2.178,30.709c0.328,6.823,0.205,9.332,0.205,9.332s-6.414,3.822-17.925,2.508
	c-11.553-1.315-19.281-5.55-20.678-6.002c-1.398-0.412-1.646-0.535-1.646-0.535s-0.985-2.672-0.821-9.537
	c0.083-3.412,1.48-10.03,1.398-13.607c-0.124-5.139-2.878-9.126-4.481-14.512c-1.768-5.92-2.467-13.155-3.493-15.54
	c-1.893-4.522-1.275-8.798-1.275-8.798L332.129,197.215z"/>
<path fill-rule="evenodd" clip-rule="evenodd" fill="#CCCCCC" d="M330.279,276.519c0,0,2.632,18.541,3.289,46.414
	c0.656,27.831-0.864,36.096-0.864,36.096s0.454,5.877-0.657,9.577c-1.069,3.7-6.29,44.811-6.741,54.185
	c-0.413,9.332-1.028,12.333-7.564,7.522c-6.537-4.769-4.358-30.011-6.085-43.7c-1.726-13.729,1.521-24.79,1.521-24.79
	c-0.412-14.388-7.482-36.876-8.142-40.165c-0.657-3.247-0.328-42.755-0.328-42.755S316.425,281.739,330.279,276.519L330.279,276.519
	z"/>
<path fill-rule="evenodd" clip-rule="evenodd" fill="#CCCCCC" d="M285.346,195.941c0,0,18.91-1.315,22.527-1.85
	c3.578-0.575,29.561-5.345,37.082-6.084c7.482-0.781,8.47,0.863,7.195,3.782c-1.316,2.96-23.311,11.963-29.806,13.155
	c-6.537,1.192-13.73,3.372-16.239,4.481c-2.508,1.07-8.016,3.577-16.526,4.029c-8.468,0.412-11.182-1.768-12.086-6.208
	C276.63,202.766,279.055,196.805,285.346,195.941L285.346,195.941z"/>
<path fill-rule="evenodd" clip-rule="evenodd" fill="#EEEEEE" d="M315.15,279.643c0,0,0.37,15.376-1.274,31.49
	c-0.206,2.18-1.973,7.688-2.343,9.868c-2.304,15.21-5.305,26.475-5.305,30.133c0,8.059-3.904,17.842-5.673,22.2
	c-1.727,4.358-5.632,28.283-6.085,42.633c-0.451,14.346,0.864,18.704-2.384,21.541c-3.288,2.835-10.442,0.657-11.553-14.143
	c-1.067-14.799-2.588-33.053-0.205-43.085c2.386-9.988,4.153-15.21,4.153-20.226c0-5.015-4.358-26.105-3.494-39.795
	c0.862-13.73-0.206-18.294-0.206-20.227c0-1.973-0.987-8.592,0.083-15.129c1.108-6.536,6.536-12.087,6.536-12.087
	S303.187,279.52,315.15,279.643L315.15,279.643z"/>
<path fill-rule="evenodd" clip-rule="evenodd" fill="#57585A" d="M340.31,190.926c0,0-2.466-0.493-3.001-0.535
	c-0.534-0.041-1.273,0.288-1.686,0.987c-0.41,0.699-0.164,3.166-0.164,3.166s-1.274,1.727-1.686,4.275
	c-0.41,2.549,0.493,9.291,0.822,10.483s1.068,2.138,1.068,2.138L232.065,403.015l0.534,0.906l104.586-191.33
	c0,0,1.356,0.329,2.303,0.041c0.78-0.287,7.235-6.454,9.66-8.92l0,0h0.041c0.329-0.329,6.002-5.838,6.866-7.277
	c0.863-1.48-1.562-4.398-2.016-4.851c-0.451-0.452-1.932-0.822-1.932-0.822s-0.369,0.082-0.451,0.452
	c-0.082,0.411,1.973,2.056,2.22,2.795c0.205,0.74,0.863,0.863-0.207,2.632c-1.027,1.768-5.508,5.837-5.632,5.96l0,0
	c-2.548,2.015-7.523,6.125-8.386,6.701c-1.151,0.74-2.056-0.288-2.303-2.261c-0.287-1.973,0.535-9.003,0.535-9.003
	s2.097,0,3.043-0.452c0.903-0.453,1.685-2.22,1.685-2.22L340.31,190.926z"/>
<linearGradient id="SVGID_2_" gradientUnits="userSpaceOnUse" x1="222.2397" y1="36.9551" x2="222.2397" y2="267.5437">
	<stop  offset="0" style="stop-color:#FFFFFF"/>
	<stop  offset="0.91" style="stop-color:#000000"/>
</linearGradient>
<path fill-rule="evenodd" clip-rule="evenodd" fill="url(#SVGID_2_)" d="M274.985,63.277l-31.819,83.742l-3.371,10.483v27.873h2.302
	v15.498h-4.234v214.639l-4.522,4.358h13.032v14.142l-5.632,3.414l-32.231-6.703v-15.581l4.892-0.164v-59.487l-29.558,4.357v68.327
	l-3.701,0.37v-69.972h-3.577v72.354h-7.071V104.758h7.277v20.268l2.631,0.123v-19.116h4.44v19.322l5.18,0.206
	c0.452-2.878,2.179-5.016,4.234-5.016c0.453,0,0.946,0.124,1.357,0.329c0.412-0.205,0.863-0.329,1.357-0.329
	c2.138,0,3.946,2.385,4.275,5.468l12.58,0.534v-17.965h4.193v77.247l2.631-0.741v-75.603h8.222v23.762l26.394-63.352
	c0,0-2.015-5.714,0.986-10.072C258.254,55.467,267.873,54.479,274.985,63.277L274.985,63.277z M176.772,128.313v58.419h2.631
	v-58.336L176.772,128.313z M183.843,128.602v57.924h28.983v-56.732l-12.745-0.534c-0.576,2.59-2.22,4.44-4.111,4.44
	c-0.494,0-0.945-0.124-1.357-0.329c-0.411,0.205-0.904,0.329-1.357,0.329c-2.014,0-3.7-2.097-4.193-4.892L183.843,128.602z
	 M183.884,200.011h28.613v56.527h-28.613V200.011z M217.224,199.436h2.179v58.213h-2.179V199.436z M176.443,199.641h2.878v58.542
	h-2.878V199.641z"/>
<path fill-rule="evenodd" clip-rule="evenodd" fill="#FFFFFF" d="M257.472,68.499c0.864,0,1.603-0.781,1.603-1.769
	c0-0.945-0.738-1.767-1.603-1.767c-0.862,0-1.562,0.822-1.562,1.767C255.91,67.718,256.609,68.499,257.472,68.499L257.472,68.499z"
	/>
<path fill-rule="evenodd" clip-rule="evenodd" fill="#57585A" d="M239.795,185.376v-27.873l3.371-10.483l31.819-83.742l-5.961,1.521
	c0,0,0.205,2.014-1.151,5.714c-1.356,3.7-3.659,4.152-3.659,4.152l-27.092,66.723c0,0,1.644,3.083,0.534,8.344
	c-1.068,5.262-4.687,8.88-4.687,8.88l-0.575,27.216l5.262-0.124l0.206,15.169h4.234v-15.498H239.795z"/>
<path fill-rule="evenodd" clip-rule="evenodd" fill="#FFFFFF" d="M227.626,150.679c0.863,0,1.563-0.781,1.563-1.769
	c0-0.986-0.699-1.767-1.563-1.767c-0.904,0-1.604,0.781-1.604,1.767C226.022,149.898,226.722,150.679,227.626,150.679
	L227.626,150.679z"/>
<path fill="#221F20" d="M253.772,69.362c0.287-0.289,0.739-0.289,1.027,0c0.247,0.287,0.247,0.781-0.04,1.028l-55.213,52.622
	c-0.288,0.246-0.74,0.246-1.027-0.042c-0.288-0.288-0.247-0.74,0.041-1.028L253.772,69.362z"/>
<linearGradient id="SVGID_3_" gradientUnits="userSpaceOnUse" x1="176.4429" y1="268.2803" x2="219.4033" y2="268.2803">
	<stop  offset="0" style="stop-color:#000000"/>
	<stop  offset="0.1" style="stop-color:#9D9D9D"/>
	<stop  offset="0.16" style="stop-color:#C8C8C8"/>
	<stop  offset="0.22" style="stop-color:#FFFFFF"/>
	<stop  offset="0.26" style="stop-color:#C2C2C2"/>
	<stop  offset="0.31" style="stop-color:#3B3B3B"/>
	<stop  offset="0.4" style="stop-color:#252525"/>
	<stop  offset="0.52" style="stop-color:#090909"/>
	<stop  offset="0.65" style="stop-color:#020202"/>
	<stop  offset="0.96" style="stop-color:#000000"/>
</linearGradient>
<path fill-rule="evenodd" clip-rule="evenodd" fill="url(#SVGID_3_)" d="M176.443,258.183c0,0,8.14,0.616,12.333-1.645
	c4.153-2.262,3.618-4.152,4.975-4.892c1.357-0.699,9.619-0.617,10.771-0.166c1.192,0.453,3.289,5.058,5.632,5.058
	c2.343,0,9.25,0,9.25,0v26.887c-16.485,3.536-27.091,1.315-42.96,1.315V258.183z"/>
<linearGradient id="SVGID_4_" gradientUnits="userSpaceOnUse" x1="176.5244" y1="328.3711" x2="218.7983" y2="328.3711">
	<stop  offset="0" style="stop-color:#000000"/>
	<stop  offset="0.1" style="stop-color:#9D9D9D"/>
	<stop  offset="0.16" style="stop-color:#C8C8C8"/>
	<stop  offset="0.22" style="stop-color:#FFFFFF"/>
	<stop  offset="0.26" style="stop-color:#C2C2C2"/>
	<stop  offset="0.31" style="stop-color:#3B3B3B"/>
	<stop  offset="0.4" style="stop-color:#252525"/>
	<stop  offset="0.52" style="stop-color:#090909"/>
	<stop  offset="0.65" style="stop-color:#020202"/>
	<stop  offset="0.96" style="stop-color:#000000"/>
</linearGradient>
<path fill-rule="evenodd" clip-rule="evenodd" fill="url(#SVGID_4_)" d="M176.566,297.608v60.966c0,0,4.071,1.728,7.277,1.274
	c3.207-0.492,34.039-5.384,34.039-5.384s0.905,0.328,0.74-2.549c-0.205-2.919,0.041-52.869,0.041-52.869s0.617-1.109-0.781-1.191
	c-1.398-0.123-28.777,0.164-33.299-0.206C180.061,297.278,176.073,296.004,176.566,297.608L176.566,297.608z"/>
<path fill-rule="evenodd" clip-rule="evenodd" fill="#57585A" d="M193.216,424.558c2.878,0,5.18-3.124,5.18-6.947
	c0-3.824-2.302-6.907-5.18-6.907c-2.836,0-5.139,3.083-5.139,6.907C188.077,421.434,190.379,424.558,193.216,424.558
	L193.216,424.558z"/>
<path fill-rule="evenodd" clip-rule="evenodd" fill="#2A2A2B" d="M196.094,410.251c2.836,0,5.18,3.084,5.18,6.906
	c0,3.823-2.343,6.948-5.18,6.948c-0.288,0-0.576-0.041-0.863-0.082c1.891-1.07,3.165-3.535,3.165-6.413
	c0-3.454-1.85-6.29-4.317-6.825C194.696,410.416,195.395,410.251,196.094,410.251L196.094,410.251z"/>
<path fill-rule="evenodd" clip-rule="evenodd" fill="#57585A" d="M193.216,419.214c0.658,0,1.193-0.741,1.193-1.604
	c0-0.863-0.535-1.562-1.193-1.562c-0.616,0-1.15,0.698-1.15,1.562C192.065,418.473,192.6,419.214,193.216,419.214L193.216,419.214z"
	/>
<path fill="#221F20" d="M226.886,139.908c0.329,0.205,0.453,0.657,0.246,0.986c-0.205,0.329-0.657,0.453-0.985,0.247l-26.517-15.868
	c-0.329-0.206-0.453-0.658-0.248-0.987c0.206-0.37,0.658-0.453,0.987-0.247L226.886,139.908z"/>
<path fill-rule="evenodd" clip-rule="evenodd" fill="#FFFFFF" d="M192.722,128.479c0.453,0,0.823-0.658,0.823-1.48
	c0-0.781-0.37-1.438-0.823-1.438c-0.452,0-0.822,0.658-0.822,1.438C191.9,127.821,192.271,128.479,192.722,128.479L192.722,128.479z
	"/>
</svg>
