<?xml version="1.0" encoding="utf-8"?>
<!-- Generator: Adobe Illustrator 16.0.0, SVG Export Plug-In . SVG Version: 6.00 Build 0)  -->
<!DOCTYPE svg PUBLIC "-//W3C//DTD SVG 1.1//EN" "http://www.w3.org/Graphics/SVG/1.1/DTD/svg11.dtd">
<svg version="1.1" id="Layer_1" xmlns="http://www.w3.org/2000/svg" xmlns:xlink="http://www.w3.org/1999/xlink" x="0px" y="0px"
	 width="500px" height="500px" viewBox="0 0 500 500" enable-background="new 0 0 500 500" xml:space="preserve">
<g>
	<path fill-rule="evenodd" clip-rule="evenodd" fill="#EEEEEE" d="M102.017,243.643c0,0-20.193,14.664-20.193,30.108
		c0,15.445,7.2,34.803,45.29,49.984c38.09,15.185,111.294,7.462,111.294,7.462s-3.601-37.567-3.026-48.629
		c0.521-11.009,0.782-22.331,0.782-22.331s-43.881-0.575-49.673-2.243c-5.792-1.618-17.688-10.176-28.697-12.158
		c-11.061-1.931-17.115-8.245-23.219-9.652C128.523,234.825,114.696,233.73,102.017,243.643L102.017,243.643z"/>
	<path fill-rule="evenodd" clip-rule="evenodd" fill="#DBDBDB" d="M150.594,239.522c0,0-6.783,28.438-10.227,36.837
		c-3.443,8.452-14.349,14.924-21.914,14.088c-7.618-0.834-17.845-9.549-18.366-22.228c-0.575-12.68,7.2-24.628,14.453-31.15
		C121.74,230.546,154.298,220.998,150.594,239.522L150.594,239.522z"/>
	<path fill-rule="evenodd" clip-rule="evenodd" fill="#EEEEEE" d="M74.545,166.629c18.628-1.095,36.473,14.558,39.812,35.013
		c3.34,20.4-9.079,37.827-27.706,38.924c-18.679,1.147-36.524-14.558-39.864-34.958C43.448,185.205,55.866,167.726,74.545,166.629
		L74.545,166.629z"/>
	<path fill-rule="evenodd" clip-rule="evenodd" fill="#E5E6E7" d="M241.435,259.662c0,0-1.096,28.958,0.835,48.316
		c1.931,19.306,1.931,23.479,1.931,23.479s43.045,6.053,53.847-3.077c10.747-9.08,58.229-90.894,58.229-90.894
		s19.358-36.733,14.922-46.646c-4.435-9.965-27.341-15.757-46.645,3.601c-19.358,19.306-62.979,61.047-66.266,63.03
		C254.948,259.401,241.435,259.662,241.435,259.662L241.435,259.662z"/>
	<path fill-rule="evenodd" clip-rule="evenodd" fill="#E5E6E7" d="M374.173,194.91c11.792,16.018,54.994,74.876,66.057,92.563
		c12.678,20.296,13.618,28.854,5.635,37.15c-7.982,8.295-17.531,10.33-25.514,0.938c-6.94-8.088-53.118-63.082-67.414-81.552
		c0,0-16.644-17.792-20.557-32.142c-3.861-14.35,0.313-27.236,10.278-28.698C352.571,181.657,363.215,176.805,374.173,194.91
		L374.173,194.91z"/>
	<path fill-rule="evenodd" clip-rule="evenodd" fill="#B7B7B7" d="M374.173,194.91L374.173,194.91
		c11.792,16.018,54.994,74.876,66.057,92.563l0.521,0.834l0.208,0.313l0.104,0.157l0.313,0.575l0.053,0.104l0.418,0.626l0.104,0.156
		l0.053,0.104l0.417,0.68l0.104,0.156l0.417,0.781l0.053,0.053l0.052,0.104l0.313,0.573l0.211,0.366l0.052,0.104l0.365,0.573l0,0
		l0.313,0.626l0.156,0.208l0.053,0.104l0.313,0.523l0.104,0.261l0,0l0.313,0.573l0.106,0.156l0.052,0.156l0.261,0.471l0.104,0.209
		l0.364,0.678v0.052h0.053l0.313,0.626l0.104,0.208l0.261,0.575l0.052,0.053v0.052l0.313,0.573l0.104,0.313l0.158,0.313l0.156,0.314
		l0,0l0.209,0.521h0.052l0.052,0.208l0.209,0.47l0.104,0.156l0.156,0.471l0.052,0.104l0.053,0.052l0.052,0.156l0.156,0.417
		l0.053,0.157l0.208,0.469l0.052,0.104v0.052l0.209,0.575l0.054,0.104l0.156,0.469l0.053,0.104c0.052,0.209,0.104,0.365,0.156,0.573
		l0.052,0.104l0.156,0.417l0.053,0.21l0.104,0.417l0.053,0.104l0,0v0.053l0.104,0.417l0.052,0.208l0.104,0.417l0.052,0.053
		l0.104,0.471v0.208l0.104,0.365v0.104c0.052,0.156,0.104,0.313,0.104,0.469v0.053v0.052l0.104,0.419v0.156l0.053,0.365v0.104l0,0
		c0,0.157,0.052,0.313,0.052,0.417v0.157l0.052,0.364v0.104v0.419v0.156l0.053,0.313v0.156l-0.053,0.365v0.156v0.313v0.157
		c0,0.104,0,0.262-0.052,0.366v0.053c0,0.156,0,0.26,0,0.417l-0.052,0.104c0,0.104,0,0.209-0.053,0.313v0.104
		c0,0.156-0.052,0.261-0.052,0.417v0.053l-0.104,0.366v0.104c-0.052,0.104-0.052,0.261-0.104,0.365
		c5.792-7.671,3.966-16.438-7.565-34.907c-11.061-17.636-54.265-76.543-66.057-92.563l0,0c-1.146-1.93-2.296-3.599-3.494-5.06
		c-0.992-1.67-2.559-3.235-4.541-4.539c-5.112-3.965-10.122-4.228-14.974-3.653c-2.714,0.155-5.583,0.625-8.506,1.514h-0.052
		c-1.67,0.259-3.234,0.834-4.591,1.722c-4.487,2.035-9.08,5.164-13.462,9.546c-19.358,19.306-63.918,63.866-67.258,65.796
		c-3.286,1.931-16.018,4.852-16.018,4.852c4.07-0.208,11.844-0.729,14.245-2.087c3.286-1.982,46.907-43.724,66.266-63.03
		c3.546-3.601,7.251-6.313,10.956-8.296c-0.209,0.521-0.417,1.095-0.626,1.67l0.052-0.054l0.053-0.05l0.052-0.054l0.104-0.155l0,0
		l0.052-0.054l0.104-0.104v-0.05l0.156-0.158l0.104-0.104l0.052-0.052l0.156-0.157v-0.052l0.053-0.052l0.104-0.052l0.156-0.156
		v-0.052l0.052-0.052l0.054-0.052l0.051-0.052l0.158-0.104l0.208-0.208l0.104-0.104l0.209-0.158l0.052-0.05l0.052-0.054
		c0.053-0.05,0.157-0.104,0.261-0.208l0.053-0.05l0.313-0.21l0.104-0.052l0.208-0.157l0.053-0.052
		c1.356-0.888,2.923-1.514,4.645-1.722v-0.052l0,0h0.261l0.156-0.052l0,0h0.104l0.156-0.052h0.104h0.104h0.053l0.104-0.052h0.156
		l0.104-0.052h0.054h0.104l0.104-0.052h0.156h0.104v-0.052h0.156h0.104l0.156-0.052h0.053h0.052l0.156-0.052h0.104l0.156-0.052l0,0
		h0.104l0.156-0.052h0.104l0.104-0.052h0.055h0.156l0.104-0.052h0.156h0.052l0.052-0.052h0.157l0.104-0.052h0.156l0,0l0.104-0.052
		h0.156l0.104-0.052h0.104h0.052h0.156l0.104-0.052h0.156l0,0l0.104-0.054h0.158l0.104-0.05h0.104h0.052l0.156-0.054l0.261-0.05l0,0
		h0.104l0.364-0.054h0.053l0.417-0.104h0.052l0.314-0.05h0.156l0,0c0.313-0.054,0.626-0.104,0.938-0.158
		c4.854-0.625,9.861-0.313,14.976,3.653l0.053,0.054l0.156,0.104l0.052,0.05l0.209,0.158l0.104,0.05l0.156,0.158l0.053,0.05
		l0.261,0.21l0.21,0.209l0.104,0.052l0.156,0.157l0.052,0.052l0.053,0.052l0.156,0.156l0.052,0.052l0.209,0.208l0.104,0.106
		l0.156,0.104l0.052,0.104l0.209,0.208l0.208,0.208l0.052,0.104l0.261,0.208l0.053,0.052l0.054,0.104l0.104,0.052v0.052l0.261,0.313
		l0.104,0.052l0.053,0.104l0.052,0.052l0.104,0.104l0.208,0.261l0.053,0.054l0.156,0.208l0.052,0.05l0,0
		C371.721,191.101,372.972,192.875,374.173,194.91L374.173,194.91z"/>
	<path fill-rule="evenodd" clip-rule="evenodd" fill="#C2C3C4" d="M150.176,233.313c0,0-6.052-16.435-20.975-28.75
		c-14.923-12.261-24.734-15.643-28.854-15.443C92.5,189.5,84.739,196.695,85,204c0.261,7.357,15.347,15.33,17.957,22.112
		c2.608,6.782,3.404,17.281,11.543,19.888C122.64,248.608,151.428,249.018,150.176,233.313L150.176,233.313z"/>
</g>
</svg>
