<?xml version="1.0" encoding="utf-8"?>
<!-- Generator: Adobe Illustrator 16.0.0, SVG Export Plug-In . SVG Version: 6.00 Build 0)  -->
<!DOCTYPE svg PUBLIC "-//W3C//DTD SVG 1.1//EN" "http://www.w3.org/Graphics/SVG/1.1/DTD/svg11.dtd">
<svg version="1.1" id="Layer_1" xmlns="http://www.w3.org/2000/svg" xmlns:xlink="http://www.w3.org/1999/xlink" x="0px" y="0px"
	 width="500px" height="500px" viewBox="0 0 500 500" enable-background="new 0 0 500 500" xml:space="preserve">
<g>
	<linearGradient id="SVGID_1_" gradientUnits="userSpaceOnUse" x1="55.1001" y1="298.7852" x2="205.1603" y2="298.7852">
		<stop  offset="0.06" style="stop-color:#0D0D0D"/>
		<stop  offset="0.09" style="stop-color:#999999"/>
		<stop  offset="0.11" style="stop-color:#C8C8C8"/>
		<stop  offset="0.15" style="stop-color:#9D9D9D"/>
		<stop  offset="0.19" style="stop-color:#777777"/>
		<stop  offset="0.24" style="stop-color:#575757"/>
		<stop  offset="0.3" style="stop-color:#3B3B3B"/>
		<stop  offset="0.36" style="stop-color:#252525"/>
		<stop  offset="0.43" style="stop-color:#141414"/>
		<stop  offset="0.52" style="stop-color:#090909"/>
		<stop  offset="0.65" style="stop-color:#020202"/>
		<stop  offset="1" style="stop-color:#000000"/>
	</linearGradient>
	<path fill-rule="evenodd" clip-rule="evenodd" fill="url(#SVGID_1_)" d="M125.557,243.261
		c27.312-0.469,49.416,24.039,49.416,54.688c0,30.651-22.104,55.894-49.416,56.36c-27.245,0.467-49.347-23.974-49.347-54.624
		S98.312,243.795,125.557,243.261L125.557,243.261z"/>
	<path fill-rule="evenodd" clip-rule="evenodd" d="M68.931,299.686c0-29.649,20.7-54.29,46.743-56.291c-0.2,0-0.4,0-0.6,0
		c-26.377,1.668-47.345,26.375-47.345,56.291c0,29.315,20.166,52.953,45.742,54.557c0.2,0,0.467,0,0.667-0.066
		C88.83,352.238,68.931,328.734,68.931,299.686L68.931,299.686z"/>
	<linearGradient id="SVGID_2_" gradientUnits="userSpaceOnUse" x1="94.105" y1="309.5" x2="94.105" y2="264">
		<stop  offset="0.06" style="stop-color:#0D0D0D"/>
		<stop  offset="0.09" style="stop-color:#999999"/>
		<stop  offset="0.11" style="stop-color:#C8C8C8"/>
		<stop  offset="0.15" style="stop-color:#9D9D9D"/>
		<stop  offset="0.19" style="stop-color:#777777"/>
		<stop  offset="0.24" style="stop-color:#575757"/>
		<stop  offset="0.3" style="stop-color:#3B3B3B"/>
		<stop  offset="0.36" style="stop-color:#252525"/>
		<stop  offset="0.43" style="stop-color:#141414"/>
		<stop  offset="0.52" style="stop-color:#090909"/>
		<stop  offset="0.65" style="stop-color:#020202"/>
		<stop  offset="1" style="stop-color:#000000"/>
	</linearGradient>
	<path fill-rule="evenodd" clip-rule="evenodd" fill="url(#SVGID_2_)" d="M115.673,243.395
		c-26.043,2.001-46.743,26.642-46.743,56.291c0,29.049,19.899,52.553,45.207,54.49c1.202-0.067,2.404-0.2,3.606-0.4
		c-23.573-3.807-41.535-26.444-41.535-54.09c0-28.245,18.764-51.952,43.07-55.827C118.078,243.661,116.875,243.528,115.673,243.395
		L115.673,243.395z"/>
	<linearGradient id="SVGID_3_" gradientUnits="userSpaceOnUse" x1="127.1724" y1="314.6074" x2="127.1724" y2="271.8918">
		<stop  offset="0" style="stop-color:#FFFFFF"/>
		<stop  offset="0.07" style="stop-color:#434341"/>
		<stop  offset="0.14" style="stop-color:#20201E"/>
		<stop  offset="0.22" style="stop-color:#1E1E1C"/>
		<stop  offset="0.24" style="stop-color:#2A2A28"/>
		<stop  offset="0.61" style="stop-color:#FFFFFF"/>
		<stop  offset="0.68" style="stop-color:#FCFCFC"/>
		<stop  offset="0.74" style="stop-color:#F3F3F3"/>
		<stop  offset="0.78" style="stop-color:#E4E4E4"/>
		<stop  offset="0.82" style="stop-color:#CFCFCF"/>
		<stop  offset="0.86" style="stop-color:#B3B3B3"/>
		<stop  offset="0.89" style="stop-color:#919191"/>
		<stop  offset="0.93" style="stop-color:#686868"/>
		<stop  offset="0.96" style="stop-color:#393939"/>
		<stop  offset="0.99" style="stop-color:#060606"/>
		<stop  offset="0.99" style="stop-color:#000000"/>
	</linearGradient>
	<path fill-rule="evenodd" clip-rule="evenodd" fill="url(#SVGID_3_)" d="M130.997,289.466c-4.617,0.322-8.287,4.295-8.287,9.075
		c0,4.685,3.528,8.474,8.015,8.786c0.213-0.011,0.426-0.032,0.64-0.064c-4.179-0.614-7.364-4.264-7.364-8.722
		c0-4.553,3.327-8.375,7.636-9.001C131.423,289.509,131.209,289.486,130.997,289.466L130.997,289.466z"/>
	<linearGradient id="SVGID_4_" gradientUnits="userSpaceOnUse" x1="88.5625" y1="308.333" x2="88.5625" y2="266.3211">
		<stop  offset="0.06" style="stop-color:#0D0D0D"/>
		<stop  offset="0.09" style="stop-color:#999999"/>
		<stop  offset="0.11" style="stop-color:#C8C8C8"/>
		<stop  offset="0.15" style="stop-color:#9D9D9D"/>
		<stop  offset="0.19" style="stop-color:#777777"/>
		<stop  offset="0.24" style="stop-color:#575757"/>
		<stop  offset="0.3" style="stop-color:#3B3B3B"/>
		<stop  offset="0.36" style="stop-color:#252525"/>
		<stop  offset="0.43" style="stop-color:#141414"/>
		<stop  offset="0.52" style="stop-color:#090909"/>
		<stop  offset="0.65" style="stop-color:#020202"/>
		<stop  offset="1" style="stop-color:#000000"/>
	</linearGradient>
	<path fill-rule="evenodd" clip-rule="evenodd" fill="url(#SVGID_4_)" d="M67.729,299.686c0-29.916,20.968-54.623,47.345-56.291
		c-1.202-0.069-2.404-0.133-3.606-0.133c-27.312,0.534-49.416,25.774-49.416,56.424s22.104,55.091,49.416,54.624
		c0.667,0,1.335,0,2.003-0.067C87.895,352.639,67.729,329.001,67.729,299.686L67.729,299.686z"/>
	<linearGradient id="SVGID_5_" gradientUnits="userSpaceOnUse" x1="131.3989" y1="309.001" x2="131.7319" y2="274.001">
		<stop  offset="0" style="stop-color:#FFFFFF"/>
		<stop  offset="0.07" style="stop-color:#434341"/>
		<stop  offset="0.14" style="stop-color:#20201E"/>
		<stop  offset="0.22" style="stop-color:#1E1E1C"/>
		<stop  offset="0.24" style="stop-color:#2A2A28"/>
		<stop  offset="0.61" style="stop-color:#FFFFFF"/>
		<stop  offset="0.68" style="stop-color:#FCFCFC"/>
		<stop  offset="0.74" style="stop-color:#F3F3F3"/>
		<stop  offset="0.78" style="stop-color:#E4E4E4"/>
		<stop  offset="0.82" style="stop-color:#CFCFCF"/>
		<stop  offset="0.86" style="stop-color:#B3B3B3"/>
		<stop  offset="0.89" style="stop-color:#919191"/>
		<stop  offset="0.93" style="stop-color:#686868"/>
		<stop  offset="0.96" style="stop-color:#393939"/>
		<stop  offset="0.99" style="stop-color:#060606"/>
		<stop  offset="0.99" style="stop-color:#000000"/>
	</linearGradient>
	<ellipse fill-rule="evenodd" clip-rule="evenodd" fill="url(#SVGID_5_)" cx="131.5" cy="298.334" rx="7.5" ry="8.666"/>
	<path fill-rule="evenodd" clip-rule="evenodd" fill="#BBBDBF" d="M223.374,208.601c0,0-7.228-1.568-12-3.339
		c-4.773-1.841-6.612-2.729-6.612-2.729s-42.541,32.383-44.723,40.839c-2.182,8.52-0.136,17.518,6.886,28.36
		c7.021,10.839,42.956,81.191,44.074,82.602c7.667,9.667,11.887,10.822,22.667,9.667c9.333-1,14.795-7.324,11.728-16.529
		c-3.069-9.201-35.042-80.239-35.383-82.081c-0.34-1.772,25.156-41.108,25.156-41.108s-5.181-7.091-5.864-9.477
		c-0.749-2.387-0.204-5.454-0.204-5.454S224.804,209.419,223.374,208.601L223.374,208.601z"/>
	<path fill-rule="evenodd" clip-rule="evenodd" fill="#EEEEEE" d="M314.667,153.844c0,0-29.646-14.889-38.862-24.038
		c-9.148-9.216-33.189-26.177-46.61-30.785c-13.421-4.542-40.267-4.542-54.422,3.94c-14.158,8.48-21.57,27.178-18.765,41.669
		c2.872,14.491,21.568,35.725,30.383,41c8.88,5.274,12.021,6.678,14.892,9.216c2.804,2.471,14.825,9.48,32.121,9.48
		C250.764,204.327,314.334,178.552,314.667,153.844L314.667,153.844z"/>
	<path fill-rule="evenodd" clip-rule="evenodd" fill="#EEEEEE" d="M320.679,158.052c0,0,23.371,18.029,15.893,42.07
		c-7.412,24.041-69.382,63.973-69.382,63.973s17.495,65.707,21.702,76.324c4.275,10.549,6.346,21.503-3.537,28.247
		c-9.884,6.743-19.1,5.276-25.777-4.207c-6.743-9.549-47.342-97.56-47.745-104.306c-0.333-6.679,12.021-23.306,17.362-29.982
		c5.277-6.745,5.277-6.745,5.277-6.745s-3.874-4.675-5.545-8.747c-1.67-4.074-1.003-5.811-1.003-5.811
		S291.896,207.801,320.679,158.052L320.679,158.052z"/>
	<linearGradient id="SVGID_6_" gradientUnits="userSpaceOnUse" x1="209.374" y1="324.1113" x2="213.374" y2="308.7783">
		<stop  offset="0" style="stop-color:#FFFFFF"/>
		<stop  offset="0.07" style="stop-color:#434341"/>
		<stop  offset="0.14" style="stop-color:#20201E"/>
		<stop  offset="0.22" style="stop-color:#1E1E1C"/>
		<stop  offset="0.24" style="stop-color:#2A2A28"/>
		<stop  offset="0.61" style="stop-color:#FFFFFF"/>
		<stop  offset="0.68" style="stop-color:#FCFCFC"/>
		<stop  offset="0.74" style="stop-color:#F3F3F3"/>
		<stop  offset="0.78" style="stop-color:#E4E4E4"/>
		<stop  offset="0.82" style="stop-color:#CFCFCF"/>
		<stop  offset="0.86" style="stop-color:#B3B3B3"/>
		<stop  offset="0.89" style="stop-color:#919191"/>
		<stop  offset="0.93" style="stop-color:#686868"/>
		<stop  offset="0.96" style="stop-color:#393939"/>
		<stop  offset="0.99" style="stop-color:#060606"/>
		<stop  offset="0.99" style="stop-color:#000000"/>
	</linearGradient>
	<path fill-rule="evenodd" clip-rule="evenodd" fill="url(#SVGID_6_)" d="M288.892,339.818l1.204-8.68l-155.792-35.06
		c-2.337,1.535-2.804,5.008-1.135,6.812L288.892,339.818z"/>
	<path fill-rule="evenodd" clip-rule="evenodd" fill="#DDDDDD" d="M126.621,68.037c16.446-9.147,38.746-1.869,49.827,16.36
		c11.08,18.23,6.689,40.401-9.757,49.615c-16.446,9.148-38.746,1.803-49.827-16.36C105.785,99.422,110.174,77.253,126.621,68.037
		L126.621,68.037z"/>
	<linearGradient id="SVGID_7_" gradientUnits="userSpaceOnUse" x1="324.2559" y1="388.6475" x2="330.2559" y2="300.6475">
		<stop  offset="0.06" style="stop-color:#0D0D0D"/>
		<stop  offset="0.09" style="stop-color:#999999"/>
		<stop  offset="0.11" style="stop-color:#C8C8C8"/>
		<stop  offset="0.15" style="stop-color:#9D9D9D"/>
		<stop  offset="0.19" style="stop-color:#777777"/>
		<stop  offset="0.24" style="stop-color:#575757"/>
		<stop  offset="0.3" style="stop-color:#3B3B3B"/>
		<stop  offset="0.36" style="stop-color:#252525"/>
		<stop  offset="0.43" style="stop-color:#141414"/>
		<stop  offset="0.52" style="stop-color:#090909"/>
		<stop  offset="0.65" style="stop-color:#020202"/>
		<stop  offset="1" style="stop-color:#000000"/>
	</linearGradient>
	<path fill-rule="evenodd" clip-rule="evenodd" fill="url(#SVGID_7_)" d="M351.862,273.911c1.604,0,3.14,0.134,4.675,0.267l0,0
		h0.066c2.538,0.267,4.941,0.801,7.346,1.467l8.949,1.805l0,0h-0.066h-0.067l-0.134-0.067h-0.066h-0.065
		c-0.201-0.066-0.403-0.066-0.67-0.133h-0.067h-0.066l-0.134-0.067h-0.067h-0.065h-0.066l-0.134-0.066l0,0h-0.134h-0.133h-0.066
		l-0.134-0.066h-0.067h-0.066h-0.134h-0.133l0,0l-0.134-0.066h-0.134l0,0h-0.133l-0.134-0.067l0,0h-0.136h-0.267l-0.134-0.066l0,0
		h-0.134h-0.133l0,0h-0.133h-0.134v-0.067h-0.134h-0.134h-0.065h-0.067h-0.134h-0.066h-0.067l-0.133-0.066h-0.066h-0.067h-0.133
		h-0.067h-0.066h-0.133h-0.067h-0.066l-0.136-0.067h-0.134l0,0h-0.133h-0.134h-0.067h-0.133h-0.067h-0.065h-0.134h-0.067h-0.066
		h-0.134l-0.067-0.066h-0.065h-0.134h-0.134l0,0h-0.134h-0.133l0,0h-0.133h-0.134l0,0h-0.2h-0.066h-0.069h-0.134h-0.134l0,0h-0.133
		h-0.133c-32.187,0-61.834,34.857-66.108,77.929c-0.067,0.6-0.067,1.2-0.134,1.87l-0.066,0.666c0,0.401-0.066,0.802-0.066,1.135
		l-0.066,0.804l-0.067,1.066v0.801c0,0.336-0.066,0.737-0.066,1.07v0.733v1.137v0.734c0,0.333,0,0.733,0,1.133v0.67
		c0,0.4,0,0.867,0,1.269v0.467c0.066,0.602,0.066,1.202,0.066,1.803l0,0c0.067,0.601,0.067,1.204,0.134,1.805l0.066,0.4
		c0,0.467,0.066,0.934,0.066,1.334l0.066,0.603c0.067,0.4,0.067,0.733,0.134,1.135l0.067,0.666c0,0.402,0.066,0.736,0.134,1.07
		l0.066,0.667l0.133,1.07l0.134,0.6c0,0.4,0.066,0.801,0.134,1.134l0.133,0.604c0.066,0.333,0.133,0.734,0.2,1.134l0.066,0.534
		c0.134,0.534,0.2,1.07,0.334,1.604l0,0c0.134,0.534,0.2,1.066,0.336,1.601l0.133,0.603c0.134,0.335,0.2,0.668,0.268,1.067
		l0.134,0.534c0.133,0.333,0.199,0.736,0.267,1.07l0.2,0.601c0.065,0.266,0.199,0.6,0.267,0.934l0.2,0.669
		c0.067,0.268,0.199,0.601,0.267,0.868l0.2,0.601c0.133,0.333,0.2,0.735,0.334,1.069l0.202,0.467c0.133,0.4,0.267,0.801,0.4,1.134
		l0.134,0.334c0.133,0.536,0.333,1.003,0.533,1.537l0,0c0.2,0.467,0.4,0.934,0.6,1.47l0.134,0.267
		c0.134,0.4,0.334,0.734,0.468,1.135l0.27,0.533c0.132,0.269,0.266,0.536,0.399,0.869l0.267,0.534
		c0.134,0.267,0.268,0.534,0.401,0.867l0.267,0.469c0.134,0.268,0.266,0.601,0.399,0.868l0.268,0.467
		c0.133,0.333,0.333,0.6,0.47,0.867l0.266,0.469c0.201,0.334,0.335,0.602,0.534,0.935l0.2,0.399
		c0.267,0.401,0.534,0.802,0.801,1.271l0,0c0.268,0.4,0.533,0.801,0.803,1.202l0.2,0.333c0.2,0.267,0.399,0.601,0.601,0.869
		l0.267,0.4c0.2,0.267,0.4,0.533,0.601,0.801l0.268,0.4c0.199,0.266,0.399,0.533,0.603,0.802l0.267,0.401
		c0.2,0.199,0.399,0.467,0.601,0.733l0.333,0.4c0.2,0.2,0.4,0.467,0.601,0.734l0.333,0.335c0.203,0.268,0.47,0.534,0.67,0.734
		l0.267,0.333c0.268,0.334,0.601,0.602,0.868,0.935l0.066,0.066h0.066c0.267,0.336,0.601,0.67,0.937,1.003l0.267,0.268
		c0.268,0.267,0.534,0.467,0.734,0.733l0.333,0.268c0.201,0.199,0.467,0.402,0.733,0.669l0.337,0.268
		c0.199,0.199,0.467,0.399,0.667,0.601l0.4,0.333c0.199,0.134,0.467,0.333,0.666,0.533l0.401,0.267
		c0.269,0.203,0.47,0.402,0.735,0.603l0.334,0.268c0.268,0.2,0.601,0.4,0.868,0.533l0.266,0.2c0.737,0.534,1.537,1.001,2.271,1.47
		l0.267,0.134c0.268,0.2,0.603,0.4,0.936,0.534l0.335,0.199c0.266,0.201,0.533,0.335,0.8,0.467l0.4,0.201
		c0.268,0.134,0.536,0.268,0.803,0.4l0.468,0.202c0.266,0.134,0.533,0.267,0.8,0.333l0.4,0.201c0.268,0.134,0.533,0.267,0.803,0.333
		l0.468,0.2c0.266,0.134,0.601,0.267,0.934,0.334l0.267,0.134c0.87,0.266,1.67,0.601,2.537,0.8l-9.08-1.801l0,0
		c-27.512-5.611-45.811-37.998-41.936-77.061C290.028,308.834,319.608,273.911,351.862,273.911L351.862,273.911z M343.782,432.104
		h-0.065l0,0H343.782z"/>
	<path fill-rule="evenodd" clip-rule="evenodd" d="M364.217,276.581c6.077,0,11.886,1.269,17.161,3.605
		c-0.667-0.067-1.334-0.067-1.937-0.067c-32.253,0-61.834,34.858-66.108,77.928c-3.474,34.858,10.751,64.374,33.388,74.324
		c-31.117-1.401-52.754-35.726-48.612-77.861C302.383,311.438,332.03,276.581,364.217,276.581L364.217,276.581z"/>
	<linearGradient id="SVGID_8_" gradientUnits="userSpaceOnUse" x1="289.667" y1="358.0156" x2="417.0157" y2="358.0156">
		<stop  offset="0.06" style="stop-color:#0D0D0D"/>
		<stop  offset="0.09" style="stop-color:#999999"/>
		<stop  offset="0.11" style="stop-color:#C8C8C8"/>
		<stop  offset="0.15" style="stop-color:#9D9D9D"/>
		<stop  offset="0.19" style="stop-color:#777777"/>
		<stop  offset="0.24" style="stop-color:#575757"/>
		<stop  offset="0.3" style="stop-color:#3B3B3B"/>
		<stop  offset="0.36" style="stop-color:#252525"/>
		<stop  offset="0.43" style="stop-color:#141414"/>
		<stop  offset="0.52" style="stop-color:#090909"/>
		<stop  offset="0.65" style="stop-color:#020202"/>
		<stop  offset="1" style="stop-color:#000000"/>
	</linearGradient>
	<path fill-rule="evenodd" clip-rule="evenodd" fill="url(#SVGID_8_)" d="M379.441,280.119c32.187,0,54.823,34.858,50.551,77.928
		c-4.273,43.007-33.855,77.864-66.109,77.864c-32.188,0-54.824-34.857-50.55-77.864
		C317.607,314.978,347.188,280.119,379.441,280.119L379.441,280.119z"/>
	<linearGradient id="SVGID_9_" gradientUnits="userSpaceOnUse" x1="342.2881" y1="389.2129" x2="344.2881" y2="322.5459">
		<stop  offset="0.06" style="stop-color:#0D0D0D"/>
		<stop  offset="0.09" style="stop-color:#999999"/>
		<stop  offset="0.11" style="stop-color:#C8C8C8"/>
		<stop  offset="0.15" style="stop-color:#9D9D9D"/>
		<stop  offset="0.19" style="stop-color:#777777"/>
		<stop  offset="0.24" style="stop-color:#575757"/>
		<stop  offset="0.3" style="stop-color:#3B3B3B"/>
		<stop  offset="0.36" style="stop-color:#252525"/>
		<stop  offset="0.43" style="stop-color:#141414"/>
		<stop  offset="0.52" style="stop-color:#090909"/>
		<stop  offset="0.65" style="stop-color:#020202"/>
		<stop  offset="1" style="stop-color:#000000"/>
	</linearGradient>
	<path fill-rule="evenodd" clip-rule="evenodd" fill="url(#SVGID_9_)" d="M367.021,277.449c1.604,0,3.207,0.133,4.741,0.267l0,0
		h0.067c2.471,0.268,4.941,0.801,7.278,1.47l9.016,1.802l0,0c-2.804-0.601-5.742-0.868-8.682-0.868
		c-32.253,0-61.834,34.858-66.108,77.928c-3.741,37.462,12.954,68.715,38.596,76.193l-9.014-1.803l0,0
		c-27.511-5.608-45.877-37.996-41.937-77.061C305.254,312.373,334.836,277.449,367.021,277.449L367.021,277.449z M358.94,435.642
		L358.94,435.642h-0.065H358.94z"/>
	<path fill-rule="evenodd" clip-rule="evenodd" fill="#BBBDBF" d="M212.833,155.314c0,0-1.067-20.1,7.081-26.11
		c8.144-6.01,31.118-7.079,37.459,11.619c6.345,18.766,12.02,71.385,14.825,92.955c2.806,21.567,1.736,89.011,1.068,93.819
		c-0.733,4.742-3.204,12.554-10.416,13.957c-7.278,1.401-16.628,1.201-18.362-12.02c-1.804-13.222-6.212-97.694-7.481-104.772
		c-1.201-7.079-14.622-44.34-16.025-47.678C219.578,173.679,214.972,166.801,212.833,155.314L212.833,155.314z"/>
	<path fill-rule="evenodd" clip-rule="evenodd" fill="#E5E6E7" d="M155.199,153.856c0,0,3.411,10.975,11.18,19.839
		c7.775,8.794,25.568,20.521,25.568,20.521s-0.07,8.523-0.343,18.679c-10.428,8.385-24.132,19.979-29.45,26.862
		c-0.272-10.839-0.547-18.952-0.684-20.112c-0.338-3.546-1.499-41.108-2.111-43.155C158.675,174.377,154.246,159.04,155.199,153.856
		L155.199,153.856z M188.879,307.044c-0.07,4.977-0.136,8.319-0.136,8.796c0,2.113-6.478,8.997-13.023,8.248
		c-6.475-0.682-11.727-6.135-11.863-18.202c-0.136-5.522-0.545-23.315-1.022-41.313c1.092,2.317,2.455,4.636,4.091,7.158
		C169.926,276.365,179.198,291.295,188.879,307.044L188.879,307.044z"/>
	<g>
		<linearGradient id="SVGID_10_" gradientUnits="userSpaceOnUse" x1="369.4736" y1="376.9785" x2="369.4736" y2="324.5708">
			<stop  offset="0" style="stop-color:#FFFFFF"/>
			<stop  offset="0.07" style="stop-color:#434341"/>
			<stop  offset="0.14" style="stop-color:#20201E"/>
			<stop  offset="0.22" style="stop-color:#1E1E1C"/>
			<stop  offset="0.24" style="stop-color:#2A2A28"/>
			<stop  offset="0.61" style="stop-color:#FFFFFF"/>
			<stop  offset="0.68" style="stop-color:#FCFCFC"/>
			<stop  offset="0.74" style="stop-color:#F3F3F3"/>
			<stop  offset="0.78" style="stop-color:#E4E4E4"/>
			<stop  offset="0.82" style="stop-color:#CFCFCF"/>
			<stop  offset="0.86" style="stop-color:#B3B3B3"/>
			<stop  offset="0.89" style="stop-color:#919191"/>
			<stop  offset="0.93" style="stop-color:#686868"/>
			<stop  offset="0.96" style="stop-color:#393939"/>
			<stop  offset="0.99" style="stop-color:#060606"/>
			<stop  offset="0.99" style="stop-color:#000000"/>
		</linearGradient>
		<path fill-rule="evenodd" clip-rule="evenodd" fill="url(#SVGID_10_)" d="M374.165,346.132
			c-5.664,0.396-10.167,5.27-10.167,11.135c0,5.747,4.328,10.396,9.833,10.779c0.263-0.014,0.523-0.039,0.785-0.079
			c-5.128-0.754-9.034-5.231-9.034-10.7c0-5.586,4.081-10.275,9.367-11.044C374.688,346.185,374.427,346.157,374.165,346.132
			L374.165,346.132z"/>
		<linearGradient id="SVGID_11_" gradientUnits="userSpaceOnUse" x1="374.6592" y1="370.0996" x2="375.0677" y2="327.1606">
			<stop  offset="0" style="stop-color:#FFFFFF"/>
			<stop  offset="0.07" style="stop-color:#434341"/>
			<stop  offset="0.14" style="stop-color:#20201E"/>
			<stop  offset="0.22" style="stop-color:#1E1E1C"/>
			<stop  offset="0.24" style="stop-color:#2A2A28"/>
			<stop  offset="0.61" style="stop-color:#FFFFFF"/>
			<stop  offset="0.68" style="stop-color:#FCFCFC"/>
			<stop  offset="0.74" style="stop-color:#F3F3F3"/>
			<stop  offset="0.78" style="stop-color:#E4E4E4"/>
			<stop  offset="0.82" style="stop-color:#CFCFCF"/>
			<stop  offset="0.86" style="stop-color:#B3B3B3"/>
			<stop  offset="0.89" style="stop-color:#919191"/>
			<stop  offset="0.93" style="stop-color:#686868"/>
			<stop  offset="0.96" style="stop-color:#393939"/>
			<stop  offset="0.99" style="stop-color:#060606"/>
			<stop  offset="0.99" style="stop-color:#000000"/>
		</linearGradient>
		<ellipse fill-rule="evenodd" clip-rule="evenodd" fill="url(#SVGID_11_)" cx="374.784" cy="357.013" rx="9.202" ry="10.632"/>
	</g>
	<linearGradient id="SVGID_12_" gradientUnits="userSpaceOnUse" x1="401.457" y1="376.4443" x2="407.157" y2="350.4773">
		<stop  offset="0" style="stop-color:#FFFFFF"/>
		<stop  offset="0.07" style="stop-color:#434341"/>
		<stop  offset="0.14" style="stop-color:#20201E"/>
		<stop  offset="0.22" style="stop-color:#1E1E1C"/>
		<stop  offset="0.24" style="stop-color:#2A2A28"/>
		<stop  offset="0.61" style="stop-color:#FFFFFF"/>
		<stop  offset="0.68" style="stop-color:#FCFCFC"/>
		<stop  offset="0.74" style="stop-color:#F3F3F3"/>
		<stop  offset="0.78" style="stop-color:#E4E4E4"/>
		<stop  offset="0.82" style="stop-color:#CFCFCF"/>
		<stop  offset="0.86" style="stop-color:#B3B3B3"/>
		<stop  offset="0.89" style="stop-color:#919191"/>
		<stop  offset="0.93" style="stop-color:#686868"/>
		<stop  offset="0.96" style="stop-color:#393939"/>
		<stop  offset="0.99" style="stop-color:#060606"/>
		<stop  offset="0.99" style="stop-color:#000000"/>
	</linearGradient>
	<path fill-rule="evenodd" clip-rule="evenodd" fill="url(#SVGID_12_)" d="M376.298,349.164l58.637,13.958
		c0,0,3.204,1.003,3.005,7.949c-0.134,7.01-4.742,8.679-7.213,8.279c-2.471-0.468-52.286-12.487-53.087-12.487
		c-0.803,0-6.744-1.604-7.612-4.608c-0.87-3.004,0.988-12.21,4.59-12.851L376.298,349.164z"/>
	
		<linearGradient id="SVGID_13_" gradientUnits="userSpaceOnUse" x1="426.9736" y1="382.8994" x2="431.8106" y2="360.864" gradientTransform="matrix(0.7846 0.107 -0.1178 0.8636 139.9219 3.438)">
		<stop  offset="0.06" style="stop-color:#0D0D0D"/>
		<stop  offset="0.09" style="stop-color:#999999"/>
		<stop  offset="0.11" style="stop-color:#C8C8C8"/>
		<stop  offset="0.15" style="stop-color:#9D9D9D"/>
		<stop  offset="0.19" style="stop-color:#777777"/>
		<stop  offset="0.24" style="stop-color:#575757"/>
		<stop  offset="0.3" style="stop-color:#3B3B3B"/>
		<stop  offset="0.36" style="stop-color:#252525"/>
		<stop  offset="0.43" style="stop-color:#141414"/>
		<stop  offset="0.52" style="stop-color:#090909"/>
		<stop  offset="0.65" style="stop-color:#020202"/>
		<stop  offset="1" style="stop-color:#000000"/>
	</linearGradient>
	<path fill-rule="evenodd" clip-rule="evenodd" fill="url(#SVGID_13_)" d="M437.012,371.77c-0.497,3.646-2.796,6.346-5.135,6.026
		c-2.339-0.318-3.832-3.535-3.334-7.182c0.497-3.647,2.796-6.346,5.135-6.026C436.016,364.906,437.51,368.122,437.012,371.77z"/>
</g>
</svg>
