<?xml version="1.0" encoding="utf-8"?>
<!-- Generator: Adobe Illustrator 16.0.0, SVG Export Plug-In . SVG Version: 6.00 Build 0)  -->
<!DOCTYPE svg PUBLIC "-//W3C//DTD SVG 1.1//EN" "http://www.w3.org/Graphics/SVG/1.1/DTD/svg11.dtd">
<svg version="1.1" id="Layer_1" xmlns="http://www.w3.org/2000/svg" xmlns:xlink="http://www.w3.org/1999/xlink" x="0px" y="0px"
	 width="500px" height="500px" viewBox="0 0 500 500" enable-background="new 0 0 500 500" xml:space="preserve">
<g>
	<linearGradient id="SVGID_1_" gradientUnits="userSpaceOnUse" x1="314.2617" y1="101.5146" x2="351.8418" y2="93.2651">
		<stop  offset="0.06" style="stop-color:#0D0D0D"/>
		<stop  offset="0.09" style="stop-color:#999999"/>
		<stop  offset="0.11" style="stop-color:#C8C8C8"/>
		<stop  offset="0.15" style="stop-color:#9D9D9D"/>
		<stop  offset="0.19" style="stop-color:#777777"/>
		<stop  offset="0.24" style="stop-color:#575757"/>
		<stop  offset="0.3" style="stop-color:#3B3B3B"/>
		<stop  offset="0.36" style="stop-color:#252525"/>
		<stop  offset="0.43" style="stop-color:#141414"/>
		<stop  offset="0.52" style="stop-color:#090909"/>
		<stop  offset="0.65" style="stop-color:#020202"/>
		<stop  offset="1" style="stop-color:#000000"/>
	</linearGradient>
	<path fill-rule="evenodd" clip-rule="evenodd" fill="url(#SVGID_1_)" d="M332.065,116.258c6.398,0,11.656-8.402,11.656-18.648
		c0-10.301-5.258-18.649-11.656-18.649c-6.451,0-11.654,8.349-11.654,18.649C320.411,107.855,325.614,116.258,332.065,116.258
		L332.065,116.258z"/>
	<linearGradient id="SVGID_2_" gradientUnits="userSpaceOnUse" x1="320.627" y1="109.4121" x2="320.627" y2="74.5164">
		<stop  offset="0.06" style="stop-color:#0D0D0D"/>
		<stop  offset="0.09" style="stop-color:#999999"/>
		<stop  offset="0.11" style="stop-color:#C8C8C8"/>
		<stop  offset="0.15" style="stop-color:#9D9D9D"/>
		<stop  offset="0.19" style="stop-color:#777777"/>
		<stop  offset="0.24" style="stop-color:#575757"/>
		<stop  offset="0.3" style="stop-color:#3B3B3B"/>
		<stop  offset="0.36" style="stop-color:#252525"/>
		<stop  offset="0.43" style="stop-color:#141414"/>
		<stop  offset="0.52" style="stop-color:#090909"/>
		<stop  offset="0.65" style="stop-color:#020202"/>
		<stop  offset="1" style="stop-color:#000000"/>
	</linearGradient>
	<path fill-rule="evenodd" clip-rule="evenodd" fill="url(#SVGID_2_)" d="M320.845,116.258c-6.451,0-11.656-8.349-11.656-18.648
		c0-10.301,5.205-18.649,11.656-18.649h11.221c-6.451,0-11.654,8.349-11.654,18.649c0,10.3,5.203,18.648,11.654,18.648H320.845z"/>
	<path fill-rule="evenodd" clip-rule="evenodd" fill="#BBBDBF" d="M356.565,194.324c0,0-6.724-29.005-7.59-31.443
		c-0.869-2.439,0.704-50.363,1.137-54.375c0.436-4.013,0.869-12.902-4.878-15.018c-5.747-2.168-12.469,0-14.204,9.325
		c-1.734,9.324-5.476,53.452-5.476,59.092c0,5.583,4.012,26.51,4.012,26.51L356.565,194.324z"/>
	<linearGradient id="SVGID_3_" gradientUnits="userSpaceOnUse" x1="354.334" y1="99.1538" x2="376.5851" y2="99.1538">
		<stop  offset="0.06" style="stop-color:#0D0D0D"/>
		<stop  offset="0.09" style="stop-color:#999999"/>
		<stop  offset="0.11" style="stop-color:#C8C8C8"/>
		<stop  offset="0.15" style="stop-color:#9D9D9D"/>
		<stop  offset="0.19" style="stop-color:#777777"/>
		<stop  offset="0.24" style="stop-color:#575757"/>
		<stop  offset="0.3" style="stop-color:#3B3B3B"/>
		<stop  offset="0.36" style="stop-color:#252525"/>
		<stop  offset="0.43" style="stop-color:#141414"/>
		<stop  offset="0.52" style="stop-color:#090909"/>
		<stop  offset="0.65" style="stop-color:#020202"/>
		<stop  offset="1" style="stop-color:#000000"/>
	</linearGradient>
	<path fill-rule="evenodd" clip-rule="evenodd" fill="url(#SVGID_3_)" d="M369.689,79.827c6.451,0,11.439,8.619,11.169,19.3
		c-0.272,10.681-5.692,19.354-12.144,19.354c-6.453,0-11.439-8.673-11.169-19.354C357.817,88.446,363.239,79.827,369.689,79.827
		L369.689,79.827z"/>
	<linearGradient id="SVGID_4_" gradientUnits="userSpaceOnUse" x1="405.5527" y1="87.2021" x2="336.5527" y2="97.7022">
		<stop  offset="0.06" style="stop-color:#0D0D0D"/>
		<stop  offset="0.09" style="stop-color:#999999"/>
		<stop  offset="0.11" style="stop-color:#C8C8C8"/>
		<stop  offset="0.15" style="stop-color:#9D9D9D"/>
		<stop  offset="0.19" style="stop-color:#777777"/>
		<stop  offset="0.24" style="stop-color:#575757"/>
		<stop  offset="0.3" style="stop-color:#3B3B3B"/>
		<stop  offset="0.36" style="stop-color:#252525"/>
		<stop  offset="0.43" style="stop-color:#141414"/>
		<stop  offset="0.52" style="stop-color:#090909"/>
		<stop  offset="0.65" style="stop-color:#020202"/>
		<stop  offset="1" style="stop-color:#000000"/>
	</linearGradient>
	<path fill-rule="evenodd" clip-rule="evenodd" fill="url(#SVGID_4_)" d="M384.164,76.086c11.006,0,20.167,8.187,21.577,18.813
		c-3.633-6.939-10.896-11.656-19.301-11.656c-12.035,0-21.791,9.759-21.791,21.794c0,1.03,0.054,2.006,0.216,2.981
		c-1.626-3.035-2.495-6.451-2.495-10.138C362.37,85.845,372.129,76.086,384.164,76.086L384.164,76.086z"/>
	<linearGradient id="SVGID_5_" gradientUnits="userSpaceOnUse" x1="252.5908" y1="298" x2="252.5908" y2="222.8918">
		<stop  offset="0.06" style="stop-color:#0D0D0D"/>
		<stop  offset="0.09" style="stop-color:#999999"/>
		<stop  offset="0.11" style="stop-color:#C8C8C8"/>
		<stop  offset="0.15" style="stop-color:#9D9D9D"/>
		<stop  offset="0.19" style="stop-color:#777777"/>
		<stop  offset="0.24" style="stop-color:#575757"/>
		<stop  offset="0.3" style="stop-color:#3B3B3B"/>
		<stop  offset="0.36" style="stop-color:#252525"/>
		<stop  offset="0.43" style="stop-color:#141414"/>
		<stop  offset="0.52" style="stop-color:#090909"/>
		<stop  offset="0.65" style="stop-color:#020202"/>
		<stop  offset="1" style="stop-color:#000000"/>
	</linearGradient>
	<polygon fill-rule="evenodd" clip-rule="evenodd" fill="url(#SVGID_5_)" points="113.916,423.045 103.019,368.834 105.295,351.486 
		119.933,351.486 133.432,299.713 82.526,288.111 83.23,273.475 137.823,283.992 150.128,243.549 162.164,243.276 387.363,289.141 
		398.692,338.801 422.655,360.432 422.655,376.369 405.903,379.514 359.443,335.764 359.281,321.289 374.352,318.85 
		381.237,323.457 373.322,293.912 220.008,259.922 150.563,301.068 128.823,372.141 137.063,405.428 134.841,423.914 	"/>
	<linearGradient id="SVGID_6_" gradientUnits="userSpaceOnUse" x1="268.6465" y1="274.9922" x2="282.1466" y2="214.4918">
		<stop  offset="0.06" style="stop-color:#0D0D0D"/>
		<stop  offset="0.09" style="stop-color:#999999"/>
		<stop  offset="0.11" style="stop-color:#C8C8C8"/>
		<stop  offset="0.15" style="stop-color:#9D9D9D"/>
		<stop  offset="0.19" style="stop-color:#777777"/>
		<stop  offset="0.24" style="stop-color:#575757"/>
		<stop  offset="0.3" style="stop-color:#3B3B3B"/>
		<stop  offset="0.36" style="stop-color:#252525"/>
		<stop  offset="0.43" style="stop-color:#141414"/>
		<stop  offset="0.52" style="stop-color:#090909"/>
		<stop  offset="0.65" style="stop-color:#020202"/>
		<stop  offset="1" style="stop-color:#000000"/>
	</linearGradient>
	<path fill-rule="evenodd" clip-rule="evenodd" fill="url(#SVGID_6_)" d="M125.841,271.957c0,0,5.313,7.535,6.939,8.24
		c1.627,0.703,13.933,2.385,15.776,2.492c1.843,0.162,3.578-1.137,5.096-6.451c1.517-5.313,9.703-32.743,9.703-32.743
		l224.007,45.646c0,0,15.449,2.82,18.433-0.055c3.034-2.871,7.481-14.041,6.884-19.515c-0.542-5.422-26.076-17.024-36.81-20.494
		c-10.788-3.468-179.498-28.407-193.539-28.676C168.29,220.074,135.6,221.214,125.841,271.957L125.841,271.957z"/>
	<path fill-rule="evenodd" clip-rule="evenodd" fill="#BBBDBF" d="M419.891,223.382c13.335,4.878,20.384,19.136,15.722,31.769
		c-4.663,12.632-19.3,18.865-32.635,13.932c-13.337-4.879-20.386-19.137-15.723-31.768
		C391.917,224.682,406.554,218.447,419.891,223.382L419.891,223.382z"/>
	<path fill-rule="evenodd" clip-rule="evenodd" fill="#BBBDBF" d="M263.488,183.535c0,0-37.028-5.907-49.66-7.913
		c-12.631-2.006-67.982,1.029-77.144,2.006c-9.216,1.029-14.8,8.349-16.643,14.526c-1.897,6.126-43.045,82.891-44.617,86.902
		c-1.573,4.012-1.085,8.785,6.396,10.193c7.156-11.926,36.647-86.144,52.532-93.68c16.372-7.753,83.216-9.434,86.685-9.161
		c3.416,0.27,15.18-2.604,23.799-2.874C253.459,183.265,263.488,183.535,263.488,183.535L263.488,183.535z"/>
	<path fill-rule="evenodd" clip-rule="evenodd" fill="#EEEEEE" d="M397.067,224.521c0,0-15.018-23.421-26.509-28.407
		c-11.494-5.043-19.788-7.211-27.107-9.218c-7.317-2.006-16.914-4.716-27.377-3.415c-10.519,1.302-20.981,2.168-28.733,2.168
		c-7.751,0-14.637-0.866-14.637-0.866s9.487,3.74,14.528,27.105c4.988,23.364-0.759,32.852-0.759,32.852s30.305,2.767,45.051,9.65
		c14.801,6.887,37.732,15.072,51.936,15.506C397.664,270.33,409.428,245.934,397.067,224.521L397.067,224.521z"/>
	<path fill-rule="evenodd" clip-rule="evenodd" fill="#BBBDBF" d="M402.108,239.916c0,0-7.263-55.677-8.077-59.957
		c-0.867-4.285-1.029-56.653-1.897-62.833c-0.867-6.181-18.648-4.283-18.648,1.571c0,3.361-4.392,34.208-5.098,63.051
		c-0.487,21.792,2.55,42.284,3.254,49.982c1.572,17.944,4.878,21.088,14.637,21.957
		C396.037,254.553,401.729,249.837,402.108,239.916L402.108,239.916z"/>
	<path fill-rule="evenodd" clip-rule="evenodd" fill="#EEEEEE" d="M263.488,183.535c0,0,11.005,6.613,16.48,26.563
		c5.477,19.896-1.572,32.692-1.572,32.692s-24.938-0.706-41.311-5.909c-16.373-5.151-53.941-11.767-64.242-10.628
		c-10.354,1.194-18.975,4.609-18.975,4.609s-33.557,56.814-41.851,70.313c-8.35,13.445-9.488,15.451-12.903,16.916
		c-3.469,1.408-15.776,4.012-20.113-4.609c-4.283-8.619-3.741-14.746,2.331-23.365c6.018-8.619,36.703-86.794,53.021-94.547
		c16.372-7.753,83.216-9.434,86.685-9.161c3.416,0.27,15.18-2.604,23.799-2.874C253.459,183.265,263.488,183.535,263.488,183.535
		L263.488,183.535z"/>
	<linearGradient id="SVGID_7_" gradientUnits="userSpaceOnUse" x1="81.3062" y1="308" x2="81.3062" y2="263.4551">
		<stop  offset="0.06" style="stop-color:#0D0D0D"/>
		<stop  offset="0.09" style="stop-color:#999999"/>
		<stop  offset="0.11" style="stop-color:#C8C8C8"/>
		<stop  offset="0.15" style="stop-color:#9D9D9D"/>
		<stop  offset="0.19" style="stop-color:#777777"/>
		<stop  offset="0.24" style="stop-color:#575757"/>
		<stop  offset="0.3" style="stop-color:#3B3B3B"/>
		<stop  offset="0.36" style="stop-color:#252525"/>
		<stop  offset="0.43" style="stop-color:#141414"/>
		<stop  offset="0.52" style="stop-color:#090909"/>
		<stop  offset="0.65" style="stop-color:#020202"/>
		<stop  offset="1" style="stop-color:#000000"/>
	</linearGradient>
	<path fill-rule="evenodd" clip-rule="evenodd" fill="url(#SVGID_7_)" d="M81.279,306.598c7.915,0,14.367-5.855,14.367-13.066
		c0-7.154-6.452-13.064-14.367-13.064c-7.86,0-14.312,5.91-14.312,13.064C66.967,300.742,73.419,306.598,81.279,306.598
		L81.279,306.598z"/>
	<linearGradient id="SVGID_8_" gradientUnits="userSpaceOnUse" x1="62.1035" y1="271.9502" x2="111.1043" y2="264.4501">
		<stop  offset="0.06" style="stop-color:#0D0D0D"/>
		<stop  offset="0.09" style="stop-color:#999999"/>
		<stop  offset="0.11" style="stop-color:#C8C8C8"/>
		<stop  offset="0.15" style="stop-color:#9D9D9D"/>
		<stop  offset="0.19" style="stop-color:#777777"/>
		<stop  offset="0.24" style="stop-color:#575757"/>
		<stop  offset="0.3" style="stop-color:#3B3B3B"/>
		<stop  offset="0.36" style="stop-color:#252525"/>
		<stop  offset="0.43" style="stop-color:#141414"/>
		<stop  offset="0.52" style="stop-color:#090909"/>
		<stop  offset="0.65" style="stop-color:#020202"/>
		<stop  offset="1" style="stop-color:#000000"/>
	</linearGradient>
	<path fill-rule="evenodd" clip-rule="evenodd" fill="url(#SVGID_8_)" d="M66.967,293.531l-3.958-36.539
		c0,0-0.867-6.775,4.012-10.787c4.879-4.012,11.765-2.981,14.476-1.733c2.764,1.3,5.746,5.474,6.018,8.89
		c0.054,0.596,0.379,1.789,0.813,3.469l0,0l7.644,34.695c-0.054,0.814-0.162,1.465-0.325,2.006c0-7.209-6.452-13.064-14.367-13.064
		C73.365,280.467,66.967,286.322,66.967,293.531L66.967,293.531z"/>
	<linearGradient id="SVGID_9_" gradientUnits="userSpaceOnUse" x1="81.3062" y1="305.4941" x2="81.3062" y2="280.4038">
		<stop  offset="0" style="stop-color:#FFFFFF"/>
		<stop  offset="0.07" style="stop-color:#434341"/>
		<stop  offset="0.14" style="stop-color:#20201E"/>
		<stop  offset="0.22" style="stop-color:#1E1E1C"/>
		<stop  offset="0.24" style="stop-color:#2A2A28"/>
		<stop  offset="0.61" style="stop-color:#FFFFFF"/>
		<stop  offset="0.68" style="stop-color:#FCFCFC"/>
		<stop  offset="0.74" style="stop-color:#F3F3F3"/>
		<stop  offset="0.78" style="stop-color:#E4E4E4"/>
		<stop  offset="0.82" style="stop-color:#CFCFCF"/>
		<stop  offset="0.86" style="stop-color:#B3B3B3"/>
		<stop  offset="0.89" style="stop-color:#919191"/>
		<stop  offset="0.93" style="stop-color:#686868"/>
		<stop  offset="0.96" style="stop-color:#393939"/>
		<stop  offset="0.99" style="stop-color:#060606"/>
		<stop  offset="0.99" style="stop-color:#000000"/>
	</linearGradient>
	<path fill-rule="evenodd" clip-rule="evenodd" fill="url(#SVGID_9_)" d="M81.279,301.719c4.988,0,9-3.686,9-8.188
		c0-4.498-4.012-8.186-9-8.186c-4.933,0-8.944,3.688-8.944,8.186C72.334,298.033,76.346,301.719,81.279,301.719L81.279,301.719z"/>
	<linearGradient id="SVGID_10_" gradientUnits="userSpaceOnUse" x1="357.1982" y1="105.0625" x2="406.4835" y2="105.0625">
		<stop  offset="0.06" style="stop-color:#0D0D0D"/>
		<stop  offset="0.09" style="stop-color:#999999"/>
		<stop  offset="0.11" style="stop-color:#C8C8C8"/>
		<stop  offset="0.15" style="stop-color:#9D9D9D"/>
		<stop  offset="0.19" style="stop-color:#777777"/>
		<stop  offset="0.24" style="stop-color:#575757"/>
		<stop  offset="0.3" style="stop-color:#3B3B3B"/>
		<stop  offset="0.36" style="stop-color:#252525"/>
		<stop  offset="0.43" style="stop-color:#141414"/>
		<stop  offset="0.52" style="stop-color:#090909"/>
		<stop  offset="0.65" style="stop-color:#020202"/>
		<stop  offset="1" style="stop-color:#000000"/>
	</linearGradient>
	<path fill-rule="evenodd" clip-rule="evenodd" fill="url(#SVGID_10_)" d="M386.44,126.883c12.036,0,21.794-9.812,21.794-21.847
		c0-11.981-9.758-21.794-21.794-21.794c-11.98,0-21.791,9.813-21.791,21.794C364.649,117.071,374.46,126.883,386.44,126.883
		L386.44,126.883z"/>
	<linearGradient id="SVGID_11_" gradientUnits="userSpaceOnUse" x1="386.4414" y1="98.9995" x2="386.4414" y2="63.7717">
		<stop  offset="0.06" style="stop-color:#0D0D0D"/>
		<stop  offset="0.09" style="stop-color:#999999"/>
		<stop  offset="0.11" style="stop-color:#C8C8C8"/>
		<stop  offset="0.15" style="stop-color:#9D9D9D"/>
		<stop  offset="0.19" style="stop-color:#777777"/>
		<stop  offset="0.24" style="stop-color:#575757"/>
		<stop  offset="0.3" style="stop-color:#3B3B3B"/>
		<stop  offset="0.36" style="stop-color:#252525"/>
		<stop  offset="0.43" style="stop-color:#141414"/>
		<stop  offset="0.52" style="stop-color:#090909"/>
		<stop  offset="0.65" style="stop-color:#020202"/>
		<stop  offset="1" style="stop-color:#000000"/>
	</linearGradient>
	<path fill-rule="evenodd" clip-rule="evenodd" fill="url(#SVGID_11_)" d="M386.44,79.936c12.036,0,21.794,9.759,21.794,21.848
		c0,0.542,0,1.085-0.054,1.626c-0.813-11.275-10.246-20.167-21.74-20.167c-11.491,0-20.871,8.892-21.737,20.167
		c-0.054-0.541-0.054-1.084-0.054-1.626C364.649,89.694,374.405,79.936,386.44,79.936L386.44,79.936z"/>
	
		<linearGradient id="SVGID_12_" gradientUnits="userSpaceOnUse" x1="337.8115" y1="105.2031" x2="337.6051" y2="89.4131" gradientTransform="matrix(0.9371 0.1758 -0.1262 0.6727 34.0244 -26.7954)">
		<stop  offset="0" style="stop-color:#FFFFFF"/>
		<stop  offset="0.07" style="stop-color:#434341"/>
		<stop  offset="0.14" style="stop-color:#20201E"/>
		<stop  offset="0.22" style="stop-color:#1E1E1C"/>
		<stop  offset="0.24" style="stop-color:#2A2A28"/>
		<stop  offset="0.61" style="stop-color:#FFFFFF"/>
		<stop  offset="0.68" style="stop-color:#FCFCFC"/>
		<stop  offset="0.74" style="stop-color:#F3F3F3"/>
		<stop  offset="0.78" style="stop-color:#E4E4E4"/>
		<stop  offset="0.82" style="stop-color:#CFCFCF"/>
		<stop  offset="0.86" style="stop-color:#B3B3B3"/>
		<stop  offset="0.89" style="stop-color:#919191"/>
		<stop  offset="0.93" style="stop-color:#686868"/>
		<stop  offset="0.96" style="stop-color:#393939"/>
		<stop  offset="0.99" style="stop-color:#060606"/>
		<stop  offset="0.99" style="stop-color:#000000"/>
	</linearGradient>
	<path fill-rule="evenodd" clip-rule="evenodd" fill="url(#SVGID_12_)" d="M339.324,95.826c0,0-7.038-0.3-7.922-0.198
		c-0.954,0.13-2.102,1.171-2.325,2.372c-0.235,1.241,0.216,3.291,1.739,3.754c1.518,0.463,15.478,0.63,15.478,0.63
		c0.937,1.938-0.644-5.284-0.581-6.181L339.324,95.826z"/>
	<linearGradient id="SVGID_13_" gradientUnits="userSpaceOnUse" x1="357.5947" y1="109.4121" x2="357.5947" y2="74.5159">
		<stop  offset="0.06" style="stop-color:#0D0D0D"/>
		<stop  offset="0.09" style="stop-color:#999999"/>
		<stop  offset="0.11" style="stop-color:#C8C8C8"/>
		<stop  offset="0.15" style="stop-color:#9D9D9D"/>
		<stop  offset="0.19" style="stop-color:#777777"/>
		<stop  offset="0.24" style="stop-color:#575757"/>
		<stop  offset="0.3" style="stop-color:#3B3B3B"/>
		<stop  offset="0.36" style="stop-color:#252525"/>
		<stop  offset="0.43" style="stop-color:#141414"/>
		<stop  offset="0.52" style="stop-color:#090909"/>
		<stop  offset="0.65" style="stop-color:#020202"/>
		<stop  offset="1" style="stop-color:#000000"/>
	</linearGradient>
	<path fill-rule="evenodd" clip-rule="evenodd" fill="url(#SVGID_13_)" d="M357.654,79.827c0.217,0,0.379,0,0.596,0l0,0h11.439
		c-6.45,0-11.872,8.619-12.144,19.3c-0.271,10.681,4.716,19.354,11.169,19.354H356.68c-6.453,0-11.439-8.673-11.169-19.354
		C345.782,88.446,351.204,79.827,357.654,79.827L357.654,79.827z"/>
</g>
</svg>
