<?xml version="1.0" encoding="utf-8"?>
<!-- Generator: Adobe Illustrator 16.0.0, SVG Export Plug-In . SVG Version: 6.00 Build 0)  -->
<!DOCTYPE svg PUBLIC "-//W3C//DTD SVG 1.1//EN" "http://www.w3.org/Graphics/SVG/1.1/DTD/svg11.dtd">
<svg version="1.1" id="Layer_1" xmlns="http://www.w3.org/2000/svg" xmlns:xlink="http://www.w3.org/1999/xlink" x="0px" y="0px"
	 width="500px" height="500px" viewBox="0 0 500 500" enable-background="new 0 0 500 500" xml:space="preserve">
<g>
	<path fill-rule="evenodd" clip-rule="evenodd" fill="#EEEEEE" d="M420.121,273.505c14.975,4.339,24.027,18.521,20.19,31.62
		c-3.797,13.142-19.065,20.191-34.04,15.812c-14.978-4.338-24.03-18.521-20.191-31.622
		C389.918,276.217,405.145,269.124,420.121,273.505L420.121,273.505z"/>
	<linearGradient id="SVGID_1_" gradientUnits="userSpaceOnUse" x1="296.8018" y1="139.0542" x2="384.4416" y2="139.0542">
		<stop  offset="0.06" style="stop-color:#0D0D0D"/>
		<stop  offset="0.09" style="stop-color:#999999"/>
		<stop  offset="0.11" style="stop-color:#C8C8C8"/>
		<stop  offset="0.15" style="stop-color:#9D9D9D"/>
		<stop  offset="0.19" style="stop-color:#777777"/>
		<stop  offset="0.24" style="stop-color:#575757"/>
		<stop  offset="0.3" style="stop-color:#3B3B3B"/>
		<stop  offset="0.36" style="stop-color:#252525"/>
		<stop  offset="0.43" style="stop-color:#141414"/>
		<stop  offset="0.52" style="stop-color:#090909"/>
		<stop  offset="0.65" style="stop-color:#020202"/>
		<stop  offset="1" style="stop-color:#000000"/>
	</linearGradient>
	<path fill-rule="evenodd" clip-rule="evenodd" fill="url(#SVGID_1_)" d="M346.449,113.941c13.85,9.511,17.396,28.45,7.884,42.342
		c-9.511,13.85-28.491,17.395-42.341,7.884c-13.892-9.511-17.396-28.45-7.885-42.342
		C313.619,107.976,332.558,104.43,346.449,113.941L346.449,113.941z M338.648,116.403c0,0-9.553-2.503-12.432-1.67
		c-2.877,0.835-4.587,3.755-1.209,7.009c3.421,3.212,10.429,5.256,15.059,4.255c4.589-1.043,4.673-3.713,4.798-4.338
		C344.947,121.032,343.947,118.405,338.648,116.403L338.648,116.403z M348.703,143.477c0,0,2.168,0.458,2.795,1.71
		c0.583,1.252-0.167,5.339-4.422,9.97c-4.298,4.63-9.012,6.801-10.722,6.216c-1.668-0.583-2.92-3.212-1.71-6.299
		c1.21-3.045,4.589-7.759,7.551-9.636C345.157,143.56,347.701,143.352,348.703,143.477L348.703,143.477z M308.988,133.255
		c0,0-3.212,0.208-3.671,3.588c-0.458,3.421,2.837,14.059,4.631,16.853c1.794,2.795,4.964,1.71,6.299-0.917
		C318.542,148.232,314.662,134.632,308.988,133.255L308.988,133.255z"/>
	<linearGradient id="SVGID_2_" gradientUnits="userSpaceOnUse" x1="79.6201" y1="169.4785" x2="104.6383" y2="154.2712">
		<stop  offset="0.06" style="stop-color:#0D0D0D"/>
		<stop  offset="0.09" style="stop-color:#999999"/>
		<stop  offset="0.11" style="stop-color:#C8C8C8"/>
		<stop  offset="0.15" style="stop-color:#9D9D9D"/>
		<stop  offset="0.19" style="stop-color:#777777"/>
		<stop  offset="0.24" style="stop-color:#575757"/>
		<stop  offset="0.3" style="stop-color:#3B3B3B"/>
		<stop  offset="0.36" style="stop-color:#252525"/>
		<stop  offset="0.43" style="stop-color:#141414"/>
		<stop  offset="0.52" style="stop-color:#090909"/>
		<stop  offset="0.65" style="stop-color:#020202"/>
		<stop  offset="1" style="stop-color:#000000"/>
	</linearGradient>
	<path fill-rule="evenodd" clip-rule="evenodd" fill="url(#SVGID_2_)" d="M79.549,187.612c9.97,0,18.105-8.134,18.105-18.104
		c0-9.971-8.135-18.063-18.105-18.063s-18.104,8.092-18.104,18.063C61.445,179.478,69.579,187.612,79.549,187.612L79.549,187.612z"
		/>
	<path fill-rule="evenodd" clip-rule="evenodd" fill="#EEEEEE" d="M268.9,220.65c0,0-4.173,17.438-7.26,28.033
		c-3.087,10.596-6.424,20.524-6.424,20.524s48.808,17.896,55.649,20.733c6.841,2.877,20.732,14.142,38.837,17.438
		c18.105,3.337,23.612-1.294,25.822-4.839c2.211-3.547,5.298-26.281,3.088-33.999c-2.211-7.718-30.912-30.452-41.257-35.542
		c-10.388-5.089-20.107-7.717-24.529-7.926C308.446,224.823,286.587,226.158,268.9,220.65L268.9,220.65z"/>
	<path fill-rule="evenodd" clip-rule="evenodd" fill="#BBBDBF" d="M342.653,252.855c0,0,3.421,27.407,3.421,30.035
		c0,2.671,1.085,11.138,9.053,13.809c7.926,2.629,19.857-1.794,19.648-14.142c-0.251-12.349-7.509-49.559-8.303-55.733
		c-0.75-6.174-8.384-40.631-8.718-42.842c-0.334-2.17-3.422-25.906-3.838-28.66c-0.459-2.794-1.877-9.386-7.301-10.305
		c-5.423-0.875-10.387,1.336-10.387,7.634C336.229,158.953,338.899,224.154,342.653,252.855L342.653,252.855z"/>
	<path fill-rule="evenodd" clip-rule="evenodd" fill="#AAAAAA" d="M329.054,229.37c0,0-4.756-57.526-4.756-69
		c0-11.471,2.462-17.646,4.756-19.522c2.337-1.877,7.593,0.208,7.468,9.344c-0.084,9.178,4.255,84.726,4.255,84.726L329.054,229.37z
		"/>
	<path fill-rule="evenodd" clip-rule="evenodd" fill="#EEEEEE" d="M263.727,219.524c0,0-3.421,16.479-7.635,31.037
		c-4.17,14.56-6.508,17.229-6.508,17.229s-13.892-3.754-19.189-5.089c-5.297-1.335-20.648-3.879-29.159-12.598
		c-8.468-8.719-44.011-72.71-44.011-72.71S94.4,206.509,80.3,211.39c-14.142,4.84-19.106-3.129-21.317-8.635
		c-2.211-5.507-2.211-12.598,5.298-17.229c7.508-4.63,85.852-45.012,92.025-46.764c6.216-1.793,12.807,0.417,19.898,5.506
		c7.051,5.09,49.892,51.436,52.979,56.276c3.087,4.881,6.383,8.175,8.178,9.051C239.113,210.473,263.727,219.524,263.727,219.524
		L263.727,219.524z"/>
	<linearGradient id="SVGID_3_" gradientUnits="userSpaceOnUse" x1="165.4209" y1="296.8711" x2="449.6934" y2="296.8711">
		<stop  offset="0.06" style="stop-color:#0D0D0D"/>
		<stop  offset="0.09" style="stop-color:#999999"/>
		<stop  offset="0.11" style="stop-color:#C8C8C8"/>
		<stop  offset="0.15" style="stop-color:#9D9D9D"/>
		<stop  offset="0.19" style="stop-color:#777777"/>
		<stop  offset="0.24" style="stop-color:#575757"/>
		<stop  offset="0.3" style="stop-color:#3B3B3B"/>
		<stop  offset="0.36" style="stop-color:#252525"/>
		<stop  offset="0.43" style="stop-color:#141414"/>
		<stop  offset="0.52" style="stop-color:#090909"/>
		<stop  offset="0.65" style="stop-color:#020202"/>
		<stop  offset="1" style="stop-color:#000000"/>
	</linearGradient>
	<path fill-rule="evenodd" clip-rule="evenodd" fill="url(#SVGID_3_)" d="M206.867,250.436c0,0-23.403-7.716-26.573-8.843
		c-3.212-1.085-9.303-2.087-11.18-0.21c-1.877,1.877-3.295,9.805-3.629,12.475c-0.334,2.627,0.542,4.504,4.964,7.299
		c4.422,2.754,267.985,91.609,267.985,91.609s5.924,1.96,7.009-0.96c1.127-2.92,3.879-8.968,4.214-10.47
		c0.333-1.502-1.544-6.509-6.3-9.553c-4.755-3.045-90.231-31.997-90.231-31.997L206.867,250.436z"/>
	<linearGradient id="SVGID_4_" gradientUnits="userSpaceOnUse" x1="260.2754" y1="291.7852" x2="211.7106" y2="424.2346">
		<stop  offset="0.06" style="stop-color:#0D0D0D"/>
		<stop  offset="0.09" style="stop-color:#999999"/>
		<stop  offset="0.11" style="stop-color:#C8C8C8"/>
		<stop  offset="0.15" style="stop-color:#9D9D9D"/>
		<stop  offset="0.19" style="stop-color:#777777"/>
		<stop  offset="0.24" style="stop-color:#575757"/>
		<stop  offset="0.3" style="stop-color:#3B3B3B"/>
		<stop  offset="0.36" style="stop-color:#252525"/>
		<stop  offset="0.43" style="stop-color:#141414"/>
		<stop  offset="0.52" style="stop-color:#090909"/>
		<stop  offset="0.65" style="stop-color:#020202"/>
		<stop  offset="1" style="stop-color:#000000"/>
	</linearGradient>
	<path fill-rule="evenodd" clip-rule="evenodd" fill="url(#SVGID_4_)" d="M436.432,352.058c0,0-2.921,6.757-3.254,7.382
		c-0.292,0.585-1.252,0.877-3.296,0.334c-2.043-0.584-109.379-37.753-109.379-37.753s-2.879,14.351-6.174,15.561
		c-3.338,1.21-7.51,0.083-8.386-1.335c-0.876-1.419-0.876-2.086-0.876-2.086l-6.757,0.584l-0.085,2.336l-65.453,4.673l-0.417,2.127
		c0,0-7.76,2.587-8.135,3.672c-0.417,1.125,0.71,2.71,0.71,2.71h106.502v-10.721c0,0-0.502-0.875,0-1.627
		c0.5-0.792,0.75-2.127,2.002-2.502c1.21-0.375,7.426,2.544,8.636,3.337c1.209,0.75,1.042,1.585,0.5,2.336
		c-0.542,0.793-1.21,1.795-1.335,3.422c-0.083,1.668,0,5.422,0,5.422s19.482-0.542,30.411,6.174
		c10.93,6.758,14.143,12.14,14.143,12.14s6.632,1.669,8.009,2.712c1.377,1.042,1.21,5.34,1.169,6.341
		c-0.085,1.001-1.837,2.044-3.172,2.377c-1.334,0.334-14.059,0.627-17.688-0.041c-3.671-0.667-6.216-2.002-6.299-2.419
		c-0.125-0.46-0.625-4.006-0.625-4.714c0-0.71,0.875-1.962,0.875-1.962s-7.341-4.756-15.477-5.631
		c-8.177-0.918-132.7-1.793-132.7-1.793s-1.46,1.292-2.878,1.042c-1.377-0.209-2.587-1.627-2.587-1.627l-83.724-1.042
		c0,0-3.463,2.919-9.011,5.464c-5.59,2.503-25.071,11.89-25.071,11.89s5.298,0.833,6.466,2.044c1.126,1.21,0.417,4.922,0.417,4.922
		s-9.595,3.964-15.227,4.964c-5.631,1.002-15.351,0.71-18.354-0.208c-3.045-0.959-3.212-1.461-3.337-2.544
		c-0.083-1.127-0.083-2.504,0.167-2.879c0.292-0.375,2.043-1.252,2.043-1.252s-3.587-0.291-4.922-1.502
		c-1.293-1.21-3.63-4.922-2.92-7.134c0.709-2.21,2.294-4.254,2.294-4.254s-0.333-1.585,2.419-2.295
		c2.753-0.709,15.769-4.381,15.769-4.381s0.959-1.585,1.585-2.294c0.667-0.71,1.292-1.168,1.292-1.168s-3.587-1.544-3.963-4.129
		c-0.417-2.587,2.128-7.009,2.128-7.009l19.231-5.131c0,0-2.044-2.337,0.042-4.089c2.085-1.752,9.594-4.297,12.139-3.754
		c2.545,0.542,3.421,2.752,3.421,2.752s10.93,4.756,11.931,5.508c1.001,0.792,1.543,2.21,1.543,2.21l21.275,0.46
		c0,0,1.002-2.879,1.668-3.087c0.667-0.25,2.67-0.25,2.67-0.25s3.504-12.349,3.963-12.892c0.417-0.542,1.668-0.875,1.668-0.875
		l1.293-43.927c0,0-1.085-2.212-0.083-4.883c0.959-2.627,4.171-11.888,4.171-11.888s-32.789-9.053-44.928-22.777
		c-12.139-13.683-29.034-41.006-29.034-41.006l10.304-4.464l2.169,3.337l24.613-13.808l4.421,7.509l-23.736,15.352
		c0,0,12.139,23.403,25.614,32.205C150.3,255.066,436.432,352.058,436.432,352.058L436.432,352.058z M307.863,317.809
		c0,0-2.629,5.756-2.754,6.716c-0.083,1-0.083,1.46-0.083,1.46l-6.633,0.083c0,0,0.333-2.837-1.335-2.837
		c-1.669,0-64.12,4.297-64.12,4.297s-0.333-2.336-2.335-2.003c-1.961,0.335-12.224,2.545-15.561,9.261
		c-3.295,6.759-4.505,11.39-4.714,13.059c-0.25,1.627-0.25,3.42-0.25,3.42l-25.696-1.46c0,0,0.417-3.421-0.335-4.089
		c-0.792-0.667-2.544-0.667-2.544-0.667l-3.629-14.433l-3.212-0.669l0.209-43.594c0,0,2.753-6.09,3.629-8.843
		c0.917-2.753,1.001-3.295,1.001-3.295L307.863,317.809z"/>
	<linearGradient id="SVGID_5_" gradientUnits="userSpaceOnUse" x1="123.147" y1="186.3188" x2="163.1331" y2="186.3188">
		<stop  offset="0.06" style="stop-color:#0D0D0D"/>
		<stop  offset="0.09" style="stop-color:#999999"/>
		<stop  offset="0.11" style="stop-color:#C8C8C8"/>
		<stop  offset="0.15" style="stop-color:#9D9D9D"/>
		<stop  offset="0.19" style="stop-color:#777777"/>
		<stop  offset="0.24" style="stop-color:#575757"/>
		<stop  offset="0.3" style="stop-color:#3B3B3B"/>
		<stop  offset="0.36" style="stop-color:#252525"/>
		<stop  offset="0.43" style="stop-color:#141414"/>
		<stop  offset="0.52" style="stop-color:#090909"/>
		<stop  offset="0.65" style="stop-color:#020202"/>
		<stop  offset="1" style="stop-color:#000000"/>
	</linearGradient>
	<path fill-rule="evenodd" clip-rule="evenodd" fill="url(#SVGID_5_)" d="M147.88,204.423c9.97,0,18.104-8.136,18.104-18.105
		c0-9.97-8.134-18.104-18.104-18.104s-18.104,8.134-18.104,18.104C129.776,196.288,137.91,204.423,147.88,204.423L147.88,204.423z"
		/>
	<linearGradient id="SVGID_6_" gradientUnits="userSpaceOnUse" x1="147.8804" y1="198.4092" x2="147.8804" y2="170.4245">
		<stop  offset="0" style="stop-color:#FFFFFF"/>
		<stop  offset="0.07" style="stop-color:#434341"/>
		<stop  offset="0.14" style="stop-color:#20201E"/>
		<stop  offset="0.22" style="stop-color:#1E1E1C"/>
		<stop  offset="0.24" style="stop-color:#2A2A28"/>
		<stop  offset="0.61" style="stop-color:#FFFFFF"/>
		<stop  offset="0.68" style="stop-color:#FCFCFC"/>
		<stop  offset="0.74" style="stop-color:#F3F3F3"/>
		<stop  offset="0.78" style="stop-color:#E4E4E4"/>
		<stop  offset="0.82" style="stop-color:#CFCFCF"/>
		<stop  offset="0.86" style="stop-color:#B3B3B3"/>
		<stop  offset="0.89" style="stop-color:#919191"/>
		<stop  offset="0.93" style="stop-color:#686868"/>
		<stop  offset="0.96" style="stop-color:#393939"/>
		<stop  offset="0.99" style="stop-color:#060606"/>
		<stop  offset="0.99" style="stop-color:#000000"/>
	</linearGradient>
	<path fill-rule="evenodd" clip-rule="evenodd" fill="url(#SVGID_6_)" d="M147.88,196.665c5.715,0,10.387-4.631,10.387-10.346
		c0-5.716-4.672-10.387-10.387-10.387s-10.387,4.671-10.387,10.387C137.493,192.034,142.166,196.665,147.88,196.665L147.88,196.665z
		"/>
	<linearGradient id="SVGID_7_" gradientUnits="userSpaceOnUse" x1="144.5435" y1="186.2974" x2="151.1758" y2="186.2974">
		<stop  offset="0" style="stop-color:#FFFFFF"/>
		<stop  offset="0.07" style="stop-color:#434341"/>
		<stop  offset="0.14" style="stop-color:#20201E"/>
		<stop  offset="0.22" style="stop-color:#1E1E1C"/>
		<stop  offset="0.24" style="stop-color:#2A2A28"/>
		<stop  offset="0.61" style="stop-color:#FFFFFF"/>
		<stop  offset="0.68" style="stop-color:#FCFCFC"/>
		<stop  offset="0.74" style="stop-color:#F3F3F3"/>
		<stop  offset="0.78" style="stop-color:#E4E4E4"/>
		<stop  offset="0.82" style="stop-color:#CFCFCF"/>
		<stop  offset="0.86" style="stop-color:#B3B3B3"/>
		<stop  offset="0.89" style="stop-color:#919191"/>
		<stop  offset="0.93" style="stop-color:#686868"/>
		<stop  offset="0.96" style="stop-color:#393939"/>
		<stop  offset="0.99" style="stop-color:#060606"/>
		<stop  offset="0.99" style="stop-color:#000000"/>
	</linearGradient>
	<path fill-rule="evenodd" clip-rule="evenodd" fill="url(#SVGID_7_)" d="M147.88,189.614c1.835,0,3.295-1.5,3.295-3.295
		c0-1.835-1.46-3.337-3.295-3.337c-1.835,0-3.337,1.502-3.337,3.337C144.543,188.113,146.045,189.614,147.88,189.614L147.88,189.614
		z"/>
	<linearGradient id="SVGID_8_" gradientUnits="userSpaceOnUse" x1="41.9878" y1="170.5508" x2="86.6262" y2="171.0416">
		<stop  offset="0.06" style="stop-color:#0D0D0D"/>
		<stop  offset="0.09" style="stop-color:#999999"/>
		<stop  offset="0.11" style="stop-color:#C8C8C8"/>
		<stop  offset="0.15" style="stop-color:#9D9D9D"/>
		<stop  offset="0.19" style="stop-color:#777777"/>
		<stop  offset="0.24" style="stop-color:#575757"/>
		<stop  offset="0.3" style="stop-color:#3B3B3B"/>
		<stop  offset="0.36" style="stop-color:#252525"/>
		<stop  offset="0.43" style="stop-color:#141414"/>
		<stop  offset="0.52" style="stop-color:#090909"/>
		<stop  offset="0.65" style="stop-color:#020202"/>
		<stop  offset="1" style="stop-color:#000000"/>
	</linearGradient>
	<path fill-rule="evenodd" clip-rule="evenodd" fill="url(#SVGID_8_)" d="M68.411,188.947c9.97,0,18.105-8.134,18.105-18.105
		c0-9.969-8.135-18.105-18.105-18.105s-18.104,8.136-18.104,18.105C50.307,180.813,58.441,188.947,68.411,188.947L68.411,188.947z"
		/>
	<linearGradient id="SVGID_9_" gradientUnits="userSpaceOnUse" x1="68.4116" y1="182.5884" x2="68.4116" y2="157.9275">
		<stop  offset="0" style="stop-color:#FFFFFF"/>
		<stop  offset="0.07" style="stop-color:#434341"/>
		<stop  offset="0.14" style="stop-color:#20201E"/>
		<stop  offset="0.22" style="stop-color:#1E1E1C"/>
		<stop  offset="0.24" style="stop-color:#2A2A28"/>
		<stop  offset="0.61" style="stop-color:#FFFFFF"/>
		<stop  offset="0.68" style="stop-color:#FCFCFC"/>
		<stop  offset="0.74" style="stop-color:#F3F3F3"/>
		<stop  offset="0.78" style="stop-color:#E4E4E4"/>
		<stop  offset="0.82" style="stop-color:#CFCFCF"/>
		<stop  offset="0.86" style="stop-color:#B3B3B3"/>
		<stop  offset="0.89" style="stop-color:#919191"/>
		<stop  offset="0.93" style="stop-color:#686868"/>
		<stop  offset="0.96" style="stop-color:#393939"/>
		<stop  offset="0.99" style="stop-color:#060606"/>
		<stop  offset="0.99" style="stop-color:#000000"/>
	</linearGradient>
	<path fill-rule="evenodd" clip-rule="evenodd" fill="url(#SVGID_9_)" d="M68.411,181.229c5.715,0,10.387-4.672,10.387-10.388
		c0-5.714-4.672-10.388-10.387-10.388s-10.387,4.674-10.387,10.388C58.024,176.557,62.696,181.229,68.411,181.229L68.411,181.229z"
		/>
	<linearGradient id="SVGID_10_" gradientUnits="userSpaceOnUse" x1="65.0742" y1="170.8623" x2="71.7065" y2="170.8623">
		<stop  offset="0" style="stop-color:#FFFFFF"/>
		<stop  offset="0.07" style="stop-color:#434341"/>
		<stop  offset="0.14" style="stop-color:#20201E"/>
		<stop  offset="0.22" style="stop-color:#1E1E1C"/>
		<stop  offset="0.24" style="stop-color:#2A2A28"/>
		<stop  offset="0.61" style="stop-color:#FFFFFF"/>
		<stop  offset="0.68" style="stop-color:#FCFCFC"/>
		<stop  offset="0.74" style="stop-color:#F3F3F3"/>
		<stop  offset="0.78" style="stop-color:#E4E4E4"/>
		<stop  offset="0.82" style="stop-color:#CFCFCF"/>
		<stop  offset="0.86" style="stop-color:#B3B3B3"/>
		<stop  offset="0.89" style="stop-color:#919191"/>
		<stop  offset="0.93" style="stop-color:#686868"/>
		<stop  offset="0.96" style="stop-color:#393939"/>
		<stop  offset="0.99" style="stop-color:#060606"/>
		<stop  offset="0.99" style="stop-color:#000000"/>
	</linearGradient>
	<path fill-rule="evenodd" clip-rule="evenodd" fill="url(#SVGID_10_)" d="M68.411,174.179c1.835,0,3.295-1.5,3.295-3.337
		c0-1.835-1.46-3.295-3.295-3.295c-1.835,0-3.337,1.46-3.337,3.295C65.074,172.678,66.576,174.179,68.411,174.179L68.411,174.179z"
		/>
	<linearGradient id="SVGID_11_" gradientUnits="userSpaceOnUse" x1="315.9346" y1="150.4219" x2="421.1573" y2="150.4219">
		<stop  offset="0.06" style="stop-color:#0D0D0D"/>
		<stop  offset="0.09" style="stop-color:#999999"/>
		<stop  offset="0.11" style="stop-color:#C8C8C8"/>
		<stop  offset="0.15" style="stop-color:#9D9D9D"/>
		<stop  offset="0.19" style="stop-color:#777777"/>
		<stop  offset="0.24" style="stop-color:#575757"/>
		<stop  offset="0.3" style="stop-color:#3B3B3B"/>
		<stop  offset="0.36" style="stop-color:#252525"/>
		<stop  offset="0.43" style="stop-color:#141414"/>
		<stop  offset="0.52" style="stop-color:#090909"/>
		<stop  offset="0.65" style="stop-color:#020202"/>
		<stop  offset="1" style="stop-color:#000000"/>
	</linearGradient>
	<path fill-rule="evenodd" clip-rule="evenodd" fill="url(#SVGID_11_)" d="M360.216,111.354c21.609,0,39.088,17.48,39.088,39.088
		c0,21.567-17.479,39.046-39.088,39.046c-21.567,0-39.046-17.479-39.046-39.046C321.17,128.834,338.648,111.354,360.216,111.354
		L360.216,111.354z M353.75,119.615c0,0-11.89,4.254-14.35,7.258c-2.421,2.962-2.129,7.301,3.837,8.261
		c5.966,0.917,14.852-2.003,18.981-6.426c4.129-4.379,2.252-7.299,1.919-8.051C363.805,119.949,360.843,117.904,353.75,119.615
		L353.75,119.615z M384.078,140.931c0,0,2.627-1.042,4.171-0.167c1.544,0.876,3.714,5.757,2.545,13.725
		c-1.168,8.009-4.589,13.765-6.801,14.35c-2.21,0.625-5.464-1.251-6.382-5.382c-0.959-4.171-0.792-11.555,1.002-15.686
		C380.365,143.643,382.91,141.516,384.078,140.931L384.078,140.931z M334.603,158.953c0,0-3.254,2.544-1.252,6.464
		c2.002,3.922,13.182,12.808,17.104,14.477c3.922,1.627,6.507-1.835,6.007-5.549C355.627,167.881,341.61,156.283,334.603,158.953
		L334.603,158.953z"/>
	<linearGradient id="SVGID_12_" gradientUnits="userSpaceOnUse" x1="370.04" y1="160.7139" x2="370.04" y2="147.3975">
		<stop  offset="0" style="stop-color:#FFFFFF"/>
		<stop  offset="0.07" style="stop-color:#434341"/>
		<stop  offset="0.14" style="stop-color:#20201E"/>
		<stop  offset="0.22" style="stop-color:#1E1E1C"/>
		<stop  offset="0.24" style="stop-color:#2A2A28"/>
		<stop  offset="0.61" style="stop-color:#FFFFFF"/>
		<stop  offset="0.68" style="stop-color:#FCFCFC"/>
		<stop  offset="0.74" style="stop-color:#F3F3F3"/>
		<stop  offset="0.78" style="stop-color:#E4E4E4"/>
		<stop  offset="0.82" style="stop-color:#CFCFCF"/>
		<stop  offset="0.86" style="stop-color:#B3B3B3"/>
		<stop  offset="0.89" style="stop-color:#919191"/>
		<stop  offset="0.93" style="stop-color:#686868"/>
		<stop  offset="0.96" style="stop-color:#393939"/>
		<stop  offset="0.99" style="stop-color:#060606"/>
		<stop  offset="0.99" style="stop-color:#000000"/>
	</linearGradient>
	<path fill-rule="evenodd" clip-rule="evenodd" fill="url(#SVGID_12_)" d="M370.062,160.914c3.629,0,6.591-3.004,6.591-6.674
		c0-3.672-2.962-6.674-6.591-6.674c-3.672,0-6.634,3.002-6.634,6.674C363.428,157.91,366.39,160.914,370.062,160.914
		L370.062,160.914z"/>
	<linearGradient id="SVGID_13_" gradientUnits="userSpaceOnUse" x1="359.8271" y1="157.5742" x2="366.0453" y2="144.4933">
		<stop  offset="0" style="stop-color:#FFFFFF"/>
		<stop  offset="0.07" style="stop-color:#434341"/>
		<stop  offset="0.14" style="stop-color:#20201E"/>
		<stop  offset="0.22" style="stop-color:#1E1E1C"/>
		<stop  offset="0.24" style="stop-color:#2A2A28"/>
		<stop  offset="0.61" style="stop-color:#FFFFFF"/>
		<stop  offset="0.68" style="stop-color:#FCFCFC"/>
		<stop  offset="0.74" style="stop-color:#F3F3F3"/>
		<stop  offset="0.78" style="stop-color:#E4E4E4"/>
		<stop  offset="0.82" style="stop-color:#CFCFCF"/>
		<stop  offset="0.86" style="stop-color:#B3B3B3"/>
		<stop  offset="0.89" style="stop-color:#919191"/>
		<stop  offset="0.93" style="stop-color:#686868"/>
		<stop  offset="0.96" style="stop-color:#393939"/>
		<stop  offset="0.99" style="stop-color:#060606"/>
		<stop  offset="0.99" style="stop-color:#000000"/>
	</linearGradient>
	<path fill-rule="evenodd" clip-rule="evenodd" fill="url(#SVGID_13_)" d="M360.216,143.727c0.292,0,0.543,0.042,0.835,0.083l0,0
		l0,0c1.042,0.125,2.002,0.5,2.795,1.042l7.968,2.963c-0.543-0.167-1.168-0.25-1.752-0.25c-3.672,0-6.634,2.96-6.634,6.674
		c0,2.502,1.377,4.671,3.379,5.841l-8.801-3.38l0,0c-2.546-0.917-4.381-3.379-4.381-6.257
		C353.625,146.729,356.587,143.727,360.216,143.727L360.216,143.727z M368.644,160.747L368.644,160.747L368.644,160.747
		L368.644,160.747z"/>
</g>
</svg>
