<?xml version="1.0" encoding="utf-8"?>
<!-- Generator: Adobe Illustrator 16.0.0, SVG Export Plug-In . SVG Version: 6.00 Build 0)  -->
<!DOCTYPE svg PUBLIC "-//W3C//DTD SVG 1.1//EN" "http://www.w3.org/Graphics/SVG/1.1/DTD/svg11.dtd">
<svg version="1.1" id="Layer_1" xmlns="http://www.w3.org/2000/svg" xmlns:xlink="http://www.w3.org/1999/xlink" x="0px" y="0px"
	 width="500px" height="500px" viewBox="0 0 500 500" enable-background="new 0 0 500 500" xml:space="preserve">
<g>
	<linearGradient id="SVGID_1_" gradientUnits="userSpaceOnUse" x1="189.8052" y1="425.6055" x2="350.8564" y2="425.6055">
		<stop  offset="0.06" style="stop-color:#0D0D0D"/>
		<stop  offset="0.09" style="stop-color:#999999"/>
		<stop  offset="0.11" style="stop-color:#C8C8C8"/>
		<stop  offset="0.15" style="stop-color:#9D9D9D"/>
		<stop  offset="0.19" style="stop-color:#777777"/>
		<stop  offset="0.24" style="stop-color:#575757"/>
		<stop  offset="0.3" style="stop-color:#3B3B3B"/>
		<stop  offset="0.36" style="stop-color:#252525"/>
		<stop  offset="0.43" style="stop-color:#141414"/>
		<stop  offset="0.52" style="stop-color:#090909"/>
		<stop  offset="0.65" style="stop-color:#020202"/>
		<stop  offset="1" style="stop-color:#000000"/>
	</linearGradient>
	<path fill-rule="evenodd" clip-rule="evenodd" fill="url(#SVGID_1_)" d="M199.417,445.833c0,0-5.884,0.799-6.471,0.799
		c-0.546,0-2.984-2.145-3.11-4.413c-0.168-2.312,0.211-8.193,4.623-8.993c4.413-0.757,146.833-28.409,146.833-28.409
		s3.069-0.755,4.792,0.421c1.723,1.177,4.453,5.422,4.705,7.775c0.251,2.353,0,2.438-4.077,3.53
		C342.595,417.677,199.417,445.833,199.417,445.833L199.417,445.833z"/>
	<linearGradient id="SVGID_2_" gradientUnits="userSpaceOnUse" x1="149.1436" y1="395.8154" x2="287.123" y2="395.8154">
		<stop  offset="0.06" style="stop-color:#0D0D0D"/>
		<stop  offset="0.09" style="stop-color:#999999"/>
		<stop  offset="0.11" style="stop-color:#C8C8C8"/>
		<stop  offset="0.15" style="stop-color:#9D9D9D"/>
		<stop  offset="0.19" style="stop-color:#777777"/>
		<stop  offset="0.24" style="stop-color:#575757"/>
		<stop  offset="0.3" style="stop-color:#3B3B3B"/>
		<stop  offset="0.36" style="stop-color:#252525"/>
		<stop  offset="0.43" style="stop-color:#141414"/>
		<stop  offset="0.52" style="stop-color:#090909"/>
		<stop  offset="0.65" style="stop-color:#020202"/>
		<stop  offset="1" style="stop-color:#000000"/>
	</linearGradient>
	<path fill-rule="evenodd" clip-rule="evenodd" fill="url(#SVGID_2_)" d="M153.233,417.719l131.241-34.502
		c0,0,2.605-0.336,2.646-2.857c0.085-2.521-2.435-6.598-6.596-6.598c-4.16,0-125.191,31.055-125.191,31.055
		s-5.168,0.968-5.966,5.128C148.569,414.104,149.912,418.77,153.233,417.719L153.233,417.719z"/>
	<path fill-rule="evenodd" clip-rule="evenodd" fill="#EEEEEE" d="M294.644,265.592c0,0,14.039-1.134,26.771-1.134
		c12.734,0,21.559-0.631,22.987,4.285c1.387,4.876,0.462,9.413-8.994,10.843c-9.413,1.429-41.225,10.548-47.487,10.253
		C281.701,289.546,294.644,265.592,294.644,265.592L294.644,265.592z"/>
	<path fill-rule="evenodd" clip-rule="evenodd" fill="#CCCCCC" d="M291.031,251.263c0,0,22.523-1.725,39.672-1.556
		c17.144,0.125,17.774,6.262,16.22,10.842c-1.6,4.539-4.876,5.8-12.271,6.137c-7.396,0.292-37.612-0.798-40.008-1.094
		C292.29,265.256,291.031,251.263,291.031,251.263L291.031,251.263z"/>
	<path fill-rule="evenodd" clip-rule="evenodd" fill="#EEEEEE" d="M245.142,152.548c0,0-9.836,5.252-11.475,6.975
		c-1.68,1.765-2.563,10.085,3.404,12.355c5.926,2.227,14.794-2.27,14.919-2.731C252.117,168.685,245.142,152.548,245.142,152.548
		L245.142,152.548z"/>
	<path fill-rule="evenodd" clip-rule="evenodd" fill="#EEEEEE" d="M267.751,93.84c0,0-14.626,0.756-24.838,7.06
		c-10.255,6.303-15.128,14.33-11.515,30.215c3.656,15.885,7.563,19.834,11.053,23.618c3.445,3.782,11.305,27.356,12.272,31.476
		c0.923,4.078,3.15,12.271,17.312,12.103c14.122-0.167,26.897-9.457,28.788-13.238c1.891-3.782,1.555-7.228,1.555-7.228
		s-5.339-13.196-6.304-20.761c-0.926-7.563-2.354-22.987-5.968-33.997C286.494,112.078,282.08,93.335,267.751,93.84L267.751,93.84z"
		/>
	<path fill-rule="evenodd" clip-rule="evenodd" fill="#EEEEEE" d="M305.235,181.165c0,0,6.177,10.044,6.177,23.745
		c0,13.7-5.549,18.281-7.942,28.154c-2.354,9.919-4.706,24.712-4.706,24.712s-1.178,8.655-1.178,9.075
		c0,0.378-1.008,22.652-10.632,23.114c-9.583,0.462-14.163-4.076-14.623-22.188c-0.464-18.071-2.229-36.016-2.985-40.89
		c-0.799-4.876-9.918-13.407-11.344-19.079c-1.432-5.631-2.063-13.026-2.063-13.026s4.12,8.486,18.91,7.059
		c12.02-1.134,21.602-5.211,27.4-13.362C303.598,186.628,304.729,183.603,305.235,181.165L305.235,181.165z"/>
	<path fill-rule="evenodd" clip-rule="evenodd" fill="#CCCCCC" d="M255.939,194.783c0,0-4.874,30.339-2.982,46.729
		c1.554,13.449,1.511,47.193,21.35,40.47c-1.179-3.361-1.808-7.983-1.976-14.203c-0.464-18.071-2.229-36.016-2.985-40.89
		c-0.799-4.876-9.918-13.407-11.344-19.079C256.57,202.178,255.939,194.783,255.939,194.783L255.939,194.783z"/>
	<linearGradient id="SVGID_3_" gradientUnits="userSpaceOnUse" x1="237.2402" y1="177.9819" x2="329.9209" y2="177.9819">
		<stop  offset="0.06" style="stop-color:#0D0D0D"/>
		<stop  offset="0.09" style="stop-color:#999999"/>
		<stop  offset="0.11" style="stop-color:#C8C8C8"/>
		<stop  offset="0.15" style="stop-color:#9D9D9D"/>
		<stop  offset="0.19" style="stop-color:#777777"/>
		<stop  offset="0.24" style="stop-color:#575757"/>
		<stop  offset="0.3" style="stop-color:#3B3B3B"/>
		<stop  offset="0.36" style="stop-color:#252525"/>
		<stop  offset="0.43" style="stop-color:#141414"/>
		<stop  offset="0.52" style="stop-color:#090909"/>
		<stop  offset="0.65" style="stop-color:#020202"/>
		<stop  offset="1" style="stop-color:#000000"/>
	</linearGradient>
	<path fill-rule="evenodd" clip-rule="evenodd" fill="url(#SVGID_3_)" d="M328.644,170.408l-87.792,6.975
		c0,0-2.981,0.672-3.401,2.271c-0.379,1.595-0.463,5.294,1.679,5.884c2.103,0.546,88.042-7.775,88.042-7.775s2.646-0.463,2.73-2.48
		C329.986,173.222,329.818,170.239,328.644,170.408L328.644,170.408z"/>
	<linearGradient id="SVGID_4_" gradientUnits="userSpaceOnUse" x1="238.3735" y1="305.2412" x2="241.5674" y2="305.2412">
		<stop  offset="0.06" style="stop-color:#0D0D0D"/>
		<stop  offset="0.09" style="stop-color:#999999"/>
		<stop  offset="0.11" style="stop-color:#C8C8C8"/>
		<stop  offset="0.15" style="stop-color:#9D9D9D"/>
		<stop  offset="0.19" style="stop-color:#777777"/>
		<stop  offset="0.24" style="stop-color:#575757"/>
		<stop  offset="0.3" style="stop-color:#3B3B3B"/>
		<stop  offset="0.36" style="stop-color:#252525"/>
		<stop  offset="0.43" style="stop-color:#141414"/>
		<stop  offset="0.52" style="stop-color:#090909"/>
		<stop  offset="0.65" style="stop-color:#020202"/>
		<stop  offset="1" style="stop-color:#000000"/>
	</linearGradient>
	<path fill-rule="evenodd" clip-rule="evenodd" fill="url(#SVGID_4_)" d="M238.374,185.116l0.042,239.412l3.151,0.839
		l-0.335-239.873C241.232,185.494,239.508,185.537,238.374,185.116L238.374,185.116z"/>
	<linearGradient id="SVGID_5_" gradientUnits="userSpaceOnUse" x1="241.1978" y1="304.9043" x2="254.8066" y2="304.9043">
		<stop  offset="0.06" style="stop-color:#0D0D0D"/>
		<stop  offset="0.09" style="stop-color:#999999"/>
		<stop  offset="0.11" style="stop-color:#C8C8C8"/>
		<stop  offset="0.15" style="stop-color:#9D9D9D"/>
		<stop  offset="0.19" style="stop-color:#777777"/>
		<stop  offset="0.24" style="stop-color:#575757"/>
		<stop  offset="0.3" style="stop-color:#3B3B3B"/>
		<stop  offset="0.36" style="stop-color:#252525"/>
		<stop  offset="0.43" style="stop-color:#141414"/>
		<stop  offset="0.52" style="stop-color:#090909"/>
		<stop  offset="0.65" style="stop-color:#020202"/>
		<stop  offset="1" style="stop-color:#000000"/>
	</linearGradient>
	<path fill-rule="evenodd" clip-rule="evenodd" fill="url(#SVGID_5_)" d="M241.232,185.494l13.574-1.052l-0.127,237.69
		l-13.112,3.234C241.567,425.366,241.064,185.494,241.232,185.494L241.232,185.494z"/>
	<linearGradient id="SVGID_6_" gradientUnits="userSpaceOnUse" x1="188.7847" y1="284.1025" x2="205.7212" y2="284.1025">
		<stop  offset="0.06" style="stop-color:#0D0D0D"/>
		<stop  offset="0.09" style="stop-color:#999999"/>
		<stop  offset="0.11" style="stop-color:#C8C8C8"/>
		<stop  offset="0.15" style="stop-color:#9D9D9D"/>
		<stop  offset="0.19" style="stop-color:#777777"/>
		<stop  offset="0.24" style="stop-color:#575757"/>
		<stop  offset="0.3" style="stop-color:#3B3B3B"/>
		<stop  offset="0.36" style="stop-color:#252525"/>
		<stop  offset="0.43" style="stop-color:#141414"/>
		<stop  offset="0.52" style="stop-color:#090909"/>
		<stop  offset="0.65" style="stop-color:#020202"/>
		<stop  offset="1" style="stop-color:#000000"/>
	</linearGradient>
	<polygon fill-rule="evenodd" clip-rule="evenodd" fill="url(#SVGID_6_)" points="190.719,395.781 188.785,174.063 204.126,172.424 
		205.721,392 	"/>
	<linearGradient id="SVGID_7_" gradientUnits="userSpaceOnUse" x1="198.9971" y1="345.1445" x2="238.3735" y2="345.1445">
		<stop  offset="0.06" style="stop-color:#0D0D0D"/>
		<stop  offset="0.09" style="stop-color:#999999"/>
		<stop  offset="0.11" style="stop-color:#C8C8C8"/>
		<stop  offset="0.15" style="stop-color:#9D9D9D"/>
		<stop  offset="0.19" style="stop-color:#777777"/>
		<stop  offset="0.24" style="stop-color:#575757"/>
		<stop  offset="0.3" style="stop-color:#3B3B3B"/>
		<stop  offset="0.36" style="stop-color:#252525"/>
		<stop  offset="0.43" style="stop-color:#141414"/>
		<stop  offset="0.52" style="stop-color:#090909"/>
		<stop  offset="0.65" style="stop-color:#020202"/>
		<stop  offset="1" style="stop-color:#000000"/>
	</linearGradient>
	<polygon fill-rule="evenodd" clip-rule="evenodd" fill="url(#SVGID_7_)" points="198.997,330.855 199.082,338.672 238.374,359.433 
		238.374,349.515 	"/>
	<linearGradient id="SVGID_8_" gradientUnits="userSpaceOnUse" x1="198.9971" y1="339.5332" x2="238.3735" y2="339.5332">
		<stop  offset="0.06" style="stop-color:#0D0D0D"/>
		<stop  offset="0.09" style="stop-color:#999999"/>
		<stop  offset="0.11" style="stop-color:#C8C8C8"/>
		<stop  offset="0.15" style="stop-color:#9D9D9D"/>
		<stop  offset="0.19" style="stop-color:#777777"/>
		<stop  offset="0.24" style="stop-color:#575757"/>
		<stop  offset="0.3" style="stop-color:#3B3B3B"/>
		<stop  offset="0.36" style="stop-color:#252525"/>
		<stop  offset="0.43" style="stop-color:#141414"/>
		<stop  offset="0.52" style="stop-color:#090909"/>
		<stop  offset="0.65" style="stop-color:#020202"/>
		<stop  offset="1" style="stop-color:#000000"/>
	</linearGradient>
	<polygon fill-rule="evenodd" clip-rule="evenodd" fill="url(#SVGID_8_)" points="198.997,330.855 205.259,329.553 238.374,344.64 
		238.374,349.515 	"/>
	<linearGradient id="SVGID_9_" gradientUnits="userSpaceOnUse" x1="187.5786" y1="168.2007" x2="242.0625" y2="168.2007">
		<stop  offset="0.06" style="stop-color:#0D0D0D"/>
		<stop  offset="0.09" style="stop-color:#999999"/>
		<stop  offset="0.11" style="stop-color:#C8C8C8"/>
		<stop  offset="0.15" style="stop-color:#9D9D9D"/>
		<stop  offset="0.19" style="stop-color:#777777"/>
		<stop  offset="0.24" style="stop-color:#575757"/>
		<stop  offset="0.3" style="stop-color:#3B3B3B"/>
		<stop  offset="0.36" style="stop-color:#252525"/>
		<stop  offset="0.43" style="stop-color:#141414"/>
		<stop  offset="0.52" style="stop-color:#090909"/>
		<stop  offset="0.65" style="stop-color:#020202"/>
		<stop  offset="1" style="stop-color:#000000"/>
	</linearGradient>
	<path fill-rule="evenodd" clip-rule="evenodd" fill="url(#SVGID_9_)" d="M188.785,174.063l52.868-3.362
		c0,0,0.799-2.858,0.167-5.043c-0.629-2.226-2.438-3.321-2.438-3.321l-49.334,4.329
		C190.047,166.667,185.467,166.667,188.785,174.063L188.785,174.063z"/>
	<path fill-rule="evenodd" clip-rule="evenodd" fill="#EEEEEE" d="M220.219,53.497c12.272-1.429,23.744,9.204,25.678,23.702
		c1.892,14.54-6.516,27.483-18.785,28.912c-12.271,1.429-23.743-9.161-25.635-23.702C199.585,67.869,207.991,54.925,220.219,53.497
		L220.219,53.497z"/>
	<path fill-rule="evenodd" clip-rule="evenodd" fill="#CCCCCC" d="M268.843,93.84c0,0,7.186-0.588,19.917,2.269
		c12.734,2.816,37.905,9.12,41.059,11.935c3.15,2.858-0.463,35.259-6.891,52.571c-6.472,17.315-10.548,17.61-14.498,16.055
		c-3.952-1.555-5.968-3.783-4.077-13.069c1.891-9.289,6.765-39.798,6.765-39.798s-25.803-3.95-32.566-3.782
		c-6.767,0.169-14.33-4.875-15.761-11.977C261.362,100.984,264.473,94.134,268.843,93.84L268.843,93.84z"/>
</g>
</svg>
