<?xml version="1.0" encoding="utf-8"?>
<!-- Generator: Adobe Illustrator 16.0.0, SVG Export Plug-In . SVG Version: 6.00 Build 0)  -->
<!DOCTYPE svg PUBLIC "-//W3C//DTD SVG 1.1//EN" "http://www.w3.org/Graphics/SVG/1.1/DTD/svg11.dtd">
<svg version="1.1" id="Layer_1" xmlns="http://www.w3.org/2000/svg" xmlns:xlink="http://www.w3.org/1999/xlink" x="0px" y="0px"
	 width="500px" height="500px" viewBox="0 0 500 500" enable-background="new 0 0 500 500" xml:space="preserve">
<g>
	<path fill-rule="evenodd" clip-rule="evenodd" fill="#EEEEEE" d="M226.626,150.635c0,0-1.113-10.365,0.764-14.912
		c1.843-4.546,8.742-9.761,26.896-10.27c18.187-0.477,34.338,2.544,39.044,5.056c4.705,2.543,1.335,24.735-0.509,44.417
		c-1.845,19.681-2.003,36.85-0.827,45.434c1.177,8.585,0.986,12.114,0.827,13.13c-0.159,0.986-13.449,6.709-29.441,8.585
		c-15.992,1.845-29.601-4.038-29.601-4.038s-0.858-43.75-1.526-50.648C231.586,180.489,223.351,171.3,226.626,150.635
		L226.626,150.635z"/>
	<path fill-rule="evenodd" clip-rule="evenodd" fill="#CCCCCC" d="M233.97,187.547c0,0-23.24-5.723-27.819-7.313
		c-4.547-1.59-10.778-1.939-12.271,3.275c-1.464,5.214,2.606,9.411,7.725,11.7c5.119,2.257,22.511,11.764,27.344,12.527
		C233.779,208.5,237.595,211.87,233.97,187.547L233.97,187.547z"/>
	<path fill-rule="evenodd" clip-rule="evenodd" fill="#EEEEEE" d="M253.555,117.06c12.433,0,22.575-12.463,22.575-27.725
		c0-15.261-10.143-27.724-22.575-27.724c-12.431,0-22.572,12.463-22.572,27.724C230.982,104.596,241.124,117.06,253.555,117.06
		L253.555,117.06z"/>
	<path fill-rule="evenodd" clip-rule="evenodd" fill="#CCCCCC" d="M232.857,243.188c0,0,6.104,5.119,24.418,4.928
		c18.345-0.191,38.852-8.872,38.852-8.872s8.267,17.742,6.297,33.099c-1.972,15.389-3.339,12.432-3.943,29.982
		c-0.572,17.55-3.942,41.777-3.752,45.529c0.223,3.751,9.665,14.976,10.079,30.745c0.382,15.77-6.899,52.841-9.665,56.975
		c-2.767,4.133-8.298,4.929-9.475-6.104c-1.177-11.034-6.105-59.519-7.886-67.404s-5.723-12.623-7.79-18.251
		c-2.065-5.626-5.118-16.945-6.104-23.05c-0.986-6.137-1.367-9.094-1.367-9.094s-4.133,24.863-4.133,31.54
		c0,6.709,6.104,17.964,4.705,34.307c-1.368,16.374-7.281,43.176-9.062,49.28c-1.781,6.137-11.223,6.519-11.827-4.928
		c-0.604-11.414-3.148-51.824-6.518-63.875c-3.339-12.018-3.339-15.165-5.119-29.154
		C228.787,314.852,225.449,275.205,232.857,243.188L232.857,243.188z"/>
	<path fill-rule="evenodd" clip-rule="evenodd" fill="#EEEEEE" d="M252.538,248.052c1.494,0.064,3.084,0.064,4.737,0.064
		c18.345-0.191,38.852-8.872,38.852-8.872s8.267,17.742,6.297,33.099c-1.972,15.389-3.339,12.432-3.943,29.982
		c-0.572,17.55-3.942,41.777-3.752,45.529c0.223,3.751,9.665,14.976,10.079,30.745c0.382,15.77-6.899,52.841-9.665,56.975
		c-2.767,4.133-8.298,4.929-9.475-6.104c-1.177-11.034-6.105-59.519-7.886-67.404s-5.723-12.623-7.79-18.251
		c-2.065-5.626-5.118-16.945-6.104-23.05c-0.986-6.137-1.367-9.094-1.367-9.094s-0.796-29.95-0.796-34.878
		C261.726,272.025,251.997,259.37,252.538,248.052L252.538,248.052z"/>
	
		<linearGradient id="SVGID_1_" gradientUnits="userSpaceOnUse" x1="538.9883" y1="-156.7354" x2="540.8948" y2="-164.1885" gradientTransform="matrix(-0.185 -0.9792 0.8866 -0.1666 445.6768 688.9434)">
		<stop  offset="0.07" style="stop-color:#9B9B9B"/>
		<stop  offset="0.2" style="stop-color:#666666"/>
		<stop  offset="0.22" style="stop-color:#5F5F5F"/>
		<stop  offset="0.26" style="stop-color:#515151"/>
		<stop  offset="0.32" style="stop-color:#484848"/>
		<stop  offset="0.41" style="stop-color:#464646"/>
		<stop  offset="0.45" style="stop-color:#4A4A4A"/>
		<stop  offset="0.49" style="stop-color:#555555"/>
		<stop  offset="0.53" style="stop-color:#686868"/>
		<stop  offset="0.57" style="stop-color:#838383"/>
		<stop  offset="0.6" style="stop-color:#A5A5A5"/>
		<stop  offset="0.63" style="stop-color:#BCBCBC"/>
		<stop  offset="0.76" style="stop-color:#2D2D2B"/>
		<stop  offset="0.86" style="stop-color:#21211F"/>
		<stop  offset="0.9" style="stop-color:#232321"/>
		<stop  offset="0.92" style="stop-color:#292928"/>
		<stop  offset="0.93" style="stop-color:#353533"/>
		<stop  offset="0.93" style="stop-color:#3B3B3A"/>
		<stop  offset="0.96" style="stop-color:#3D3D3C"/>
		<stop  offset="0.97" style="stop-color:#444443"/>
		<stop  offset="0.98" style="stop-color:#4F4F4E"/>
		<stop  offset="0.99" style="stop-color:#60605F"/>
		<stop  offset="0.99" style="stop-color:#757575"/>
		<stop  offset="1" style="stop-color:#909090"/>
		<stop  offset="1" style="stop-color:#939393"/>
	</linearGradient>
	<path fill="url(#SVGID_1_)" d="M198.611,199.891c0.864,1.208,2.195,1.869,3.651,1.871c1.484,0.098,3.923-0.778,4.213-2.316
		l0.483-27.007c-1.056-0.426-4.504,0.244-5.836,0.312c-0.606,0.067-1.004,0.493-1.635,0.465L198.611,199.891z"/>
	
		<linearGradient id="SVGID_2_" gradientUnits="userSpaceOnUse" x1="531.6572" y1="-101.627" x2="533.5636" y2="-109.0793" gradientTransform="matrix(-0.185 -0.9792 0.8866 -0.1666 445.6768 688.9434)">
		<stop  offset="0.07" style="stop-color:#9B9B9B"/>
		<stop  offset="0.2" style="stop-color:#666666"/>
		<stop  offset="0.22" style="stop-color:#5F5F5F"/>
		<stop  offset="0.26" style="stop-color:#515151"/>
		<stop  offset="0.32" style="stop-color:#484848"/>
		<stop  offset="0.41" style="stop-color:#464646"/>
		<stop  offset="0.45" style="stop-color:#4A4A4A"/>
		<stop  offset="0.49" style="stop-color:#555555"/>
		<stop  offset="0.53" style="stop-color:#686868"/>
		<stop  offset="0.57" style="stop-color:#838383"/>
		<stop  offset="0.6" style="stop-color:#A5A5A5"/>
		<stop  offset="0.63" style="stop-color:#BCBCBC"/>
		<stop  offset="0.76" style="stop-color:#2D2D2B"/>
		<stop  offset="0.86" style="stop-color:#21211F"/>
		<stop  offset="0.9" style="stop-color:#232321"/>
		<stop  offset="0.92" style="stop-color:#292928"/>
		<stop  offset="0.93" style="stop-color:#353533"/>
		<stop  offset="0.93" style="stop-color:#3B3B3A"/>
		<stop  offset="0.96" style="stop-color:#3D3D3C"/>
		<stop  offset="0.97" style="stop-color:#444443"/>
		<stop  offset="0.98" style="stop-color:#4F4F4E"/>
		<stop  offset="0.99" style="stop-color:#60605F"/>
		<stop  offset="0.99" style="stop-color:#757575"/>
		<stop  offset="1" style="stop-color:#909090"/>
		<stop  offset="1" style="stop-color:#939393"/>
	</linearGradient>
	<path fill="url(#SVGID_2_)" d="M248.826,197.891c0.864,1.208,2.196,1.869,3.651,1.871c1.484,0.098,3.924-0.778,4.214-2.316
		l0.483-27.007c-1.056-0.426-4.504,0.244-5.836,0.312c-0.606,0.067-1.004,0.493-1.635,0.465L248.826,197.891z"/>
	<linearGradient id="SVGID_3_" gradientUnits="userSpaceOnUse" x1="187.4233" y1="167.4385" x2="219.2817" y2="167.4385">
		<stop  offset="0.06" style="stop-color:#0D0D0D"/>
		<stop  offset="0.09" style="stop-color:#999999"/>
		<stop  offset="0.11" style="stop-color:#C8C8C8"/>
		<stop  offset="0.15" style="stop-color:#9D9D9D"/>
		<stop  offset="0.19" style="stop-color:#777777"/>
		<stop  offset="0.24" style="stop-color:#575757"/>
		<stop  offset="0.3" style="stop-color:#3B3B3B"/>
		<stop  offset="0.36" style="stop-color:#252525"/>
		<stop  offset="0.43" style="stop-color:#141414"/>
		<stop  offset="0.52" style="stop-color:#090909"/>
		<stop  offset="0.65" style="stop-color:#020202"/>
		<stop  offset="1" style="stop-color:#000000"/>
	</linearGradient>
	<path fill-rule="evenodd" clip-rule="evenodd" fill="url(#SVGID_3_)" d="M190.221,159.505l26.675,0.953
		c1.368,0.032,2.417,1.177,2.386,2.543l-0.254,10.015c-0.033,1.336-1.177,2.417-2.513,2.353l-26.706-0.922
		c-1.337-0.063-2.417-1.208-2.385-2.543l0.285-10.015C187.741,160.522,188.886,159.474,190.221,159.505L190.221,159.505z"/>
	<linearGradient id="SVGID_4_" gradientUnits="userSpaceOnUse" x1="185.1655" y1="205.6211" x2="217.0249" y2="205.6211">
		<stop  offset="0.06" style="stop-color:#0D0D0D"/>
		<stop  offset="0.09" style="stop-color:#999999"/>
		<stop  offset="0.11" style="stop-color:#C8C8C8"/>
		<stop  offset="0.15" style="stop-color:#9D9D9D"/>
		<stop  offset="0.19" style="stop-color:#777777"/>
		<stop  offset="0.24" style="stop-color:#575757"/>
		<stop  offset="0.3" style="stop-color:#3B3B3B"/>
		<stop  offset="0.36" style="stop-color:#252525"/>
		<stop  offset="0.43" style="stop-color:#141414"/>
		<stop  offset="0.52" style="stop-color:#090909"/>
		<stop  offset="0.65" style="stop-color:#020202"/>
		<stop  offset="1" style="stop-color:#000000"/>
	</linearGradient>
	<path fill-rule="evenodd" clip-rule="evenodd" fill="url(#SVGID_4_)" d="M187.9,197.88l26.803,0.922
		c1.304,0.032,2.353,1.145,2.321,2.48l-0.256,9.76c-0.03,1.336-1.144,2.353-2.479,2.321l-26.802-0.922
		c-1.304-0.063-2.353-1.176-2.321-2.48l0.286-9.792C185.483,198.866,186.564,197.817,187.9,197.88L187.9,197.88z"/>
	<path fill="#CCCCCC" d="M197.25,181.5c0,0,3.5,5.533,11.75,3.667c4.455-1.008,4.25,8.596,4.25,8.596l-6.291,1.571
		c0,0-8.563-2.065-10.625-5.333S195.25,182.552,197.25,181.5z"/>
	<linearGradient id="SVGID_5_" gradientUnits="userSpaceOnUse" x1="237.7012" y1="166.6108" x2="269.5596" y2="166.6108">
		<stop  offset="0.06" style="stop-color:#0D0D0D"/>
		<stop  offset="0.09" style="stop-color:#999999"/>
		<stop  offset="0.11" style="stop-color:#C8C8C8"/>
		<stop  offset="0.15" style="stop-color:#9D9D9D"/>
		<stop  offset="0.19" style="stop-color:#777777"/>
		<stop  offset="0.24" style="stop-color:#575757"/>
		<stop  offset="0.3" style="stop-color:#3B3B3B"/>
		<stop  offset="0.36" style="stop-color:#252525"/>
		<stop  offset="0.43" style="stop-color:#141414"/>
		<stop  offset="0.52" style="stop-color:#090909"/>
		<stop  offset="0.65" style="stop-color:#020202"/>
		<stop  offset="1" style="stop-color:#000000"/>
	</linearGradient>
	<path fill-rule="evenodd" clip-rule="evenodd" fill="url(#SVGID_5_)" d="M240.436,158.837l26.803,0.922
		c1.304,0.063,2.353,1.176,2.32,2.48l-0.254,9.825c-0.032,1.303-1.145,2.353-2.48,2.321l-26.77-0.954
		c-1.337-0.032-2.386-1.145-2.353-2.479l0.285-9.793C238.02,159.823,239.132,158.805,240.436,158.837L240.436,158.837z"/>
	<linearGradient id="SVGID_6_" gradientUnits="userSpaceOnUse" x1="235.4429" y1="206.2715" x2="267.3027" y2="206.2715">
		<stop  offset="0.06" style="stop-color:#0D0D0D"/>
		<stop  offset="0.09" style="stop-color:#999999"/>
		<stop  offset="0.11" style="stop-color:#C8C8C8"/>
		<stop  offset="0.15" style="stop-color:#9D9D9D"/>
		<stop  offset="0.19" style="stop-color:#777777"/>
		<stop  offset="0.24" style="stop-color:#575757"/>
		<stop  offset="0.3" style="stop-color:#3B3B3B"/>
		<stop  offset="0.36" style="stop-color:#252525"/>
		<stop  offset="0.43" style="stop-color:#141414"/>
		<stop  offset="0.52" style="stop-color:#090909"/>
		<stop  offset="0.65" style="stop-color:#020202"/>
		<stop  offset="1" style="stop-color:#000000"/>
	</linearGradient>
	<path fill-rule="evenodd" clip-rule="evenodd" fill="url(#SVGID_6_)" d="M238.273,198.195l26.612,0.954
		c1.367,0.063,2.448,1.208,2.416,2.575l-0.255,10.206c-0.031,1.399-1.208,2.48-2.575,2.417l-26.611-0.954
		c-1.368-0.063-2.448-1.208-2.417-2.607l0.287-10.207C235.762,199.213,236.906,198.132,238.273,198.195L238.273,198.195z"/>
	<path fill-rule="evenodd" clip-rule="evenodd" fill="#CCCCCC" d="M293.33,130.509c0,0,5.723-0.509,11.604,11.604
		c5.883,12.114,8.426,30.968,9.411,43.431c1.018,12.431,0.858,22.034-4.546,23.877c-5.374,1.844-26.898-3.37-34.814-5.723
		c-7.917-2.353-20.35-5.723-23.719-8.584c-3.37-2.862-7.917-10.938-4.547-15.802c3.369-4.896,6.072-4.896,11.605-2.194
		c5.563,2.703,21.874,8.076,25.752,8.426c3.879,0.318,7.981-1.24,7.981-1.24s-5.056-18.536-5.724-24.863
		c-0.667-6.295-3.942-9.919-3.783-17.136C282.742,135.055,286.845,131.272,293.33,130.509L293.33,130.509z"/>
</g>
</svg>
