<?xml version="1.0" encoding="utf-8"?>
<!-- Generator: Adobe Illustrator 16.0.0, SVG Export Plug-In . SVG Version: 6.00 Build 0)  -->
<!DOCTYPE svg PUBLIC "-//W3C//DTD SVG 1.1//EN" "http://www.w3.org/Graphics/SVG/1.1/DTD/svg11.dtd">
<svg version="1.1" id="Layer_1" xmlns="http://www.w3.org/2000/svg" xmlns:xlink="http://www.w3.org/1999/xlink" x="0px" y="0px"
	 width="500px" height="500px" viewBox="0 0 500 500" enable-background="new 0 0 500 500" xml:space="preserve">
<g>
	<linearGradient id="SVGID_1_" gradientUnits="userSpaceOnUse" x1="253.6445" y1="288.2549" x2="253.6445" y2="84.8886">
		<stop  offset="0.06" style="stop-color:#0D0D0D"/>
		<stop  offset="0.09" style="stop-color:#999999"/>
		<stop  offset="0.11" style="stop-color:#C8C8C8"/>
		<stop  offset="0.15" style="stop-color:#9D9D9D"/>
		<stop  offset="0.19" style="stop-color:#777777"/>
		<stop  offset="0.24" style="stop-color:#575757"/>
		<stop  offset="0.3" style="stop-color:#3B3B3B"/>
		<stop  offset="0.36" style="stop-color:#252525"/>
		<stop  offset="0.43" style="stop-color:#141414"/>
		<stop  offset="0.52" style="stop-color:#090909"/>
		<stop  offset="0.65" style="stop-color:#020202"/>
		<stop  offset="1" style="stop-color:#000000"/>
	</linearGradient>
	<path fill-rule="evenodd" clip-rule="evenodd" fill="url(#SVGID_1_)" d="M162.323,337.294v3.213l-14.907,2.71l-6.977-10.287
		l3.463-1.709v-5.873l-1.958-3.313l-7.83-232.182h15.659v18.521h5.873l-1.356,8.783v18.571h4.267l-3.463,12.196l1.053,60.33
		l189.371-14.104V89.853h12.498v18.27h10.088l-1.856,7.428v14.354h6.927v3.965l-7.729,9.536l-4.768,160.461l1.104,1.506l-0.05,2.458
		l-15.659,1.707l-74.233-13.25l-7.128-5.872l-66.001,9.586v7.829l-11.794,1.307l-3.714-1.958v-9.837l-23.239,3.06v36.389
		L162.323,337.294z M329.81,213.875c4.115,9.235,10.139,26.501,10.139,26.501s-1.556,4.215-19.926,7.98
		c-4.97,1.004-10.49,1.908-15.812,2.661l9.639,3.514c20.376-3.715,30.365-8.583,30.365-8.583s0.151,0.05,0.451,0.201v-33.277
		L329.81,213.875z M167.591,257.843l100.884-11.294c-3.613-3.412-3.16-2.609-16.411-10.188c-4.468-2.509-7.378-9.084-8.735-16.663
		l-85.926,5.822l1.456,55.611l22.787-2.259v-6.575L167.591,257.843z"/>
	<linearGradient id="SVGID_2_" gradientUnits="userSpaceOnUse" x1="167.5913" y1="262.083" x2="338.4932" y2="262.083">
		<stop  offset="0.06" style="stop-color:#0D0D0D"/>
		<stop  offset="0.09" style="stop-color:#999999"/>
		<stop  offset="0.11" style="stop-color:#C8C8C8"/>
		<stop  offset="0.15" style="stop-color:#9D9D9D"/>
		<stop  offset="0.19" style="stop-color:#777777"/>
		<stop  offset="0.24" style="stop-color:#575757"/>
		<stop  offset="0.3" style="stop-color:#3B3B3B"/>
		<stop  offset="0.36" style="stop-color:#252525"/>
		<stop  offset="0.43" style="stop-color:#141414"/>
		<stop  offset="0.52" style="stop-color:#090909"/>
		<stop  offset="0.65" style="stop-color:#020202"/>
		<stop  offset="1" style="stop-color:#000000"/>
	</linearGradient>
	<polygon fill-rule="evenodd" clip-rule="evenodd" fill="url(#SVGID_2_)" points="286.294,244.542 167.591,257.843 181.646,272.297 
		189.375,279.624 338.493,263.414 	"/>
	<linearGradient id="SVGID_3_" gradientUnits="userSpaceOnUse" x1="233.7563" y1="220.375" x2="330.0596" y2="220.375">
		<stop  offset="0.06" style="stop-color:#0D0D0D"/>
		<stop  offset="0.09" style="stop-color:#999999"/>
		<stop  offset="0.11" style="stop-color:#C8C8C8"/>
		<stop  offset="0.15" style="stop-color:#9D9D9D"/>
		<stop  offset="0.19" style="stop-color:#777777"/>
		<stop  offset="0.24" style="stop-color:#575757"/>
		<stop  offset="0.3" style="stop-color:#3B3B3B"/>
		<stop  offset="0.36" style="stop-color:#252525"/>
		<stop  offset="0.43" style="stop-color:#141414"/>
		<stop  offset="0.52" style="stop-color:#090909"/>
		<stop  offset="0.65" style="stop-color:#020202"/>
		<stop  offset="1" style="stop-color:#000000"/>
	</linearGradient>
	<path fill-rule="evenodd" clip-rule="evenodd" fill="url(#SVGID_3_)" d="M272.894,272.599c0,0-37.243-77.646-38.196-80.958
		c-0.903-3.313-3.465-18.22,7.025-20.579c10.492-2.409,31.371-2.911,32.575-2.911c1.154,0,6.074,0.25,15.109,18.822
		c9.032,18.621,40.652,73.378,40.652,73.378L272.894,272.599z"/>
	<path fill-rule="evenodd" clip-rule="evenodd" fill="#BBBDBF" d="M253.669,190.185c0,0-9.584,1.054-10.892,13.803
		c-1.354,12.749,1.856,28.157,9.288,32.373c18.973,10.842,9.888,4.567,24.744,17.868c0,0,24.894-2.157,43.214-5.873
		c18.37-3.765,19.926-7.98,19.926-7.98s-8.482-24.292-12.197-30.667c-3.713-6.374-5.17-8.632-5.721-10.239
		c-0.501-1.607-12.85-16.362-24.693-16.362c-11.796,0-15.812,0.301-21.935,0.954C269.33,184.714,261.35,188.026,253.669,190.185
		L253.669,190.185z"/>
	<path fill-rule="evenodd" clip-rule="evenodd" fill="#EEEEEE" d="M277.811,258.294c0,0-5.57,10.491-5.722,21.531
		c-0.1,10.992-0.25,23.74-0.802,26.552c-0.502,2.761-4.215,13.4-4.215,29.46c0,16.064,0.651,50.193,1.706,56.567
		c1.054,6.373,5.872,11.19,12.096,11.29c6.222,0.153,12.498-2.507,12.498-13.649c0-11.194,4.917-54.356,4.917-59.627
		c0-5.318,3.163-16.362,3.563-18.069c0.401-1.756,11.443-24.04,12.349-27.253c0.953-3.162,1.456-4.367,1.456-4.367
		s13.7-13.25,27.252-14.604c13.501-1.306,15.912,2.911,15.912,2.911s3.612,9.687,3.864,11.443
		c0.251,1.707-0.654,10.489-0.654,10.489s33.829,1.706,41.258,2.761c7.479,1.104,8.232,2.158,8.383,3.061
		c0.15,0.955,5.722,55.011,5.722,61.485c0,6.525,3.463,11.944,11.394,12.646c7.979,0.654,13.55-4.416,13.701-13.951
		c0.15-9.589,0.251-69.213-1.053-77.445c-1.355-8.23-4.017-13.551-9.436-15.409c-5.472-1.856-47.533-11.142-63.743-13.4
		c-16.212-2.259-19.124-2.66-21.232-3.564c-2.158-0.954-2.81-1.204-2.81-1.204S322.432,256.587,277.811,258.294L277.811,258.294z"/>
	<linearGradient id="SVGID_4_" gradientUnits="userSpaceOnUse" x1="330.0332" y1="258.1914" x2="330.0332" y2="359.8305">
		<stop  offset="0.06" style="stop-color:#0D0D0D"/>
		<stop  offset="0.09" style="stop-color:#999999"/>
		<stop  offset="0.11" style="stop-color:#C8C8C8"/>
		<stop  offset="0.15" style="stop-color:#9D9D9D"/>
		<stop  offset="0.19" style="stop-color:#777777"/>
		<stop  offset="0.24" style="stop-color:#575757"/>
		<stop  offset="0.3" style="stop-color:#3B3B3B"/>
		<stop  offset="0.36" style="stop-color:#252525"/>
		<stop  offset="0.43" style="stop-color:#141414"/>
		<stop  offset="0.52" style="stop-color:#090909"/>
		<stop  offset="0.65" style="stop-color:#020202"/>
		<stop  offset="1" style="stop-color:#000000"/>
	</linearGradient>
	<path fill-rule="evenodd" clip-rule="evenodd" fill="url(#SVGID_4_)" d="M355.758,304.42c1.757-3.063,6.273-13.452,6.273-13.452
		s0.905-8.782,0.654-10.489c-0.252-1.757-3.864-11.443-3.864-11.443s-2.411-4.217-15.912-2.911
		c-13.552,1.354-27.252,14.604-27.252,14.604s-0.503,1.205-1.456,4.367c-0.905,3.213-11.947,25.497-12.349,27.253
		c-0.4,1.707-3.563,12.751-3.563,18.069c0,1.457-0.401,5.772-0.952,11.544c3.714,4.568,9.887,5.871,13.4,5.771
		c4.417-0.148,21.934-1.757,32.674-3.613c10.741-1.856,12.097-15.912,11.545-17.769c-0.503-1.857-6.475-15.006-6.475-15.006
		S354.052,307.48,355.758,304.42L355.758,304.42z"/>
	<linearGradient id="SVGID_5_" gradientUnits="userSpaceOnUse" x1="341.1895" y1="364.2061" x2="341.1895" y2="266.1273">
		<stop  offset="0.06" style="stop-color:#0D0D0D"/>
		<stop  offset="0.09" style="stop-color:#999999"/>
		<stop  offset="0.11" style="stop-color:#C8C8C8"/>
		<stop  offset="0.15" style="stop-color:#9D9D9D"/>
		<stop  offset="0.19" style="stop-color:#777777"/>
		<stop  offset="0.24" style="stop-color:#575757"/>
		<stop  offset="0.3" style="stop-color:#3B3B3B"/>
		<stop  offset="0.36" style="stop-color:#252525"/>
		<stop  offset="0.43" style="stop-color:#141414"/>
		<stop  offset="0.52" style="stop-color:#090909"/>
		<stop  offset="0.65" style="stop-color:#020202"/>
		<stop  offset="1" style="stop-color:#000000"/>
	</linearGradient>
	<path fill-rule="evenodd" clip-rule="evenodd" fill="url(#SVGID_5_)" d="M354.052,286.25l-17.818,24.694l19.776,39.449l-0.2,1.856
		l1.856,5.122l-3.113,6.373l-8.682,0.955l-0.252,1.757l14.004,29.709l6.474,5.07c0,0,3.063,2.711-0.902,5.122
		c-3.965,2.358-9.185,3.514-12.146,3.763c-3.012,0.251-4.566-1.404-6.375-2.86c-1.807-1.456-11.543-10.188-12.094-10.79
		c-0.503-0.605-1.507-2.058-1.708-3.413c-0.15-1.355,0.703-2.21,1.153-2.462c0.453-0.302,1.457-0.751,1.457-0.751l-20.327-42.412
		l11.946-1.104c0,0-0.755-4.316-0.353-5.069c0.402-0.802,1.255-1.508,2.51-1.608c1.254-0.148,2.86-0.649,2.86-0.649l-10.238-24.395
		l18.621-26.7L354.052,286.25z"/>
	<path fill-rule="evenodd" clip-rule="evenodd" fill="#EEEEEE" d="M263.858,145.113c11.594,0,21.732,9.838,22.637,22.035
		c0.853,12.196-7.88,22.033-19.474,22.033c-11.646,0-21.784-9.837-22.637-22.033C243.48,154.951,252.215,145.113,263.858,145.113
		L263.858,145.113z"/>
	<path fill-rule="evenodd" clip-rule="evenodd" fill="#EEEEEE" d="M248.299,192.594c0,0-8.433,3.413-15.057,8.833
		c-6.626,5.471-22.337,15.158-22.337,15.158s-7.428,6.777-8.078,11.945c-0.654,5.171-3.967,16.363-3.967,16.363
		s41.309-11.846,44.469-13.452c0.854-0.401,2.009-0.703,3.113-1.707c-3.363-6.776-4.618-16.915-3.666-25.748
		C243.38,197.914,245.889,194.501,248.299,192.594L248.299,192.594z"/>
	<path fill-rule="evenodd" clip-rule="evenodd" fill="#BBBDBF" d="M210.905,216.585c0,0,0.302-28.308,1.105-32.423
		c3.965-20.628-17.065-16.413-18.221-10.088c-1.102,6.124-4.366,54.607-3.461,60.028c0.954,5.471,0.803,9.988,2.76,11.192
		c1.907,1.154,6.776-0.401,8.13-0.753c1.406-0.351,7.982-6.123,9.989-13.4C213.165,223.813,210.905,216.585,210.905,216.585
		L210.905,216.585z"/>
	<path fill-rule="evenodd" clip-rule="evenodd" fill="#EEEEEE" d="M317.211,193.698l27.255,8.583c0,0,11.292,9.285,12.347,14.857
		c1.054,5.571-1.055,9.436-1.055,9.436l-21.229-1.054C334.529,225.52,327.101,205.794,317.211,193.698L317.211,193.698z"/>
	<path fill-rule="evenodd" clip-rule="evenodd" fill="#BBBDBF" d="M355.758,226.573c0,0,7.98,0.401,8.231-4.015
		c0.251-4.368,2.511-25.196-0.151-39.953c-2.608-14.756-3.01-19.926-7.679-20.328c-4.666-0.401-11.443,0.402-11.693,6.525
		c-0.251,6.124,2.107,21.783,2.107,25.346C346.573,197.763,345.018,226.021,355.758,226.573L355.758,226.573z"/>
	<linearGradient id="SVGID_6_" gradientUnits="userSpaceOnUse" x1="441.5117" y1="164.6621" x2="365.2877" y2="164.6621">
		<stop  offset="0.06" style="stop-color:#0D0D0D"/>
		<stop  offset="0.09" style="stop-color:#999999"/>
		<stop  offset="0.11" style="stop-color:#C8C8C8"/>
		<stop  offset="0.15" style="stop-color:#9D9D9D"/>
		<stop  offset="0.19" style="stop-color:#777777"/>
		<stop  offset="0.24" style="stop-color:#575757"/>
		<stop  offset="0.3" style="stop-color:#3B3B3B"/>
		<stop  offset="0.36" style="stop-color:#252525"/>
		<stop  offset="0.43" style="stop-color:#141414"/>
		<stop  offset="0.52" style="stop-color:#090909"/>
		<stop  offset="0.65" style="stop-color:#020202"/>
		<stop  offset="1" style="stop-color:#000000"/>
	</linearGradient>
	<path fill-rule="evenodd" clip-rule="evenodd" fill="url(#SVGID_6_)" d="M406.25,208.103c13.452,0,24.394-19.523,24.394-43.465
		c0-23.892-10.941-43.415-24.394-43.415c-13.4,0-24.342,19.523-24.342,43.415C381.908,188.579,392.85,208.103,406.25,208.103
		L406.25,208.103z"/>
	<linearGradient id="SVGID_7_" gradientUnits="userSpaceOnUse" x1="421.2832" y1="196.2109" x2="421.2832" y2="131.2894">
		<stop  offset="0.06" style="stop-color:#0D0D0D"/>
		<stop  offset="0.09" style="stop-color:#999999"/>
		<stop  offset="0.11" style="stop-color:#C8C8C8"/>
		<stop  offset="0.15" style="stop-color:#9D9D9D"/>
		<stop  offset="0.19" style="stop-color:#777777"/>
		<stop  offset="0.24" style="stop-color:#575757"/>
		<stop  offset="0.3" style="stop-color:#3B3B3B"/>
		<stop  offset="0.36" style="stop-color:#252525"/>
		<stop  offset="0.43" style="stop-color:#141414"/>
		<stop  offset="0.52" style="stop-color:#090909"/>
		<stop  offset="0.65" style="stop-color:#020202"/>
		<stop  offset="1" style="stop-color:#000000"/>
	</linearGradient>
	<path fill-rule="evenodd" clip-rule="evenodd" fill="url(#SVGID_7_)" d="M413.178,121.223c13.451,0,24.393,19.474,24.393,43.415
		c0,23.289-10.29,42.261-23.188,43.415l0,0h-0.052c-0.35,0-0.751,0.05-1.152,0.05c-0.402,0-0.804-0.05-1.206-0.05l-4.468-0.05
		c12.899-1.104,23.14-20.076,23.14-43.365c0-23.941-10.892-43.415-24.394-43.415H413.178z M404.995,208.002L404.995,208.002
		L404.995,208.002L404.995,208.002z"/>
	<linearGradient id="SVGID_8_" gradientUnits="userSpaceOnUse" x1="451.9668" y1="171.3574" x2="451.7211" y2="162.0145">
		<stop  offset="0" style="stop-color:#FFFFFF"/>
		<stop  offset="0.07" style="stop-color:#434341"/>
		<stop  offset="0.14" style="stop-color:#20201E"/>
		<stop  offset="0.22" style="stop-color:#1E1E1C"/>
		<stop  offset="0.24" style="stop-color:#2A2A28"/>
		<stop  offset="0.61" style="stop-color:#FFFFFF"/>
		<stop  offset="0.68" style="stop-color:#FCFCFC"/>
		<stop  offset="0.74" style="stop-color:#F3F3F3"/>
		<stop  offset="0.78" style="stop-color:#E4E4E4"/>
		<stop  offset="0.82" style="stop-color:#CFCFCF"/>
		<stop  offset="0.86" style="stop-color:#B3B3B3"/>
		<stop  offset="0.89" style="stop-color:#919191"/>
		<stop  offset="0.93" style="stop-color:#686868"/>
		<stop  offset="0.96" style="stop-color:#393939"/>
		<stop  offset="0.99" style="stop-color:#060606"/>
		<stop  offset="0.99" style="stop-color:#000000"/>
	</linearGradient>
	<path fill-rule="evenodd" clip-rule="evenodd" fill="url(#SVGID_8_)" d="M437.368,159.317l26.199-0.451c0,0,2.008,0.1,2.411,2.61
		c0.4,2.509-0.604,4.818-2.058,5.019c-1.456,0.201-26.4,0.603-26.4,0.603L437.368,159.317z"/>
	<linearGradient id="SVGID_9_" gradientUnits="userSpaceOnUse" x1="398.9727" y1="170.3926" x2="398.9727" y2="158.0986">
		<stop  offset="0" style="stop-color:#FFFFFF"/>
		<stop  offset="0.07" style="stop-color:#434341"/>
		<stop  offset="0.14" style="stop-color:#20201E"/>
		<stop  offset="0.22" style="stop-color:#1E1E1C"/>
		<stop  offset="0.24" style="stop-color:#2A2A28"/>
		<stop  offset="0.61" style="stop-color:#FFFFFF"/>
		<stop  offset="0.68" style="stop-color:#FCFCFC"/>
		<stop  offset="0.74" style="stop-color:#F3F3F3"/>
		<stop  offset="0.78" style="stop-color:#E4E4E4"/>
		<stop  offset="0.82" style="stop-color:#CFCFCF"/>
		<stop  offset="0.86" style="stop-color:#B3B3B3"/>
		<stop  offset="0.89" style="stop-color:#919191"/>
		<stop  offset="0.93" style="stop-color:#686868"/>
		<stop  offset="0.96" style="stop-color:#393939"/>
		<stop  offset="0.99" style="stop-color:#060606"/>
		<stop  offset="0.99" style="stop-color:#000000"/>
	</linearGradient>
	<path fill-rule="evenodd" clip-rule="evenodd" fill="url(#SVGID_9_)" d="M398.973,171.916c1.957,0,3.614-2.861,3.614-6.375
		c0-3.564-1.657-6.425-3.614-6.425c-2.008,0-3.614,2.861-3.614,6.425C395.358,169.055,396.965,171.916,398.973,171.916
		L398.973,171.916z"/>
	<linearGradient id="SVGID_10_" gradientUnits="userSpaceOnUse" x1="398.7715" y1="165.5156" x2="403.5898" y2="165.5156">
		<stop  offset="0" style="stop-color:#FFFFFF"/>
		<stop  offset="0.07" style="stop-color:#434341"/>
		<stop  offset="0.14" style="stop-color:#20201E"/>
		<stop  offset="0.22" style="stop-color:#1E1E1C"/>
		<stop  offset="0.24" style="stop-color:#2A2A28"/>
		<stop  offset="0.61" style="stop-color:#FFFFFF"/>
		<stop  offset="0.68" style="stop-color:#FCFCFC"/>
		<stop  offset="0.74" style="stop-color:#F3F3F3"/>
		<stop  offset="0.78" style="stop-color:#E4E4E4"/>
		<stop  offset="0.82" style="stop-color:#CFCFCF"/>
		<stop  offset="0.86" style="stop-color:#B3B3B3"/>
		<stop  offset="0.89" style="stop-color:#919191"/>
		<stop  offset="0.93" style="stop-color:#686868"/>
		<stop  offset="0.96" style="stop-color:#393939"/>
		<stop  offset="0.99" style="stop-color:#060606"/>
		<stop  offset="0.99" style="stop-color:#000000"/>
	</linearGradient>
	<path fill-rule="evenodd" clip-rule="evenodd" fill="url(#SVGID_10_)" d="M399.976,159.116c2.01,0,3.614,2.861,3.614,6.425
		c0,3.414-1.505,6.224-3.412,6.375l0,0l0,0c-0.05,0-0.149,0-0.202,0c-0.048,0-0.101,0-0.15,0h-0.651
		c1.856-0.15,3.413-2.961,3.413-6.375c0-3.564-1.657-6.425-3.614-6.425H399.976z M398.771,171.916L398.771,171.916L398.771,171.916
		L398.771,171.916z"/>
	<linearGradient id="SVGID_11_" gradientUnits="userSpaceOnUse" x1="136.7559" y1="178.0894" x2="93.4464" y2="178.0894">
		<stop  offset="0.06" style="stop-color:#0D0D0D"/>
		<stop  offset="0.09" style="stop-color:#999999"/>
		<stop  offset="0.11" style="stop-color:#C8C8C8"/>
		<stop  offset="0.15" style="stop-color:#9D9D9D"/>
		<stop  offset="0.19" style="stop-color:#777777"/>
		<stop  offset="0.24" style="stop-color:#575757"/>
		<stop  offset="0.3" style="stop-color:#3B3B3B"/>
		<stop  offset="0.36" style="stop-color:#252525"/>
		<stop  offset="0.43" style="stop-color:#141414"/>
		<stop  offset="0.52" style="stop-color:#090909"/>
		<stop  offset="0.65" style="stop-color:#020202"/>
		<stop  offset="1" style="stop-color:#000000"/>
	</linearGradient>
	<path fill-rule="evenodd" clip-rule="evenodd" fill="url(#SVGID_11_)" d="M119.005,124.435c3.866,0,8.584,23.992,10.441,53.654
		c1.908,29.613,0.253,53.655-3.613,53.655c-3.915,0-8.584-24.042-10.441-53.655C113.487,148.426,115.091,124.435,119.005,124.435
		L119.005,124.435z"/>
	<linearGradient id="SVGID_12_" gradientUnits="userSpaceOnUse" x1="130.8608" y1="209.3369" x2="130.8608" y2="127.183">
		<stop  offset="0.06" style="stop-color:#0D0D0D"/>
		<stop  offset="0.09" style="stop-color:#999999"/>
		<stop  offset="0.11" style="stop-color:#C8C8C8"/>
		<stop  offset="0.15" style="stop-color:#9D9D9D"/>
		<stop  offset="0.19" style="stop-color:#777777"/>
		<stop  offset="0.24" style="stop-color:#575757"/>
		<stop  offset="0.3" style="stop-color:#3B3B3B"/>
		<stop  offset="0.36" style="stop-color:#252525"/>
		<stop  offset="0.43" style="stop-color:#141414"/>
		<stop  offset="0.52" style="stop-color:#090909"/>
		<stop  offset="0.65" style="stop-color:#020202"/>
		<stop  offset="1" style="stop-color:#000000"/>
	</linearGradient>
	<path fill-rule="evenodd" clip-rule="evenodd" fill="url(#SVGID_12_)" d="M131.504,124.435c3.866,0,8.533,23.992,10.44,53.654
		c1.858,29.613,0.251,53.655-3.664,53.655h-12.397l0,0c3.815-0.252,5.419-24.193,3.563-53.655
		c-1.856-29.663-6.575-53.654-10.441-53.654H131.504z"/>
	<linearGradient id="SVGID_13_" gradientUnits="userSpaceOnUse" x1="79.0635" y1="186.1919" x2="78.8166" y2="170.4543">
		<stop  offset="0" style="stop-color:#FFFFFF"/>
		<stop  offset="0.07" style="stop-color:#434341"/>
		<stop  offset="0.14" style="stop-color:#20201E"/>
		<stop  offset="0.22" style="stop-color:#1E1E1C"/>
		<stop  offset="0.24" style="stop-color:#2A2A28"/>
		<stop  offset="0.61" style="stop-color:#FFFFFF"/>
		<stop  offset="0.68" style="stop-color:#FCFCFC"/>
		<stop  offset="0.74" style="stop-color:#F3F3F3"/>
		<stop  offset="0.78" style="stop-color:#E4E4E4"/>
		<stop  offset="0.82" style="stop-color:#CFCFCF"/>
		<stop  offset="0.86" style="stop-color:#B3B3B3"/>
		<stop  offset="0.89" style="stop-color:#919191"/>
		<stop  offset="0.93" style="stop-color:#686868"/>
		<stop  offset="0.96" style="stop-color:#393939"/>
		<stop  offset="0.99" style="stop-color:#060606"/>
		<stop  offset="0.99" style="stop-color:#000000"/>
	</linearGradient>
	<path fill-rule="evenodd" clip-rule="evenodd" fill="url(#SVGID_13_)" d="M121.316,173.22l-86.479,4.015
		c0,0-0.904-0.05-0.904,1.757c0,1.807,0.353,6.725,0.453,7.479c0.148,0.752,0.552,0.953,2.609,0.853
		c2.058-0.15,83.567-5.471,83.567-5.471s3.566-0.05,3.413-2.258C123.774,177.437,124.329,172.819,121.316,173.22L121.316,173.22z"/>
	<linearGradient id="SVGID_14_" gradientUnits="userSpaceOnUse" x1="270.8516" y1="176.1187" x2="270.6059" y2="166.7763">
		<stop  offset="0" style="stop-color:#FFFFFF"/>
		<stop  offset="0.07" style="stop-color:#434341"/>
		<stop  offset="0.14" style="stop-color:#20201E"/>
		<stop  offset="0.22" style="stop-color:#1E1E1C"/>
		<stop  offset="0.24" style="stop-color:#2A2A28"/>
		<stop  offset="0.61" style="stop-color:#FFFFFF"/>
		<stop  offset="0.68" style="stop-color:#FCFCFC"/>
		<stop  offset="0.74" style="stop-color:#F3F3F3"/>
		<stop  offset="0.78" style="stop-color:#E4E4E4"/>
		<stop  offset="0.82" style="stop-color:#CFCFCF"/>
		<stop  offset="0.86" style="stop-color:#B3B3B3"/>
		<stop  offset="0.89" style="stop-color:#919191"/>
		<stop  offset="0.93" style="stop-color:#686868"/>
		<stop  offset="0.96" style="stop-color:#393939"/>
		<stop  offset="0.99" style="stop-color:#060606"/>
		<stop  offset="0.99" style="stop-color:#000000"/>
	</linearGradient>
	<path fill-rule="evenodd" clip-rule="evenodd" fill="url(#SVGID_14_)" d="M397.617,162.379L141.343,173.17l0.049,6.625
		l256.728-11.543C400.178,168.051,401.532,162.981,397.617,162.379L397.617,162.379z"/>
</g>
</svg>
