<?xml version="1.0" encoding="utf-8"?>
<!-- Generator: Adobe Illustrator 16.0.0, SVG Export Plug-In . SVG Version: 6.00 Build 0)  -->
<!DOCTYPE svg PUBLIC "-//W3C//DTD SVG 1.1//EN" "http://www.w3.org/Graphics/SVG/1.1/DTD/svg11.dtd">
<svg version="1.1" id="Layer_1" xmlns="http://www.w3.org/2000/svg" xmlns:xlink="http://www.w3.org/1999/xlink" x="0px" y="0px"
	 width="500px" height="500px" viewBox="0 0 500 500" enable-background="new 0 0 500 500" xml:space="preserve">
<linearGradient id="SVGID_7_" gradientUnits="userSpaceOnUse" x1="272.4551" y1="360.6309" x2="273.4342" y2="364.4439" gradientTransform="matrix(1.8188 -0.6397 -0.5343 -1.519 -195.0479 878.4258)">
	<stop  offset="0.07" style="stop-color:#9B9B9B"/>
	<stop  offset="0.2" style="stop-color:#666666"/>
	<stop  offset="0.22" style="stop-color:#5F5F5F"/>
	<stop  offset="0.26" style="stop-color:#515151"/>
	<stop  offset="0.32" style="stop-color:#484848"/>
	<stop  offset="0.41" style="stop-color:#464646"/>
	<stop  offset="0.45" style="stop-color:#4A4A4A"/>
	<stop  offset="0.49" style="stop-color:#555555"/>
	<stop  offset="0.53" style="stop-color:#686868"/>
	<stop  offset="0.57" style="stop-color:#838383"/>
	<stop  offset="0.6" style="stop-color:#A5A5A5"/>
	<stop  offset="0.63" style="stop-color:#BCBCBC"/>
	<stop  offset="0.76" style="stop-color:#2D2D2B"/>
	<stop  offset="0.86" style="stop-color:#21211F"/>
	<stop  offset="0.9" style="stop-color:#232321"/>
	<stop  offset="0.92" style="stop-color:#292928"/>
	<stop  offset="0.93" style="stop-color:#353533"/>
	<stop  offset="0.93" style="stop-color:#3B3B3A"/>
	<stop  offset="0.96" style="stop-color:#3D3D3C"/>
	<stop  offset="0.97" style="stop-color:#444443"/>
	<stop  offset="0.98" style="stop-color:#4F4F4E"/>
	<stop  offset="0.99" style="stop-color:#60605F"/>
	<stop  offset="0.99" style="stop-color:#757575"/>
	<stop  offset="1" style="stop-color:#909090"/>
	<stop  offset="1" style="stop-color:#939393"/>
</linearGradient>
<path fill="url(#SVGID_7_)" d="M101.813,150.352c-1.323,1.191-1.697,2.546-1.432,4.01c0.078,1.635,1.548,3.103,2.703,3.215
	l12.095-1.659c-0.487-1.386-0.9-3.629-1.279-5.052c-0.227-0.646-0.234-1.372-0.207-2.003L101.813,150.352z"/>
<g>
	<g>
		<g>
			<g>
				<g>
					
						<radialGradient id="SVGID_8_" cx="907.7637" cy="-71.895" r="21.6953" fx="904.5949" fy="-86.9577" gradientTransform="matrix(1.2002 -0.2642 -0.215 -0.9766 -992.812 325.916)" gradientUnits="userSpaceOnUse">
						<stop  offset="0.2132" style="stop-color:#FFFFFF"/>
						<stop  offset="0.2202" style="stop-color:#F8F8F8"/>
						<stop  offset="0.2727" style="stop-color:#C4C4C4"/>
						<stop  offset="0.3288" style="stop-color:#969696"/>
						<stop  offset="0.3874" style="stop-color:#6D6D6D"/>
						<stop  offset="0.4488" style="stop-color:#4B4B4B"/>
						<stop  offset="0.514" style="stop-color:#303030"/>
						<stop  offset="0.5842" style="stop-color:#1B1B1B"/>
						<stop  offset="0.662" style="stop-color:#0C0C0C"/>
						<stop  offset="0.7532" style="stop-color:#030303"/>
						<stop  offset="0.8909" style="stop-color:#000000"/>
					</radialGradient>
					<path id="SVGID_4_" fill="url(#SVGID_8_)" d="M125.981,171.715l-0.369,0.081c-8.532,1.564-17.393-6.225-19.851-17.389
						c-2.458-11.162,2.444-21.355,10.976-22.919l0,0c8.444-1.547,17.398,6.226,19.855,17.387
						C139.11,159.869,134.301,170.042,125.981,171.715z"/>
				</g>
				<g>
					<g>
						<defs>
							<path id="SVGID_9_" d="M125.981,171.715l-0.369,0.081c-8.532,1.564-17.393-6.225-19.851-17.389
								c-2.458-11.162,2.444-21.355,10.976-22.919l0,0c8.444-1.547,17.398,6.226,19.855,17.387
								C139.11,159.869,134.301,170.042,125.981,171.715z"/>
						</defs>
						<clipPath id="SVGID_10_">
							<use xlink:href="#SVGID_9_"  overflow="visible"/>
						</clipPath>
					</g>
				</g>
			</g>
		</g>
	</g>
	<g>
		
			<linearGradient id="SVGID_11_" gradientUnits="userSpaceOnUse" x1="908.0801" y1="561.8047" x2="910.6154" y2="600.7678" gradientTransform="matrix(1.2002 -0.2642 0.215 0.9766 -1100.9717 -165.0322)">
			<stop  offset="0.06" style="stop-color:#0D0D0D"/>
			<stop  offset="0.09" style="stop-color:#999999"/>
			<stop  offset="0.11" style="stop-color:#C8C8C8"/>
			<stop  offset="0.15" style="stop-color:#9D9D9D"/>
			<stop  offset="0.19" style="stop-color:#777777"/>
			<stop  offset="0.24" style="stop-color:#575757"/>
			<stop  offset="0.3" style="stop-color:#3B3B3B"/>
			<stop  offset="0.36" style="stop-color:#252525"/>
			<stop  offset="0.43" style="stop-color:#141414"/>
			<stop  offset="0.52" style="stop-color:#090909"/>
			<stop  offset="0.65" style="stop-color:#020202"/>
			<stop  offset="1" style="stop-color:#000000"/>
		</linearGradient>
		<path fill="url(#SVGID_11_)" d="M105.868,154.463c2.442,11.089,11.302,18.878,19.854,17.389l0.275-0.061l-0.885,0.352l-2.69,0.514
			l-0.937,0.129l-0.953,0.051l-0.969-0.023l-0.986-0.097l-0.912-0.192l-0.909-0.191l-0.929-0.268l-0.947-0.342l-0.851-0.361
			l-0.869-0.439l-0.885-0.51l-0.887-0.514l-0.806-0.606l-0.81-0.607l-0.737-0.703l-0.749-0.778l-0.748-0.778l-0.68-0.872
			l-0.674-0.873l-0.58-0.894l-0.473-0.838l-0.159-0.279l-0.335-0.632l0,0c-0.125-0.131-0.158-0.28-0.174-0.356l-0.365-0.782
			c-0.176-0.354-0.276-0.805-0.48-1.309c-0.271-0.804-0.609-1.438-0.74-2.037c-0.032-0.149-0.049-0.226-0.082-0.375
			c-0.034-0.151-0.083-0.374-0.133-0.6l0,0l-0.511-2.323L102,153.115l-0.155-1.144l-0.066-1.164l-0.064-1.167l0.064-1.034
			l0.043-1.109l0.137-1.131l0.158-1.055l0.242-1.075l0.279-0.927l0.375-0.945l0.367-0.946l0.389-0.868l0.479-0.892l0.479-0.894
			l0.516-0.739l0.603-0.762l0.622-0.687l0.623-0.687l0.729-0.631l0.854-0.502l0.763-0.482l0.762-0.482l0.872-0.427l0.89-0.354
			l0.885-0.352l0.902-0.279l0.922-0.201l0.94-0.127l0.937-0.13l0.673,0.011l0,0C108.31,133.108,103.409,143.3,105.868,154.463z"/>
		<g>
			
				<radialGradient id="SVGID_12_" cx="89.9492" cy="-548.8135" r="27.4955" fx="116.3939" fy="-545.4746" gradientTransform="matrix(-0.18 -0.9839 -1.0997 0.215 -483.8779 381.5791)" gradientUnits="userSpaceOnUse">
				<stop  offset="0" style="stop-color:#FFFFFF"/>
				<stop  offset="0.0504" style="stop-color:#E2E2E2"/>
				<stop  offset="0.1534" style="stop-color:#AEAEAE"/>
				<stop  offset="0.2607" style="stop-color:#7F7F7F"/>
				<stop  offset="0.3702" style="stop-color:#585858"/>
				<stop  offset="0.4824" style="stop-color:#383838"/>
				<stop  offset="0.5982" style="stop-color:#1F1F1F"/>
				<stop  offset="0.719" style="stop-color:#0E0E0E"/>
				<stop  offset="0.8481" style="stop-color:#030303"/>
				<stop  offset="1" style="stop-color:#000000"/>
			</radialGradient>
			
				<linearGradient id="SVGID_13_" gradientUnits="userSpaceOnUse" x1="902.9189" y1="-69.332" x2="928.6387" y2="-69.332" gradientTransform="matrix(1.2002 -0.2642 -0.215 -0.9766 -992.812 325.916)">
				<stop  offset="0.0416" style="stop-color:#A4A4A4"/>
				<stop  offset="0.0762" style="stop-color:#959595"/>
				<stop  offset="0.1184" style="stop-color:#767676"/>
				<stop  offset="0.1717" style="stop-color:#575757"/>
				<stop  offset="0.232" style="stop-color:#3B3B3B"/>
				<stop  offset="0.3003" style="stop-color:#252525"/>
				<stop  offset="0.3799" style="stop-color:#141414"/>
				<stop  offset="0.4784" style="stop-color:#090909"/>
				<stop  offset="0.6165" style="stop-color:#020202"/>
				<stop  offset="1" style="stop-color:#000000"/>
			</linearGradient>
			<path fill="url(#SVGID_12_)" stroke="url(#SVGID_13_)" stroke-width="0.25" stroke-miterlimit="10" d="M125.981,171.715
				l-0.369,0.081c-8.532,1.564-17.393-6.225-19.851-17.389c-2.458-11.162,2.444-21.355,10.976-22.919l0,0
				c8.444-1.547,17.398,6.226,19.855,17.387C139.11,159.869,134.301,170.042,125.981,171.715z"/>
		</g>
	</g>
</g>
<g>
	<g>
		<g>
			<g>
				<g>
					
						<radialGradient id="SVGID_14_" cx="1069.4307" cy="-121.1973" r="18.2747" fx="1066.7615" fy="-133.8851" gradientTransform="matrix(1.4303 -0.2564 -0.1764 -0.9843 -1205.6074 312.4141)" gradientUnits="userSpaceOnUse">
						<stop  offset="0.2132" style="stop-color:#FFFFFF"/>
						<stop  offset="0.2202" style="stop-color:#F8F8F8"/>
						<stop  offset="0.2727" style="stop-color:#C4C4C4"/>
						<stop  offset="0.3288" style="stop-color:#969696"/>
						<stop  offset="0.3874" style="stop-color:#6D6D6D"/>
						<stop  offset="0.4488" style="stop-color:#4B4B4B"/>
						<stop  offset="0.514" style="stop-color:#303030"/>
						<stop  offset="0.5842" style="stop-color:#1B1B1B"/>
						<stop  offset="0.662" style="stop-color:#0C0C0C"/>
						<stop  offset="0.7532" style="stop-color:#030303"/>
						<stop  offset="0.8909" style="stop-color:#000000"/>
					</radialGradient>
					<path id="SVGID_1_" fill="url(#SVGID_14_)" d="M358.047,170.705l-0.369,0.066c-8.546,1.269-16.8-5.392-18.499-14.871
						c-1.699-9.476,3.821-18.082,12.364-19.351l0,0c8.457-1.254,16.806,5.393,18.503,14.869
						C371.815,160.752,366.389,169.341,358.047,170.705z"/>
				</g>
				<g>
					<g>
						<defs>
							<path id="SVGID_15_" d="M358.047,170.705l-0.369,0.066c-8.546,1.269-16.8-5.392-18.499-14.871
								c-1.699-9.476,3.821-18.082,12.364-19.351l0,0c8.457-1.254,16.806,5.393,18.503,14.869
								C371.815,160.752,366.389,169.341,358.047,170.705z"/>
						</defs>
						<clipPath id="SVGID_16_">
							<use xlink:href="#SVGID_15_"  overflow="visible"/>
						</clipPath>
					</g>
				</g>
			</g>
		</g>
	</g>
	<g>
		
			<linearGradient id="SVGID_17_" gradientUnits="userSpaceOnUse" x1="1069.9102" y1="612.6885" x2="1072.0458" y2="645.5093" gradientTransform="matrix(1.4303 -0.2564 0.1764 0.9843 -1294.5791 -181.9365)">
			<stop  offset="0.06" style="stop-color:#0D0D0D"/>
			<stop  offset="0.09" style="stop-color:#999999"/>
			<stop  offset="0.11" style="stop-color:#C8C8C8"/>
			<stop  offset="0.15" style="stop-color:#9D9D9D"/>
			<stop  offset="0.19" style="stop-color:#777777"/>
			<stop  offset="0.24" style="stop-color:#575757"/>
			<stop  offset="0.3" style="stop-color:#3B3B3B"/>
			<stop  offset="0.36" style="stop-color:#252525"/>
			<stop  offset="0.43" style="stop-color:#141414"/>
			<stop  offset="0.52" style="stop-color:#090909"/>
			<stop  offset="0.65" style="stop-color:#020202"/>
			<stop  offset="1" style="stop-color:#000000"/>
		</linearGradient>
		<path fill="url(#SVGID_17_)" d="M339.281,155.948c1.688,9.414,9.94,16.076,18.501,14.87l0.276-0.049l-0.9,0.292l-2.694,0.417
			l-0.935,0.103l-0.947,0.037l-0.956-0.025l-0.97-0.089l-0.89-0.169l-0.887-0.168l-0.901-0.232l-0.913-0.295l-0.819-0.313
			l-0.831-0.377l-0.843-0.438l-0.842-0.441l-0.76-0.52l-0.76-0.52l-0.684-0.6l-0.689-0.665l-0.69-0.664l-0.614-0.743l-0.609-0.744
			l-0.516-0.761l-0.413-0.713l-0.139-0.238l-0.289-0.539l0,0c-0.115-0.111-0.139-0.238-0.15-0.302l-0.31-0.666
			c-0.15-0.301-0.22-0.684-0.389-1.112c-0.216-0.683-0.508-1.223-0.599-1.731c-0.022-0.127-0.033-0.192-0.057-0.318
			c-0.022-0.128-0.056-0.317-0.092-0.509l0,0l-0.354-1.973l-0.076-0.97l-0.077-0.971l0.011-0.987l0.014-0.988l0.131-0.876
			l0.115-0.939l0.211-0.957l0.225-0.894l0.31-0.909l0.337-0.784l0.435-0.799l0.424-0.799l0.441-0.734l0.534-0.753l0.531-0.753
			l0.56-0.624l0.646-0.642l0.661-0.578l0.66-0.578l0.764-0.531l0.877-0.42l0.787-0.403l0.785-0.404l0.891-0.355l0.903-0.294
			l0.899-0.293l0.911-0.23l0.927-0.165l0.938-0.102l0.936-0.103l0.666,0.014l0,0C343.098,137.865,337.581,146.47,339.281,155.948z"
			/>
		<g>
			
				<radialGradient id="SVGID_18_" cx="48.7085" cy="-729.3745" r="23.1608" fx="70.9841" fy="-726.562" gradientTransform="matrix(-0.1347 -0.9914 -1.3084 0.2076 -612.2227 373.104)" gradientUnits="userSpaceOnUse">
				<stop  offset="0" style="stop-color:#FFFFFF"/>
				<stop  offset="0.0504" style="stop-color:#E2E2E2"/>
				<stop  offset="0.1534" style="stop-color:#AEAEAE"/>
				<stop  offset="0.2607" style="stop-color:#7F7F7F"/>
				<stop  offset="0.3702" style="stop-color:#585858"/>
				<stop  offset="0.4824" style="stop-color:#383838"/>
				<stop  offset="0.5982" style="stop-color:#1F1F1F"/>
				<stop  offset="0.719" style="stop-color:#0E0E0E"/>
				<stop  offset="0.8481" style="stop-color:#030303"/>
				<stop  offset="1" style="stop-color:#000000"/>
			</radialGradient>
			
				<linearGradient id="SVGID_19_" gradientUnits="userSpaceOnUse" x1="1065.3311" y1="-119.0386" x2="1087.0352" y2="-119.0386" gradientTransform="matrix(1.4303 -0.2564 -0.1764 -0.9843 -1205.6074 312.4141)">
				<stop  offset="0.0416" style="stop-color:#A4A4A4"/>
				<stop  offset="0.0762" style="stop-color:#959595"/>
				<stop  offset="0.1184" style="stop-color:#767676"/>
				<stop  offset="0.1717" style="stop-color:#575757"/>
				<stop  offset="0.232" style="stop-color:#3B3B3B"/>
				<stop  offset="0.3003" style="stop-color:#252525"/>
				<stop  offset="0.3799" style="stop-color:#141414"/>
				<stop  offset="0.4784" style="stop-color:#090909"/>
				<stop  offset="0.6165" style="stop-color:#020202"/>
				<stop  offset="1" style="stop-color:#000000"/>
			</linearGradient>
			<path fill="url(#SVGID_18_)" stroke="url(#SVGID_19_)" stroke-width="0.25" stroke-miterlimit="10" d="M358.047,170.705
				l-0.369,0.066c-8.546,1.269-16.8-5.392-18.499-14.871c-1.699-9.476,3.821-18.082,12.364-19.351l0,0
				c8.457-1.254,16.806,5.393,18.503,14.869C371.815,160.752,366.389,169.341,358.047,170.705z"/>
		</g>
	</g>
</g>
<g>
	<path fill-rule="evenodd" clip-rule="evenodd" fill="#EEEEEE" d="M218.866,264.601c-1.293,5.171-2.49,11.638-2.49,18.153
		c0,14.465,5.843,62.89,5.603,77.067c-0.238,14.178-10.153,16.478-9.389,34.2c0.768,17.771,2.923,42.102,4.312,47.18
		c1.389,5.028,3.784,6.322,7.328,6.562c3.593,0.288,4.695-1.533,4.981-9.244c0.24-7.712,1.628-24.955,4.167-35.731
		c2.538-10.777,3.783-20.406,4.311-24.094c0.479-3.641,5.461-8.478,6.467-15.71c1.005-7.232,6.563-24.955,8.333-30.272
		c1.771-5.316,7.138-9.628,8.766-20.309c1.294-8.286,2.253-30.99,2.491-42.007C248.275,271.4,230.792,267.809,218.866,264.601
		L218.866,264.601z"/>
	<path fill-rule="evenodd" clip-rule="evenodd" fill="#CCCCCC" d="M283.959,265.749c2.49,7.567,6.035,20.021,8.335,35.254
		c3.831,25.337,0.767,38.03,0.767,41.814c0,3.831,1.771,8.909,0.238,14.465c-1.485,5.558-1.485,2.301-1.771,6.707
		c-0.24,4.455-5.174,44.353-5.557,48.664s-0.383,9.628-4.934,11.926c-4.597,2.3-8.909-1.389-9.006-11.255
		c-0.143-9.916-1.771-18.153-2.154-21.172c-0.383-3.064-1.533-13.842-1.005-21.313c0.479-7.473,1.244-13.557,1.244-15.088
		c0-1.484-13.315-30.992-13.315-30.992c1.821-3.112,3.593-6.896,4.454-12.356c1.294-8.286,2.253-30.99,2.491-42.007
		c2.586-0.191,5.078-0.479,7.521-0.958C276.583,268.48,280.75,267.186,283.959,265.749L283.959,265.749z"/>
	<path fill-rule="evenodd" clip-rule="evenodd" fill="#EEEEEE" d="M208.136,180.97c0.479,4.502,1.198,9.148,2.061,13.986
		c2.777,15.71,11.399,29.123,11.399,40.81c0,11.639,0.24,22.034,0.24,22.034s15.232,9.148,35.492,7.615
		c20.263-1.533,23.807-5.316,23.807-5.316s1.292-23.566,1.532-32.188c0.241-8.622,2.539-18.536,2.539-30.942
		c0-12.406,1.772-19.017,1.772-29.41c0-10.394-0.528-15.854-3.161-19.782c-2.636-3.832-41.146-6.85-60.449-4.406
		c1.007,1.963,3.019,6.896,3.019,14.8c0,7.904-9.628,17.531-14.083,21.028C211.298,179.964,209.86,180.538,208.136,180.97
		L208.136,180.97z"/>
	<path fill-rule="evenodd" clip-rule="evenodd" fill="#CCCCCC" d="M218.914,146.004c0,0-8.334-2.635-15.567-1.486
		c-7.232,1.102-16.765,8.334-20.164,8.478c-3.401,0.144-17.483-1.006-22.177-2.395c-4.695-1.39-20.549-4.694-23.806-6.227
		c-3.305-1.533-9.915-2.539-14.082-2.299c-4.167,0.288-3.305,10.538,2.156,15.088c5.46,4.55,23.183,11.4,28.116,12.167
		c4.934,0.766,6.083,2.298,8.526,2.921c2.395,0.623,7.711,3.065,19.495,3.305c11.783,0.239,23.805,0.623,28.116-1.916
		s12.836-10.49,12.836-17.866C222.362,148.446,218.914,146.004,218.914,146.004L218.914,146.004z"/>
	<path fill-rule="evenodd" clip-rule="evenodd" fill="#CCCCCC" d="M289.275,152.757c0,0,18.729-0.288,21.65-0.671
		c2.922-0.382,28.404-2.25,32.188-2.777c3.784-0.527,15.711-2.012,18.872-2.395c3.161-0.384,5.987,3.401,4.071,6.466
		c-1.915,3.018-40.187,16.189-44.593,16.573c-4.454,0.383-5.843,0.144-7.232,0.288c-1.389,0.096-11.543,2.778-17.388,2.874
		c-5.795,0.143-6.322,0.143-6.322,0.143S291.049,157.021,289.275,152.757L289.275,152.757z"/>
	<path fill-rule="evenodd" clip-rule="evenodd" fill="#EEEEEE" d="M251.39,139.92c13.649,0,24.811-13.65,24.811-30.367
		c0-16.669-11.161-30.32-24.811-30.32c-13.652,0-24.813,13.65-24.813,30.32C226.577,126.27,237.737,139.92,251.39,139.92
		L251.39,139.92z"/>
</g>
<g>
	<g>
		<g>
			<g>
				<g>
					
						<radialGradient id="SVGID_20_" cx="1081.7568" cy="-120.4541" r="18.2747" fx="1079.0876" fy="-133.142" gradientTransform="matrix(1.4303 -0.2564 -0.1764 -0.9843 -1205.6074 312.4141)" gradientUnits="userSpaceOnUse">
						<stop  offset="0.2132" style="stop-color:#FFFFFF"/>
						<stop  offset="0.2202" style="stop-color:#F8F8F8"/>
						<stop  offset="0.2727" style="stop-color:#C4C4C4"/>
						<stop  offset="0.3288" style="stop-color:#969696"/>
						<stop  offset="0.3874" style="stop-color:#6D6D6D"/>
						<stop  offset="0.4488" style="stop-color:#4B4B4B"/>
						<stop  offset="0.514" style="stop-color:#303030"/>
						<stop  offset="0.5842" style="stop-color:#1B1B1B"/>
						<stop  offset="0.662" style="stop-color:#0C0C0C"/>
						<stop  offset="0.7532" style="stop-color:#030303"/>
						<stop  offset="0.8909" style="stop-color:#000000"/>
					</radialGradient>
					<path id="SVGID_2_" fill="url(#SVGID_20_)" d="M375.547,166.813l-0.369,0.066c-8.546,1.269-16.801-5.392-18.499-14.871
						c-1.699-9.476,3.821-18.082,12.364-19.351l0,0c8.457-1.254,16.806,5.393,18.503,14.869
						C389.314,156.86,383.889,165.45,375.547,166.813z"/>
				</g>
				<g>
					<g>
						<defs>
							<path id="SVGID_21_" d="M375.547,166.813l-0.369,0.066c-8.546,1.269-16.801-5.392-18.499-14.871
								c-1.699-9.476,3.821-18.082,12.364-19.351l0,0c8.457-1.254,16.806,5.393,18.503,14.869
								C389.314,156.86,383.889,165.45,375.547,166.813z"/>
						</defs>
						<clipPath id="SVGID_22_">
							<use xlink:href="#SVGID_21_"  overflow="visible"/>
						</clipPath>
					</g>
				</g>
			</g>
		</g>
	</g>
	<g>
		
			<linearGradient id="SVGID_23_" gradientUnits="userSpaceOnUse" x1="1082.2363" y1="611.9463" x2="1084.3719" y2="644.7671" gradientTransform="matrix(1.4303 -0.2564 0.1764 0.9843 -1294.5791 -181.9365)">
			<stop  offset="0.06" style="stop-color:#0D0D0D"/>
			<stop  offset="0.09" style="stop-color:#999999"/>
			<stop  offset="0.11" style="stop-color:#C8C8C8"/>
			<stop  offset="0.15" style="stop-color:#9D9D9D"/>
			<stop  offset="0.19" style="stop-color:#777777"/>
			<stop  offset="0.24" style="stop-color:#575757"/>
			<stop  offset="0.3" style="stop-color:#3B3B3B"/>
			<stop  offset="0.36" style="stop-color:#252525"/>
			<stop  offset="0.43" style="stop-color:#141414"/>
			<stop  offset="0.52" style="stop-color:#090909"/>
			<stop  offset="0.65" style="stop-color:#020202"/>
			<stop  offset="1" style="stop-color:#000000"/>
		</linearGradient>
		<path fill="url(#SVGID_23_)" d="M356.78,152.057c1.688,9.415,9.941,16.076,18.501,14.87l0.276-0.049l-0.899,0.292l-2.695,0.417
			l-0.935,0.103l-0.946,0.037l-0.957-0.025l-0.97-0.089l-0.89-0.169l-0.886-0.168l-0.901-0.233l-0.914-0.295l-0.818-0.313
			l-0.831-0.377l-0.843-0.438l-0.843-0.441l-0.759-0.52l-0.761-0.52l-0.683-0.6l-0.689-0.665l-0.69-0.664l-0.614-0.743l-0.609-0.744
			l-0.516-0.761l-0.413-0.713l-0.139-0.238l-0.289-0.539l0,0c-0.116-0.111-0.139-0.238-0.15-0.302l-0.31-0.666
			c-0.15-0.302-0.22-0.685-0.389-1.112c-0.216-0.683-0.508-1.223-0.599-1.731c-0.022-0.127-0.034-0.192-0.057-0.318
			c-0.023-0.128-0.057-0.317-0.092-0.509l0,0l-0.354-1.972l-0.076-0.971l-0.077-0.971l0.011-0.987l0.013-0.988l0.132-0.876
			l0.115-0.939l0.21-0.957l0.226-0.894l0.31-0.909l0.337-0.784l0.434-0.799l0.425-0.799l0.441-0.733l0.533-0.753l0.532-0.753
			l0.56-0.624l0.646-0.642l0.661-0.578l0.66-0.578l0.763-0.531l0.877-0.42l0.788-0.403l0.785-0.404l0.891-0.355l0.903-0.294
			l0.898-0.293l0.912-0.23l0.927-0.165l0.938-0.102l0.936-0.103l0.665,0.014l0,0C360.598,133.974,355.081,142.579,356.78,152.057z"
			/>
		<g>
			
				<radialGradient id="SVGID_24_" cx="49.8091" cy="-742.8628" r="23.1608" fx="72.0847" fy="-740.0503" gradientTransform="matrix(-0.1347 -0.9914 -1.3084 0.2076 -612.2227 373.104)" gradientUnits="userSpaceOnUse">
				<stop  offset="0" style="stop-color:#FFFFFF"/>
				<stop  offset="0.0504" style="stop-color:#E2E2E2"/>
				<stop  offset="0.1534" style="stop-color:#AEAEAE"/>
				<stop  offset="0.2607" style="stop-color:#7F7F7F"/>
				<stop  offset="0.3702" style="stop-color:#585858"/>
				<stop  offset="0.4824" style="stop-color:#383838"/>
				<stop  offset="0.5982" style="stop-color:#1F1F1F"/>
				<stop  offset="0.719" style="stop-color:#0E0E0E"/>
				<stop  offset="0.8481" style="stop-color:#030303"/>
				<stop  offset="1" style="stop-color:#000000"/>
			</radialGradient>
			
				<linearGradient id="SVGID_25_" gradientUnits="userSpaceOnUse" x1="1077.6572" y1="-118.2954" x2="1099.3613" y2="-118.2954" gradientTransform="matrix(1.4303 -0.2564 -0.1764 -0.9843 -1205.6074 312.4141)">
				<stop  offset="0.0416" style="stop-color:#A4A4A4"/>
				<stop  offset="0.0762" style="stop-color:#959595"/>
				<stop  offset="0.1184" style="stop-color:#767676"/>
				<stop  offset="0.1717" style="stop-color:#575757"/>
				<stop  offset="0.232" style="stop-color:#3B3B3B"/>
				<stop  offset="0.3003" style="stop-color:#252525"/>
				<stop  offset="0.3799" style="stop-color:#141414"/>
				<stop  offset="0.4784" style="stop-color:#090909"/>
				<stop  offset="0.6165" style="stop-color:#020202"/>
				<stop  offset="1" style="stop-color:#000000"/>
			</linearGradient>
			<path fill="url(#SVGID_24_)" stroke="url(#SVGID_25_)" stroke-width="0.25" stroke-miterlimit="10" d="M375.547,166.813
				l-0.369,0.066c-8.546,1.269-16.801-5.392-18.499-14.871c-1.699-9.476,3.821-18.082,12.364-19.351l0,0
				c8.457-1.254,16.806,5.393,18.503,14.869C389.314,156.86,383.889,165.45,375.547,166.813z"/>
		</g>
	</g>
</g>
<g>
	<polygon fill="none" points="371.197,150.829 371.202,150.849 371.268,151.001 371.268,151.001 	"/>
	<polygon fill="none" points="370.932,150.096 370.932,150.096 371.011,150.32 370.97,150.198 	"/>
	<g>
		<g>
			<g>
				<g>
					
						<radialGradient id="SVGID_26_" cx="854.0146" cy="108.9722" r="6.0739" fx="853.1275" fy="104.7552" gradientTransform="matrix(0.8539 -0.156 -0.1499 -0.8205 -340.2485 372.3521)" gradientUnits="userSpaceOnUse">
						<stop  offset="0.2132" style="stop-color:#FFFFFF"/>
						<stop  offset="0.2202" style="stop-color:#F8F8F8"/>
						<stop  offset="0.2727" style="stop-color:#C4C4C4"/>
						<stop  offset="0.3288" style="stop-color:#969696"/>
						<stop  offset="0.3874" style="stop-color:#6D6D6D"/>
						<stop  offset="0.4488" style="stop-color:#4B4B4B"/>
						<stop  offset="0.514" style="stop-color:#303030"/>
						<stop  offset="0.5842" style="stop-color:#1B1B1B"/>
						<stop  offset="0.662" style="stop-color:#0C0C0C"/>
						<stop  offset="0.7532" style="stop-color:#030303"/>
						<stop  offset="0.8909" style="stop-color:#000000"/>
					</radialGradient>
					<path id="SVGID_6_" fill="url(#SVGID_26_)" d="M375.401,153.503l-0.073,0.014c-1.699,0.237-3.456-1.7-3.937-4.323
						c-0.479-2.627,0.505-4.92,2.205-5.157l0,0c1.682-0.234,3.456,1.699,3.936,4.325
						C378.021,150.947,377.059,153.237,375.401,153.503z"/>
				</g>
				<g>
					<g>
						<defs>
							<path id="SVGID_27_" d="M375.401,153.503l-0.073,0.014c-1.699,0.237-3.456-1.7-3.937-4.323
								c-0.479-2.627,0.505-4.92,2.205-5.157l0,0c1.682-0.234,3.456,1.699,3.936,4.325
								C378.021,150.947,377.059,153.237,375.401,153.503z"/>
						</defs>
						<clipPath id="SVGID_28_">
							<use xlink:href="#SVGID_27_"  overflow="visible"/>
						</clipPath>
					</g>
				</g>
			</g>
		</g>
	</g>
	
		<linearGradient id="SVGID_29_" gradientUnits="userSpaceOnUse" x1="854.5146" y1="408.9238" x2="855.1617" y2="418.8679" gradientTransform="matrix(0.8539 -0.156 0.1644 0.9001 -424.7056 -88.0049)">
		<stop  offset="0" style="stop-color:#FFFFFF"/>
		<stop  offset="0.07" style="stop-color:#434341"/>
		<stop  offset="0.14" style="stop-color:#20201E"/>
		<stop  offset="0.22" style="stop-color:#1E1E1C"/>
		<stop  offset="0.24" style="stop-color:#2A2A28"/>
		<stop  offset="0.61" style="stop-color:#FFFFFF"/>
		<stop  offset="0.68" style="stop-color:#FCFCFC"/>
		<stop  offset="0.74" style="stop-color:#F3F3F3"/>
		<stop  offset="0.78" style="stop-color:#E4E4E4"/>
		<stop  offset="0.82" style="stop-color:#CFCFCF"/>
		<stop  offset="0.86" style="stop-color:#B3B3B3"/>
		<stop  offset="0.89" style="stop-color:#919191"/>
		<stop  offset="0.93" style="stop-color:#686868"/>
		<stop  offset="0.96" style="stop-color:#393939"/>
		<stop  offset="0.99" style="stop-color:#060606"/>
		<stop  offset="0.99" style="stop-color:#000000"/>
	</linearGradient>
	<path fill="url(#SVGID_29_)" d="M371.414,149.209c0.476,2.605,2.232,4.542,3.938,4.321l0.053-0.007l-0.177,0.066l-0.536,0.08
		l-0.186,0.016l-0.189-0.003l-0.194-0.018l-0.194-0.038l-0.182-0.058l-0.182-0.057l-0.184-0.077l-0.188-0.095l-0.17-0.095
		l-0.172-0.114l-0.177-0.135l-0.176-0.13l-0.159-0.15l-0.161-0.153l-0.146-0.176l-0.147-0.19l-0.149-0.192l-0.134-0.212
		l-0.133-0.212l-0.115-0.215l-0.093-0.201l-0.033-0.068l-0.065-0.152l0,0c-0.023-0.031-0.03-0.065-0.033-0.084l-0.072-0.188
		c-0.035-0.083-0.053-0.191-0.095-0.309c-0.054-0.19-0.12-0.342-0.146-0.484c-0.006-0.036-0.01-0.052-0.016-0.088
		c-0.006-0.034-0.016-0.088-0.026-0.142l0,0l-0.101-0.545l-0.028-0.269l-0.03-0.267l-0.012-0.271l-0.012-0.271l0.014-0.238
		l0.01-0.257l0.029-0.259l0.031-0.243l0.049-0.246l0.056-0.21l0.076-0.215l0.075-0.212l0.076-0.197l0.098-0.198l0.096-0.202
		l0.102-0.165l0.121-0.167l0.124-0.151l0.124-0.15l0.146-0.136l0.171-0.105l0.152-0.1l0.152-0.102l0.174-0.085l0.178-0.068
		l0.175-0.069l0.182-0.051l0.184-0.034l0.187-0.018l0.187-0.013l0.134,0.01l0,0C371.918,144.291,370.934,146.583,371.414,149.209z"
		/>
	<g>
		
			<linearGradient id="SVGID_30_" gradientUnits="userSpaceOnUse" x1="282.3643" y1="-496.4097" x2="293.9141" y2="-496.4097" gradientTransform="matrix(-0.1249 -0.8246 -0.7822 0.1204 22.1592 446.145)">
			<stop  offset="0" style="stop-color:#FFFFFF"/>
			<stop  offset="0.07" style="stop-color:#434341"/>
			<stop  offset="0.14" style="stop-color:#20201E"/>
			<stop  offset="0.22" style="stop-color:#1E1E1C"/>
			<stop  offset="0.24" style="stop-color:#2A2A28"/>
			<stop  offset="0.61" style="stop-color:#FFFFFF"/>
			<stop  offset="0.68" style="stop-color:#FCFCFC"/>
			<stop  offset="0.74" style="stop-color:#F3F3F3"/>
			<stop  offset="0.78" style="stop-color:#E4E4E4"/>
			<stop  offset="0.82" style="stop-color:#CFCFCF"/>
			<stop  offset="0.86" style="stop-color:#B3B3B3"/>
			<stop  offset="0.89" style="stop-color:#919191"/>
			<stop  offset="0.93" style="stop-color:#686868"/>
			<stop  offset="0.96" style="stop-color:#393939"/>
			<stop  offset="0.99" style="stop-color:#060606"/>
			<stop  offset="0.99" style="stop-color:#000000"/>
		</linearGradient>
		<path fill="url(#SVGID_30_)" d="M375.401,153.503l-0.073,0.014c-1.699,0.237-3.456-1.7-3.937-4.323
			c-0.479-2.627,0.505-4.92,2.205-5.157l0,0c1.682-0.234,3.456,1.699,3.936,4.325C378.021,150.947,377.059,153.237,375.401,153.503z
			"/>
	</g>
</g>
<linearGradient id="SVGID_31_" gradientUnits="userSpaceOnUse" x1="281.7295" y1="357.6836" x2="282.7084" y2="361.4958" gradientTransform="matrix(1.8647 -0.4899 -0.4397 -1.6735 -242.1279 891.9238)">
	<stop  offset="0.07" style="stop-color:#9B9B9B"/>
	<stop  offset="0.2" style="stop-color:#666666"/>
	<stop  offset="0.22" style="stop-color:#5F5F5F"/>
	<stop  offset="0.26" style="stop-color:#515151"/>
	<stop  offset="0.32" style="stop-color:#484848"/>
	<stop  offset="0.41" style="stop-color:#464646"/>
	<stop  offset="0.45" style="stop-color:#4A4A4A"/>
	<stop  offset="0.49" style="stop-color:#555555"/>
	<stop  offset="0.53" style="stop-color:#686868"/>
	<stop  offset="0.57" style="stop-color:#838383"/>
	<stop  offset="0.6" style="stop-color:#A5A5A5"/>
	<stop  offset="0.63" style="stop-color:#BCBCBC"/>
	<stop  offset="0.76" style="stop-color:#2D2D2B"/>
	<stop  offset="0.86" style="stop-color:#21211F"/>
	<stop  offset="0.9" style="stop-color:#232321"/>
	<stop  offset="0.92" style="stop-color:#292928"/>
	<stop  offset="0.93" style="stop-color:#353533"/>
	<stop  offset="0.93" style="stop-color:#3B3B3A"/>
	<stop  offset="0.96" style="stop-color:#3D3D3C"/>
	<stop  offset="0.97" style="stop-color:#444443"/>
	<stop  offset="0.98" style="stop-color:#4F4F4E"/>
	<stop  offset="0.99" style="stop-color:#60605F"/>
	<stop  offset="0.99" style="stop-color:#757575"/>
	<stop  offset="1" style="stop-color:#909090"/>
	<stop  offset="1" style="stop-color:#939393"/>
</linearGradient>
<path fill="url(#SVGID_31_)" d="M120.331,148.338c-1.402,1.129-1.863,2.532-1.689,4.119c-0.026,1.749,1.355,3.467,2.507,3.708
	l12.236-0.494c-0.401-1.527-0.673-3.958-0.962-5.513c-0.187-0.713-0.148-1.486-0.081-2.155L120.331,148.338z"/>
<g>
	<g>
		<g>
			<g>
				<g>
					
						<radialGradient id="SVGID_32_" cx="930.6084" cy="-81.6992" r="21.694" fx="927.4398" fy="-96.7611" gradientTransform="matrix(1.3439 -0.1741 -0.1626 -1.0666 -1124.7246 230.1426)" gradientUnits="userSpaceOnUse">
						<stop  offset="0.2132" style="stop-color:#FFFFFF"/>
						<stop  offset="0.2202" style="stop-color:#F8F8F8"/>
						<stop  offset="0.2727" style="stop-color:#C4C4C4"/>
						<stop  offset="0.3288" style="stop-color:#969696"/>
						<stop  offset="0.3874" style="stop-color:#6D6D6D"/>
						<stop  offset="0.4488" style="stop-color:#4B4B4B"/>
						<stop  offset="0.514" style="stop-color:#303030"/>
						<stop  offset="0.5842" style="stop-color:#1B1B1B"/>
						<stop  offset="0.662" style="stop-color:#0C0C0C"/>
						<stop  offset="0.7532" style="stop-color:#030303"/>
						<stop  offset="0.8909" style="stop-color:#000000"/>
					</radialGradient>
					<path id="SVGID_3_" fill="url(#SVGID_32_)" d="M153.295,173.102l-0.413,0.053c-9.529,0.899-18.708-8.256-20.566-20.449
						c-1.86-12.189,4.325-22.671,13.854-23.573l0,0c9.432-0.889,18.713,8.257,20.571,20.447
						C168.679,161.595,162.598,172.063,153.295,173.102z"/>
				</g>
				<g>
					<g>
						<defs>
							<path id="SVGID_33_" d="M153.295,173.102l-0.413,0.053c-9.529,0.899-18.708-8.256-20.566-20.449
								c-1.86-12.189,4.325-22.671,13.854-23.573l0,0c9.432-0.889,18.713,8.257,20.571,20.447
								C168.679,161.595,162.598,172.063,153.295,173.102z"/>
						</defs>
						<clipPath id="SVGID_34_">
							<use xlink:href="#SVGID_33_"  overflow="visible"/>
						</clipPath>
					</g>
				</g>
			</g>
		</g>
	</g>
	<g>
		
			<linearGradient id="SVGID_35_" gradientUnits="userSpaceOnUse" x1="929.6826" y1="570.2607" x2="932.2259" y2="609.3463" gradientTransform="matrix(1.2388 -0.1741 0.1499 1.0666 -1099.6357 -304.7466)">
			<stop  offset="0.06" style="stop-color:#0D0D0D"/>
			<stop  offset="0.09" style="stop-color:#999999"/>
			<stop  offset="0.11" style="stop-color:#C8C8C8"/>
			<stop  offset="0.15" style="stop-color:#9D9D9D"/>
			<stop  offset="0.19" style="stop-color:#777777"/>
			<stop  offset="0.24" style="stop-color:#575757"/>
			<stop  offset="0.3" style="stop-color:#3B3B3B"/>
			<stop  offset="0.36" style="stop-color:#252525"/>
			<stop  offset="0.43" style="stop-color:#141414"/>
			<stop  offset="0.52" style="stop-color:#090909"/>
			<stop  offset="0.65" style="stop-color:#020202"/>
			<stop  offset="1" style="stop-color:#000000"/>
		</linearGradient>
		<path fill="url(#SVGID_35_)" d="M132.429,152.776c1.847,12.111,11.023,21.267,20.57,20.448l0.308-0.04l-1.004,0.296l-3.005,0.307
			l-1.042,0.053l-1.055-0.032l-1.066-0.112l-1.081-0.195l-0.992-0.289l-0.987-0.288l-1.003-0.371l-1.019-0.452l-0.911-0.465
			l-0.925-0.549l-0.938-0.628l-0.937-0.631l-0.844-0.724l-0.847-0.724l-0.758-0.82l-0.766-0.903l-0.768-0.901l-0.682-0.998
			L132,163.762l-0.572-1.01l-0.458-0.942l-0.153-0.314l-0.322-0.708l0,0c-0.128-0.152-0.153-0.314-0.165-0.397l-0.343-0.872
			c-0.167-0.396-0.243-0.888-0.43-1.446c-0.238-0.887-0.562-1.598-0.661-2.251c-0.024-0.164-0.038-0.246-0.062-0.409
			c-0.025-0.165-0.063-0.408-0.101-0.655l0,0l-0.387-2.537l-0.081-1.24l-0.082-1.24l0.015-1.254l0.017-1.257l0.151-1.102
			l0.131-1.184l0.238-1.2l0.254-1.117l0.348-1.129l0.379-0.969l0.486-0.98l0.477-0.98l0.495-0.896l0.596-0.912l0.597-0.914
			l0.626-0.747l0.723-0.762l0.738-0.68l0.738-0.68l0.852-0.611l0.98-0.461l0.879-0.447l0.876-0.449l0.995-0.377l1.008-0.3
			l1.003-0.297l1.016-0.216l1.034-0.133l1.047-0.051l1.042-0.053l0.741,0.073l0,0C136.749,130.104,130.568,140.584,132.429,152.776z
			"/>
		<g>
			
				<radialGradient id="SVGID_36_" cx="81.377" cy="-574.7822" r="27.4975" fx="107.8236" fy="-571.4431" gradientTransform="matrix(-0.1235 -1.0712 -1.2292 0.1305 -568.3184 336.8291)" gradientUnits="userSpaceOnUse">
				<stop  offset="0" style="stop-color:#FFFFFF"/>
				<stop  offset="0.0504" style="stop-color:#E2E2E2"/>
				<stop  offset="0.1534" style="stop-color:#AEAEAE"/>
				<stop  offset="0.2607" style="stop-color:#7F7F7F"/>
				<stop  offset="0.3702" style="stop-color:#585858"/>
				<stop  offset="0.4824" style="stop-color:#383838"/>
				<stop  offset="0.5982" style="stop-color:#1F1F1F"/>
				<stop  offset="0.719" style="stop-color:#0E0E0E"/>
				<stop  offset="0.8481" style="stop-color:#030303"/>
				<stop  offset="1" style="stop-color:#000000"/>
			</radialGradient>
			
				<linearGradient id="SVGID_37_" gradientUnits="userSpaceOnUse" x1="923.6123" y1="-78.959" x2="951.4668" y2="-78.959" gradientTransform="matrix(1.2388 -0.1741 -0.1499 -1.0666 -1023.6836 230.1426)">
				<stop  offset="0.0416" style="stop-color:#A4A4A4"/>
				<stop  offset="0.0762" style="stop-color:#959595"/>
				<stop  offset="0.1184" style="stop-color:#767676"/>
				<stop  offset="0.1717" style="stop-color:#575757"/>
				<stop  offset="0.232" style="stop-color:#3B3B3B"/>
				<stop  offset="0.3003" style="stop-color:#252525"/>
				<stop  offset="0.3799" style="stop-color:#141414"/>
				<stop  offset="0.4784" style="stop-color:#090909"/>
				<stop  offset="0.6165" style="stop-color:#020202"/>
				<stop  offset="1" style="stop-color:#000000"/>
			</linearGradient>
			<path fill="url(#SVGID_36_)" stroke="url(#SVGID_37_)" stroke-width="0.25" stroke-miterlimit="10" d="M153.295,173.102
				l-0.413,0.053c-9.529,0.899-18.708-8.256-20.566-20.449c-1.86-12.189,4.325-22.671,13.854-23.573l0,0
				c9.432-0.889,18.713,8.257,20.571,20.447C168.679,161.595,162.598,172.063,153.295,173.102z"/>
		</g>
	</g>
</g>
<g>
	<polygon fill="none" points="148.053,151.739 148.055,151.759 148.1,151.919 148.1,151.919 	"/>
	<polygon fill="none" points="147.892,150.973 147.892,150.973 147.939,151.207 147.916,151.08 	"/>
	<g>
		<g>
			<g>
				<g>
					
						<radialGradient id="SVGID_38_" cx="603.8037" cy="155.3579" r="6.0744" fx="602.9165" fy="151.1405" gradientTransform="matrix(0.9413 -0.0214 -0.0222 -0.8338 -415.1128 293.3237)" gradientUnits="userSpaceOnUse">
						<stop  offset="0.2132" style="stop-color:#FFFFFF"/>
						<stop  offset="0.2202" style="stop-color:#F8F8F8"/>
						<stop  offset="0.2727" style="stop-color:#C4C4C4"/>
						<stop  offset="0.3288" style="stop-color:#969696"/>
						<stop  offset="0.3874" style="stop-color:#6D6D6D"/>
						<stop  offset="0.4488" style="stop-color:#4B4B4B"/>
						<stop  offset="0.514" style="stop-color:#303030"/>
						<stop  offset="0.5842" style="stop-color:#1B1B1B"/>
						<stop  offset="0.662" style="stop-color:#0C0C0C"/>
						<stop  offset="0.7532" style="stop-color:#030303"/>
						<stop  offset="0.8909" style="stop-color:#000000"/>
					</radialGradient>
					<path id="SVGID_5_" fill="url(#SVGID_38_)" d="M152.107,155.034l-0.08,0.003c-1.862-0.03-3.417-2.217-3.49-4.882
						c-0.07-2.67,1.372-4.782,3.233-4.751l0,0c1.842,0.03,3.417,2.215,3.488,4.884C155.347,152.917,153.928,155.029,152.107,155.034
						z"/>
				</g>
				<g>
					<g>
						<defs>
							<path id="SVGID_39_" d="M152.107,155.034l-0.08,0.003c-1.862-0.03-3.417-2.217-3.49-4.882
								c-0.07-2.67,1.372-4.782,3.233-4.751l0,0c1.842,0.03,3.417,2.215,3.488,4.884
								C155.347,152.917,153.928,155.029,152.107,155.034z"/>
						</defs>
						<clipPath id="SVGID_40_">
							<use xlink:href="#SVGID_39_"  overflow="visible"/>
						</clipPath>
					</g>
				</g>
			</g>
		</g>
	</g>
	
		<linearGradient id="SVGID_41_" gradientUnits="userSpaceOnUse" x1="602.4639" y1="366.9922" x2="603.1113" y2="376.9417" gradientTransform="matrix(0.8677 -0.0214 0.0225 0.9147 -381.208 -174.9072)">
		<stop  offset="0" style="stop-color:#FFFFFF"/>
		<stop  offset="0.07" style="stop-color:#434341"/>
		<stop  offset="0.14" style="stop-color:#20201E"/>
		<stop  offset="0.22" style="stop-color:#1E1E1C"/>
		<stop  offset="0.24" style="stop-color:#2A2A28"/>
		<stop  offset="0.61" style="stop-color:#FFFFFF"/>
		<stop  offset="0.68" style="stop-color:#FCFCFC"/>
		<stop  offset="0.74" style="stop-color:#F3F3F3"/>
		<stop  offset="0.78" style="stop-color:#E4E4E4"/>
		<stop  offset="0.82" style="stop-color:#CFCFCF"/>
		<stop  offset="0.86" style="stop-color:#B3B3B3"/>
		<stop  offset="0.89" style="stop-color:#919191"/>
		<stop  offset="0.93" style="stop-color:#686868"/>
		<stop  offset="0.96" style="stop-color:#393939"/>
		<stop  offset="0.99" style="stop-color:#060606"/>
		<stop  offset="0.99" style="stop-color:#000000"/>
	</linearGradient>
	<path fill="url(#SVGID_41_)" d="M148.558,150.172c0.071,2.647,1.626,4.834,3.491,4.881l0.058,0.002l-0.201,0.038l-0.587-0.004
		l-0.202-0.013l-0.204-0.033l-0.205-0.047l-0.203-0.067l-0.185-0.085l-0.185-0.084l-0.185-0.105l-0.184-0.123l-0.167-0.12
		l-0.165-0.139l-0.167-0.161l-0.167-0.156l-0.145-0.173l-0.147-0.177l-0.127-0.197l-0.126-0.21l-0.128-0.213l-0.107-0.23
		l-0.107-0.23l-0.087-0.231l-0.065-0.212l-0.024-0.073l-0.044-0.161l0,0c-0.02-0.035-0.021-0.069-0.021-0.088l-0.045-0.198
		c-0.024-0.088-0.025-0.197-0.05-0.319c-0.025-0.196-0.07-0.357-0.074-0.501c0-0.037-0.001-0.053-0.001-0.089
		c-0.001-0.035-0.001-0.09-0.005-0.144l0,0l-0.016-0.554l0.015-0.27l0.012-0.269l0.034-0.27l0.033-0.27l0.055-0.233l0.054-0.252
		l0.075-0.251l0.074-0.235l0.094-0.235l0.095-0.199l0.118-0.2l0.117-0.198l0.114-0.183l0.138-0.181l0.137-0.185l0.137-0.147
		l0.159-0.146l0.158-0.13l0.159-0.128l0.179-0.112l0.201-0.077l0.181-0.075l0.179-0.077l0.201-0.058l0.202-0.039l0.2-0.042
		l0.204-0.022l0.202-0.004l0.202,0.011l0.203,0.016l0.143,0.031l0,0C149.927,145.392,148.487,147.503,148.558,150.172z"/>
	<g>
		
			<linearGradient id="SVGID_42_" gradientUnits="userSpaceOnUse" x1="321.4238" y1="-219.6016" x2="332.9736" y2="-219.6016" gradientTransform="matrix(0.0048 -0.834 -0.7915 -0.0027 -23.4873 422.5107)">
			<stop  offset="0" style="stop-color:#FFFFFF"/>
			<stop  offset="0.07" style="stop-color:#434341"/>
			<stop  offset="0.14" style="stop-color:#20201E"/>
			<stop  offset="0.22" style="stop-color:#1E1E1C"/>
			<stop  offset="0.24" style="stop-color:#2A2A28"/>
			<stop  offset="0.61" style="stop-color:#FFFFFF"/>
			<stop  offset="0.68" style="stop-color:#FCFCFC"/>
			<stop  offset="0.74" style="stop-color:#F3F3F3"/>
			<stop  offset="0.78" style="stop-color:#E4E4E4"/>
			<stop  offset="0.82" style="stop-color:#CFCFCF"/>
			<stop  offset="0.86" style="stop-color:#B3B3B3"/>
			<stop  offset="0.89" style="stop-color:#919191"/>
			<stop  offset="0.93" style="stop-color:#686868"/>
			<stop  offset="0.96" style="stop-color:#393939"/>
			<stop  offset="0.99" style="stop-color:#060606"/>
			<stop  offset="0.99" style="stop-color:#000000"/>
		</linearGradient>
		<path fill="url(#SVGID_42_)" d="M152.107,155.034l-0.08,0.003c-1.862-0.03-3.417-2.217-3.49-4.882
			c-0.07-2.67,1.372-4.782,3.233-4.751l0,0c1.842,0.03,3.417,2.215,3.488,4.884C155.347,152.917,153.928,155.029,152.107,155.034z"
			/>
	</g>
</g>
</svg>
