<?xml version="1.0" encoding="utf-8"?>
<!-- Generator: Adobe Illustrator 16.0.0, SVG Export Plug-In . SVG Version: 6.00 Build 0)  -->
<!DOCTYPE svg PUBLIC "-//W3C//DTD SVG 1.1//EN" "http://www.w3.org/Graphics/SVG/1.1/DTD/svg11.dtd">
<svg version="1.1" id="Layer_1" xmlns="http://www.w3.org/2000/svg" xmlns:xlink="http://www.w3.org/1999/xlink" x="0px" y="0px"
	 width="500px" height="500px" viewBox="0 0 500 500" enable-background="new 0 0 500 500" xml:space="preserve">
<g>
	<linearGradient id="SVGID_1_" gradientUnits="userSpaceOnUse" x1="258.4121" y1="262.4834" x2="234.311" y2="279.8071">
		<stop  offset="0.06" style="stop-color:#0D0D0D"/>
		<stop  offset="0.09" style="stop-color:#999999"/>
		<stop  offset="0.11" style="stop-color:#C8C8C8"/>
		<stop  offset="0.15" style="stop-color:#9D9D9D"/>
		<stop  offset="0.19" style="stop-color:#777777"/>
		<stop  offset="0.24" style="stop-color:#575757"/>
		<stop  offset="0.3" style="stop-color:#3B3B3B"/>
		<stop  offset="0.36" style="stop-color:#252525"/>
		<stop  offset="0.43" style="stop-color:#141414"/>
		<stop  offset="0.52" style="stop-color:#090909"/>
		<stop  offset="0.65" style="stop-color:#020202"/>
		<stop  offset="1" style="stop-color:#000000"/>
	</linearGradient>
	<ellipse fill="url(#SVGID_1_)" cx="247.201" cy="270.54" rx="35.871" ry="22.03"/>
	<path fill="#CCCCCC" d="M264.59,177.02c0,0,11.501,2.65,15.779,13.526s11.907,33.842,13.244,37.158
		c1.331,3.365,7.401,17.961,7.938,26.68c0.584,8.717-1.063,15.918-4.231,18.926c-3.123,3.02-11.059,1.57-12.008-3.414
		c-0.909-4.939-2.892-19.988-5.791-27.991c-2.896-8.008-11.517-28.192-11.517-28.192s-6.731-7.349-8.25-13.871
		C258.241,193.275,257.538,173.859,264.59,177.02L264.59,177.02z"/>
	
		<linearGradient id="SVGID_2_" gradientUnits="userSpaceOnUse" x1="242.0942" y1="111.374" x2="241.2115" y2="119.144" gradientTransform="matrix(0.9999 0.0125 0.0125 -0.9999 -61.6582 348.4917)">
		<stop  offset="0.06" style="stop-color:#0D0D0D"/>
		<stop  offset="0.09" style="stop-color:#999999"/>
		<stop  offset="0.11" style="stop-color:#C8C8C8"/>
		<stop  offset="0.15" style="stop-color:#9D9D9D"/>
		<stop  offset="0.19" style="stop-color:#777777"/>
		<stop  offset="0.24" style="stop-color:#575757"/>
		<stop  offset="0.3" style="stop-color:#3B3B3B"/>
		<stop  offset="0.36" style="stop-color:#252525"/>
		<stop  offset="0.43" style="stop-color:#141414"/>
		<stop  offset="0.52" style="stop-color:#090909"/>
		<stop  offset="0.65" style="stop-color:#020202"/>
		<stop  offset="1" style="stop-color:#000000"/>
	</linearGradient>
	<polygon fill="url(#SVGID_2_)" points="157.136,243.088 156.971,238.708 205.245,233.056 206.41,236.603 	"/>
	<path fill="#EEEEEE" d="M260.593,175.686c0,0-17.21-3.929-38.354-1.642c-21.101,2.334-30.472,4.516-33.104,8.522
		c-2.688,4.048-5.854,20.837,0.667,36.78c6.519,15.946,14.326,24.7,15.219,27.479c0.938,2.832,2.793,5.885,2.793,5.885
		s11.915-8.934,32.809-9.133c20.941-0.244,25.359,1.852,25.359,1.852s0.182-22.518,0.565-30.11
		C266.925,207.771,270.028,179.706,260.593,175.686L260.593,175.686z"/>
	<path fill="#E0E0E0" d="M268.416,247.101c0,0,45.795,32.04,61.646,40.233c15.805,8.188,39.916,19.119,43.026,21.309
		c3.106,2.189,8.769,14.996,0.163,20.35c-8.598,5.311-13.011,1.779-21.052-0.891c-8.044-2.674-67.075-35.646-76.975-41.373
		c-9.854-5.721-30.602-26.736-30.602-26.736S258.726,249.383,268.416,247.101L268.416,247.101z"/>
	<path fill="#CCCCCC" d="M187.961,183.529c0,0-16.877,36.726-19.227,48.346c-2.308,11.667-1.695,15.048-1.695,15.048
		s4.563,18.987,10.766,29.424c6.205,10.48,8.985,12.773,12.147,11.645c3.203-1.076,8.382-3.082,6.001-9.959
		c-2.423-6.881-10.325-30.726-10.231-32.601c0.05-1.88,13.278-24.241,15.373-32.341c2.093-8.098,5.137-18.571,2.565-26.231
		C201.091,179.202,189.89,178.511,187.961,183.529L187.961,183.529z"/>
	<path fill="#E0E0E0" d="M268.416,247.101c0,0-19.544-2.988-37.218,1.927c-17.721,4.955-22.211,8.644-22.896,10.597
		s-4.664,11.441,2.037,22.777c6.745,11.342,22.98,17.914,32.523,30.473c9.585,12.605,20.151,22.527,32.147,29.76
		c11.994,7.232,20.085,8.025,25.121,5.197c5.033-2.83,7.226-10.559,4.155-15.395c-3.124-4.793-30.731-27.242-37.422-35.482
		c-6.646-8.236-16.25-29.375-17.287-32.082C248.546,262.125,268.416,247.101,268.416,247.101L268.416,247.101z"/>
	<linearGradient id="SVGID_3_" gradientUnits="userSpaceOnUse" x1="333.3389" y1="319.5039" x2="325.3389" y2="279.5039">
		<stop  offset="0.06" style="stop-color:#0D0D0D"/>
		<stop  offset="0.09" style="stop-color:#999999"/>
		<stop  offset="0.11" style="stop-color:#C8C8C8"/>
		<stop  offset="0.15" style="stop-color:#9D9D9D"/>
		<stop  offset="0.19" style="stop-color:#777777"/>
		<stop  offset="0.24" style="stop-color:#575757"/>
		<stop  offset="0.3" style="stop-color:#3B3B3B"/>
		<stop  offset="0.36" style="stop-color:#252525"/>
		<stop  offset="0.43" style="stop-color:#141414"/>
		<stop  offset="0.52" style="stop-color:#090909"/>
		<stop  offset="0.65" style="stop-color:#020202"/>
		<stop  offset="1" style="stop-color:#000000"/>
	</linearGradient>
	<path fill="url(#SVGID_3_)" d="M378.447,274.518l-109.576,14.328c0,0-6.354,1.625-6.893,12.164
		c-0.577,10.492,1.714,24.723,5.326,28.17c3.568,3.449,6.852,5.203,14.909,4.063c8.051-1.098,90.106-16.727,99.933-19.895
		c9.784-3.219,15.09-7.455,15.567-14.635c0.436-7.186-1.716-19.156-5.471-22.98C388.442,271.902,378.447,274.518,378.447,274.518
		L378.447,274.518z"/>
	<linearGradient id="SVGID_4_" gradientUnits="userSpaceOnUse" x1="79.1719" y1="425.3301" x2="161.87" y2="272.7805">
		<stop  offset="0.06" style="stop-color:#0D0D0D"/>
		<stop  offset="0.09" style="stop-color:#999999"/>
		<stop  offset="0.11" style="stop-color:#C8C8C8"/>
		<stop  offset="0.15" style="stop-color:#9D9D9D"/>
		<stop  offset="0.19" style="stop-color:#777777"/>
		<stop  offset="0.24" style="stop-color:#575757"/>
		<stop  offset="0.3" style="stop-color:#3B3B3B"/>
		<stop  offset="0.36" style="stop-color:#252525"/>
		<stop  offset="0.43" style="stop-color:#141414"/>
		<stop  offset="0.52" style="stop-color:#090909"/>
		<stop  offset="0.65" style="stop-color:#020202"/>
		<stop  offset="1" style="stop-color:#000000"/>
	</linearGradient>
	<path fill="url(#SVGID_4_)" d="M258.681,382.02l3.11,4.928l0.05,7.727l-14.478,3.475l-4.369-6.262l-72.308,13.256l4.574,15.174
		l-1.263,5.58l-21.04,3.998l-14.873-41.133l-7.175,2.219l-13.117-40.74l-13.968-165.603l7.997-0.521l-6.948-112.503L135,70.106
		l8,121l11.688,8.157l5.349,74.719l14.197,17.771c0,0,0.05-3.723,2.178-3.916c2.083-0.201,9.38-0.926,9.38-0.926
		s3.857-15.105,4.056-15.762c0.155-0.656,1.225-0.598,2.076,0.338c0.901,0.896,0.903,1.797,2.011,1.951
		c1.104,0.195,1.774,0.666,2.333,1.84c0.515,1.174,2.625,4.836,2.625,4.836l9.974-0.553l24.258,34.693l9.422-1.77
		c0,0-0.265-3.303,0.371-4.273c0.628-0.926,2.808-1.205,4.92-0.281c2.11,0.924,2.903,2.887,2.903,2.887l6.729-0.867
		c0,0-0.192-1.725,0.568-2.146c0.76-0.418,3.873-1.055,3.873-1.055s0.383-2.523,2.144-2.619c1.718-0.146,4.204,1.98,4.53,9.645
		c0.288,7.615-1.446,8.836-2.964,8.732c-1.517-0.105-1.736-1.025-1.736-1.025s-2.786-0.002-3.729-0.451
		c-0.987-0.457-1.324-2.059-1.324-2.059l-6.897,0.762l0.542,12.842l6.554,4.549L258.681,382.02z M182.346,374.508l-4.251,9.504
		l55.04-9.293l-17.4-27.242l-0.948-19.215c0,0-6.428,1.029-8.143,1.58s-2.786,0.939-3.457-0.92s-5.683-29.551-5.683-29.551
		l-10.268,0.789c0,0-0.184,1.867-0.266,2.711s6.09,11.641,6.09,11.641s0.371,4.926,0.278,9.541s0.132,14.24,0.132,14.24
		s0.765,26.154,0.885,28.592c0.118,2.48-1.229,4.771-3.864,5.098c-2.637,0.326-5.354-1.689-5.354-1.689s-0.04,0.396-0.508,1.521
		C184.327,372.592,183.575,373.867,182.346,374.508L182.346,374.508z M176.13,384.359l4.164-9.512
		c-0.138-0.014-0.226-0.023-0.357-0.035c-2.823-0.5-3.297-3.467-3.297-3.467l-5.678-24.566l-5.986-12.662l0.892,22.529l1.05,2.572
		l0.965,4.854l0.717,21.57L176.13,384.359z M237.857,353.049l4.468-1.178l-0.384,6.246L237.857,353.049z M243.314,321.133
		l-5.064,0.85l4.636,7.188L243.314,321.133z"/>
	
		<linearGradient id="SVGID_5_" gradientUnits="userSpaceOnUse" x1="184.5718" y1="5.5132" x2="205.8447" y2="5.5132" gradientTransform="matrix(0.9953 0.0973 0.0973 -0.9953 -79.2197 330.4009)">
		<stop  offset="0.06" style="stop-color:#0D0D0D"/>
		<stop  offset="0.09" style="stop-color:#999999"/>
		<stop  offset="0.11" style="stop-color:#C8C8C8"/>
		<stop  offset="0.15" style="stop-color:#9D9D9D"/>
		<stop  offset="0.19" style="stop-color:#777777"/>
		<stop  offset="0.24" style="stop-color:#575757"/>
		<stop  offset="0.3" style="stop-color:#3B3B3B"/>
		<stop  offset="0.36" style="stop-color:#252525"/>
		<stop  offset="0.43" style="stop-color:#141414"/>
		<stop  offset="0.52" style="stop-color:#090909"/>
		<stop  offset="0.65" style="stop-color:#020202"/>
		<stop  offset="1" style="stop-color:#000000"/>
	</linearGradient>
	<path fill="url(#SVGID_5_)" d="M123.899,339.211l-16.677,2.543c0,0-2.552,0.381-2.381,3.227c0.131,2.795,1.163,4.152,4.804,3.654
		c3.591-0.455,15.361-2.85,15.361-2.85s1.066,0.104,1.245-1.719C126.431,342.242,126.09,338.842,123.899,339.211L123.899,339.211z"
		/>
	<path fill="#EEEEEE" d="M226.132,114.95c12.625-0.11,22.98,11.944,23.09,26.901c0.114,14.915-10.015,27.122-22.682,27.228
		c-12.62,0.068-22.98-11.944-23.089-26.901C203.342,127.221,213.515,115.019,226.132,114.95L226.132,114.95z"/>
	
		<linearGradient id="SVGID_6_" gradientUnits="userSpaceOnUse" x1="218.3877" y1="56.835" x2="266.9669" y2="0.3475" gradientTransform="matrix(0.9953 0.0973 0.0973 -0.9953 -79.2197 330.4009)">
		<stop  offset="0.06" style="stop-color:#0D0D0D"/>
		<stop  offset="0.09" style="stop-color:#999999"/>
		<stop  offset="0.11" style="stop-color:#C8C8C8"/>
		<stop  offset="0.15" style="stop-color:#9D9D9D"/>
		<stop  offset="0.19" style="stop-color:#777777"/>
		<stop  offset="0.24" style="stop-color:#575757"/>
		<stop  offset="0.3" style="stop-color:#3B3B3B"/>
		<stop  offset="0.36" style="stop-color:#252525"/>
		<stop  offset="0.43" style="stop-color:#141414"/>
		<stop  offset="0.52" style="stop-color:#090909"/>
		<stop  offset="0.65" style="stop-color:#020202"/>
		<stop  offset="1" style="stop-color:#000000"/>
	</linearGradient>
	<path fill="url(#SVGID_6_)" d="M156.71,290.578l13.771,27.605c0,0,0.918-4.803,1.714-5.58c0.752-0.82,2.567-1.002,3.815-0.477
		c1.251,0.527,4.405,8.645,5.942,23.248c1.528,14.648,2.185,34.555,1.788,36.311c-0.392,1.711-1.688,3.963-3.976,3.02
		c-2.294-0.895-4.66-6.965-5.101-11.182c-0.402-4.166-3.111-17.764-3.773-19.713c-0.62-1.945-16.01-34.109-16.439-35.678
		c-0.426-1.609-1.134-16.404-1.134-16.404S153.914,289.316,156.71,290.578L156.71,290.578z"/>
	
		<linearGradient id="SVGID_7_" gradientUnits="userSpaceOnUse" x1="166.5801" y1="161.5811" x2="175.7363" y2="161.5811" gradientTransform="matrix(0.9953 0.0973 0.0973 -0.9953 -79.2197 330.4009)">
		<stop  offset="0.06" style="stop-color:#0D0D0D"/>
		<stop  offset="0.09" style="stop-color:#999999"/>
		<stop  offset="0.11" style="stop-color:#C8C8C8"/>
		<stop  offset="0.15" style="stop-color:#9D9D9D"/>
		<stop  offset="0.19" style="stop-color:#777777"/>
		<stop  offset="0.24" style="stop-color:#575757"/>
		<stop  offset="0.3" style="stop-color:#3B3B3B"/>
		<stop  offset="0.36" style="stop-color:#252525"/>
		<stop  offset="0.43" style="stop-color:#141414"/>
		<stop  offset="0.52" style="stop-color:#090909"/>
		<stop  offset="0.65" style="stop-color:#020202"/>
		<stop  offset="1" style="stop-color:#000000"/>
	</linearGradient>
	<path fill="url(#SVGID_7_)" d="M111.277,184.646l-8.335-0.141c0,0-0.571,0.346-0.698,1.637c-0.126,1.289,0.639,1.723,1.529,1.809
		c0.89,0.088,7.488,0.061,7.488,0.061L111.277,184.646z"/>
	
		<linearGradient id="SVGID_8_" gradientUnits="userSpaceOnUse" x1="177.5649" y1="144.332" x2="188.0674" y2="144.332" gradientTransform="matrix(0.9953 0.0973 0.0973 -0.9953 -79.2197 330.4009)">
		<stop  offset="0.06" style="stop-color:#0D0D0D"/>
		<stop  offset="0.09" style="stop-color:#999999"/>
		<stop  offset="0.11" style="stop-color:#C8C8C8"/>
		<stop  offset="0.15" style="stop-color:#9D9D9D"/>
		<stop  offset="0.19" style="stop-color:#777777"/>
		<stop  offset="0.24" style="stop-color:#575757"/>
		<stop  offset="0.3" style="stop-color:#3B3B3B"/>
		<stop  offset="0.36" style="stop-color:#252525"/>
		<stop  offset="0.43" style="stop-color:#141414"/>
		<stop  offset="0.52" style="stop-color:#090909"/>
		<stop  offset="0.65" style="stop-color:#020202"/>
		<stop  offset="1" style="stop-color:#000000"/>
	</linearGradient>
	<path fill="url(#SVGID_8_)" d="M121.712,202.771l-9.539,0.234c0,0-0.619,0.388-0.703,1.683c-0.039,1.296,0.912,1.703,1.895,1.757
		c1.03,0.009,8.521-0.379,8.521-0.379L121.712,202.771z"/>
	
		<linearGradient id="SVGID_9_" gradientUnits="userSpaceOnUse" x1="211.0273" y1="149.4141" x2="220.7437" y2="149.4141" gradientTransform="matrix(0.9953 0.0973 0.0973 -0.9953 -79.2197 330.4009)">
		<stop  offset="0.06" style="stop-color:#0D0D0D"/>
		<stop  offset="0.09" style="stop-color:#999999"/>
		<stop  offset="0.11" style="stop-color:#C8C8C8"/>
		<stop  offset="0.15" style="stop-color:#9D9D9D"/>
		<stop  offset="0.19" style="stop-color:#777777"/>
		<stop  offset="0.24" style="stop-color:#575757"/>
		<stop  offset="0.3" style="stop-color:#3B3B3B"/>
		<stop  offset="0.36" style="stop-color:#252525"/>
		<stop  offset="0.43" style="stop-color:#141414"/>
		<stop  offset="0.52" style="stop-color:#090909"/>
		<stop  offset="0.65" style="stop-color:#020202"/>
		<stop  offset="1" style="stop-color:#000000"/>
	</linearGradient>
	<path fill="url(#SVGID_9_)" d="M145.474,200.784l8.648-0.768c0,0,0.604-0.213,0.869,1.206c0.225,1.368-0.037,2.688-0.554,2.907
		c-0.521,0.265-8.736,1.212-8.736,1.212L145.474,200.784z"/>
	
		<linearGradient id="SVGID_10_" gradientUnits="userSpaceOnUse" x1="220.3647" y1="93.4893" x2="230.0796" y2="93.4893" gradientTransform="matrix(0.9953 0.0973 0.0973 -0.9953 -79.2197 330.4009)">
		<stop  offset="0.06" style="stop-color:#0D0D0D"/>
		<stop  offset="0.09" style="stop-color:#999999"/>
		<stop  offset="0.11" style="stop-color:#C8C8C8"/>
		<stop  offset="0.15" style="stop-color:#9D9D9D"/>
		<stop  offset="0.19" style="stop-color:#777777"/>
		<stop  offset="0.24" style="stop-color:#575757"/>
		<stop  offset="0.3" style="stop-color:#3B3B3B"/>
		<stop  offset="0.36" style="stop-color:#252525"/>
		<stop  offset="0.43" style="stop-color:#141414"/>
		<stop  offset="0.52" style="stop-color:#090909"/>
		<stop  offset="0.65" style="stop-color:#020202"/>
		<stop  offset="1" style="stop-color:#000000"/>
	</linearGradient>
	<path fill="url(#SVGID_10_)" d="M149.325,257.313l8.643-0.725c0,0,0.606-0.213,0.873,1.16c0.226,1.371-0.038,2.689-0.559,2.953
		c-0.516,0.219-8.734,1.209-8.734,1.209L149.325,257.313z"/>
	
		<linearGradient id="SVGID_11_" gradientUnits="userSpaceOnUse" x1="188" y1="88.0117" x2="198.519" y2="88.0117" gradientTransform="matrix(0.9953 0.0973 0.0973 -0.9953 -79.2197 330.4009)">
		<stop  offset="0.06" style="stop-color:#0D0D0D"/>
		<stop  offset="0.09" style="stop-color:#999999"/>
		<stop  offset="0.11" style="stop-color:#C8C8C8"/>
		<stop  offset="0.15" style="stop-color:#9D9D9D"/>
		<stop  offset="0.19" style="stop-color:#777777"/>
		<stop  offset="0.24" style="stop-color:#575757"/>
		<stop  offset="0.3" style="stop-color:#3B3B3B"/>
		<stop  offset="0.36" style="stop-color:#252525"/>
		<stop  offset="0.43" style="stop-color:#141414"/>
		<stop  offset="0.52" style="stop-color:#090909"/>
		<stop  offset="0.65" style="stop-color:#020202"/>
		<stop  offset="1" style="stop-color:#000000"/>
	</linearGradient>
	<path fill="url(#SVGID_11_)" d="M126.438,259.563l-9.511,0.865c0,0-0.581,0.439-0.575,1.738c0.051,1.307,1.01,1.625,2.001,1.588
		c1.032,0.012,8.479-0.877,8.479-0.877L126.438,259.563z"/>
	<linearGradient id="SVGID_12_" gradientUnits="userSpaceOnUse" x1="138.9302" y1="132.353" x2="84.4552" y2="135.2506">
		<stop  offset="0.06" style="stop-color:#0D0D0D"/>
		<stop  offset="0.09" style="stop-color:#999999"/>
		<stop  offset="0.11" style="stop-color:#C8C8C8"/>
		<stop  offset="0.15" style="stop-color:#9D9D9D"/>
		<stop  offset="0.19" style="stop-color:#777777"/>
		<stop  offset="0.24" style="stop-color:#575757"/>
		<stop  offset="0.3" style="stop-color:#3B3B3B"/>
		<stop  offset="0.36" style="stop-color:#252525"/>
		<stop  offset="0.43" style="stop-color:#141414"/>
		<stop  offset="0.52" style="stop-color:#090909"/>
		<stop  offset="0.65" style="stop-color:#020202"/>
		<stop  offset="1" style="stop-color:#000000"/>
	</linearGradient>
	<polygon opacity="0.4" fill="url(#SVGID_12_)" points="112.137,71.613 122.097,195.412 140.088,191.665 130.481,71.613 	"/>
</g>
</svg>
