<?xml version="1.0" encoding="utf-8"?>
<!-- Generator: Adobe Illustrator 16.0.0, SVG Export Plug-In . SVG Version: 6.00 Build 0)  -->
<!DOCTYPE svg PUBLIC "-//W3C//DTD SVG 1.1//EN" "http://www.w3.org/Graphics/SVG/1.1/DTD/svg11.dtd">
<svg version="1.1" id="Layer_1" xmlns="http://www.w3.org/2000/svg" xmlns:xlink="http://www.w3.org/1999/xlink" x="0px" y="0px"
	 width="500px" height="500px" viewBox="0 0 500 500" enable-background="new 0 0 500 500" xml:space="preserve">
<path fill-rule="evenodd" clip-rule="evenodd" fill="#ADADAD" d="M390.223,202.744l-15.831-57.417c0,0-2.231-7.109-9.59-6.366
	c-7.358,0.744-13.683,8.226-10.872,16.907c2.812,8.682,11.615,36.377,11.615,36.377S387.62,209.152,390.223,202.744L390.223,202.744
	z"/>
<linearGradient id="SVGID_1_" gradientUnits="userSpaceOnUse" x1="219.0063" y1="246.6855" x2="245.4634" y2="246.6855">
	<stop  offset="0.06" style="stop-color:#0D0D0D"/>
	<stop  offset="0.09" style="stop-color:#999999"/>
	<stop  offset="0.11" style="stop-color:#C8C8C8"/>
	<stop  offset="0.15" style="stop-color:#9D9D9D"/>
	<stop  offset="0.19" style="stop-color:#777777"/>
	<stop  offset="0.24" style="stop-color:#575757"/>
	<stop  offset="0.3" style="stop-color:#3B3B3B"/>
	<stop  offset="0.36" style="stop-color:#252525"/>
	<stop  offset="0.43" style="stop-color:#141414"/>
	<stop  offset="0.52" style="stop-color:#090909"/>
	<stop  offset="0.65" style="stop-color:#020202"/>
	<stop  offset="1" style="stop-color:#000000"/>
</linearGradient>
<path fill-rule="evenodd" clip-rule="evenodd" fill="url(#SVGID_1_)" d="M229.96,89.729c-2.604-3.183-6.57-5.208-10.954-5.208
	h12.361c4.381,0,8.35,2.025,10.954,5.208c1.983,2.439,3.142,5.54,3.142,8.929v223.963v72.092c0,7.771-6.326,14.137-14.096,14.137
	h-12.361c7.772,0,14.096-6.365,14.096-14.137v-72.092V98.658C233.102,95.269,231.946,92.169,229.96,89.729L229.96,89.729z"/>
<linearGradient id="SVGID_2_" gradientUnits="userSpaceOnUse" x1="98.9243" y1="246.6855" x2="220.7437" y2="246.6855">
	<stop  offset="0.06" style="stop-color:#0D0D0D"/>
	<stop  offset="0.09" style="stop-color:#999999"/>
	<stop  offset="0.11" style="stop-color:#C8C8C8"/>
	<stop  offset="0.15" style="stop-color:#9D9D9D"/>
	<stop  offset="0.19" style="stop-color:#777777"/>
	<stop  offset="0.24" style="stop-color:#575757"/>
	<stop  offset="0.3" style="stop-color:#3B3B3B"/>
	<stop  offset="0.36" style="stop-color:#252525"/>
	<stop  offset="0.43" style="stop-color:#141414"/>
	<stop  offset="0.52" style="stop-color:#090909"/>
	<stop  offset="0.65" style="stop-color:#020202"/>
	<stop  offset="1" style="stop-color:#000000"/>
</linearGradient>
<path fill-rule="evenodd" clip-rule="evenodd" fill="url(#SVGID_2_)" d="M113.061,84.521h93.587c7.771,0,14.096,6.366,14.096,14.137
	v296.055c0,7.771-6.325,14.137-14.096,14.137h-93.587c-7.771,0-14.137-6.365-14.137-14.137V98.658
	C98.924,90.887,105.29,84.521,113.061,84.521L113.061,84.521z"/>
<linearGradient id="SVGID_3_" gradientUnits="userSpaceOnUse" x1="145.8408" y1="246.6855" x2="173.8257" y2="246.6855">
	<stop  offset="0.06" style="stop-color:#0D0D0D"/>
	<stop  offset="0.09" style="stop-color:#999999"/>
	<stop  offset="0.11" style="stop-color:#C8C8C8"/>
	<stop  offset="0.15" style="stop-color:#9D9D9D"/>
	<stop  offset="0.19" style="stop-color:#777777"/>
	<stop  offset="0.24" style="stop-color:#575757"/>
	<stop  offset="0.3" style="stop-color:#3B3B3B"/>
	<stop  offset="0.36" style="stop-color:#252525"/>
	<stop  offset="0.43" style="stop-color:#141414"/>
	<stop  offset="0.52" style="stop-color:#090909"/>
	<stop  offset="0.65" style="stop-color:#020202"/>
	<stop  offset="1" style="stop-color:#000000"/>
</linearGradient>
<rect x="145.841" y="84.521" fill-rule="evenodd" clip-rule="evenodd" fill="url(#SVGID_3_)" width="27.985" height="324.328"/>
<linearGradient id="SVGID_4_" gradientUnits="userSpaceOnUse" x1="98.9243" y1="395.6426" x2="220.7437" y2="395.6426">
	<stop  offset="0.06" style="stop-color:#0D0D0D"/>
	<stop  offset="0.09" style="stop-color:#999999"/>
	<stop  offset="0.11" style="stop-color:#C8C8C8"/>
	<stop  offset="0.15" style="stop-color:#9D9D9D"/>
	<stop  offset="0.19" style="stop-color:#777777"/>
	<stop  offset="0.24" style="stop-color:#575757"/>
	<stop  offset="0.3" style="stop-color:#3B3B3B"/>
	<stop  offset="0.36" style="stop-color:#252525"/>
	<stop  offset="0.43" style="stop-color:#141414"/>
	<stop  offset="0.52" style="stop-color:#090909"/>
	<stop  offset="0.65" style="stop-color:#020202"/>
	<stop  offset="1" style="stop-color:#000000"/>
</linearGradient>
<path fill-rule="evenodd" clip-rule="evenodd" fill="url(#SVGID_4_)" d="M113.061,408.85h93.587c7.771,0,14.096-6.365,14.096-14.137
	v-12.277H98.924v12.277C98.924,402.484,105.29,408.85,113.061,408.85L113.061,408.85z"/>
<linearGradient id="SVGID_5_" gradientUnits="userSpaceOnUse" x1="164.814" y1="323.1055" x2="397.127" y2="323.1055">
	<stop  offset="0.06" style="stop-color:#0D0D0D"/>
	<stop  offset="0.09" style="stop-color:#999999"/>
	<stop  offset="0.11" style="stop-color:#C8C8C8"/>
	<stop  offset="0.15" style="stop-color:#9D9D9D"/>
	<stop  offset="0.19" style="stop-color:#777777"/>
	<stop  offset="0.24" style="stop-color:#575757"/>
	<stop  offset="0.3" style="stop-color:#3B3B3B"/>
	<stop  offset="0.36" style="stop-color:#252525"/>
	<stop  offset="0.43" style="stop-color:#141414"/>
	<stop  offset="0.52" style="stop-color:#090909"/>
	<stop  offset="0.65" style="stop-color:#020202"/>
	<stop  offset="1" style="stop-color:#000000"/>
</linearGradient>
<path fill-rule="evenodd" clip-rule="evenodd" fill="url(#SVGID_5_)" d="M255.879,259.747l50.762-20.296
	c0,0,8.392-2.977,15.46,2.355c7.068,5.292,6.779,4.838,6.779,4.838l-56.797,146.704c0,0-2.356,4.091-5.911,4.712
	c-3.514,0.578-59.732,2.355-64.733-0.91c-5.002-3.224-8.682-91.478-8.682-91.478l-27.943,0.578c0,0,8.393,88.131,8.393,91.355
	c0,3.224,3.802,14.715,18.519,16.203c14.715,1.447,77.712,2.025,82.713,1.447c5.003-0.578,17.941-1.447,24.431-14.138
	c6.448-12.648,56.343-139.181,56.343-139.181l8.969,6.036l30.177,8.102l2.77-8.517l-9.384-5.166l-19.305-5.167l-43.527-25.01
	c0,0-4.877-2.066-9.012-1.321c-3.72,0.66-52.497,18.436-61.551,21.701c-1.694,0.62-2.603,0.454-2.603,0.454
	s-6.161-1.942-6.696-2.148c-0.538-0.208,0.867,4.257,1.694,5.29c0.867,0.993,6.075,3.679,7.192,3.887
	C255.053,260.244,255.879,259.747,255.879,259.747L255.879,259.747z"/>
<path fill-rule="evenodd" clip-rule="evenodd" fill="#EEEEEE" d="M298.869,216.717c0,0,1.157-11.327-1.199-22.075
	c-2.355-10.748-11.326-17.982-11.326-17.982s18.396-14.261,33.112-11.159c14.715,3.099,93.709,50.471,98.421,54.44
	c4.713,3.967,8.393,7.935,6.201,15.294c-2.231,7.357-11.037,13.971-24.885,10.747c-13.807-3.225-71.925-34.269-77.961-34.145
	C315.197,212.003,298.869,216.717,298.869,216.717L298.869,216.717z"/>
<linearGradient id="SVGID_6_" gradientUnits="userSpaceOnUse" x1="237.3418" y1="239.5928" x2="409.6826" y2="239.5928">
	<stop  offset="0.06" style="stop-color:#0D0D0D"/>
	<stop  offset="0.09" style="stop-color:#999999"/>
	<stop  offset="0.11" style="stop-color:#C8C8C8"/>
	<stop  offset="0.15" style="stop-color:#9D9D9D"/>
	<stop  offset="0.19" style="stop-color:#777777"/>
	<stop  offset="0.24" style="stop-color:#575757"/>
	<stop  offset="0.3" style="stop-color:#3B3B3B"/>
	<stop  offset="0.36" style="stop-color:#252525"/>
	<stop  offset="0.43" style="stop-color:#141414"/>
	<stop  offset="0.52" style="stop-color:#090909"/>
	<stop  offset="0.65" style="stop-color:#020202"/>
	<stop  offset="1" style="stop-color:#000000"/>
</linearGradient>
<path fill-rule="evenodd" clip-rule="evenodd" fill="url(#SVGID_6_)" d="M250.382,252.845c-2.068-0.454-10.459-3.926-10.914-4.878
	c-0.413-0.951-1.612-4.836-2.065-7.357c-0.414-2.479,1.404-4.919,1.404-4.919s10.5-1.819,18.849-4.548
	c8.31-2.687,50.473-16.906,52.291-17.319c1.778-0.413,9.342-3.102,13.848-1.364c4.547,1.736,7.193,2.851,7.193,2.851
	s7.399-2.934,16.535-1.156c9.135,1.777,58.283,31.416,60.558,33.771c2.272,2.356,1.901,6.119,0.289,10.955
	c-1.612,4.878-5.084,8.845-7.896,8.391c-2.77-0.413-74.736-37.45-76.928-37.865c-2.231-0.452-4.299-1.032-10.624,1.159
	c-6.324,2.19-56.63,21.329-56.63,21.329S252.654,253.753,250.382,252.845L250.382,252.845z"/>
<path fill-rule="evenodd" clip-rule="evenodd" fill="#CCCCCC" d="M423.789,236.062c0,0,3.555-6.076,1.199-21.701
	c-2.357-15.584-17.361-73.539-19.553-76.928c-2.232-3.389-5.291-9.259-11.202-8.969c-5.87,0.288-18.52,4.38-17.196,15.417
	s14.839,65.477,16.038,70.81c1.158,5.291,8.558,32.738,13.518,32.119C411.595,246.189,422.053,241.311,423.789,236.062
	L423.789,236.062z"/>
<linearGradient id="SVGID_7_" gradientUnits="userSpaceOnUse" x1="333.752" y1="162.4736" x2="408.5938" y2="162.4736">
	<stop  offset="0.06" style="stop-color:#0D0D0D"/>
	<stop  offset="0.09" style="stop-color:#999999"/>
	<stop  offset="0.11" style="stop-color:#C8C8C8"/>
	<stop  offset="0.15" style="stop-color:#9D9D9D"/>
	<stop  offset="0.19" style="stop-color:#777777"/>
	<stop  offset="0.24" style="stop-color:#575757"/>
	<stop  offset="0.3" style="stop-color:#3B3B3B"/>
	<stop  offset="0.36" style="stop-color:#252525"/>
	<stop  offset="0.43" style="stop-color:#141414"/>
	<stop  offset="0.52" style="stop-color:#090909"/>
	<stop  offset="0.65" style="stop-color:#020202"/>
	<stop  offset="1" style="stop-color:#000000"/>
</linearGradient>
<path fill-rule="evenodd" clip-rule="evenodd" fill="url(#SVGID_7_)" d="M335.452,158.845c0,0,49.15-17.528,54.316-18.271
	c5.125-0.704,15.873,4.961,18.023,13.641c2.107,8.68,0.289,19.842-8.186,23.149c-6.531,2.563-29.35,5.58-41.253,7.069
	c-8.228-4.588-16.122-8.805-22.777-12.113c-1.075-3.347-1.901-7.026-1.818-9.093C333.923,160.25,334.13,158.845,335.452,158.845
	L335.452,158.845z"/>
<linearGradient id="SVGID_8_" gradientUnits="userSpaceOnUse" x1="334.501" y1="167.1113" x2="373.4824" y2="167.1113">
	<stop  offset="0" style="stop-color:#FFFFFF"/>
	<stop  offset="0.07" style="stop-color:#434341"/>
	<stop  offset="0.14" style="stop-color:#20201E"/>
	<stop  offset="0.22" style="stop-color:#1E1E1C"/>
	<stop  offset="0.24" style="stop-color:#2A2A28"/>
	<stop  offset="0.61" style="stop-color:#FFFFFF"/>
	<stop  offset="0.68" style="stop-color:#FCFCFC"/>
	<stop  offset="0.74" style="stop-color:#F3F3F3"/>
	<stop  offset="0.78" style="stop-color:#E4E4E4"/>
	<stop  offset="0.82" style="stop-color:#CFCFCF"/>
	<stop  offset="0.86" style="stop-color:#B3B3B3"/>
	<stop  offset="0.89" style="stop-color:#919191"/>
	<stop  offset="0.93" style="stop-color:#686868"/>
	<stop  offset="0.96" style="stop-color:#393939"/>
	<stop  offset="0.99" style="stop-color:#060606"/>
	<stop  offset="0.99" style="stop-color:#000000"/>
</linearGradient>
<path fill-rule="evenodd" clip-rule="evenodd" fill="url(#SVGID_8_)" d="M334.501,168.559l35.385-10.335l0.413-0.083l3.184,11.782
	l-0.373,0.083l-30.175,6.077c-2.563-1.364-5.044-2.604-7.317-3.763h-0.041L334.501,168.559z"/>
<linearGradient id="SVGID_9_" gradientUnits="userSpaceOnUse" x1="98.9243" y1="97.708" x2="220.7437" y2="97.708">
	<stop  offset="0.06" style="stop-color:#0D0D0D"/>
	<stop  offset="0.09" style="stop-color:#999999"/>
	<stop  offset="0.11" style="stop-color:#C8C8C8"/>
	<stop  offset="0.15" style="stop-color:#9D9D9D"/>
	<stop  offset="0.19" style="stop-color:#777777"/>
	<stop  offset="0.24" style="stop-color:#575757"/>
	<stop  offset="0.3" style="stop-color:#3B3B3B"/>
	<stop  offset="0.36" style="stop-color:#252525"/>
	<stop  offset="0.43" style="stop-color:#141414"/>
	<stop  offset="0.52" style="stop-color:#090909"/>
	<stop  offset="0.65" style="stop-color:#020202"/>
	<stop  offset="1" style="stop-color:#000000"/>
</linearGradient>
<path fill-rule="evenodd" clip-rule="evenodd" fill="url(#SVGID_9_)" d="M113.061,84.521h93.587c7.771,0,14.096,6.366,14.096,14.137
	v12.236H98.924V98.658C98.924,90.887,105.29,84.521,113.061,84.521L113.061,84.521z"/>
<linearGradient id="SVGID_10_" gradientUnits="userSpaceOnUse" x1="74.2051" y1="246.6855" x2="100.7017" y2="246.6855">
	<stop  offset="0.06" style="stop-color:#0D0D0D"/>
	<stop  offset="0.09" style="stop-color:#999999"/>
	<stop  offset="0.11" style="stop-color:#C8C8C8"/>
	<stop  offset="0.15" style="stop-color:#9D9D9D"/>
	<stop  offset="0.19" style="stop-color:#777777"/>
	<stop  offset="0.24" style="stop-color:#575757"/>
	<stop  offset="0.3" style="stop-color:#3B3B3B"/>
	<stop  offset="0.36" style="stop-color:#252525"/>
	<stop  offset="0.43" style="stop-color:#141414"/>
	<stop  offset="0.52" style="stop-color:#090909"/>
	<stop  offset="0.65" style="stop-color:#020202"/>
	<stop  offset="1" style="stop-color:#000000"/>
</linearGradient>
<path fill-rule="evenodd" clip-rule="evenodd" fill="url(#SVGID_10_)" d="M89.748,89.729c2.603-3.183,6.531-5.208,10.954-5.208
	h-12.36c-4.423,0-8.349,2.025-10.956,5.208c-1.982,2.439-3.181,5.54-3.181,8.929v223.963v72.092c0,7.771,6.366,14.137,14.137,14.137
	h12.36c-7.771,0-14.139-6.365-14.139-14.137v-72.092V98.658C86.563,95.269,87.762,92.169,89.748,89.729L89.748,89.729z"/>
<linearGradient id="SVGID_11_" gradientUnits="userSpaceOnUse" x1="86.563" y1="97.7695" x2="113.061" y2="97.7695">
	<stop  offset="0.06" style="stop-color:#0D0D0D"/>
	<stop  offset="0.09" style="stop-color:#999999"/>
	<stop  offset="0.11" style="stop-color:#C8C8C8"/>
	<stop  offset="0.15" style="stop-color:#9D9D9D"/>
	<stop  offset="0.19" style="stop-color:#777777"/>
	<stop  offset="0.24" style="stop-color:#575757"/>
	<stop  offset="0.3" style="stop-color:#3B3B3B"/>
	<stop  offset="0.36" style="stop-color:#252525"/>
	<stop  offset="0.43" style="stop-color:#141414"/>
	<stop  offset="0.52" style="stop-color:#090909"/>
	<stop  offset="0.65" style="stop-color:#020202"/>
	<stop  offset="1" style="stop-color:#000000"/>
</linearGradient>
<path fill-rule="evenodd" clip-rule="evenodd" fill="url(#SVGID_11_)" d="M89.748,89.729c-1.985,2.439-3.185,5.54-3.185,8.929
	v12.153l12.361,0.207v-12.36c0-3.389,1.199-6.489,3.182-8.929c2.606-3.183,6.532-5.208,10.955-5.208h-12.359l-2.853,0.289
	C94.625,85.472,91.772,87.25,89.748,89.729L89.748,89.729z"/>
<linearGradient id="SVGID_12_" gradientUnits="userSpaceOnUse" x1="206.6479" y1="97.7695" x2="233.1021" y2="97.7695">
	<stop  offset="0.06" style="stop-color:#0D0D0D"/>
	<stop  offset="0.09" style="stop-color:#999999"/>
	<stop  offset="0.11" style="stop-color:#C8C8C8"/>
	<stop  offset="0.15" style="stop-color:#9D9D9D"/>
	<stop  offset="0.19" style="stop-color:#777777"/>
	<stop  offset="0.24" style="stop-color:#575757"/>
	<stop  offset="0.3" style="stop-color:#3B3B3B"/>
	<stop  offset="0.36" style="stop-color:#252525"/>
	<stop  offset="0.43" style="stop-color:#141414"/>
	<stop  offset="0.52" style="stop-color:#090909"/>
	<stop  offset="0.65" style="stop-color:#020202"/>
	<stop  offset="1" style="stop-color:#000000"/>
</linearGradient>
<path fill-rule="evenodd" clip-rule="evenodd" fill="url(#SVGID_12_)" d="M229.96,89.729c1.985,2.439,3.142,5.54,3.142,8.929v12.153
	l-12.358,0.207v-12.36c0-3.389-1.157-6.489-3.184-8.929c-2.563-3.183-6.531-5.208-10.912-5.208h12.358l2.812,0.289
	C225.084,85.472,227.935,87.25,229.96,89.729L229.96,89.729z"/>
<linearGradient id="SVGID_13_" gradientUnits="userSpaceOnUse" x1="261.9551" y1="318.9414" x2="328.8799" y2="318.9414">
	<stop  offset="0.06" style="stop-color:#0D0D0D"/>
	<stop  offset="0.09" style="stop-color:#999999"/>
	<stop  offset="0.11" style="stop-color:#C8C8C8"/>
	<stop  offset="0.15" style="stop-color:#9D9D9D"/>
	<stop  offset="0.19" style="stop-color:#777777"/>
	<stop  offset="0.24" style="stop-color:#575757"/>
	<stop  offset="0.3" style="stop-color:#3B3B3B"/>
	<stop  offset="0.36" style="stop-color:#252525"/>
	<stop  offset="0.43" style="stop-color:#141414"/>
	<stop  offset="0.52" style="stop-color:#090909"/>
	<stop  offset="0.65" style="stop-color:#020202"/>
	<stop  offset="1" style="stop-color:#000000"/>
</linearGradient>
<path fill-rule="evenodd" clip-rule="evenodd" fill="url(#SVGID_13_)" d="M317.842,239.534L261.955,398.35
	c2.233-0.124,3.722-0.206,4.217-0.289c3.555-0.621,5.911-4.712,5.911-4.712l56.797-146.704c-0.082,0-0.703-0.289-6.779-4.838
	C320.694,240.732,319.248,240.029,317.842,239.534L317.842,239.534z"/>
<path fill-rule="evenodd" clip-rule="evenodd" fill="#EEEEEE" d="M175.646,206.837c0,0-2.316-16.039,0.908-23.851
	c3.266-7.772,12.236-11.74,28.729-11.905c16.451-0.124,33.979,1.199,45.882,4.547c11.947,3.389,25.465,2.687,27.241,2.356
	c1.736-0.291,1.901-0.291,1.901-0.291s10.005,4.712,13.394,17.815c3.39,13.105,0.165,23.563,0.165,23.563
	s-49.479,17.072-57.541,18.229c-8.101,1.158-40.18-0.579-49.77-13.103C177.009,211.714,175.646,206.837,175.646,206.837
	L175.646,206.837z"/>
<linearGradient id="SVGID_14_" gradientUnits="userSpaceOnUse" x1="152.2065" y1="294.0156" x2="238.8379" y2="294.0156">
	<stop  offset="0.06" style="stop-color:#0D0D0D"/>
	<stop  offset="0.09" style="stop-color:#999999"/>
	<stop  offset="0.11" style="stop-color:#C8C8C8"/>
	<stop  offset="0.15" style="stop-color:#9D9D9D"/>
	<stop  offset="0.19" style="stop-color:#777777"/>
	<stop  offset="0.24" style="stop-color:#575757"/>
	<stop  offset="0.3" style="stop-color:#3B3B3B"/>
	<stop  offset="0.36" style="stop-color:#252525"/>
	<stop  offset="0.43" style="stop-color:#141414"/>
	<stop  offset="0.52" style="stop-color:#090909"/>
	<stop  offset="0.65" style="stop-color:#020202"/>
	<stop  offset="1" style="stop-color:#000000"/>
</linearGradient>
<path fill-rule="evenodd" clip-rule="evenodd" fill="url(#SVGID_14_)" d="M155.142,306.624c0,0-2.935-0.662-2.935-3.556
	c0-2.852,0.537-12.649,2.894-15.749c2.357-3.06,52.83-6.324,62.956-5.87c10.17,0.455,16.038,2.48,18.271,4.258
	c2.191,1.777,2.646,12.814,2.48,14.261c-0.124,1.488-3.679,5.003-6.448,5.457C229.547,305.879,155.142,306.624,155.142,306.624
	L155.142,306.624z"/>
<linearGradient id="SVGID_15_" gradientUnits="userSpaceOnUse" x1="154.4624" y1="279.6289" x2="228.1011" y2="279.6289">
	<stop  offset="0.06" style="stop-color:#0D0D0D"/>
	<stop  offset="0.09" style="stop-color:#999999"/>
	<stop  offset="0.11" style="stop-color:#C8C8C8"/>
	<stop  offset="0.15" style="stop-color:#9D9D9D"/>
	<stop  offset="0.19" style="stop-color:#777777"/>
	<stop  offset="0.24" style="stop-color:#575757"/>
	<stop  offset="0.3" style="stop-color:#3B3B3B"/>
	<stop  offset="0.36" style="stop-color:#252525"/>
	<stop  offset="0.43" style="stop-color:#141414"/>
	<stop  offset="0.52" style="stop-color:#090909"/>
	<stop  offset="0.65" style="stop-color:#020202"/>
	<stop  offset="1" style="stop-color:#000000"/>
</linearGradient>
<path fill-rule="evenodd" clip-rule="evenodd" fill="url(#SVGID_15_)" d="M228.101,282.606c0,0-0.413-7.108-1.777-8.597
	c-1.404-1.447-7.439-2.853-9.673-3.226c-2.19-0.372-47.455-1.571-52.456-0.826c-5.003,0.743-15.584,17.361-5.581,19.304
	C168.618,291.164,228.101,282.606,228.101,282.606L228.101,282.606z"/>
<linearGradient id="SVGID_16_" gradientUnits="userSpaceOnUse" x1="201.2734" y1="402.9521" x2="201.2734" y2="274.2925">
	<stop  offset="0.06" style="stop-color:#0D0D0D"/>
	<stop  offset="0.09" style="stop-color:#999999"/>
	<stop  offset="0.11" style="stop-color:#C8C8C8"/>
	<stop  offset="0.15" style="stop-color:#9D9D9D"/>
	<stop  offset="0.19" style="stop-color:#777777"/>
	<stop  offset="0.24" style="stop-color:#575757"/>
	<stop  offset="0.3" style="stop-color:#3B3B3B"/>
	<stop  offset="0.36" style="stop-color:#252525"/>
	<stop  offset="0.43" style="stop-color:#141414"/>
	<stop  offset="0.52" style="stop-color:#090909"/>
	<stop  offset="0.65" style="stop-color:#020202"/>
	<stop  offset="1" style="stop-color:#000000"/>
</linearGradient>
<path fill-rule="evenodd" clip-rule="evenodd" fill="url(#SVGID_16_)" d="M209.79,398.557c-4.134-34.269-2.48-92.554-2.48-92.554
	c-4.63,0.042-9.59,0.124-14.552,0.165c0.331,7.358,3.928,87.924,8.682,90.982C202.43,397.813,205.532,398.268,209.79,398.557
	L209.79,398.557z"/>
<path fill-rule="evenodd" clip-rule="evenodd" fill="#CCCCCC" d="M151.62,160.244c16.025,7.335,23.842,25.239,17.512,40.042
	c-6.376,14.804-24.498,20.874-40.526,13.537c-16.025-7.336-23.842-25.283-17.51-40.088
	C117.47,158.978,135.594,152.907,151.62,160.244L151.62,160.244z"/>
<linearGradient id="SVGID_17_" gradientUnits="userSpaceOnUse" x1="168.7739" y1="293.3779" x2="168.7739" y2="332.0049">
	<stop  offset="0" style="stop-color:#FFFFFF"/>
	<stop  offset="0.07" style="stop-color:#434341"/>
	<stop  offset="0.14" style="stop-color:#20201E"/>
	<stop  offset="0.22" style="stop-color:#1E1E1C"/>
	<stop  offset="0.24" style="stop-color:#2A2A28"/>
	<stop  offset="0.61" style="stop-color:#FFFFFF"/>
	<stop  offset="0.68" style="stop-color:#FCFCFC"/>
	<stop  offset="0.74" style="stop-color:#F3F3F3"/>
	<stop  offset="0.78" style="stop-color:#E4E4E4"/>
	<stop  offset="0.82" style="stop-color:#CFCFCF"/>
	<stop  offset="0.86" style="stop-color:#B3B3B3"/>
	<stop  offset="0.89" style="stop-color:#919191"/>
	<stop  offset="0.93" style="stop-color:#686868"/>
	<stop  offset="0.96" style="stop-color:#393939"/>
	<stop  offset="0.99" style="stop-color:#060606"/>
	<stop  offset="0.99" style="stop-color:#000000"/>
</linearGradient>
<path fill="url(#SVGID_17_)" d="M207.391,315.18c0,0-53.614,2.853-57.872,2.192c-4.258-0.662-10.292-4.382-12.028-5.705
	c-1.738-1.282-1.985-1.736-1.985-1.736s-3.926,1.736-5.125,1.736c-1.197,0-2.852-2.19-2.314-4.011
	c0.578-1.859,12.938-9.218,15.004-10.085c2.067-0.869,3.72-1.075,4.796,0.784c1.115,1.861,0.867,3.722,0.122,4.465
	c-0.785,0.786-1.321,1.116-1.321,1.116s0.454,1.736,3.926,2.604c3.513,0.868,55.806-1.198,55.806-1.198s2.521-0.124,2.934,2.604
	C209.79,310.716,209.873,315.056,207.391,315.18L207.391,315.18z"/>
<linearGradient id="SVGID_18_" gradientUnits="userSpaceOnUse" x1="123.019" y1="273.0234" x2="147.1387" y2="257.8623">
	<stop  offset="0.06" style="stop-color:#0D0D0D"/>
	<stop  offset="0.09" style="stop-color:#999999"/>
	<stop  offset="0.11" style="stop-color:#C8C8C8"/>
	<stop  offset="0.15" style="stop-color:#9D9D9D"/>
	<stop  offset="0.19" style="stop-color:#777777"/>
	<stop  offset="0.24" style="stop-color:#575757"/>
	<stop  offset="0.3" style="stop-color:#3B3B3B"/>
	<stop  offset="0.36" style="stop-color:#252525"/>
	<stop  offset="0.43" style="stop-color:#141414"/>
	<stop  offset="0.52" style="stop-color:#090909"/>
	<stop  offset="0.65" style="stop-color:#020202"/>
	<stop  offset="1" style="stop-color:#000000"/>
</linearGradient>
<path fill="url(#SVGID_18_)" d="M150.844,283.311l-29.225-40.14c0,0-2.771,4.301-4.796,5.498c-0.743,0.455-1.487,0.828-2.108,1.075
	l25.34,42.743v0.041C140.055,292.528,148.28,289.552,150.844,283.311L150.844,283.311z"/>
<linearGradient id="SVGID_19_" gradientUnits="userSpaceOnUse" x1="106.4463" y1="244.4463" x2="121.6187" y2="244.4463">
	<stop  offset="0" style="stop-color:#FFFFFF"/>
	<stop  offset="0.07" style="stop-color:#434341"/>
	<stop  offset="0.14" style="stop-color:#20201E"/>
	<stop  offset="0.22" style="stop-color:#1E1E1C"/>
	<stop  offset="0.24" style="stop-color:#2A2A28"/>
	<stop  offset="0.61" style="stop-color:#FFFFFF"/>
	<stop  offset="0.68" style="stop-color:#FCFCFC"/>
	<stop  offset="0.74" style="stop-color:#F3F3F3"/>
	<stop  offset="0.78" style="stop-color:#E4E4E4"/>
	<stop  offset="0.82" style="stop-color:#CFCFCF"/>
	<stop  offset="0.86" style="stop-color:#B3B3B3"/>
	<stop  offset="0.89" style="stop-color:#919191"/>
	<stop  offset="0.93" style="stop-color:#686868"/>
	<stop  offset="0.96" style="stop-color:#393939"/>
	<stop  offset="0.99" style="stop-color:#060606"/>
	<stop  offset="0.99" style="stop-color:#000000"/>
</linearGradient>
<path fill-rule="evenodd" clip-rule="evenodd" fill="url(#SVGID_19_)" d="M121.619,243.171c0,0-2.606-3.72-3.928-4.009
	c-1.158-0.248-8.599,3.018-11.245,7.358c0,0,0.043,0,0.043-0.043c3.926-1.612,5.456-1.115,5.953-0.867
	c0.496,0.289,1.734,3.309,1.734,3.309l0.538,0.825c0.621-0.247,1.365-0.62,2.108-1.075
	C118.847,247.472,121.619,243.171,121.619,243.171L121.619,243.171z"/>
<path fill-rule="evenodd" clip-rule="evenodd" fill="#ADADAD" d="M139.352,267.519l48.86-5.043c0,0-0.744-2.687-1.859-6.696
	c-10.667,1.695-38.154,5.994-50.225,7.317L139.352,267.519z"/>
<linearGradient id="SVGID_20_" gradientUnits="userSpaceOnUse" x1="113.4551" y1="282.1807" x2="130.6836" y2="270.6377">
	<stop  offset="0.06" style="stop-color:#0D0D0D"/>
	<stop  offset="0.09" style="stop-color:#999999"/>
	<stop  offset="0.11" style="stop-color:#C8C8C8"/>
	<stop  offset="0.15" style="stop-color:#9D9D9D"/>
	<stop  offset="0.19" style="stop-color:#777777"/>
	<stop  offset="0.24" style="stop-color:#575757"/>
	<stop  offset="0.3" style="stop-color:#3B3B3B"/>
	<stop  offset="0.36" style="stop-color:#252525"/>
	<stop  offset="0.43" style="stop-color:#141414"/>
	<stop  offset="0.52" style="stop-color:#090909"/>
	<stop  offset="0.65" style="stop-color:#020202"/>
	<stop  offset="1" style="stop-color:#000000"/>
</linearGradient>
<path fill="url(#SVGID_20_)" d="M143.071,297.571l-28.895-48.652c0,0-4.588,0.535-7.853,2.81c-3.267,2.315-5.375,4.836-5.375,4.836
	l28.77,49.356L143.071,297.571z"/>
<linearGradient id="SVGID_21_" gradientUnits="userSpaceOnUse" x1="98.9238" y1="250.9517" x2="114.1763" y2="250.9517">
	<stop  offset="0" style="stop-color:#FFFFFF"/>
	<stop  offset="0.07" style="stop-color:#434341"/>
	<stop  offset="0.14" style="stop-color:#20201E"/>
	<stop  offset="0.22" style="stop-color:#1E1E1C"/>
	<stop  offset="0.24" style="stop-color:#2A2A28"/>
	<stop  offset="0.61" style="stop-color:#FFFFFF"/>
	<stop  offset="0.68" style="stop-color:#FCFCFC"/>
	<stop  offset="0.74" style="stop-color:#F3F3F3"/>
	<stop  offset="0.78" style="stop-color:#E4E4E4"/>
	<stop  offset="0.82" style="stop-color:#CFCFCF"/>
	<stop  offset="0.86" style="stop-color:#B3B3B3"/>
	<stop  offset="0.89" style="stop-color:#919191"/>
	<stop  offset="0.93" style="stop-color:#686868"/>
	<stop  offset="0.96" style="stop-color:#393939"/>
	<stop  offset="0.99" style="stop-color:#060606"/>
	<stop  offset="0.99" style="stop-color:#000000"/>
</linearGradient>
<path fill="url(#SVGID_21_)" d="M100.949,256.564c0,0-1.942-3.059-2.025-3.885c-0.043-0.827,3.637-4.547,7.565-6.202
	c3.926-1.612,5.456-1.115,5.953-0.867c0.496,0.289,1.734,3.309,1.734,3.309S106.819,249.289,100.949,256.564L100.949,256.564z"/>
<path fill-rule="evenodd" clip-rule="evenodd" fill="#CCCCCC" d="M211.732,205.225c0,0,7.522,50.473,7.234,61.22
	c-0.331,10.748-2.108,17.774-10.831,18.85c-8.68,1.075-78.787,8.806-82.756,8.806c-3.969,0-13.311-3.763-13.311-10.831
	c0-7.027,3.267-14.262,10.293-15.005c7.069-0.704,65.85-5.788,65.85-5.788s-9.715-34.887-11.327-41.956
	c-1.653-7.069-3.266-21.784,5.126-26.91C190.402,188.441,210.286,188.607,211.732,205.225L211.732,205.225z"/>
</svg>
