<?xml version="1.0" encoding="utf-8"?>
<!-- Generator: Adobe Illustrator 16.0.0, SVG Export Plug-In . SVG Version: 6.00 Build 0)  -->
<!DOCTYPE svg PUBLIC "-//W3C//DTD SVG 1.1//EN" "http://www.w3.org/Graphics/SVG/1.1/DTD/svg11.dtd">
<svg version="1.1" id="Layer_1" xmlns="http://www.w3.org/2000/svg" xmlns:xlink="http://www.w3.org/1999/xlink" x="0px" y="0px"
	 width="500px" height="500px" viewBox="0 0 500 500" enable-background="new 0 0 500 500" xml:space="preserve">
<g>
	<path fill-rule="evenodd" clip-rule="evenodd" fill="#CCCCCC" d="M285.132,325.093c0,0-47.467,71.334-54.761,76.566
		c-7.255,5.271-11.112,4.468-15.542,3.665c-4.469-0.801-81.873-20.812-85.501-20.812s-9.7-4.238-10.922-9.089
		c-1.184-4.85,0.229-17.185,11.724-18.405c11.532-1.222,75.573,11.724,75.573,11.724s3.055,0,3.437-2.216
		c0.42-2.252,15.771-37.805,15.39-41.434c-0.421-3.627-0.229-9.813,0.381-21.537s7.294-23.522,7.294-23.522l7.867-0.116
		L285.132,325.093z"/>
	<path fill-rule="evenodd" clip-rule="evenodd" fill="#EEEEEE" d="M232.204,280.033c-0.65,14.816-5.194,42.12,12.296,48.191
		c14.55,5.041,93.788-2.215,96.194-2.826c2.444-0.61,2.444-0.61,2.444-0.61s-18.598,59.802-20.201,65.453
		c-1.642,5.689-0.611,12.563,5.652,14.549c6.262,2.023,19.169,5.271,25.24-9.891c6.073-15.16,28.106-83.669,28.106-92.146
		c0-8.476-10.311-17.375-21.613-17.375c-11.342,0-59.916-3.131-63.583-3.627c-3.627-0.497-6.262-3.247-6.262-3.247
		S252.71,280.948,232.204,280.033L232.204,280.033z"/>
	<path fill-rule="evenodd" clip-rule="evenodd" fill="#EEEEEE" d="M232.51,276.176c0,0,31.925-1.185,42.121-1.489
		c10.195-0.306,15.045-0.841,15.045-0.841s3.552-39.791,1.527-54.15c-2.023-14.32-9.508-37.996-18.788-46.665
		c-9.317-8.707-29.71-11.304-38.416-7.484c-8.669,3.856-12.524,31.924-12.105,41.013c0.382,9.088,4.049,12.526,5.04,19.399
		C227.965,232.832,232.51,276.176,232.51,276.176L232.51,276.176z"/>
	<path fill-rule="evenodd" clip-rule="evenodd" fill="#CCCCCC" d="M237.054,211.83c0,0,26.655,46.474,33.338,51.935
		c6.644,5.461,13.365,5.843,16.765,2.406c3.398-3.438,24.478-40.021,26.692-48.729c2.215-8.667-1.03-14.128-7.294-17.565
		c-6.263-3.437-9.776-0.038-12.717,5.46c-2.979,5.461-10.271,24.861-10.271,24.861s-14.396-31.199-17.223-35.438
		c-2.826-4.239-8.707-11.113-16.574-9.509C241.904,186.854,230.181,195.256,237.054,211.83L237.054,211.83z"/>
	<path fill-rule="evenodd" clip-rule="evenodd" fill="#ADADAD" d="M293.838,205.337c2.94-5.499,6.454-8.897,12.717-5.46
		c2.063,1.107,3.781,2.444,5.117,4.047c0,0-3.742-6.721-11.646-7.217c-7.867-0.496-11.763,9.126-11.763,9.126
		c0.727,2.673,1.337,5.27,1.872,7.752C291.548,210.148,292.923,207.057,293.838,205.337L293.838,205.337z"/>
	<path fill-rule="evenodd" clip-rule="evenodd" fill="#EEEEEE" d="M258.897,158.1c15.657,0,28.373-14.511,28.373-32.306
		c0-17.833-12.716-32.344-28.373-32.344c-15.619,0-28.335,14.511-28.335,32.344C230.563,143.589,243.278,158.1,258.897,158.1
		L258.897,158.1z"/>
</g>
</svg>
