<?xml version="1.0" encoding="utf-8"?>
<!-- Generator: Adobe Illustrator 16.0.0, SVG Export Plug-In . SVG Version: 6.00 Build 0)  -->
<!DOCTYPE svg PUBLIC "-//W3C//DTD SVG 1.1//EN" "http://www.w3.org/Graphics/SVG/1.1/DTD/svg11.dtd">
<svg version="1.1" id="Layer_1" xmlns="http://www.w3.org/2000/svg" xmlns:xlink="http://www.w3.org/1999/xlink" x="0px" y="0px"
	 width="500px" height="500px" viewBox="0 0 500 500" enable-background="new 0 0 500 500" xml:space="preserve">
<path fill-rule="evenodd" clip-rule="evenodd" fill="#EEEEEE" d="M378.524,232.418c0,0-5.428,12.829-46.965,18.257
	c-21.487,2.826-48.445-2.377-58.403-3.319c-9.959-0.942-24.448-2.602-27.049-2.602c-2.601,0-11.394-18.033-11.394-35.123
	c0-17.091,7.806-25.165,11.618-27.049c3.814-1.929,15.432-3.589,15.432-3.589s56.339-9.196,68.226-9.196s35.616,3.14,48.087,14.175
	C390.546,195.007,392.565,217.705,378.524,232.418L378.524,232.418z"/>
<path fill-rule="evenodd" clip-rule="evenodd" fill="#C2C3C4" d="M390.905,218.154c0,0-5.474,14.713-12.336,19.961
	c-6.908,5.203-15.699,9.24-15.699,9.24s-0.764,42.703,0,49.612c0.807,6.908,18.032,1.929,24.716-2.378
	c6.64-4.261,4.979-10.452,4.979-10.452s0-33.687-0.271-42.479C392.071,232.867,395.391,225.779,390.905,218.154L390.905,218.154z"/>
<path fill-rule="evenodd" clip-rule="evenodd" fill="#D0D2D4" d="M392.745,286.291c0,0,14.893,9.017,23.908,12.245
	c9.016,3.186,9.465,6.639,8.522,13.638c-0.943,6.998-9.105,12.694-18.84,11.618c-9.734-1.077-34.765-16.283-38.397-20.366
	c-3.678-4.126-1.256-9.419,2.916-12.604C374.98,287.592,389.47,285.124,392.745,286.291L392.745,286.291z"/>
<path fill-rule="evenodd" clip-rule="evenodd" fill="#D0D2D4" d="M200.398,253.591c-13.322,1.929-26.286,3.768-32.163,4.351
	c-14.488,1.48-101.779,23.773-105.817,24.761c-3.992,0.987-11.214,1.257-13.815-4.71c-2.602-5.92-6.415-19.288,3.319-24.985
	c13.277-7.76,138.607-43.825,155.249-56.698c6.415-4.935,13.815-11.08,22.114-12.56c8.298-1.48,12.471-1.615,12.471-1.615
	s-4.576,1.929-7.984,10.183c-1.75,4.171-2.782,2.108-3.59,17.988c-0.628,13.008,6.19,29.74,8.703,35.392
	C230.453,246.907,215.605,249.418,200.398,253.591L200.398,253.591z"/>
<path fill-rule="evenodd" clip-rule="evenodd" fill="#D0D2D4" d="M408.736,169.848c-21.558,2.354-37.457,20.776-35.556,41.137
	c1.9,20.315,20.91,34.905,42.468,32.55c21.559-2.354,37.5-20.731,35.555-41.091C449.303,182.083,430.293,167.493,408.736,169.848
	L408.736,169.848z"/>
<path fill-rule="evenodd" clip-rule="evenodd" fill="#AAAAAA" d="M194.343,255.34c-14.489,1.84-101.736,26.33-105.773,27.452
	c-3.813,1.032-10.317,1.436-13.277-3.319c25.703-6.46,81.595-20.365,92.943-21.531c5.876-0.583,18.84-2.422,32.163-4.351
	C198.38,254.129,196.361,254.711,194.343,255.34L194.343,255.34z M233.772,192.316l0.269-0.18c-2.063,4.62-3.14,9.375-3.633,14.085
	C231.171,194.783,232.202,196.084,233.772,192.316L233.772,192.316z M230.183,210.797c-0.043,1.705,0,3.32,0.136,4.979
	C230.183,214.072,230.139,212.412,230.183,210.797L230.183,210.797z"/>
<path fill-rule="evenodd" clip-rule="evenodd" fill="#DDDDDD" d="M328.688,214.969c2.378,9.241-5.203,26.332-6.863,32.027
	c-1.66,5.697-6.908,35.169-9.284,52.482c-2.334,17.314-21.576,27.542-26.107,23.236c-4.484-4.262-7.804-14.444-7.355-44.139
	c0.492-29.65,14.039-69.304,14.039-69.304s2.603-9.241,14.713-8.299C319.941,201.916,322.768,206.446,328.688,214.969
	L328.688,214.969z"/>
<path fill-rule="evenodd" clip-rule="evenodd" fill="#EEEEEE" d="M286.434,322.715c0,0,1.436,3.813,8.928,5.606
	c7.49,1.75,62.529,2.827,77.019,0.719c14.488-2.154,20.902-3.588,21.846-11.17c0.94-7.581-4.531-15.206-12.605-15.431
	c-8.075-0.224-32.028,3.544-40.819,3.544c-8.793,0-26.824-6.639-32.971-6.146C301.64,300.287,277.687,309.796,286.434,322.715
	L286.434,322.715z"/>
</svg>
