<svg id="Layer_1" data-name="Layer 1" xmlns="http://www.w3.org/2000/svg" xmlns:xlink="http://www.w3.org/1999/xlink" viewBox="0 0 500 500"><defs><style>.cls-1{fill:#eee;}.cls-1,.cls-2,.cls-3{fill-rule:evenodd;}.cls-2{fill:#bdbdbd;}.cls-3{fill:#ccc;}.cls-4{fill:url(#linear-gradient);}</style><linearGradient id="linear-gradient" x1="250" y1="128.23" x2="250" y2="117.64" gradientUnits="userSpaceOnUse"><stop offset="0" stop-color="#fff"/><stop offset="0.07" stop-color="#434341"/><stop offset="0.14" stop-color="#20201e"/><stop offset="0.22" stop-color="#1e1e1c"/><stop offset="0.24" stop-color="#2a2a28"/><stop offset="0.61" stop-color="#fff"/><stop offset="0.68" stop-color="#fcfcfc"/><stop offset="0.74" stop-color="#f3f3f3"/><stop offset="0.78" stop-color="#e4e4e4"/><stop offset="0.82" stop-color="#cfcfcf"/><stop offset="0.86" stop-color="#b3b3b3"/><stop offset="0.89" stop-color="#919191"/><stop offset="0.93" stop-color="#686868"/><stop offset="0.96" stop-color="#393939"/><stop offset="0.99" stop-color="#060606"/><stop offset="0.99"/></linearGradient></defs><title>Artboard 1</title><path class="cls-1" d="M247.09,127.53c17.6,0,31.91-15.27,31.91-33.95s-14.31-34-31.91-34-31.86,15.27-31.86,34,14.32,34,31.86,34Z"/><path class="cls-1" d="M198.87,141.72c-1,9.16,4.95,76.87,6.67,89.48s2.2,20.26,2.2,20.26,26.2-4.94,52.16-3S290,251.7,290,251.7s7.66-37.31,9.39-51.14,4.71-41,4.48-50.15-2.24-15.08-13.87-16.34c-6.16-.66-90-3.27-91.15,7.65Z"/><path class="cls-1" d="M207.5,254.69s-7.19,58.79-8.63,74.11,4.67,32.13,6.91,37.31,36.05,59.31,40.25,66.5,11.86,9.85,18.31,6.16,9.15-11.11,4.71-19.75-24.75-61.78-26.71-67.48,8.64-42.26,10.37-53.89.93-44.93-.75-45.2-7.66-2.48-44.46,2.24Z"/><path class="cls-2" d="M203.35,359.71c.93,2.8,1.82,5,2.43,6.4,2.19,5.18,36.05,59.31,40.25,66.5s11.86,9.85,18.31,6.16,9.15-11.11,4.71-19.75-24.75-61.78-26.71-67.48a6.93,6.93,0,0,1-.23-2.2h0c-1.4,23.73-26.06,24.38-30.63,21.16s-8.08-10.74-8.13-10.79Zm39.13-14.57c.1-.84.23-1.73.38-2.71-.15.8-.28,1.68-.38,2.71Z"/><path class="cls-1" d="M247.71,251.84s24.7,1.4,33,2.75a90.6,90.6,0,0,1,9.76,1.87s9.48,37.45,10.74,59.17.46,51.93-2.24,55.1a72.68,72.68,0,0,1-14.57,13.59c-8.41,6.21-40.77,31.57-46.61,34.84s-12.93-1.45-14.66-8.64-4-10.13,5.41-19.52,29.89-26.9,31.39-31.1-12.85-55.85-12.85-55.85Z"/><path class="cls-3" d="M297.21,372.88a76.33,76.33,0,0,1-12.79,11.44c-8.41,6.21-40.77,31.57-46.61,34.84s-12.93-1.45-14.66-8.64-4-10.13,5.41-19.52,29.89-26.9,31.39-31.1a5.2,5.2,0,0,0,0-2h0s6.12,14.19,15.74,17.65c7.29,2.62,16.81,1.31,21.48-2.66Z"/><path class="cls-3" d="M203.25,138.08a24.84,24.84,0,0,0-14.84,6.59c-6.31,6.16-34.84,38.9-38.3,46.56s-.74,23.48,2.71,27.69,10.65,2.47,13.36.74,27.83-25.17,34.55-40.25,2.52-41.33,2.52-41.33Z"/><path class="cls-3" d="M300.15,138.08A24.86,24.86,0,0,1,315,144.67c6.31,6.16,34.84,38.9,38.3,46.56s.74,23.48-2.71,27.69-10.65,2.47-13.36.74-27.83-25.17-34.55-40.25-2.53-41.33-2.53-41.33Z"/><path class="cls-1" d="M148.57,202.9s-.7-12.19,6-37.13,7.66-46,9.67-49.92,14.8-5.41,18.77-.74.23,33.62.47,55.38S180.75,206,176.59,210s-9.62,10.79-14.2,11.07-12.14,2.1-13.82-18.21Z"/><path class="cls-1" d="M354.84,202.9s.65-12.19-6-37.13-7.66-46-9.67-49.92-14.8-5.41-18.77-.74-.23,33.62-.51,55.38S322.66,206,326.82,210s9.57,10.79,14.2,11.07,12.14,2.1,13.82-18.21Z"/><rect class="cls-4" x="61" y="116.79" width="378" height="10.74"/></svg>