<?xml version="1.0" encoding="utf-8"?>
<!-- Generator: Adobe Illustrator 16.0.0, SVG Export Plug-In . SVG Version: 6.00 Build 0)  -->
<!DOCTYPE svg PUBLIC "-//W3C//DTD SVG 1.1//EN" "http://www.w3.org/Graphics/SVG/1.1/DTD/svg11.dtd">
<svg version="1.1" id="Layer_1" xmlns="http://www.w3.org/2000/svg" xmlns:xlink="http://www.w3.org/1999/xlink" x="0px" y="0px"
	 width="500px" height="500px" viewBox="0 0 500 500" enable-background="new 0 0 500 500" xml:space="preserve">
<g>
	<path fill-rule="evenodd" clip-rule="evenodd" fill="#ADADAD" d="M385.272,224.7c0,0,1.638,59.277,1.973,63.517
		c0.336,4.24,0.671,11.418,7.557,12.678c6.885,1.218,15.028,1.638,16.33-8.774c1.345-10.452,4.24-59.781,4.24-59.781L385.272,224.7z
		"/>
	<path fill-rule="evenodd" clip-rule="evenodd" fill="#EEEEEE" d="M380.276,164.246c-12.216-2.267-47.103-2.896-64.442,0
		c-17.296,2.896-32.198,12.888-42.652,14.693c-10.41,1.764-11.334,1.764-11.334,1.764s-13.31-0.882-29.765,9.78
		c-16.416,10.665-18.221,43.746-12.427,53.064c5.794,9.362,60.16-2.434,74.391,1.135c14.19,3.569,54.197,0.462,69.731-8.649
		C388.799,221.381,418.983,171.509,380.276,164.246L380.276,164.246z"/>
	<path fill-rule="evenodd" clip-rule="evenodd" fill="#D3D3D3" d="M417.303,238.888c23.175,0,42.066-16.33,42.066-36.355
		c0-20.067-18.892-36.397-42.066-36.397c-23.132,0-42.022,16.33-42.022,36.397C375.28,222.558,394.171,238.888,417.303,238.888
		L417.303,238.888z"/>
	<path fill-rule="evenodd" clip-rule="evenodd" fill="#BBBDBF" d="M281.199,181.375c0,0-37.991,29.094-49.326,40.639
		c-11.335,11.544-16.206,18.681-16.206,25.104c0,13.139,19.563,78.63,28.632,87.069c3.359,3.105,12.469,5.12,18.22,1.804
		c5.794-3.357,6.003-7.01,4.659-15.238c-1.3-8.229-14.524-51.974-16.204-59.655c-1.679-7.641,0.882-9.446,1.553-9.741
		c0.672-0.335,42.442-26.32,46.432-29.47c3.987-3.106,22.669-5.331,29.093-12.846c6.464-7.556,0.882-25.356-7.095-31.989
		C312.938,170.375,298.203,168.36,281.199,181.375L281.199,181.375z"/>
	<path fill-rule="evenodd" clip-rule="evenodd" fill="#EEEEEE" d="M246.65,179.569c0,0-20.655,5.248-28,18.892
		c-7.347,13.685-5.542,33.668-5.542,37.32c0,3.654,1.006,6.465,1.006,6.465s-70.654,2.646-82.66,1.554
		c-12.008-1.132-55.961,10.203-63.517,11.335c-7.558,1.091-10.328,2.772-19.229,2.981c-8.899,0.21-11.125-14.441-3.232-20.446
		c7.893-6.002,34.005-19.438,56.422-22.334c22.461-2.854,41.353-7.303,45.089-7.974c3.778-0.672,33.796-15.577,40.89-19.774
		c6.255-3.737,11.209-9.698,25.314-11.545C221.712,174.951,235.399,174.321,246.65,179.569L246.65,179.569z"/>
	<path fill-rule="evenodd" clip-rule="evenodd" fill="#BBBDBF" d="M131.454,243.799c-4.66-0.461-14.106,1.008-24.392,2.982
		c2.056,2.644,5.919,5.583,13.057,5.792c7.639,0.168,11.208-4.618,12.889-8.691C132.418,243.883,131.915,243.843,131.454,243.799
		L131.454,243.799z"/>
</g>
</svg>
