<?xml version="1.0" encoding="utf-8"?>
<!-- Generator: Adobe Illustrator 16.0.0, SVG Export Plug-In . SVG Version: 6.00 Build 0)  -->
<!DOCTYPE svg PUBLIC "-//W3C//DTD SVG 1.1//EN" "http://www.w3.org/Graphics/SVG/1.1/DTD/svg11.dtd">
<svg version="1.1" id="Layer_1" xmlns="http://www.w3.org/2000/svg" xmlns:xlink="http://www.w3.org/1999/xlink" x="0px" y="0px"
	 width="500px" height="500px" viewBox="0 0 500 500" enable-background="new 0 0 500 500" xml:space="preserve">
<linearGradient id="SVGID_1_" gradientUnits="userSpaceOnUse" x1="479" y1="274.3555" x2="286.6852" y2="274.3554">
	<stop  offset="0.2132" style="stop-color:#FFFFFF"/>
	<stop  offset="0.2202" style="stop-color:#F8F8F8"/>
	<stop  offset="0.2727" style="stop-color:#C4C4C4"/>
	<stop  offset="0.3288" style="stop-color:#969696"/>
	<stop  offset="0.3874" style="stop-color:#6D6D6D"/>
	<stop  offset="0.4488" style="stop-color:#4B4B4B"/>
	<stop  offset="0.514" style="stop-color:#303030"/>
	<stop  offset="0.5842" style="stop-color:#1B1B1B"/>
	<stop  offset="0.662" style="stop-color:#0C0C0C"/>
	<stop  offset="0.7532" style="stop-color:#030303"/>
	<stop  offset="0.8909" style="stop-color:#000000"/>
</linearGradient>
<path fill-rule="evenodd" clip-rule="evenodd" fill="url(#SVGID_1_)" d="M386.729,229.15c17.091,0,32.315,20.217,34.062,45.185
	c1.746,24.968-10.677,45.226-27.729,45.226c-17.091,0-32.314-20.258-34.06-45.226C357.257,249.367,369.68,229.15,386.729,229.15
	L386.729,229.15z"/>
<linearGradient id="SVGID_2_" gradientUnits="userSpaceOnUse" x1="410.5186" y1="294" x2="410.5186" y2="190.3033">
	<stop  offset="0.06" style="stop-color:#0D0D0D"/>
	<stop  offset="0.09" style="stop-color:#999999"/>
	<stop  offset="0.11" style="stop-color:#C8C8C8"/>
	<stop  offset="0.15" style="stop-color:#9D9D9D"/>
	<stop  offset="0.19" style="stop-color:#777777"/>
	<stop  offset="0.24" style="stop-color:#575757"/>
	<stop  offset="0.3" style="stop-color:#3B3B3B"/>
	<stop  offset="0.36" style="stop-color:#252525"/>
	<stop  offset="0.43" style="stop-color:#141414"/>
	<stop  offset="0.52" style="stop-color:#090909"/>
	<stop  offset="0.65" style="stop-color:#020202"/>
	<stop  offset="1" style="stop-color:#000000"/>
</linearGradient>
<path fill-rule="evenodd" clip-rule="evenodd" fill="url(#SVGID_2_)" d="M399.111,229.15c0.326,0,0.65,0,0.976,0h0.04l0,0
	c16.645,0.813,31.342,20.705,33.046,45.185c1.665,24.236-9.946,44.007-26.225,45.145l0,0h-0.042c-0.487,0.04-0.974,0.081-1.46,0.081
	c-0.448,0-0.894-0.041-1.3-0.041l-11.084,0.041c17.052,0,29.475-20.258,27.729-45.226c-1.706-24.48-16.401-44.454-33.086-45.185
	h10.474C398.503,229.15,398.787,229.15,399.111,229.15L399.111,229.15z"/>
<linearGradient id="SVGID_3_" gradientUnits="userSpaceOnUse" x1="439.6885" y1="277" x2="439.6885" y2="265">
	<stop  offset="0" style="stop-color:#FFFFFF"/>
	<stop  offset="0.07" style="stop-color:#434341"/>
	<stop  offset="0.14" style="stop-color:#20201E"/>
	<stop  offset="0.22" style="stop-color:#1E1E1C"/>
	<stop  offset="0.24" style="stop-color:#2A2A28"/>
	<stop  offset="0.61" style="stop-color:#FFFFFF"/>
	<stop  offset="0.68" style="stop-color:#FCFCFC"/>
	<stop  offset="0.74" style="stop-color:#F3F3F3"/>
	<stop  offset="0.78" style="stop-color:#E4E4E4"/>
	<stop  offset="0.82" style="stop-color:#CFCFCF"/>
	<stop  offset="0.86" style="stop-color:#B3B3B3"/>
	<stop  offset="0.89" style="stop-color:#919191"/>
	<stop  offset="0.93" style="stop-color:#686868"/>
	<stop  offset="0.96" style="stop-color:#393939"/>
	<stop  offset="0.99" style="stop-color:#060606"/>
	<stop  offset="0.99" style="stop-color:#000000"/>
</linearGradient>
<path fill-rule="evenodd" clip-rule="evenodd" fill="url(#SVGID_3_)" d="M433.214,275.147l-1.016-8.363l12.829-1.056v0.04
	c0.041,0,0.081,0,0.162,0c1.096,0,1.989,1.869,1.989,4.142c0,2.274-0.894,4.101-1.989,4.101c-0.081,0-0.121,0-0.162,0l0,0
	L433.214,275.147z"/>
<path fill-rule="evenodd" clip-rule="evenodd" fill="#CCCCCC" d="M350.599,171.625c0,0,8.485,1.544,9.663,16.563
	c1.176,15.021-1.624,30.407-0.65,37.755c0.934,7.349,2.963,51.923,2.963,55.498c0,3.531-0.892,9.012-9.134,9.337
	c-8.2,0.324-11.123-4.507-11.366-11.368c-0.203-6.86-3.776-47.539-4.709-53.223c-0.935-5.684-3.574-26.957-3.655-28.498
	C333.589,196.145,329.773,167.403,350.599,171.625L350.599,171.625z"/>
<path fill-rule="evenodd" clip-rule="evenodd" fill="#EEEEEE" d="M231.529,181.45c0,0-12.22,6.211-13.316,20.826
	c-1.055,14.614,10.433,68.731,11.936,77.987c1.502,9.215,0.324,40.394,3.776,62.722c3.41,22.328,5.561,36.496,6.414,39.095
	c0.852,2.558,2.354,5.806,10.555,6.454c8.159,0.65,14.168-3.247,14.573-11.406c0.446-8.161-2.558-69.381-3.004-80.747
	c-0.405-11.408,1.299-15.265,0.243-26.023c-1.095-10.718-2.395-15.468-2.395-20.177c0-4.749,6.657-15.914,7.308-17.618
	C268.269,230.855,228.971,218.392,231.529,181.45L231.529,181.45z"/>
<path fill-rule="evenodd" clip-rule="evenodd" fill="#CCCCCC" d="M270.867,232.886c0,0,9.459,1.177,16.726,0.121
	c7.308-1.096,10.107-2.599,10.107-2.599s9.013,61.424,13.113,80.341c4.061,18.919,7.105,56.309,7.957,60.571
	c0.854,4.304,0,8.159-5.804,10.555c-5.806,2.355-17.174,2.355-19.976-8.606c-2.801-10.961-10.961-72.181-13.965-80.342
	c-3.004-8.159-18.877-41.246-18.715-42.749c0.203-1.502,4.1-12.26,4.628-13.762c0.527-1.502,2.68-3.856,2.68-3.856L270.867,232.886z
	"/>
<path fill-rule="evenodd" clip-rule="evenodd" fill="#EEEEEE" d="M234.857,180.15c0,0,0.324,15.874,11.61,30.285
	c11.287,14.372,25.902,18.674,30.611,18.999c4.709,0.324,22.45-1.178,29.758-4.831c7.307-3.653,11.61-7.104,12.585-7.835
	c0.933-0.772,24.033-8.808,28.783-21.394c4.709-12.544,5.684-27.484-5.725-35.197c-11.366-7.754-35.644-10.759-50.909-8.404
	c-15.224,2.355-20.176,9.257-26.631,13.966C258.485,170.489,241.516,173.694,234.857,180.15L234.857,180.15z"/>
<path fill-rule="evenodd" clip-rule="evenodd" fill="#CCCCCC" d="M283.411,203.979c0,0-22.329,28.377-27.078,32.64
	c-4.709,4.304-33.29,54.806-34.587,58.217c-1.259,3.45-5.359,8.605-15.225,6.049c-9.905-2.599-10.554-9.257-7.307-16.117
	c3.206-6.902,28.579-52.412,30.731-56.308c2.111-3.857,19.325-37.146,23.627-42.302c4.263-5.155,10.068-9.905,18.025-9.46
	C279.556,177.146,293.194,190.259,283.411,203.979L283.411,203.979z"/>
<path fill-rule="evenodd" clip-rule="evenodd" fill="#CCCCCC" d="M354.253,112.516c13.681,4.384,20.622,20.704,15.548,36.375
	c-5.073,15.67-20.257,24.765-33.897,20.339c-13.681-4.425-20.624-20.705-15.55-36.375
	C325.43,117.185,340.612,108.091,354.253,112.516L354.253,112.516z"/>
<linearGradient id="SVGID_4_" gradientUnits="userSpaceOnUse" x1="234" y1="298.917" x2="25.5941" y2="298.917">
	<stop  offset="0.2132" style="stop-color:#FFFFFF"/>
	<stop  offset="0.2202" style="stop-color:#F8F8F8"/>
	<stop  offset="0.2727" style="stop-color:#C4C4C4"/>
	<stop  offset="0.3288" style="stop-color:#969696"/>
	<stop  offset="0.3874" style="stop-color:#6D6D6D"/>
	<stop  offset="0.4488" style="stop-color:#4B4B4B"/>
	<stop  offset="0.514" style="stop-color:#303030"/>
	<stop  offset="0.5842" style="stop-color:#1B1B1B"/>
	<stop  offset="0.662" style="stop-color:#0C0C0C"/>
	<stop  offset="0.7532" style="stop-color:#030303"/>
	<stop  offset="0.8909" style="stop-color:#000000"/>
</linearGradient>
<path fill-rule="evenodd" clip-rule="evenodd" fill="url(#SVGID_4_)" d="M139.74,239.868c16.278,0,30.811,26.47,32.475,59.069
	c1.666,32.6-10.188,59.028-26.468,59.028c-16.278,0-30.853-26.429-32.518-59.028C111.564,266.338,123.418,239.868,139.74,239.868
	L139.74,239.868z"/>
<linearGradient id="SVGID_5_" gradientUnits="userSpaceOnUse" x1="162.4102" y1="316" x2="162.4102" y2="207.9537">
	<stop  offset="0.06" style="stop-color:#0D0D0D"/>
	<stop  offset="0.09" style="stop-color:#999999"/>
	<stop  offset="0.11" style="stop-color:#C8C8C8"/>
	<stop  offset="0.15" style="stop-color:#9D9D9D"/>
	<stop  offset="0.19" style="stop-color:#777777"/>
	<stop  offset="0.24" style="stop-color:#575757"/>
	<stop  offset="0.3" style="stop-color:#3B3B3B"/>
	<stop  offset="0.36" style="stop-color:#252525"/>
	<stop  offset="0.43" style="stop-color:#141414"/>
	<stop  offset="0.52" style="stop-color:#090909"/>
	<stop  offset="0.65" style="stop-color:#020202"/>
	<stop  offset="1" style="stop-color:#000000"/>
</linearGradient>
<path fill-rule="evenodd" clip-rule="evenodd" fill="url(#SVGID_5_)" d="M151.553,239.868c0.285,0,0.61,0.042,0.892,0.042h0.042l0,0
	c15.913,1.014,29.919,27.037,31.544,59.027c1.623,31.625-9.5,57.444-25.049,58.946l0,0l0,0c-0.487,0.082-0.934,0.082-1.421,0.082
	c-0.406,0-0.811,0-1.259-0.041l-10.555,0.041c16.28,0,28.134-26.429,26.468-59.028c-1.622-32.03-15.67-58.053-31.583-59.027h9.986
	C150.943,239.91,151.228,239.868,151.553,239.868L151.553,239.868z"/>
<g>
	<linearGradient id="SVGID_6_" gradientUnits="userSpaceOnUse" x1="161.0117" y1="297.374" x2="104.9955" y2="297.374">
		<stop  offset="0.2132" style="stop-color:#FFFFFF"/>
		<stop  offset="0.2202" style="stop-color:#F8F8F8"/>
		<stop  offset="0.2727" style="stop-color:#C4C4C4"/>
		<stop  offset="0.3288" style="stop-color:#969696"/>
		<stop  offset="0.3874" style="stop-color:#6D6D6D"/>
		<stop  offset="0.4488" style="stop-color:#4B4B4B"/>
		<stop  offset="0.514" style="stop-color:#303030"/>
		<stop  offset="0.5842" style="stop-color:#1B1B1B"/>
		<stop  offset="0.662" style="stop-color:#0C0C0C"/>
		<stop  offset="0.7532" style="stop-color:#030303"/>
		<stop  offset="0.8909" style="stop-color:#000000"/>
	</linearGradient>
	<path fill-rule="evenodd" clip-rule="evenodd" fill="url(#SVGID_6_)" d="M135.676,285.95c4.375,0,8.281,5.121,8.729,11.428
		c0.448,6.308-2.738,11.421-7.114,11.421c-4.375,0-8.292-5.113-8.74-11.421C128.103,291.071,131.289,285.95,135.676,285.95
		L135.676,285.95z"/>
	<linearGradient id="SVGID_7_" gradientUnits="userSpaceOnUse" x1="141.7695" y1="300.6797" x2="141.7695" y2="279.7755">
		<stop  offset="0.06" style="stop-color:#0D0D0D"/>
		<stop  offset="0.09" style="stop-color:#999999"/>
		<stop  offset="0.11" style="stop-color:#C8C8C8"/>
		<stop  offset="0.15" style="stop-color:#9D9D9D"/>
		<stop  offset="0.19" style="stop-color:#777777"/>
		<stop  offset="0.24" style="stop-color:#575757"/>
		<stop  offset="0.3" style="stop-color:#3B3B3B"/>
		<stop  offset="0.36" style="stop-color:#252525"/>
		<stop  offset="0.43" style="stop-color:#141414"/>
		<stop  offset="0.52" style="stop-color:#090909"/>
		<stop  offset="0.65" style="stop-color:#020202"/>
		<stop  offset="1" style="stop-color:#000000"/>
	</linearGradient>
	<path fill-rule="evenodd" clip-rule="evenodd" fill="url(#SVGID_7_)" d="M138.851,285.95c0.077,0,0.164,0.008,0.24,0.008h0.011l0,0
		c4.277,0.196,8.042,5.231,8.479,11.42c0.437,6.119-2.553,11.114-6.732,11.405l0,0l0,0c-0.131,0.016-0.251,0.016-0.382,0.016
		c-0.109,0-0.218,0-0.338-0.008l-2.837,0.008c4.376,0,7.562-5.113,7.114-11.421c-0.436-6.196-4.212-11.231-8.489-11.42h2.684
		C138.687,285.958,138.764,285.95,138.851,285.95L138.851,285.95z"/>
</g>
<g>
	<linearGradient id="SVGID_8_" gradientUnits="userSpaceOnUse" x1="408.7686" y1="275.2842" x2="359.064" y2="275.2842">
		<stop  offset="0.2132" style="stop-color:#FFFFFF"/>
		<stop  offset="0.2202" style="stop-color:#F8F8F8"/>
		<stop  offset="0.2727" style="stop-color:#C4C4C4"/>
		<stop  offset="0.3288" style="stop-color:#969696"/>
		<stop  offset="0.3874" style="stop-color:#6D6D6D"/>
		<stop  offset="0.4488" style="stop-color:#4B4B4B"/>
		<stop  offset="0.514" style="stop-color:#303030"/>
		<stop  offset="0.5842" style="stop-color:#1B1B1B"/>
		<stop  offset="0.662" style="stop-color:#0C0C0C"/>
		<stop  offset="0.7532" style="stop-color:#030303"/>
		<stop  offset="0.8909" style="stop-color:#000000"/>
	</linearGradient>
	<path fill-rule="evenodd" clip-rule="evenodd" fill="url(#SVGID_8_)" d="M386.288,265.146c3.882,0,7.349,4.544,7.745,10.141
		c0.397,5.597-2.43,10.134-6.313,10.134c-3.882,0-7.358-4.537-7.756-10.134S382.396,265.146,386.288,265.146L386.288,265.146z"/>
	<linearGradient id="SVGID_9_" gradientUnits="userSpaceOnUse" x1="391.6953" y1="278.2168" x2="391.6953" y2="259.6678">
		<stop  offset="0.06" style="stop-color:#0D0D0D"/>
		<stop  offset="0.09" style="stop-color:#999999"/>
		<stop  offset="0.11" style="stop-color:#C8C8C8"/>
		<stop  offset="0.15" style="stop-color:#9D9D9D"/>
		<stop  offset="0.19" style="stop-color:#777777"/>
		<stop  offset="0.24" style="stop-color:#575757"/>
		<stop  offset="0.3" style="stop-color:#3B3B3B"/>
		<stop  offset="0.36" style="stop-color:#252525"/>
		<stop  offset="0.43" style="stop-color:#141414"/>
		<stop  offset="0.52" style="stop-color:#090909"/>
		<stop  offset="0.65" style="stop-color:#020202"/>
		<stop  offset="1" style="stop-color:#000000"/>
	</linearGradient>
	<path fill-rule="evenodd" clip-rule="evenodd" fill="url(#SVGID_9_)" d="M389.105,265.146c0.068,0,0.146,0.007,0.212,0.007h0.011
		l0,0c3.796,0.174,7.136,4.642,7.523,10.134c0.388,5.43-2.266,9.861-5.974,10.12l0,0l0,0c-0.116,0.014-0.224,0.014-0.339,0.014
		c-0.098,0-0.193,0-0.301-0.007l-2.518,0.007c3.883,0,6.71-4.537,6.313-10.134c-0.387-5.499-3.737-9.967-7.532-10.134h2.382
		C388.96,265.153,389.028,265.146,389.105,265.146L389.105,265.146z"/>
</g>
<linearGradient id="SVGID_10_" gradientUnits="userSpaceOnUse" x1="97.458" y1="309.207" x2="95.708" y2="294.957">
	<stop  offset="0" style="stop-color:#FFFFFF"/>
	<stop  offset="0.07" style="stop-color:#434341"/>
	<stop  offset="0.14" style="stop-color:#20201E"/>
	<stop  offset="0.22" style="stop-color:#1E1E1C"/>
	<stop  offset="0.24" style="stop-color:#2A2A28"/>
	<stop  offset="0.61" style="stop-color:#FFFFFF"/>
	<stop  offset="0.68" style="stop-color:#FCFCFC"/>
	<stop  offset="0.74" style="stop-color:#F3F3F3"/>
	<stop  offset="0.78" style="stop-color:#E4E4E4"/>
	<stop  offset="0.82" style="stop-color:#CFCFCF"/>
	<stop  offset="0.86" style="stop-color:#B3B3B3"/>
	<stop  offset="0.89" style="stop-color:#919191"/>
	<stop  offset="0.93" style="stop-color:#686868"/>
	<stop  offset="0.96" style="stop-color:#393939"/>
	<stop  offset="0.99" style="stop-color:#060606"/>
	<stop  offset="0.99" style="stop-color:#000000"/>
</linearGradient>
<path fill-rule="evenodd" clip-rule="evenodd" fill="url(#SVGID_10_)" d="M55.947,312.617l-0.772-11.609l79.854-7.999
	c0.123-0.081-0.203-0.081,0.405-0.081c0.61,0,2.558,2.721,2.558,5.238c0,2.516-1.989,4.668-2.558,4.668c-0.568,0-0.162,0-0.201,0
	L55.947,312.617z"/>
<linearGradient id="SVGID_11_" gradientUnits="userSpaceOnUse" x1="58.7979" y1="311.8887" x2="49.2979" y2="298.1387">
	<stop  offset="0.06" style="stop-color:#0D0D0D"/>
	<stop  offset="0.09" style="stop-color:#999999"/>
	<stop  offset="0.11" style="stop-color:#C8C8C8"/>
	<stop  offset="0.15" style="stop-color:#9D9D9D"/>
	<stop  offset="0.19" style="stop-color:#777777"/>
	<stop  offset="0.24" style="stop-color:#575757"/>
	<stop  offset="0.3" style="stop-color:#3B3B3B"/>
	<stop  offset="0.36" style="stop-color:#252525"/>
	<stop  offset="0.43" style="stop-color:#141414"/>
	<stop  offset="0.52" style="stop-color:#090909"/>
	<stop  offset="0.65" style="stop-color:#020202"/>
	<stop  offset="1" style="stop-color:#000000"/>
</linearGradient>
<path fill-rule="evenodd" clip-rule="evenodd" fill="url(#SVGID_11_)" d="M55.337,312.78c1.421,0,2.518-2.638,2.518-5.886
	c0-3.249-1.097-5.887-2.518-5.887c-1.379,0-2.516,2.638-2.516,5.887C52.821,310.143,53.958,312.78,55.337,312.78L55.337,312.78z"/>
<linearGradient id="SVGID_12_" gradientUnits="userSpaceOnUse" x1="286.6963" y1="291.1221" x2="285.1963" y2="277.1221">
	<stop  offset="0" style="stop-color:#FFFFFF"/>
	<stop  offset="0.07" style="stop-color:#434341"/>
	<stop  offset="0.14" style="stop-color:#20201E"/>
	<stop  offset="0.22" style="stop-color:#1E1E1C"/>
	<stop  offset="0.24" style="stop-color:#2A2A28"/>
	<stop  offset="0.61" style="stop-color:#FFFFFF"/>
	<stop  offset="0.68" style="stop-color:#FCFCFC"/>
	<stop  offset="0.74" style="stop-color:#F3F3F3"/>
	<stop  offset="0.78" style="stop-color:#E4E4E4"/>
	<stop  offset="0.82" style="stop-color:#CFCFCF"/>
	<stop  offset="0.86" style="stop-color:#B3B3B3"/>
	<stop  offset="0.89" style="stop-color:#919191"/>
	<stop  offset="0.93" style="stop-color:#686868"/>
	<stop  offset="0.96" style="stop-color:#393939"/>
	<stop  offset="0.99" style="stop-color:#060606"/>
	<stop  offset="0.99" style="stop-color:#000000"/>
</linearGradient>
<path fill-rule="evenodd" clip-rule="evenodd" fill="url(#SVGID_12_)" d="M184.031,298.937l-0.691-8.362l14.33-1.259
	c-0.568,3.045-0.039,5.887,2.152,8.078L184.031,298.937z M226.007,286.798l115.945-10.27c0.081,1.217,0.122,2.232,0.122,2.881
	c0.081,1.462,0.243,2.842,0.567,4.061l-121.058,11.813c0.081-0.162,0.12-0.284,0.162-0.446
	C222.028,294.105,223.653,291.102,226.007,286.798L226.007,286.798z M362.372,274.7l23.466-2.07
	c0.202-0.202,0.486-0.283,0.729-0.283c1.097,0,1.948,1.542,1.948,3.409c0,1.908-0.852,3.41-1.948,3.41c-0.081,0-0.202,0-0.284-0.041
	v0.122l-23.709,2.314v-0.121C362.574,280.709,362.493,278.233,362.372,274.7L362.372,274.7z"/>
</svg>
