<?xml version="1.0" encoding="utf-8"?>
<!-- Generator: Adobe Illustrator 16.0.0, SVG Export Plug-In . SVG Version: 6.00 Build 0)  -->
<!DOCTYPE svg PUBLIC "-//W3C//DTD SVG 1.1//EN" "http://www.w3.org/Graphics/SVG/1.1/DTD/svg11.dtd">
<svg version="1.1" id="Layer_1" xmlns="http://www.w3.org/2000/svg" xmlns:xlink="http://www.w3.org/1999/xlink" x="0px" y="0px"
	 width="500px" height="500px" viewBox="0 0 500 500" enable-background="new 0 0 500 500" xml:space="preserve">
<path fill-rule="evenodd" clip-rule="evenodd" fill="#EEEEEE" d="M247.091,127.529c17.597,0,31.909-15.271,31.909-33.949
	c0-18.727-14.313-33.997-31.909-33.997c-17.545,0-31.856,15.27-31.856,33.997C215.234,112.258,229.545,127.529,247.091,127.529
	L247.091,127.529z"/>
<path fill-rule="evenodd" clip-rule="evenodd" fill="#EEEEEE" d="M198.865,141.725c-0.981,9.153,4.95,76.866,6.678,89.473
	c1.728,12.609,2.196,20.268,2.196,20.268s26.197-4.949,52.161-2.989c25.918,2.01,30.12,3.221,30.12,3.221s7.657-37.31,9.385-51.132
	c1.729-13.869,4.718-41.047,4.483-50.153c-0.281-9.153-2.239-15.083-13.868-16.344C283.855,133.412,200.033,130.797,198.865,141.725
	L198.865,141.725z"/>
<path fill-rule="evenodd" clip-rule="evenodd" fill="#EEEEEE" d="M207.504,254.687c0,0-7.191,58.793-8.639,74.11
	c-1.493,15.316,4.67,32.129,6.911,37.312c2.194,5.184,36.051,59.307,40.254,66.498c4.203,7.145,11.862,9.854,18.307,6.165
	c6.441-3.689,9.15-11.115,4.713-19.754c-4.481-8.687-24.748-61.781-26.709-67.479c-1.961-5.698,8.639-42.263,10.368-53.89
	c1.728-11.582,0.934-44.925-0.747-45.204C250.327,252.165,244.303,249.972,207.504,254.687L207.504,254.687z"/>
<path fill-rule="evenodd" clip-rule="evenodd" fill="#BDBDBD" d="M203.349,359.71c0.935,2.803,1.821,4.997,2.428,6.398
	c2.194,5.184,36.051,59.307,40.254,66.498c4.203,7.145,11.862,9.854,18.307,6.165c6.441-3.689,9.15-11.115,4.713-19.754
	c-4.481-8.687-24.748-61.781-26.709-67.479c-0.187-0.515-0.233-1.261-0.233-2.195l0,0c-1.402,23.723-26.059,24.376-30.633,21.155
	C206.944,367.276,203.396,359.757,203.349,359.71L203.349,359.71z M242.481,345.141c0.094-0.84,0.234-1.728,0.375-2.709
	C242.715,343.227,242.575,344.113,242.481,345.141L242.481,345.141z"/>
<path fill-rule="evenodd" clip-rule="evenodd" fill="#EEEEEE" d="M247.711,251.839c0,0,24.703,1.399,33.016,2.754
	c8.267,1.355,9.76,1.867,9.76,1.867s9.479,37.454,10.74,59.168c1.216,21.762,0.467,51.929-2.239,55.104
	c-2.709,3.222-6.166,7.425-14.573,13.589c-8.403,6.21-40.766,31.568-46.604,34.836c-5.79,3.222-12.934-1.447-14.662-8.638
	c-1.729-7.146-3.969-10.134,5.416-19.521c9.387-9.386,29.888-26.897,31.38-31.101c1.496-4.202-12.84-55.852-12.84-55.852
	L247.711,251.839z"/>
<path fill-rule="evenodd" clip-rule="evenodd" fill="#CCCCCC" d="M297.211,372.88c-2.566,2.896-6.116,6.538-12.796,11.441
	c-8.403,6.21-40.766,31.568-46.604,34.836c-5.79,3.222-12.934-1.447-14.662-8.638c-1.729-7.146-3.969-10.134,5.416-19.521
	c9.387-9.386,29.888-26.897,31.38-31.101c0.142-0.374,0.142-1.073,0.049-2.008l0,0c0,0,6.116,14.195,15.736,17.651
	C283.016,378.157,292.543,376.849,297.211,372.88L297.211,372.88z"/>
<path fill-rule="evenodd" clip-rule="evenodd" fill="#CCCCCC" d="M203.254,138.083c0,0-8.544,0.373-14.849,6.584
	c-6.303,6.165-34.837,38.9-38.292,46.559c-3.456,7.658-0.747,23.488,2.709,27.69c3.456,4.204,10.647,2.476,13.356,0.748
	c2.707-1.728,27.832-25.169,34.557-40.253C207.458,164.28,203.254,138.083,203.254,138.083L203.254,138.083z"/>
<path fill-rule="evenodd" clip-rule="evenodd" fill="#CCCCCC" d="M300.152,138.083c0,0,8.546,0.373,14.853,6.584
	c6.304,6.165,34.837,38.9,38.293,46.559c3.455,7.658,0.746,23.488-2.709,27.69c-3.456,4.204-10.647,2.476-13.357,0.748
	c-2.709-1.728-27.832-25.169-34.556-40.253C295.95,164.28,300.152,138.083,300.152,138.083L300.152,138.083z"/>
<linearGradient id="SVGID_1_" gradientUnits="userSpaceOnUse" x1="250.0005" y1="128.2251" x2="250.0005" y2="117.6412">
	<stop  offset="0" style="stop-color:#FFFFFF"/>
	<stop  offset="0.07" style="stop-color:#434341"/>
	<stop  offset="0.14" style="stop-color:#20201E"/>
	<stop  offset="0.22" style="stop-color:#1E1E1C"/>
	<stop  offset="0.24" style="stop-color:#2A2A28"/>
	<stop  offset="0.61" style="stop-color:#FFFFFF"/>
	<stop  offset="0.68" style="stop-color:#FCFCFC"/>
	<stop  offset="0.74" style="stop-color:#F3F3F3"/>
	<stop  offset="0.78" style="stop-color:#E4E4E4"/>
	<stop  offset="0.82" style="stop-color:#CFCFCF"/>
	<stop  offset="0.86" style="stop-color:#B3B3B3"/>
	<stop  offset="0.89" style="stop-color:#919191"/>
	<stop  offset="0.93" style="stop-color:#686868"/>
	<stop  offset="0.96" style="stop-color:#393939"/>
	<stop  offset="0.99" style="stop-color:#060606"/>
	<stop  offset="0.99" style="stop-color:#000000"/>
</linearGradient>
<rect x="61" y="116.788" fill-rule="evenodd" clip-rule="evenodd" fill="url(#SVGID_1_)" width="378" height="10.741"/>
<path fill-rule="evenodd" clip-rule="evenodd" fill="#EEEEEE" d="M148.572,202.898c0,0-0.701-12.188,5.978-37.125
	c6.676-24.937,7.658-45.951,9.667-49.92c1.962-3.969,14.803-5.417,18.772-0.747c3.924,4.717,0.233,33.624,0.468,55.384
	c0.281,21.716-2.709,35.539-6.866,39.554c-4.109,4.062-9.619,10.787-14.196,11.066C157.818,221.438,150.254,223.213,148.572,202.898
	L148.572,202.898z"/>
<path fill-rule="evenodd" clip-rule="evenodd" fill="#EEEEEE" d="M354.839,202.898c0,0,0.653-12.188-5.979-37.125
	c-6.68-24.937-7.658-45.951-9.666-49.92c-1.963-3.969-14.804-5.417-18.774-0.747c-3.968,4.717-0.231,33.624-0.512,55.384
	c-0.235,21.716,2.755,35.539,6.912,39.554c4.108,4.062,9.572,10.787,14.196,11.066C345.591,221.438,353.155,223.213,354.839,202.898
	L354.839,202.898z"/>
</svg>
