<?xml version="1.0" encoding="utf-8"?>
<!-- Generator: Adobe Illustrator 16.0.0, SVG Export Plug-In . SVG Version: 6.00 Build 0)  -->
<!DOCTYPE svg PUBLIC "-//W3C//DTD SVG 1.1//EN" "http://www.w3.org/Graphics/SVG/1.1/DTD/svg11.dtd">
<svg version="1.1" id="Layer_1" xmlns="http://www.w3.org/2000/svg" xmlns:xlink="http://www.w3.org/1999/xlink" x="0px" y="0px"
	 width="500px" height="500px" viewBox="0 0 500 500" enable-background="new 0 0 500 500" xml:space="preserve">
<linearGradient id="arrondi_bout_de_barre_1_" gradientUnits="userSpaceOnUse" x1="583.6816" y1="678.1504" x2="589.1141" y2="678.1504" gradientTransform="matrix(0.992 -0.1262 -0.0916 -0.7201 -68.0571 704.5752)">
	<stop  offset="0" style="stop-color:#F6F6F6"/>
	<stop  offset="0.02" style="stop-color:#FDFDFD"/>
	<stop  offset="0.06" style="stop-color:#FFFFFF"/>
	<stop  offset="0.13" style="stop-color:#C8C8C8"/>
	<stop  offset="0.18" style="stop-color:#9D9D9D"/>
	<stop  offset="0.21" style="stop-color:#777777"/>
	<stop  offset="0.24" style="stop-color:#575757"/>
	<stop  offset="0.3" style="stop-color:#3B3B3B"/>
	<stop  offset="0.36" style="stop-color:#252525"/>
	<stop  offset="0.43" style="stop-color:#141414"/>
	<stop  offset="0.52" style="stop-color:#090909"/>
	<stop  offset="0.65" style="stop-color:#020202"/>
	<stop  offset="1" style="stop-color:#000000"/>
</linearGradient>
<linearGradient id="arrondi_bout_de_barre_3_" gradientUnits="userSpaceOnUse" x1="550.1133" y1="-1237.9619" x2="555.2597" y2="-1237.9619" gradientTransform="matrix(1.1012 -0.1401 0.1255 0.9864 -2.6729 1440.9482)">
	<stop  offset="0.06" style="stop-color:#FFFFFF"/>
	<stop  offset="0.07" style="stop-color:#F6F6F6"/>
	<stop  offset="0.11" style="stop-color:#C8C8C8"/>
	<stop  offset="0.15" style="stop-color:#9D9D9D"/>
	<stop  offset="0.19" style="stop-color:#777777"/>
	<stop  offset="0.24" style="stop-color:#575757"/>
	<stop  offset="0.3" style="stop-color:#3B3B3B"/>
	<stop  offset="0.36" style="stop-color:#252525"/>
	<stop  offset="0.43" style="stop-color:#141414"/>
	<stop  offset="0.52" style="stop-color:#090909"/>
	<stop  offset="0.65" style="stop-color:#020202"/>
	<stop  offset="1" style="stop-color:#000000"/>
</linearGradient>
<path id="arrondi_bout_de_barre_2_" fill="url(#arrondi_bout_de_barre_1_)" stroke="url(#arrondi_bout_de_barre_3_)" stroke-width="0.25" d="
	M448.926,142.46c-0.021,2.184,1.068,3.642,2.465,3.61c1.396-0.033,2.8-1.592,2.832-3.703c0.028-2.109-1.191-3.844-2.599-3.883
	C450.218,138.446,448.859,140.363,448.926,142.46z"/>
<linearGradient id="barre_ext_1_" gradientUnits="userSpaceOnUse" x1="557.7764" y1="3099.79" x2="559.8104" y2="3110.2871" gradientTransform="matrix(0.992 -0.1262 -0.0916 -0.7201 153.7861 2448.499)">
	<stop  offset="0" style="stop-color:#FFFFFF"/>
	<stop  offset="0.01" style="stop-color:#E2E2E2"/>
	<stop  offset="0.02" style="stop-color:#B9B9B9"/>
	<stop  offset="0.03" style="stop-color:#949493"/>
	<stop  offset="0.04" style="stop-color:#747473"/>
	<stop  offset="0.05" style="stop-color:#595957"/>
	<stop  offset="0.07" style="stop-color:#434341"/>
	<stop  offset="0.08" style="stop-color:#323230"/>
	<stop  offset="0.11" style="stop-color:#272725"/>
	<stop  offset="0.14" style="stop-color:#20201E"/>
	<stop  offset="0.22" style="stop-color:#1E1E1C"/>
	<stop  offset="0.24" style="stop-color:#2A2A28"/>
	<stop  offset="0.61" style="stop-color:#FFFFFF"/>
	<stop  offset="0.68" style="stop-color:#FCFCFC"/>
	<stop  offset="0.74" style="stop-color:#F3F3F3"/>
	<stop  offset="0.78" style="stop-color:#E4E4E4"/>
	<stop  offset="0.82" style="stop-color:#CFCFCF"/>
	<stop  offset="0.86" style="stop-color:#B3B3B3"/>
	<stop  offset="0.89" style="stop-color:#919191"/>
	<stop  offset="0.93" style="stop-color:#686868"/>
	<stop  offset="0.96" style="stop-color:#393939"/>
	<stop  offset="0.99" style="stop-color:#060606"/>
	<stop  offset="0.99" style="stop-color:#000000"/>
</linearGradient>
<path id="barre_ext_2_" fill="url(#barre_ext_1_)" d="M397.464,138.473c-1.929,0.607-3.247,2.011-3.364,3.477
	c0.074,1.372,0.74,2.67,1.873,3.689l55.317,0.444c1.151-1.164,1.788-2.479,2.019-3.818c0.021-1.381-0.546-2.693-1.577-3.719"/>
<path fill-rule="evenodd" clip-rule="evenodd" fill="#EEEEEE" d="M288.518,243.905c0,0,2.98,29.241,2.98,54.854
	c0,25.57-5.486,47.513-5.744,49.801c-0.217,2.291,1.856,14.427,0.258,37.968c-1.597,23.538-3.455,41.463-5.14,46.862
	c-1.728,5.356-5.961,8.769-9.156,8.423c-3.196-0.346-6.925-1.813-6.578-8.206c0.346-6.393,1.036-4.233,0.82-13.822
	c-0.259-9.588-3.671-32.351-4.017-42.501c-0.347-10.193,0.747-19.35,0.531-20.689c-0.259-1.382-1.728-10.626-2.765-20.256
	c-1.037-9.589-6.263-30.97-6.263-30.97s-1.036-0.087-2.98,3.671s-14.168,29.587-15.766,33.388
	c-1.597,3.759-3.119,13.001-4.502,16.544c-1.381,3.541-2.462,12.18-2.894,17.319c-0.476,5.14-2.418,18.875-4.708,28.335
	c-2.289,9.502-5.14,24.575-5.571,30.623c-0.476,6.09-5.951,11.877-10.27,13.604c-4.363,1.728-5.616-1.598-5.831-10.495
	c-0.217-8.941-0.562-16.587-0.562-31.444c0-14.858-1.167-29.933,1.814-39.306c2.979-9.372,4.103-17.363,4.103-23.324
	c0-5.916,2.763-13.949,2.763-17.146s-0.26-26.045,1.814-45.007c2.073-18.961,8.596-38.873,8.596-38.873
	S249.128,248.874,288.518,243.905L288.518,243.905z"/>
<path fill-rule="evenodd" clip-rule="evenodd" fill="#EEEEEE" d="M288,239.458c0,0-14.988,1.251-32.351,2.159
	c-17.364,0.906-36.109-3.412-36.109-3.412s-1.381-20.993-3.887-30.797c-2.506-9.848-2.29-24.922-3.415-37.274
	c-1.165-12.354-14.166-32.006-21.94-38.398c-7.774-6.392-16.715-8.12-22.288-13.044c-5.614-4.881-14.426-8.336-16.801-13.821
	c-2.419-5.486,2.03-13.477,6.175-14.297c4.104-0.777,16.889,2.549,27.168,9.718c10.324,7.213,15.81,9.849,19.568,11.101
	c3.756,1.253,10.841,3.325,17.579,5.961c6.738,2.592,8.033,3.196,13.519,1.469c5.485-1.728,13.13,1.943,23.971,1.728
	c10.884-0.26,13.26,0,17.017-1.598c3.802-1.599,12.699-4.017,19.221-5.615c6.522-1.598,14.988-3.758,17.84-5.011
	c2.85-1.296,9.113-7.904,19.306-7.904c10.15,0,16.111,2.98,16.543,6.867c0.476,3.888-3.973,12.094-14.6,16.197
	c-10.623,4.146-31.228,13.52-35.33,18.313c-4.104,4.795-4.578,4.579-5.227,22.374C293.269,182.011,287.524,217.212,288,239.458
	L288,239.458z"/>
<path fill-rule="evenodd" clip-rule="evenodd" fill="#EEEEEE" d="M257.648,112.86c14.352,0,26.019-13.951,26.019-31.055
	c0-17.147-11.667-31.099-26.019-31.099c-14.299,0-26.015,13.951-26.015,31.099C231.634,98.909,243.35,112.86,257.648,112.86
	L257.648,112.86z"/>
<linearGradient id="materiau_barre_arr_1_" gradientUnits="userSpaceOnUse" x1="312.123" y1="3221.3281" x2="313.7686" y2="3229.7754" gradientTransform="matrix(0.9896 -0.1438 -0.1438 -0.9896 242.9438 3366.082)">
	<stop  offset="0" style="stop-color:#FFFFFF"/>
	<stop  offset="0.01" style="stop-color:#E2E2E2"/>
	<stop  offset="0.02" style="stop-color:#B9B9B9"/>
	<stop  offset="0.03" style="stop-color:#949493"/>
	<stop  offset="0.04" style="stop-color:#747473"/>
	<stop  offset="0.05" style="stop-color:#595957"/>
	<stop  offset="0.07" style="stop-color:#434341"/>
	<stop  offset="0.08" style="stop-color:#323230"/>
	<stop  offset="0.11" style="stop-color:#272725"/>
	<stop  offset="0.14" style="stop-color:#20201E"/>
	<stop  offset="0.22" style="stop-color:#1E1E1C"/>
	<stop  offset="0.24" style="stop-color:#2A2A28"/>
	<stop  offset="0.61" style="stop-color:#FFFFFF"/>
	<stop  offset="0.68" style="stop-color:#FCFCFC"/>
	<stop  offset="0.74" style="stop-color:#F3F3F3"/>
	<stop  offset="0.78" style="stop-color:#E4E4E4"/>
	<stop  offset="0.82" style="stop-color:#CFCFCF"/>
	<stop  offset="0.86" style="stop-color:#B3B3B3"/>
	<stop  offset="0.89" style="stop-color:#919191"/>
	<stop  offset="0.93" style="stop-color:#686868"/>
	<stop  offset="0.96" style="stop-color:#393939"/>
	<stop  offset="0.99" style="stop-color:#060606"/>
	<stop  offset="0.99" style="stop-color:#000000"/>
</linearGradient>
<path id="materiau_barre_arr_2_" fill="url(#materiau_barre_arr_1_)" d="M67.344,125.264c-1.729,0.803-2.565,2.039-2.549,3.417
	c0.105,1.373,0.676,2.768,1.741,3.721l44.68,1.082c0.851-1.14,1.312-2.411,1.384-3.805c-0.105-1.374-0.571-2.686-1.467-3.759"/>
<g id="poids_2_2_">
	
		<linearGradient id="SVGID_1_" gradientUnits="userSpaceOnUse" x1="576.2285" y1="319.1777" x2="591.8979" y2="381.6075" gradientTransform="matrix(-0.8312 -0.0473 0.0568 -0.9984 872.0781 502.5156)">
		<stop  offset="0" style="stop-color:#000000"/>
		<stop  offset="0.1" style="stop-color:#9D9D9D"/>
		<stop  offset="0.16" style="stop-color:#C8C8C8"/>
		<stop  offset="0.22" style="stop-color:#FFFFFF"/>
		<stop  offset="0.26" style="stop-color:#C2C2C2"/>
		<stop  offset="0.31" style="stop-color:#3B3B3B"/>
		<stop  offset="0.4" style="stop-color:#252525"/>
		<stop  offset="0.52" style="stop-color:#090909"/>
		<stop  offset="0.65" style="stop-color:#020202"/>
		<stop  offset="0.96" style="stop-color:#000000"/>
	</linearGradient>
	<path fill="url(#SVGID_1_)" d="M419.114,142.083c1.114-19.589-6.369-35.901-16.656-36.486l-0.307-0.017l1.084-0.215l3.279,0.186
		l1.061,0.154l1.052,0.333l1.045,0.428l1.036,0.611l0.954,0.7l0.952,0.696l0.951,0.786l0.939,0.973l0.862,0.967l0.781,1.054
		l0.768,1.236l0.771,1.24l0.69,1.322l0.688,1.325l0.604,1.503l0.599,1.596l0.595,1.595l0.517,1.683l0.44,1.68l0.362,1.673
		l0.353,1.854l0.223,1.482l0,0c0.222,1.482,0.361,3.055,0.351,4.613c0.07,1.473,0.158,2.578,0.166,3.776l-0.099,1.735l0,0
		l-0.234,4.122l-0.187,1.917l-0.183,1.915l-0.264,1.914l-0.337,1.908l-0.41,1.816l-0.41,1.814l-0.56,1.805l-0.549,1.618l-0.628,1.62
		l-0.623,1.524l-0.773,1.52l-0.771,1.424l-0.77,1.425l-0.835,1.24l-0.833,1.236l-0.83,1.149l-0.91,1.142l-0.892,0.958l-0.893,0.869
		l-1.04,0.856l-1.103,0.584l-1.028,0.582l-1.027,0.584l-1.098,0.489l-1.09,0.309l-1.082,0.212l-1.069,0.029l-1.075,0.032
		l-1.06-0.154l-1.065-0.15l-0.747-0.228l0,0C408.716,177.028,417.999,161.672,419.114,142.083z"/>
	
		<radialGradient id="SVGID_2_" cx="590.0918" cy="274.7168" r="51.0499" gradientTransform="matrix(-0.8312 -0.0473 0.0568 -0.9984 872.0781 502.5156)" gradientUnits="userSpaceOnUse">
		<stop  offset="0" style="stop-color:#FFFFFF"/>
		<stop  offset="0.91" style="stop-color:#000000"/>
	</radialGradient>
	
		<linearGradient id="SVGID_3_" gradientUnits="userSpaceOnUse" x1="615.3086" y1="668.1406" x2="660.4182" y2="668.1406" gradientTransform="matrix(-0.8312 -0.0473 0.0568 -0.9984 892.7168 838.2324)">
		<stop  offset="0.08" style="stop-color:#888888"/>
		<stop  offset="0.1" style="stop-color:#767676"/>
		<stop  offset="0.16" style="stop-color:#575757"/>
		<stop  offset="0.22" style="stop-color:#3B3B3B"/>
		<stop  offset="0.29" style="stop-color:#252525"/>
		<stop  offset="0.37" style="stop-color:#141414"/>
		<stop  offset="0.47" style="stop-color:#090909"/>
		<stop  offset="0.61" style="stop-color:#020202"/>
		<stop  offset="1" style="stop-color:#000000"/>
	</linearGradient>
	<path fill="url(#SVGID_2_)" stroke="url(#SVGID_3_)" stroke-width="0.25" stroke-miterlimit="10" d="M402.077,105.576l0.381,0.021
		c10.287,0.585,17.771,16.896,16.656,36.486c-1.115,19.589-10.398,34.944-20.685,34.359l0,0
		c-10.288-0.585-17.771-16.894-16.656-36.481C382.871,120.643,391.914,105.458,402.077,105.576z"/>
</g>
<g id="poids_2_3_">
	
		<linearGradient id="SVGID_4_" gradientUnits="userSpaceOnUse" x1="588.333" y1="327.6602" x2="593.5922" y2="348.614" gradientTransform="matrix(-0.8312 -0.0473 0.0568 -0.9984 872.0781 502.5156)">
		<stop  offset="0" style="stop-color:#000000"/>
		<stop  offset="0.1" style="stop-color:#9D9D9D"/>
		<stop  offset="0.16" style="stop-color:#C8C8C8"/>
		<stop  offset="0.22" style="stop-color:#FFFFFF"/>
		<stop  offset="0.26" style="stop-color:#C2C2C2"/>
		<stop  offset="0.31" style="stop-color:#3B3B3B"/>
		<stop  offset="0.4" style="stop-color:#252525"/>
		<stop  offset="0.52" style="stop-color:#090909"/>
		<stop  offset="0.65" style="stop-color:#020202"/>
		<stop  offset="0.96" style="stop-color:#000000"/>
	</linearGradient>
	<path fill="url(#SVGID_4_)" d="M404.305,142.691c0.373-6.575-2.138-12.05-5.591-12.247l-0.104-0.005l0.363-0.072l1.102,0.062
		l0.357,0.052l0.353,0.111l0.35,0.143l0.348,0.205l0.32,0.235l0.319,0.233l0.32,0.264l0.313,0.326l0.291,0.325l0.263,0.354
		l0.257,0.415l0.259,0.417l0.232,0.444l0.23,0.444l0.202,0.504l0.202,0.536l0.199,0.535l0.173,0.565l0.148,0.564l0.121,0.562
		l0.118,0.622l0.075,0.497l0,0c0.074,0.498,0.12,1.026,0.117,1.549c0.023,0.494,0.054,0.865,0.056,1.268l-0.033,0.582l0,0
		l-0.078,1.384l-0.063,0.643l-0.061,0.643l-0.088,0.642l-0.113,0.641l-0.137,0.609l-0.139,0.609l-0.188,0.606l-0.184,0.543
		l-0.211,0.543l-0.209,0.512l-0.259,0.51l-0.26,0.479l-0.257,0.479l-0.281,0.416l-0.28,0.415l-0.278,0.385l-0.305,0.384
		l-0.299,0.321l-0.301,0.292l-0.349,0.287l-0.371,0.196l-0.344,0.196l-0.346,0.195l-0.368,0.165l-0.366,0.103l-0.362,0.071
		l-0.359,0.01l-0.361,0.011l-0.354-0.051l-0.357-0.051l-0.252-0.076l0,0C400.814,154.421,403.931,149.267,404.305,142.691z"/>
	
		<radialGradient id="SVGID_5_" cx="592.9873" cy="312.7373" r="17.1348" gradientTransform="matrix(-0.8312 -0.0473 0.0568 -0.9984 872.0781 502.5156)" gradientUnits="userSpaceOnUse">
		<stop  offset="0" style="stop-color:#FFFFFF"/>
		<stop  offset="0.91" style="stop-color:#000000"/>
	</radialGradient>
	
		<linearGradient id="SVGID_6_" gradientUnits="userSpaceOnUse" x1="633.0264" y1="666.6914" x2="648.3337" y2="666.6914" gradientTransform="matrix(-0.8312 -0.0473 0.0568 -0.9984 892.7168 838.2324)">
		<stop  offset="0.08" style="stop-color:#888888"/>
		<stop  offset="0.1" style="stop-color:#767676"/>
		<stop  offset="0.16" style="stop-color:#575757"/>
		<stop  offset="0.22" style="stop-color:#3B3B3B"/>
		<stop  offset="0.29" style="stop-color:#252525"/>
		<stop  offset="0.37" style="stop-color:#141414"/>
		<stop  offset="0.47" style="stop-color:#090909"/>
		<stop  offset="0.61" style="stop-color:#020202"/>
		<stop  offset="1" style="stop-color:#000000"/>
	</linearGradient>
	<path fill="url(#SVGID_5_)" stroke="url(#SVGID_6_)" stroke-width="0.25" stroke-miterlimit="10" d="M398.586,130.438l0.128,0.006
		c3.453,0.197,5.964,5.672,5.591,12.247c-0.374,6.575-3.49,11.73-6.943,11.533l0,0c-3.452-0.196-5.965-5.67-5.591-12.245
		C392.14,135.495,395.175,130.398,398.586,130.438z"/>
</g>
<g id="gd_barre_haltere_2_">
	
		<linearGradient id="materiaux_barre_mil_1_" gradientUnits="userSpaceOnUse" x1="421.1641" y1="3085.4795" x2="423.3311" y2="3097.8528" gradientTransform="matrix(1.2138 -0.0801 -0.0523 -0.7927 -94.7852 2619.9497)">
		<stop  offset="0" style="stop-color:#FFFFFF"/>
		<stop  offset="0.01" style="stop-color:#E2E2E2"/>
		<stop  offset="0.02" style="stop-color:#B9B9B9"/>
		<stop  offset="0.03" style="stop-color:#949493"/>
		<stop  offset="0.05" style="stop-color:#747473"/>
		<stop  offset="0.07" style="stop-color:#595957"/>
		<stop  offset="0.09" style="stop-color:#434341"/>
		<stop  offset="0.11" style="stop-color:#323230"/>
		<stop  offset="0.14" style="stop-color:#272725"/>
		<stop  offset="0.18" style="stop-color:#20201E"/>
		<stop  offset="0.28" style="stop-color:#1E1E1C"/>
		<stop  offset="0.51" style="stop-color:#BDBDBC"/>
		<stop  offset="0.61" style="stop-color:#FFFFFF"/>
		<stop  offset="0.71" style="stop-color:#B0B0B0"/>
		<stop  offset="0.85" style="stop-color:#525252"/>
		<stop  offset="0.95" style="stop-color:#171717"/>
		<stop  offset="0.99" style="stop-color:#000000"/>
	</linearGradient>
	<path id="materiaux_barre_mil_2_" fill="url(#materiaux_barre_mil_1_)" d="M398.256,144.522c-0.097,0.31-0.551,0.571-1.018,0.603
		l-55.376-2.244l-226.351-9.342c-0.471-0.048-0.952-0.244-1.322-0.523c-1.254-1.221-1.585-2.731-0.864-4.156
		c0.849-1.434,1.747-1.955,3.964-2.176l0.932-0.061l279.132,10.8c0.473,0.043,0.842,0.327,0.86,0.632L398.256,144.522z"/>
</g>
<path fill-rule="evenodd" clip-rule="evenodd" fill="#CCCCCC" d="M153.802,92.948c0,0,4.146-5.787,21.854-1.771
	c17.709,3.974,45.958,22.849,51.788,31.056c5.831,8.25,5.357,15.203-0.949,17.492c-6.265,2.289-11.965,0.217-15.98-4.577
	c-4.018-4.795-9.72-9.028-15.335-11.058c-5.572-2.074-25.137-4.189-32.695-9.417C154.968,109.448,144.558,102.841,153.802,92.948
	L153.802,92.948z"/>
<path fill-rule="evenodd" clip-rule="evenodd" fill="#CCCCCC" d="M332.573,100.421c0,0-7.212,1.814-15.072,7.43
	c-7.905,5.615-18.185,19.781-19.782,25.354c-1.599,5.615-2.161,13.39,7.772,14.427c9.937,1.035,11.403-15.42,14.947-18.875
	c3.541-3.412,15.72-4.363,24.359-12.051C353.479,108.973,351.88,96.75,332.573,100.421L332.573,100.421z"/>
<linearGradient id="SVGID_7_" gradientUnits="userSpaceOnUse" x1="110.9648" y1="148.3335" x2="110.9648" y2="110.9866">
	<stop  offset="0" style="stop-color:#000000"/>
	<stop  offset="0.1" style="stop-color:#9D9D9D"/>
	<stop  offset="0.16" style="stop-color:#C8C8C8"/>
	<stop  offset="0.22" style="stop-color:#FFFFFF"/>
	<stop  offset="0.26" style="stop-color:#C2C2C2"/>
	<stop  offset="0.31" style="stop-color:#3B3B3B"/>
	<stop  offset="0.4" style="stop-color:#252525"/>
	<stop  offset="0.52" style="stop-color:#090909"/>
	<stop  offset="0.65" style="stop-color:#020202"/>
	<stop  offset="0.96" style="stop-color:#000000"/>
</linearGradient>
<path fill-rule="evenodd" clip-rule="evenodd" fill="url(#SVGID_7_)" d="M111.329,165.83c-1.408-0.085-2.268-16.007-1.923-35.589
	c0.343-19.584,1.785-35.42,3.193-35.336L111.329,165.83z"/>
<linearGradient id="SVGID_8_" gradientUnits="userSpaceOnUse" x1="116.9487" y1="100.6665" x2="116.9487" y2="159.4102">
	<stop  offset="0" style="stop-color:#000000"/>
	<stop  offset="0.1" style="stop-color:#9D9D9D"/>
	<stop  offset="0.16" style="stop-color:#C8C8C8"/>
	<stop  offset="0.22" style="stop-color:#FFFFFF"/>
	<stop  offset="0.26" style="stop-color:#C2C2C2"/>
	<stop  offset="0.31" style="stop-color:#3B3B3B"/>
	<stop  offset="0.4" style="stop-color:#252525"/>
	<stop  offset="0.52" style="stop-color:#090909"/>
	<stop  offset="0.65" style="stop-color:#020202"/>
	<stop  offset="0.96" style="stop-color:#000000"/>
</linearGradient>
<path fill-rule="evenodd" clip-rule="evenodd" fill="url(#SVGID_8_)" d="M120.569,94.905c1.408,0.086,2.267,16.008,1.924,35.59
	c-0.378,19.583-1.786,35.419-3.194,35.334h-7.97l1.271-70.925H120.569z"/>
</svg>
